G04*
G04 #@! TF.GenerationSoftware,Altium Limited,Altium Designer,21.0.9 (235)*
G04*
G04 Layer_Physical_Order=1*
G04 Layer_Color=255*
%FSLAX25Y25*%
%MOIN*%
G70*
G04*
G04 #@! TF.SameCoordinates,DA681587-9272-4415-864D-094138AC6A8E*
G04*
G04*
G04 #@! TF.FilePolarity,Positive*
G04*
G01*
G75*
G04:AMPARAMS|DCode=28|XSize=78.74mil|YSize=275.59mil|CornerRadius=19.68mil|HoleSize=0mil|Usage=FLASHONLY|Rotation=0.000|XOffset=0mil|YOffset=0mil|HoleType=Round|Shape=RoundedRectangle|*
%AMROUNDEDRECTD28*
21,1,0.07874,0.23622,0,0,0.0*
21,1,0.03937,0.27559,0,0,0.0*
1,1,0.03937,0.01968,-0.11811*
1,1,0.03937,-0.01968,-0.11811*
1,1,0.03937,-0.01968,0.11811*
1,1,0.03937,0.01968,0.11811*
%
%ADD28ROUNDEDRECTD28*%
%ADD29C,0.01181*%
%ADD30C,0.03937*%
%ADD31R,0.06299X0.09843*%
%ADD32O,0.06299X0.09843*%
%ADD33R,0.09843X0.06299*%
%ADD34O,0.09843X0.06299*%
%ADD35C,0.07087*%
%ADD36C,0.06299*%
%ADD37R,0.06299X0.06299*%
%ADD38R,0.07087X0.07087*%
%ADD39C,0.07874*%
%ADD40C,0.09843*%
%ADD41C,0.05512*%
%ADD42R,0.07087X0.07087*%
%ADD43C,0.04724*%
%ADD44C,0.01968*%
%ADD45C,0.03937*%
%ADD46C,0.02362*%
G36*
X156029Y333940D02*
Y333228D01*
X156164Y332201D01*
X156561Y331243D01*
X157192Y330420D01*
X158015Y329789D01*
X158595Y329549D01*
Y303954D01*
X157281Y302640D01*
X156792Y302858D01*
X156517Y303524D01*
X155958Y304082D01*
X155334Y304341D01*
Y302400D01*
X154834D01*
Y301900D01*
X152894D01*
X153152Y301276D01*
X153710Y300718D01*
X154376Y300442D01*
X154595Y299954D01*
X154479Y299838D01*
X154174Y299382D01*
X154068Y298845D01*
Y278546D01*
X153568Y278447D01*
X153439Y278757D01*
X152808Y279580D01*
X151986Y280211D01*
X151028Y280607D01*
X150000Y280743D01*
X148972Y280607D01*
X148014Y280211D01*
X147192Y279580D01*
X146561Y278757D01*
X146164Y277799D01*
X146029Y276772D01*
Y273228D01*
X146164Y272201D01*
X146561Y271243D01*
X147192Y270420D01*
X148014Y269789D01*
X148972Y269393D01*
X150000Y269257D01*
X150398Y269310D01*
X150491Y269182D01*
X150212Y268715D01*
X150000Y268743D01*
X148972Y268607D01*
X148014Y268211D01*
X147192Y267580D01*
X146561Y266757D01*
X146432Y266447D01*
X145932Y266546D01*
Y268701D01*
X145826Y269238D01*
X145521Y269694D01*
X143595Y271620D01*
X143836Y272201D01*
X143971Y273228D01*
Y276772D01*
X143836Y277799D01*
X143439Y278757D01*
X142808Y279580D01*
X141985Y280211D01*
X141028Y280607D01*
X140759Y280643D01*
X140692Y281156D01*
X141115Y281331D01*
X141379Y281595D01*
X144528D01*
X145065Y281702D01*
X145521Y282007D01*
X147915Y284401D01*
X148339Y284118D01*
X148306Y284038D01*
X149747D01*
Y285478D01*
X149667Y285445D01*
X149383Y285869D01*
X150994Y287479D01*
X151298Y287935D01*
X151405Y288472D01*
Y329549D01*
X151986Y329789D01*
X152808Y330420D01*
X153439Y331243D01*
X153836Y332201D01*
X153971Y333228D01*
Y333595D01*
X154449D01*
X154987Y333702D01*
X155442Y334007D01*
X155567Y334131D01*
X156029Y333940D01*
D02*
G37*
G36*
X39509Y302479D02*
X39965Y302174D01*
X40503Y302067D01*
X40603D01*
X40703Y301568D01*
X40393Y301439D01*
X39570Y300808D01*
X38939Y299986D01*
X38542Y299028D01*
X38407Y298000D01*
X38542Y296972D01*
X38783Y296392D01*
X36562Y294171D01*
X36257Y293715D01*
X36151Y293178D01*
Y289953D01*
X35651Y289888D01*
X35500Y290450D01*
X35006Y291306D01*
X34306Y292005D01*
X33450Y292500D01*
X32500Y292754D01*
Y289000D01*
X32000D01*
Y288500D01*
X28246D01*
X28500Y287550D01*
X28995Y286694D01*
X29694Y285995D01*
X30550Y285500D01*
X31419Y285267D01*
X31657Y284798D01*
X31088Y284229D01*
X29854D01*
X29316Y284122D01*
X28861Y283817D01*
X24934Y279890D01*
X24629Y279434D01*
X24522Y278897D01*
Y274375D01*
X23905Y273758D01*
X23405Y273965D01*
Y285720D01*
X24176Y286165D01*
X24835Y286824D01*
X25302Y287632D01*
X25543Y288533D01*
Y289467D01*
X25320Y290301D01*
X25485Y290515D01*
X25699Y290680D01*
X26533Y290457D01*
X27466D01*
X28041Y290611D01*
X28433Y290198D01*
X28246Y289500D01*
X31500D01*
Y292754D01*
X30802Y292567D01*
X30389Y292959D01*
X30543Y293533D01*
Y294466D01*
X30302Y295368D01*
X29835Y296176D01*
X29176Y296835D01*
X28802Y297051D01*
X28736Y297238D01*
X28743Y297662D01*
X32388Y301307D01*
X32467D01*
X33368Y301549D01*
X34176Y302015D01*
X34835Y302675D01*
X35302Y303483D01*
X35543Y304384D01*
Y305317D01*
X35389Y305892D01*
X35838Y306151D01*
X39509Y302479D01*
D02*
G37*
G36*
X110500Y244850D02*
X110546D01*
X111602Y245133D01*
X112548Y245679D01*
X112661Y245792D01*
X113123Y245601D01*
Y242856D01*
X105131Y234864D01*
X104631Y235071D01*
Y243944D01*
X106466Y245779D01*
X106538Y245887D01*
X107181Y245950D01*
X107452Y245679D01*
X108398Y245133D01*
X109454Y244850D01*
X109500D01*
Y249000D01*
X110500D01*
Y244850D01*
D02*
G37*
G36*
X78500Y174061D02*
X79146Y174234D01*
X79823Y174625D01*
X80375Y175177D01*
X80766Y175854D01*
X80815Y176035D01*
X81315Y175970D01*
Y164235D01*
X80815Y164169D01*
X80766Y164350D01*
X80375Y165027D01*
X79823Y165580D01*
X79146Y165971D01*
X78500Y166144D01*
Y163205D01*
Y160266D01*
X79146Y160439D01*
X79823Y160829D01*
X80375Y161382D01*
X80766Y162059D01*
X80815Y162240D01*
X81315Y162174D01*
Y124937D01*
X81410Y124218D01*
X81687Y123547D01*
X82129Y122972D01*
X83743Y121357D01*
X84319Y120916D01*
X84989Y120638D01*
X85650Y120551D01*
X86029Y120172D01*
Y117228D01*
X86164Y116201D01*
X86319Y115827D01*
X85895Y115544D01*
X76907Y124532D01*
X76451Y124837D01*
X75914Y124943D01*
X72869D01*
X71045Y126767D01*
X71232Y127288D01*
X72028Y127393D01*
X72986Y127789D01*
X73808Y128420D01*
X74439Y129243D01*
X74836Y130201D01*
X74971Y131228D01*
Y134772D01*
X74836Y135799D01*
X74439Y136757D01*
X73808Y137580D01*
X72986Y138211D01*
X72028Y138607D01*
X71000Y138743D01*
X69972Y138607D01*
X69015Y138211D01*
X68192Y137580D01*
X67905Y137205D01*
X67405Y137375D01*
Y141319D01*
X67878Y141480D01*
X68041Y141269D01*
X68907Y140604D01*
X69917Y140185D01*
X70500Y140109D01*
Y146000D01*
X71000D01*
Y146500D01*
X75185D01*
Y147772D01*
X75043Y148855D01*
X74625Y149864D01*
X73959Y150731D01*
X73093Y151396D01*
X72083Y151814D01*
X71421Y151902D01*
X71242Y152429D01*
X75647Y156835D01*
X75951Y157290D01*
X76059Y157828D01*
Y160321D01*
X76559Y160609D01*
X76854Y160439D01*
X77500Y160266D01*
Y163205D01*
Y166144D01*
X76854Y165971D01*
X76559Y165800D01*
X76059Y166089D01*
Y168347D01*
X75951Y168884D01*
X75647Y169340D01*
X74293Y170694D01*
X73967Y170912D01*
X73882Y171182D01*
X73860Y171349D01*
X73870Y171502D01*
X74439Y172243D01*
X74836Y173201D01*
X74971Y174228D01*
Y175309D01*
X75471Y175443D01*
X75625Y175177D01*
X76177Y174625D01*
X76854Y174234D01*
X77500Y174061D01*
Y177000D01*
X78500D01*
Y174061D01*
D02*
G37*
G36*
X110500Y172850D02*
X110546D01*
X111602Y173133D01*
X112224Y173493D01*
X112487Y173367D01*
X112690Y173184D01*
Y168794D01*
X106940Y163045D01*
X106382Y163194D01*
X106294Y163524D01*
X105903Y164201D01*
X105350Y164753D01*
X104673Y165144D01*
X104028Y165317D01*
Y162378D01*
X103028D01*
Y165317D01*
X102382Y165144D01*
X102086Y164973D01*
X101586Y165262D01*
Y170196D01*
X105521Y174131D01*
X105826Y174587D01*
X105877Y174843D01*
X106404Y174930D01*
X106679Y174452D01*
X107452Y173679D01*
X108398Y173133D01*
X109454Y172850D01*
X109500D01*
Y177000D01*
X110500D01*
Y172850D01*
D02*
G37*
G36*
X295Y174035D02*
X870Y173593D01*
X1541Y173315D01*
X2260Y173220D01*
X7162D01*
X7164Y173201D01*
X7561Y172243D01*
X8192Y171420D01*
X9014Y170789D01*
X9972Y170393D01*
X11000Y170257D01*
X12028Y170393D01*
X12986Y170789D01*
X13623Y171278D01*
X14123Y171042D01*
Y151709D01*
X7063D01*
Y140291D01*
X14123D01*
Y137958D01*
X13623Y137722D01*
X12986Y138211D01*
X12028Y138607D01*
X11000Y138743D01*
X9972Y138607D01*
X9014Y138211D01*
X8192Y137580D01*
X7561Y136757D01*
X7164Y135799D01*
X7162Y135780D01*
X-2126D01*
Y175802D01*
X-1664Y175993D01*
X295Y174035D01*
D02*
G37*
G36*
X222599Y350151D02*
X222600Y350151D01*
X222600Y350151D01*
X223071D01*
X223994Y349967D01*
X224864Y349607D01*
X225647Y349084D01*
X226313Y348418D01*
X226836Y347635D01*
X227197Y346765D01*
X227380Y345841D01*
Y345371D01*
X227360Y278537D01*
X227365Y278512D01*
X227361Y278486D01*
X227380Y278101D01*
X227398Y278027D01*
Y277952D01*
X227549Y277195D01*
X227587Y277102D01*
X227607Y277004D01*
X227902Y276290D01*
X227958Y276207D01*
X227997Y276114D01*
X228425Y275472D01*
X228496Y275401D01*
X228552Y275318D01*
X229098Y274772D01*
X229181Y274716D01*
X229252Y274645D01*
X229894Y274217D01*
X229987Y274178D01*
X230070Y274123D01*
X230783Y273827D01*
X230882Y273808D01*
X230975Y273769D01*
X231732Y273619D01*
X231807D01*
X231880Y273600D01*
X232266Y273581D01*
X232292Y273585D01*
X232316Y273580D01*
X233858D01*
X234422Y273468D01*
X234953Y273248D01*
X235431Y272929D01*
X235837Y272522D01*
X236156Y272044D01*
X236376Y271514D01*
X236488Y270950D01*
Y270662D01*
X236488Y99063D01*
Y98775D01*
X236376Y98212D01*
X236156Y97681D01*
X235837Y97203D01*
X235431Y96796D01*
X234953Y96477D01*
X234422Y96257D01*
X233858Y96145D01*
X232316D01*
X232292Y96140D01*
X232266Y96144D01*
X231880Y96125D01*
X231807Y96106D01*
X231732D01*
X230975Y95956D01*
X230882Y95917D01*
X230784Y95898D01*
X230070Y95603D01*
X229987Y95547D01*
X229894Y95508D01*
X229252Y95080D01*
X229181Y95009D01*
X229098Y94953D01*
X228552Y94407D01*
X228496Y94324D01*
X228425Y94253D01*
X227997Y93611D01*
X227958Y93518D01*
X227902Y93435D01*
X227607Y92721D01*
X227588Y92623D01*
X227549Y92530D01*
X227398Y91773D01*
Y91699D01*
X227380Y91627D01*
X227360Y91241D01*
X227364Y91215D01*
X227359Y91189D01*
X227359Y5079D01*
Y4679D01*
X227203Y3895D01*
X226897Y3156D01*
X226453Y2491D01*
X225887Y1926D01*
X225223Y1481D01*
X224484Y1175D01*
X223700Y1020D01*
X222581D01*
X222481Y1519D01*
X222666Y1596D01*
X223286Y2072D01*
X223762Y2692D01*
X224061Y3414D01*
X224163Y4189D01*
Y15500D01*
X219200D01*
Y16000D01*
X218700D01*
Y30805D01*
X217231D01*
X216457Y30703D01*
X215734Y30404D01*
X215114Y29928D01*
X214638Y29308D01*
X214339Y28586D01*
X213938Y28540D01*
X213834Y28578D01*
X213576Y29201D01*
X213134Y29777D01*
X212558Y30218D01*
X211888Y30496D01*
X211169Y30591D01*
X209808D01*
Y37618D01*
X211785Y39595D01*
X213621D01*
X213885Y39331D01*
X214608Y39031D01*
X215392D01*
X216115Y39331D01*
X216669Y39885D01*
X216968Y40608D01*
Y41392D01*
X216669Y42115D01*
X216128Y42656D01*
X216501Y43030D01*
X216801Y43754D01*
Y44537D01*
X216501Y45260D01*
X215948Y45814D01*
X215815Y45869D01*
Y46410D01*
X215978Y46478D01*
X216532Y47032D01*
X216832Y47755D01*
Y48538D01*
X216532Y49262D01*
X215978Y49815D01*
X215255Y50115D01*
X214472D01*
X213748Y49815D01*
X213484Y49552D01*
X211366D01*
X211175Y50014D01*
X215521Y54360D01*
X215826Y54815D01*
X215871Y55046D01*
X216287Y55120D01*
X216394Y55111D01*
X217040Y54269D01*
X217907Y53604D01*
X218917Y53185D01*
X219500Y53109D01*
Y59000D01*
Y64891D01*
X218917Y64815D01*
X217907Y64396D01*
X217040Y63731D01*
X216432Y62939D01*
X216150Y62972D01*
X215932Y63075D01*
Y82604D01*
X217490Y84161D01*
X217794Y84616D01*
X217901Y85154D01*
Y113143D01*
X218392Y113633D01*
X218972Y113393D01*
X220000Y113257D01*
X221028Y113393D01*
X221986Y113789D01*
X222808Y114420D01*
X223439Y115243D01*
X223836Y116201D01*
X223971Y117228D01*
Y120772D01*
X223836Y121799D01*
X223439Y122757D01*
X222808Y123580D01*
X221986Y124211D01*
X221028Y124607D01*
X220775Y124641D01*
Y125145D01*
X221083Y125186D01*
X222093Y125604D01*
X222959Y126269D01*
X223625Y127136D01*
X224043Y128145D01*
X224185Y129228D01*
Y130500D01*
X220000D01*
Y131000D01*
X219500D01*
Y136891D01*
X218917Y136814D01*
X217907Y136396D01*
X217377Y135990D01*
X216877Y136236D01*
Y154263D01*
X220993Y158379D01*
X221298Y158835D01*
X221405Y159372D01*
Y185549D01*
X221986Y185789D01*
X222808Y186420D01*
X223439Y187243D01*
X223836Y188201D01*
X223971Y189228D01*
Y192772D01*
X223836Y193799D01*
X223439Y194757D01*
X222808Y195580D01*
X221986Y196211D01*
X221028Y196607D01*
X220775Y196641D01*
Y197145D01*
X221083Y197186D01*
X222093Y197604D01*
X222959Y198269D01*
X223625Y199136D01*
X224043Y200145D01*
X224185Y201228D01*
Y202500D01*
X220000D01*
Y203000D01*
X219500D01*
Y208891D01*
X218917Y208815D01*
X217907Y208396D01*
X217377Y207990D01*
X216877Y208236D01*
Y226263D01*
X220993Y230379D01*
X221298Y230835D01*
X221405Y231372D01*
Y257549D01*
X221986Y257789D01*
X222808Y258420D01*
X223439Y259243D01*
X223836Y260201D01*
X223971Y261228D01*
Y264772D01*
X223836Y265799D01*
X223439Y266757D01*
X222808Y267580D01*
X221986Y268211D01*
X221028Y268607D01*
X220775Y268641D01*
Y269145D01*
X221083Y269185D01*
X222093Y269604D01*
X222959Y270269D01*
X223625Y271136D01*
X224043Y272145D01*
X224185Y273228D01*
Y274500D01*
X220000D01*
Y275000D01*
X219500D01*
Y280891D01*
X218917Y280815D01*
X217907Y280396D01*
X217377Y279990D01*
X216877Y280236D01*
Y298263D01*
X220993Y302379D01*
X221298Y302835D01*
X221405Y303372D01*
Y329549D01*
X221986Y329789D01*
X222808Y330420D01*
X223439Y331243D01*
X223836Y332201D01*
X223971Y333228D01*
Y336772D01*
X223836Y337799D01*
X223439Y338757D01*
X222808Y339580D01*
X221986Y340211D01*
X221028Y340607D01*
X220000Y340743D01*
X218972Y340607D01*
X218015Y340211D01*
X217192Y339580D01*
X216561Y338757D01*
X216164Y337799D01*
X216029Y336772D01*
Y333228D01*
X216164Y332201D01*
X216561Y331243D01*
X217192Y330420D01*
X218015Y329789D01*
X218595Y329549D01*
Y303954D01*
X214479Y299838D01*
X214174Y299382D01*
X214068Y298845D01*
Y278546D01*
X213567Y278447D01*
X213439Y278757D01*
X212808Y279580D01*
X211985Y280211D01*
X211028Y280607D01*
X210000Y280743D01*
X208972Y280607D01*
X208014Y280211D01*
X207377Y279722D01*
X206877Y279958D01*
Y298263D01*
X210993Y302379D01*
X211298Y302835D01*
X211405Y303372D01*
Y329549D01*
X211985Y329789D01*
X212808Y330420D01*
X213439Y331243D01*
X213836Y332201D01*
X213971Y333228D01*
Y336772D01*
X213836Y337799D01*
X213439Y338757D01*
X212808Y339580D01*
X211985Y340211D01*
X211028Y340607D01*
X210000Y340743D01*
X208972Y340607D01*
X208014Y340211D01*
X207192Y339580D01*
X206561Y338757D01*
X206164Y337799D01*
X206029Y336772D01*
Y333228D01*
X206164Y332201D01*
X206561Y331243D01*
X207192Y330420D01*
X208014Y329789D01*
X208595Y329549D01*
Y303954D01*
X204479Y299838D01*
X204174Y299382D01*
X204067Y298845D01*
Y278546D01*
X203568Y278447D01*
X203439Y278757D01*
X202808Y279580D01*
X201986Y280211D01*
X201028Y280607D01*
X200000Y280743D01*
X198972Y280607D01*
X198014Y280211D01*
X197377Y279722D01*
X196877Y279958D01*
Y293889D01*
X201915Y298927D01*
X202219Y299382D01*
X202326Y299920D01*
Y323039D01*
X202219Y323576D01*
X201915Y324032D01*
X201405Y324542D01*
Y329549D01*
X201986Y329789D01*
X202808Y330420D01*
X203439Y331243D01*
X203836Y332201D01*
X203971Y333228D01*
Y336772D01*
X203836Y337799D01*
X203439Y338757D01*
X202808Y339580D01*
X201986Y340211D01*
X201028Y340607D01*
X200000Y340743D01*
X198972Y340607D01*
X198014Y340211D01*
X197192Y339580D01*
X196561Y338757D01*
X196164Y337799D01*
X196029Y336772D01*
Y333228D01*
X196164Y332201D01*
X196561Y331243D01*
X197192Y330420D01*
X198014Y329789D01*
X198595Y329549D01*
Y325002D01*
X198162Y324752D01*
X197672Y325036D01*
X196570Y325331D01*
X195430D01*
X194328Y325036D01*
X193341Y324465D01*
X192535Y323659D01*
X191964Y322672D01*
X191905Y322450D01*
X191405Y322515D01*
Y329549D01*
X191985Y329789D01*
X192808Y330420D01*
X193439Y331243D01*
X193836Y332201D01*
X193971Y333228D01*
Y336772D01*
X193836Y337799D01*
X193439Y338757D01*
X192808Y339580D01*
X191985Y340211D01*
X191028Y340607D01*
X190000Y340743D01*
X188972Y340607D01*
X188014Y340211D01*
X187192Y339580D01*
X186561Y338757D01*
X186164Y337799D01*
X186029Y336772D01*
Y333228D01*
X186164Y332201D01*
X186561Y331243D01*
X187192Y330420D01*
X188014Y329789D01*
X188595Y329549D01*
Y303954D01*
X184479Y299838D01*
X184174Y299382D01*
X184067Y298845D01*
Y278546D01*
X183568Y278447D01*
X183439Y278757D01*
X182808Y279580D01*
X181985Y280211D01*
X181028Y280607D01*
X180000Y280743D01*
X178972Y280607D01*
X178015Y280211D01*
X177377Y279722D01*
X176877Y279958D01*
Y298263D01*
X180993Y302379D01*
X181298Y302835D01*
X181405Y303372D01*
Y329549D01*
X181985Y329789D01*
X182808Y330420D01*
X183439Y331243D01*
X183836Y332201D01*
X183971Y333228D01*
Y336772D01*
X183836Y337799D01*
X183439Y338757D01*
X182808Y339580D01*
X181985Y340211D01*
X181028Y340607D01*
X180000Y340743D01*
X178972Y340607D01*
X178015Y340211D01*
X177192Y339580D01*
X176561Y338757D01*
X176164Y337799D01*
X176029Y336772D01*
Y333228D01*
X176164Y332201D01*
X176561Y331243D01*
X177192Y330420D01*
X178015Y329789D01*
X178595Y329549D01*
Y303954D01*
X174479Y299838D01*
X174174Y299382D01*
X174067Y298845D01*
Y278546D01*
X173567Y278447D01*
X173439Y278757D01*
X172808Y279580D01*
X171985Y280211D01*
X171028Y280607D01*
X170000Y280743D01*
X168972Y280607D01*
X168015Y280211D01*
X167192Y279580D01*
X166561Y278757D01*
X166164Y277799D01*
X166029Y276772D01*
Y273228D01*
X166164Y272201D01*
X166561Y271243D01*
X167192Y270420D01*
X168015Y269789D01*
X168972Y269393D01*
X170000Y269257D01*
X170398Y269310D01*
X170491Y269182D01*
X170212Y268715D01*
X170000Y268743D01*
X168972Y268607D01*
X168015Y268211D01*
X167192Y267580D01*
X166561Y266757D01*
X166432Y266447D01*
X165933Y266546D01*
Y268701D01*
X165826Y269238D01*
X165521Y269694D01*
X163595Y271620D01*
X163836Y272201D01*
X163971Y273228D01*
Y276772D01*
X163836Y277799D01*
X163439Y278757D01*
X162808Y279580D01*
X161986Y280211D01*
X161028Y280607D01*
X160000Y280743D01*
X158972Y280607D01*
X158015Y280211D01*
X157377Y279722D01*
X156877Y279958D01*
Y298263D01*
X160994Y302379D01*
X161298Y302835D01*
X161405Y303372D01*
Y306485D01*
X161905Y306550D01*
X161964Y306328D01*
X162535Y305341D01*
X163341Y304535D01*
X164328Y303964D01*
X165430Y303669D01*
X166570D01*
X167672Y303964D01*
X168659Y304535D01*
X169465Y305341D01*
X170036Y306328D01*
X170331Y307430D01*
Y308570D01*
X170036Y309672D01*
X169465Y310659D01*
X168659Y311465D01*
X167672Y312036D01*
X166570Y312331D01*
X165430D01*
X164328Y312036D01*
X163341Y311465D01*
X162535Y310659D01*
X161964Y309672D01*
X161905Y309450D01*
X161405Y309515D01*
Y319485D01*
X161905Y319550D01*
X161964Y319328D01*
X162535Y318341D01*
X163341Y317535D01*
X164328Y316964D01*
X165430Y316669D01*
X166570D01*
X167672Y316964D01*
X168659Y317535D01*
X169465Y318341D01*
X170036Y319328D01*
X170331Y320430D01*
Y321570D01*
X170036Y322672D01*
X169465Y323659D01*
X168659Y324465D01*
X167672Y325036D01*
X166570Y325331D01*
X165430D01*
X164328Y325036D01*
X163341Y324465D01*
X162535Y323659D01*
X161964Y322672D01*
X161905Y322450D01*
X161405Y322515D01*
Y329549D01*
X161986Y329789D01*
X162808Y330420D01*
X163439Y331243D01*
X163836Y332201D01*
X163971Y333228D01*
Y333940D01*
X164433Y334131D01*
X164558Y334007D01*
X165014Y333702D01*
X165551Y333595D01*
X166029D01*
Y333228D01*
X166164Y332201D01*
X166561Y331243D01*
X167192Y330420D01*
X168015Y329789D01*
X168972Y329393D01*
X170000Y329257D01*
X171028Y329393D01*
X171985Y329789D01*
X172808Y330420D01*
X173439Y331243D01*
X173836Y332201D01*
X173971Y333228D01*
Y336772D01*
X173836Y337799D01*
X173439Y338757D01*
X172808Y339580D01*
X171985Y340211D01*
X171028Y340607D01*
X170000Y340743D01*
X168972Y340607D01*
X168015Y340211D01*
X167192Y339580D01*
X166561Y338757D01*
X166432Y338447D01*
X165933Y338546D01*
Y338647D01*
X165826Y339185D01*
X165521Y339640D01*
X162869Y342293D01*
X162413Y342597D01*
X161875Y342704D01*
X158125D01*
X157587Y342597D01*
X157131Y342293D01*
X154479Y339640D01*
X154174Y339185D01*
X154068Y338647D01*
Y338546D01*
X153568Y338447D01*
X153439Y338757D01*
X152808Y339580D01*
X151986Y340211D01*
X151028Y340607D01*
X150000Y340743D01*
X148972Y340607D01*
X148014Y340211D01*
X147192Y339580D01*
X146561Y338757D01*
X146164Y337799D01*
X146029Y336772D01*
Y333228D01*
X146164Y332201D01*
X146561Y331243D01*
X147192Y330420D01*
X148014Y329789D01*
X148595Y329549D01*
Y289054D01*
X143946Y284405D01*
X141379D01*
X141115Y284669D01*
X140392Y284968D01*
X139608D01*
X138885Y284669D01*
X138331Y284115D01*
X138031Y283392D01*
Y282608D01*
X138331Y281885D01*
X138885Y281331D01*
X139308Y281156D01*
X139241Y280643D01*
X138972Y280607D01*
X138014Y280211D01*
X137377Y279722D01*
X136877Y279958D01*
Y298263D01*
X140993Y302379D01*
X141298Y302835D01*
X141405Y303372D01*
Y329549D01*
X141985Y329789D01*
X142808Y330420D01*
X143439Y331243D01*
X143836Y332201D01*
X143971Y333228D01*
Y336772D01*
X143836Y337799D01*
X143439Y338757D01*
X142808Y339580D01*
X141985Y340211D01*
X141028Y340607D01*
X140000Y340743D01*
X138972Y340607D01*
X138014Y340211D01*
X137192Y339580D01*
X136561Y338757D01*
X136164Y337799D01*
X136029Y336772D01*
Y333228D01*
X136164Y332201D01*
X136561Y331243D01*
X137192Y330420D01*
X138014Y329789D01*
X138595Y329549D01*
Y303954D01*
X134831Y300190D01*
X134331Y300397D01*
Y300570D01*
X134036Y301672D01*
X133741Y302182D01*
X133819Y302365D01*
X133831Y302379D01*
Y304127D01*
X132244D01*
X131954Y303872D01*
X131672Y304036D01*
X130570Y304331D01*
X129430D01*
X128328Y304036D01*
X127341Y303465D01*
X126984Y303108D01*
X126484Y303315D01*
Y311370D01*
X130993Y315880D01*
X131298Y316336D01*
X131405Y316873D01*
Y329549D01*
X131985Y329789D01*
X132808Y330420D01*
X133439Y331243D01*
X133836Y332201D01*
X133971Y333228D01*
Y336772D01*
X133836Y337799D01*
X133439Y338757D01*
X132808Y339580D01*
X131985Y340211D01*
X131028Y340607D01*
X130000Y340743D01*
X128972Y340607D01*
X128015Y340211D01*
X127192Y339580D01*
X126561Y338757D01*
X126164Y337799D01*
X126029Y336772D01*
Y333228D01*
X126164Y332201D01*
X126561Y331243D01*
X127192Y330420D01*
X128015Y329789D01*
X128595Y329549D01*
Y317455D01*
X124085Y312946D01*
X123781Y312490D01*
X123674Y311952D01*
Y292158D01*
X123174Y291951D01*
X122659Y292465D01*
X121672Y293036D01*
X120570Y293331D01*
X119430D01*
X118328Y293036D01*
X117341Y292465D01*
X116984Y292108D01*
X116484Y292315D01*
Y305870D01*
X120993Y310380D01*
X121298Y310836D01*
X121405Y311373D01*
Y329549D01*
X121985Y329789D01*
X122808Y330420D01*
X123439Y331243D01*
X123836Y332201D01*
X123971Y333228D01*
Y336772D01*
X123836Y337799D01*
X123439Y338757D01*
X122808Y339580D01*
X121985Y340211D01*
X121028Y340607D01*
X120000Y340743D01*
X118972Y340607D01*
X118015Y340211D01*
X117192Y339580D01*
X116561Y338757D01*
X116164Y337799D01*
X116029Y336772D01*
Y333228D01*
X116164Y332201D01*
X116561Y331243D01*
X117192Y330420D01*
X118015Y329789D01*
X118595Y329549D01*
Y311955D01*
X114085Y307446D01*
X113781Y306990D01*
X113674Y306452D01*
Y279272D01*
X113174Y279103D01*
X112808Y279580D01*
X111986Y280211D01*
X111028Y280607D01*
X110000Y280743D01*
X108972Y280607D01*
X108015Y280211D01*
X107377Y279722D01*
X106877Y279958D01*
Y298623D01*
X106932Y298900D01*
Y318746D01*
X107432Y318880D01*
X107679Y318452D01*
X108452Y317680D01*
X109398Y317133D01*
X110454Y316850D01*
X110500D01*
Y321000D01*
X111000D01*
Y321500D01*
X115150D01*
Y321546D01*
X114867Y322602D01*
X114321Y323548D01*
X113548Y324321D01*
X112602Y324867D01*
X111546Y325150D01*
X111421D01*
X111154Y325650D01*
X111298Y325865D01*
X111405Y326403D01*
Y329549D01*
X111986Y329789D01*
X112808Y330420D01*
X113439Y331243D01*
X113836Y332201D01*
X113971Y333228D01*
Y336772D01*
X113836Y337799D01*
X113439Y338757D01*
X112808Y339580D01*
X111986Y340211D01*
X111028Y340607D01*
X110000Y340743D01*
X108972Y340607D01*
X108015Y340211D01*
X107192Y339580D01*
X106561Y338757D01*
X106164Y337799D01*
X106029Y336772D01*
Y333228D01*
X106164Y332201D01*
X106561Y331243D01*
X107192Y330420D01*
X108015Y329789D01*
X108595Y329549D01*
Y326985D01*
X104838Y323227D01*
X104213Y323310D01*
X104150Y323417D01*
X103417Y324150D01*
X102520Y324669D01*
X101518Y324937D01*
X101174D01*
X101059Y325216D01*
X101012Y325437D01*
X101298Y325865D01*
X101405Y326403D01*
Y329549D01*
X101986Y329789D01*
X102808Y330420D01*
X103439Y331243D01*
X103836Y332201D01*
X103971Y333228D01*
Y336772D01*
X103836Y337799D01*
X103439Y338757D01*
X102808Y339580D01*
X101986Y340211D01*
X101028Y340607D01*
X100000Y340743D01*
X98972Y340607D01*
X98014Y340211D01*
X97192Y339580D01*
X96561Y338757D01*
X96164Y337799D01*
X96029Y336772D01*
Y333228D01*
X96164Y332201D01*
X96561Y331243D01*
X97192Y330420D01*
X98014Y329789D01*
X98595Y329549D01*
Y326985D01*
X94085Y322475D01*
X93781Y322019D01*
X93674Y321482D01*
Y280709D01*
X88325D01*
X88133Y281171D01*
X91966Y285003D01*
X92407Y285578D01*
X92685Y286249D01*
X92780Y286968D01*
Y330399D01*
X92808Y330420D01*
X93439Y331243D01*
X93836Y332201D01*
X93971Y333228D01*
Y336772D01*
X93836Y337799D01*
X93439Y338757D01*
X92808Y339580D01*
X91985Y340211D01*
X91028Y340607D01*
X90000Y340743D01*
X89023Y340614D01*
X88852Y340685D01*
X88132Y340780D01*
X78751D01*
X78729Y340808D01*
X77907Y341439D01*
X76949Y341836D01*
X75921Y341971D01*
X72378D01*
X71350Y341836D01*
X70393Y341439D01*
X69570Y340808D01*
X69202Y340328D01*
X65398D01*
X64679Y340233D01*
X64009Y339955D01*
X63433Y339513D01*
X62242Y338322D01*
X61780Y338514D01*
Y345000D01*
X61756Y345181D01*
Y345363D01*
X61709Y345539D01*
X61685Y345719D01*
X61615Y345888D01*
X61568Y346064D01*
X61477Y346221D01*
X61407Y346390D01*
X61296Y346534D01*
X61205Y346692D01*
X61076Y346821D01*
X60966Y346966D01*
X60821Y347076D01*
X60692Y347205D01*
X60534Y347296D01*
X60390Y347407D01*
X60222Y347477D01*
X60064Y347568D01*
X59888Y347615D01*
X59719Y347685D01*
X59539Y347709D01*
X59363Y347756D01*
X59181D01*
X59000Y347780D01*
X58819Y347756D01*
X58637D01*
X58461Y347709D01*
X58281Y347685D01*
X58112Y347615D01*
X57936Y347568D01*
X57778Y347477D01*
X57610Y347407D01*
X57466Y347296D01*
X57308Y347205D01*
X57179Y347076D01*
X57034Y346966D01*
X56924Y346821D01*
X56795Y346692D01*
X56704Y346534D01*
X56593Y346390D01*
X56523Y346221D01*
X56432Y346064D01*
X56385Y345888D01*
X56315Y345719D01*
X56291Y345539D01*
X56244Y345363D01*
Y345181D01*
X56220Y345000D01*
Y333938D01*
X55850Y333567D01*
X55331Y332669D01*
X55063Y331668D01*
Y330631D01*
X55331Y329630D01*
X55850Y328732D01*
X56583Y327999D01*
X57480Y327481D01*
X58482Y327213D01*
X59518D01*
X60520Y327481D01*
X61417Y327999D01*
X62150Y328732D01*
X62669Y329630D01*
X62937Y330631D01*
Y331155D01*
X66550Y334768D01*
X70122D01*
X70393Y334561D01*
X71350Y334164D01*
X72378Y334029D01*
X75921D01*
X76949Y334164D01*
X77907Y334561D01*
X78729Y335192D01*
X78751Y335220D01*
X86029D01*
Y333228D01*
X86164Y332201D01*
X86561Y331243D01*
X87192Y330420D01*
X87220Y330399D01*
Y288120D01*
X82129Y283028D01*
X81687Y282453D01*
X81410Y281782D01*
X81389Y281629D01*
X80861Y281450D01*
X78790Y283521D01*
X78334Y283826D01*
X77797Y283932D01*
X77696D01*
X77596Y284433D01*
X77907Y284561D01*
X78729Y285192D01*
X79360Y286015D01*
X79757Y286972D01*
X79892Y288000D01*
X79757Y289028D01*
X79360Y289985D01*
X78729Y290808D01*
X77907Y291439D01*
X76949Y291836D01*
X75921Y291971D01*
X72378D01*
X71350Y291836D01*
X70393Y291439D01*
X69570Y290808D01*
X68939Y289985D01*
X68542Y289028D01*
X68407Y288000D01*
X68542Y286972D01*
X68939Y286015D01*
X69570Y285192D01*
X70393Y284561D01*
X71350Y284164D01*
X72378Y284029D01*
X72745D01*
Y283551D01*
X72852Y283014D01*
X73156Y282558D01*
X73281Y282433D01*
X73090Y281971D01*
X72378D01*
X71350Y281836D01*
X70393Y281439D01*
X69570Y280808D01*
X68939Y279985D01*
X68542Y279028D01*
X68407Y278000D01*
X68542Y276972D01*
X68939Y276014D01*
X69570Y275192D01*
X70393Y274561D01*
X71350Y274164D01*
X72378Y274029D01*
X75921D01*
X76949Y274164D01*
X77907Y274561D01*
X78729Y275192D01*
X78870Y275375D01*
X79343Y275214D01*
Y188102D01*
X72608Y181367D01*
X72028Y181607D01*
X71000Y181743D01*
X69972Y181607D01*
X69015Y181211D01*
X68192Y180580D01*
X68147Y180521D01*
X67532Y180541D01*
X67466Y180640D01*
X64499Y183608D01*
X64043Y183912D01*
X63746Y183971D01*
X63622Y184506D01*
X63808Y184649D01*
X64439Y185471D01*
X64836Y186429D01*
X64971Y187457D01*
Y191000D01*
X64836Y192028D01*
X64439Y192985D01*
X63808Y193808D01*
X62985Y194439D01*
X62028Y194836D01*
X61000Y194971D01*
X59972Y194836D01*
X59014Y194439D01*
X58377Y193950D01*
X57877Y194187D01*
Y196677D01*
X57770Y197215D01*
X57466Y197671D01*
X56118Y199018D01*
Y199392D01*
X55818Y200115D01*
X55265Y200669D01*
X54541Y200969D01*
X53758D01*
X53035Y200669D01*
X52481Y200115D01*
X52181Y199392D01*
Y198608D01*
X52481Y197885D01*
X53035Y197331D01*
X53758Y197031D01*
X54131D01*
X55067Y196095D01*
Y192775D01*
X54567Y192675D01*
X54439Y192985D01*
X53808Y193808D01*
X52986Y194439D01*
X52028Y194836D01*
X51000Y194971D01*
X49972Y194836D01*
X49014Y194439D01*
X48192Y193808D01*
X47561Y192985D01*
X47164Y192028D01*
X47029Y191000D01*
Y187457D01*
X47164Y186429D01*
X47305Y186088D01*
X47028Y185673D01*
X45064D01*
X44721Y186152D01*
X44836Y186429D01*
X44971Y187457D01*
Y191000D01*
X44836Y192028D01*
X44439Y192985D01*
X43808Y193808D01*
X42985Y194439D01*
X42028Y194836D01*
X41000Y194971D01*
X39972Y194836D01*
X39015Y194439D01*
X38192Y193808D01*
X37561Y192985D01*
X37164Y192028D01*
X37029Y191000D01*
Y190288D01*
X36567Y190097D01*
X36442Y190222D01*
X35987Y190526D01*
X35449Y190633D01*
X34971D01*
Y191000D01*
X34836Y192028D01*
X34439Y192985D01*
X33808Y193808D01*
X32985Y194439D01*
X32028Y194836D01*
X31000Y194971D01*
X29972Y194836D01*
X29015Y194439D01*
X28192Y193808D01*
X27561Y192985D01*
X27164Y192028D01*
X27029Y191000D01*
Y187457D01*
X27164Y186429D01*
X27561Y185471D01*
X28192Y184649D01*
X29015Y184018D01*
X29972Y183621D01*
X31000Y183486D01*
X32028Y183621D01*
X32985Y184018D01*
X33808Y184649D01*
X34439Y185471D01*
X34567Y185782D01*
X35067Y185682D01*
Y185581D01*
X35174Y185044D01*
X35479Y184588D01*
X38568Y181499D01*
X38583Y180879D01*
X38192Y180580D01*
X37561Y179757D01*
X37164Y178799D01*
X37029Y177772D01*
Y174228D01*
X37164Y173201D01*
X37561Y172243D01*
X38050Y171606D01*
X37813Y171106D01*
X36110D01*
X34595Y172620D01*
X34836Y173201D01*
X34971Y174228D01*
Y177772D01*
X34836Y178799D01*
X34439Y179757D01*
X33808Y180580D01*
X32985Y181211D01*
X32028Y181607D01*
X31000Y181743D01*
X29972Y181607D01*
X29015Y181211D01*
X28192Y180580D01*
X27561Y179757D01*
X27164Y178799D01*
X27029Y177772D01*
Y174228D01*
X27164Y173201D01*
X27561Y172243D01*
X28192Y171420D01*
X29015Y170789D01*
X29972Y170393D01*
X31000Y170257D01*
X32028Y170393D01*
X32608Y170633D01*
X34534Y168707D01*
X34990Y168403D01*
X35528Y168296D01*
X62875D01*
X63413Y168403D01*
X63629Y168547D01*
X64296Y168271D01*
X65079D01*
X65803Y168570D01*
X66357Y169124D01*
X66547Y169584D01*
X67118Y169720D01*
X68131Y168707D01*
X68587Y168403D01*
X69125Y168296D01*
X72452D01*
X72487Y168232D01*
X72188Y167732D01*
X71703D01*
X70979Y167433D01*
X70426Y166879D01*
X70126Y166155D01*
Y165372D01*
X70426Y164649D01*
X70872Y164203D01*
Y159630D01*
X62608Y151367D01*
X62028Y151607D01*
X61000Y151743D01*
X59972Y151607D01*
X59014Y151211D01*
X58192Y150580D01*
X57561Y149757D01*
X57164Y148799D01*
X57029Y147772D01*
Y144228D01*
X57164Y143201D01*
X57561Y142243D01*
X58192Y141420D01*
X59014Y140789D01*
X59972Y140393D01*
X61000Y140257D01*
X62028Y140393D01*
X62985Y140789D01*
X63808Y141420D01*
X64095Y141795D01*
X64595Y141625D01*
Y137375D01*
X64095Y137205D01*
X63808Y137580D01*
X62985Y138211D01*
X62028Y138607D01*
X61000Y138743D01*
X59972Y138607D01*
X59014Y138211D01*
X58192Y137580D01*
X57561Y136757D01*
X57164Y135799D01*
X57029Y134772D01*
Y131228D01*
X57164Y130201D01*
X57561Y129243D01*
X58192Y128420D01*
X59014Y127789D01*
X59972Y127393D01*
X61000Y127257D01*
X62028Y127393D01*
X62985Y127789D01*
X63808Y128420D01*
X64281Y129037D01*
X64840Y129045D01*
X64876Y129027D01*
X65007Y128832D01*
X71293Y122545D01*
X71749Y122240D01*
X72287Y122134D01*
X75332D01*
X83181Y114284D01*
X83064Y113694D01*
X82801Y113585D01*
X82248Y113031D01*
X81948Y112308D01*
Y111525D01*
X82248Y110801D01*
X82512Y110538D01*
Y80829D01*
X82261Y80454D01*
X82154Y79917D01*
Y60570D01*
X81654Y60362D01*
X81334Y60682D01*
X80710Y60941D01*
Y59000D01*
Y57059D01*
X81334Y57318D01*
X81654Y57638D01*
X82154Y57430D01*
Y55194D01*
X81654Y54860D01*
X81392Y54969D01*
X80608D01*
X79885Y54669D01*
X79621Y54405D01*
X73690D01*
X73520Y54905D01*
X73994Y55269D01*
X74659Y56136D01*
X75077Y57145D01*
X75220Y58228D01*
Y59500D01*
X71035D01*
Y60000D01*
X70535D01*
Y65891D01*
X69951Y65815D01*
X68942Y65396D01*
X68412Y64990D01*
X67912Y65236D01*
Y72891D01*
X71053Y76032D01*
X71426D01*
X72150Y76331D01*
X72610Y76791D01*
X73069Y76331D01*
X73793Y76032D01*
X74576D01*
X75299Y76331D01*
X75853Y76885D01*
X76153Y77608D01*
Y77982D01*
X76556Y78385D01*
X76860Y78840D01*
X76967Y79378D01*
Y93647D01*
X76860Y94185D01*
X76556Y94640D01*
X73732Y97464D01*
X73736Y98097D01*
X73959Y98269D01*
X74625Y99136D01*
X75043Y100145D01*
X75185Y101228D01*
Y102500D01*
X71000D01*
Y103000D01*
X70500D01*
Y108891D01*
X69917Y108815D01*
X68907Y108396D01*
X68041Y107731D01*
X67394Y106889D01*
X67287Y106880D01*
X66871Y106954D01*
X66826Y107185D01*
X66521Y107641D01*
X63869Y110293D01*
X63413Y110597D01*
X62875Y110704D01*
X59125D01*
X58587Y110597D01*
X58131Y110293D01*
X55108Y107269D01*
X54896Y106953D01*
X54805Y106914D01*
X54454Y106887D01*
X54317Y106917D01*
X53808Y107580D01*
X52986Y108211D01*
X52028Y108607D01*
X51000Y108743D01*
X49972Y108607D01*
X49014Y108211D01*
X48192Y107580D01*
X47561Y106757D01*
X47164Y105799D01*
X47029Y104772D01*
Y101228D01*
X47164Y100201D01*
X47561Y99243D01*
X48050Y98606D01*
X47813Y98106D01*
X46110D01*
X44595Y99620D01*
X44836Y100201D01*
X44971Y101228D01*
Y104772D01*
X44836Y105799D01*
X44439Y106757D01*
X43808Y107580D01*
X42985Y108211D01*
X42028Y108607D01*
X41000Y108743D01*
X39972Y108607D01*
X39015Y108211D01*
X38377Y107722D01*
X37877Y107958D01*
Y120863D01*
X37770Y121400D01*
X37466Y121856D01*
X36889Y122432D01*
X37097Y122932D01*
X37199D01*
X37954Y123135D01*
X38631Y123526D01*
X39184Y124078D01*
X39574Y124755D01*
X39747Y125401D01*
X36808D01*
Y126401D01*
X39747D01*
X39584Y127013D01*
X39683Y127170D01*
X39903Y127421D01*
X39972Y127393D01*
X41000Y127257D01*
X42028Y127393D01*
X42985Y127789D01*
X43808Y128420D01*
X44439Y129243D01*
X44836Y130201D01*
X44971Y131228D01*
Y134772D01*
X44836Y135799D01*
X44439Y136757D01*
X43808Y137580D01*
X42985Y138211D01*
X42028Y138607D01*
X41000Y138743D01*
X39972Y138607D01*
X39015Y138211D01*
X38192Y137580D01*
X37561Y136757D01*
X37433Y136447D01*
X36933Y136546D01*
Y139701D01*
X36826Y140238D01*
X36521Y140694D01*
X34595Y142620D01*
X34836Y143201D01*
X34971Y144228D01*
Y147772D01*
X34836Y148799D01*
X34439Y149757D01*
X33808Y150580D01*
X32985Y151211D01*
X32028Y151607D01*
X31000Y151743D01*
X29972Y151607D01*
X29015Y151211D01*
X28192Y150580D01*
X27561Y149757D01*
X27164Y148799D01*
X27029Y147772D01*
Y144228D01*
X27164Y143201D01*
X27561Y142243D01*
X28192Y141420D01*
X29015Y140789D01*
X29972Y140393D01*
X31000Y140257D01*
X32028Y140393D01*
X32608Y140633D01*
X34123Y139119D01*
Y137958D01*
X33623Y137722D01*
X32985Y138211D01*
X32028Y138607D01*
X31000Y138743D01*
X29972Y138607D01*
X29015Y138211D01*
X28192Y137580D01*
X27561Y136757D01*
X27164Y135799D01*
X27029Y134772D01*
Y131228D01*
X27164Y130201D01*
X27561Y129243D01*
X28192Y128420D01*
X29015Y127789D01*
X29972Y127393D01*
X31000Y127257D01*
X31576Y127333D01*
X32057Y126892D01*
Y123873D01*
X32164Y123336D01*
X32468Y122880D01*
X33317Y122031D01*
X33010Y121631D01*
X32602Y121867D01*
X31546Y122150D01*
X31500D01*
Y118000D01*
Y113850D01*
X31546D01*
X32602Y114133D01*
X33548Y114680D01*
X34321Y115452D01*
X34567Y115880D01*
X35067Y115746D01*
Y106546D01*
X34567Y106447D01*
X34439Y106757D01*
X33808Y107580D01*
X32985Y108211D01*
X32028Y108607D01*
X31000Y108743D01*
X29972Y108607D01*
X29015Y108211D01*
X28192Y107580D01*
X27830Y107107D01*
X27330Y107277D01*
Y115095D01*
X27830Y115302D01*
X28452Y114680D01*
X29398Y114133D01*
X30454Y113850D01*
X30500D01*
Y118000D01*
Y122150D01*
X30454D01*
X29398Y121867D01*
X28452Y121320D01*
X27679Y120548D01*
X27582Y120379D01*
X26993Y120359D01*
X26918Y120472D01*
X20551Y126839D01*
X20772Y127287D01*
X21000Y127257D01*
X22028Y127393D01*
X22986Y127789D01*
X23808Y128420D01*
X24439Y129243D01*
X24836Y130201D01*
X24971Y131228D01*
Y134772D01*
X24836Y135799D01*
X24439Y136757D01*
X23808Y137580D01*
X22986Y138211D01*
X22405Y138451D01*
Y140549D01*
X22986Y140789D01*
X23808Y141420D01*
X24439Y142243D01*
X24836Y143201D01*
X24971Y144228D01*
Y147772D01*
X24836Y148799D01*
X24439Y149757D01*
X23808Y150580D01*
X22986Y151211D01*
X22028Y151607D01*
X21000Y151743D01*
X19972Y151607D01*
X19015Y151211D01*
X18192Y150580D01*
X17561Y149757D01*
X17433Y149447D01*
X16932Y149546D01*
Y172454D01*
X17433Y172553D01*
X17561Y172243D01*
X18192Y171420D01*
X19015Y170789D01*
X19972Y170393D01*
X21000Y170257D01*
X22028Y170393D01*
X22986Y170789D01*
X23808Y171420D01*
X24439Y172243D01*
X24836Y173201D01*
X24971Y174228D01*
Y177772D01*
X24836Y178799D01*
X24439Y179757D01*
X23808Y180580D01*
X22986Y181211D01*
X22028Y181607D01*
X21000Y181743D01*
X19972Y181607D01*
X19015Y181211D01*
X18192Y180580D01*
X17561Y179757D01*
X17433Y179447D01*
X16932Y179546D01*
Y185682D01*
X17433Y185782D01*
X17561Y185471D01*
X18192Y184649D01*
X19015Y184018D01*
X19972Y183621D01*
X21000Y183486D01*
X22028Y183621D01*
X22986Y184018D01*
X23808Y184649D01*
X24439Y185471D01*
X24836Y186429D01*
X24971Y187457D01*
Y191000D01*
X24836Y192028D01*
X24439Y192985D01*
X23808Y193808D01*
X22986Y194439D01*
X22028Y194836D01*
X21000Y194971D01*
X19972Y194836D01*
X19015Y194439D01*
X18192Y193808D01*
X17561Y192985D01*
X17433Y192675D01*
X16932Y192775D01*
Y201746D01*
X17433Y201880D01*
X17680Y201452D01*
X18452Y200679D01*
X19398Y200133D01*
X20454Y199850D01*
X20500D01*
Y204000D01*
Y208150D01*
X20454D01*
X19398Y207867D01*
X18452Y207320D01*
X17680Y206548D01*
X17433Y206120D01*
X16932Y206254D01*
Y215682D01*
X17433Y215781D01*
X17561Y215471D01*
X18192Y214649D01*
X19015Y214018D01*
X19972Y213621D01*
X21000Y213486D01*
X22028Y213621D01*
X22986Y214018D01*
X23808Y214649D01*
X24439Y215471D01*
X24836Y216429D01*
X24971Y217457D01*
Y221000D01*
X24836Y222028D01*
X24439Y222986D01*
X23808Y223808D01*
X22986Y224439D01*
X22028Y224836D01*
X21000Y224971D01*
X19972Y224836D01*
X19015Y224439D01*
X18192Y223808D01*
X17561Y222986D01*
X17433Y222675D01*
X16932Y222775D01*
Y228454D01*
X17433Y228553D01*
X17561Y228243D01*
X18192Y227420D01*
X19015Y226789D01*
X19972Y226393D01*
X21000Y226257D01*
X22028Y226393D01*
X22986Y226789D01*
X23808Y227420D01*
X24439Y228243D01*
X24836Y229201D01*
X24971Y230228D01*
Y233772D01*
X24836Y234799D01*
X24439Y235757D01*
X23808Y236580D01*
X22986Y237211D01*
X22028Y237607D01*
X21000Y237743D01*
X19972Y237607D01*
X19015Y237211D01*
X18192Y236580D01*
X17561Y235757D01*
X17433Y235447D01*
X16932Y235546D01*
Y244746D01*
X17433Y244880D01*
X17680Y244452D01*
X18452Y243679D01*
X19398Y243133D01*
X20454Y242850D01*
X20500D01*
Y247000D01*
Y251150D01*
X20454D01*
X19398Y250867D01*
X18452Y250321D01*
X17680Y249548D01*
X17433Y249120D01*
X16932Y249254D01*
Y258454D01*
X17433Y258553D01*
X17561Y258243D01*
X18192Y257420D01*
X19015Y256789D01*
X19972Y256393D01*
X21000Y256257D01*
X22028Y256393D01*
X22608Y256633D01*
X26091Y253150D01*
X26547Y252846D01*
X27085Y252739D01*
X32274D01*
X33220Y251793D01*
X33029Y251331D01*
X32657D01*
X31556Y251036D01*
X30568Y250465D01*
X29762Y249659D01*
X29191Y248672D01*
X28896Y247570D01*
Y246430D01*
X29191Y245328D01*
X29762Y244341D01*
X30568Y243535D01*
X31556Y242964D01*
X32657Y242669D01*
X33797D01*
X34899Y242964D01*
X35886Y243535D01*
X36693Y244341D01*
X37263Y245328D01*
X37558Y246430D01*
Y247570D01*
X37330Y248421D01*
X37778Y248679D01*
X43404Y243054D01*
X43860Y242749D01*
X44397Y242642D01*
X55000D01*
X55538Y242749D01*
X55791Y242919D01*
X56315D01*
X57038Y243219D01*
X57592Y243772D01*
X57891Y244496D01*
Y245279D01*
X57592Y246003D01*
X57038Y246556D01*
X56315Y246856D01*
X55532D01*
X54808Y246556D01*
X54469Y246217D01*
X53969Y246424D01*
Y246998D01*
X53669Y247721D01*
X53115Y248275D01*
X52392Y248575D01*
X51608D01*
X50885Y248275D01*
X50621Y248011D01*
X48742D01*
X48204Y247904D01*
X47748Y247600D01*
X47569Y247421D01*
X45794D01*
X34595Y258620D01*
X34836Y259201D01*
X34971Y260228D01*
Y263772D01*
X34836Y264799D01*
X34439Y265757D01*
X33808Y266580D01*
X32985Y267211D01*
X32028Y267607D01*
X31000Y267743D01*
X29972Y267607D01*
X29015Y267211D01*
X28192Y266580D01*
X27788Y266874D01*
X27941Y267243D01*
X26500D01*
Y265802D01*
X27124Y266060D01*
X27294Y266231D01*
X27671Y265900D01*
X27561Y265757D01*
X27164Y264799D01*
X27029Y263772D01*
Y260228D01*
X27164Y259201D01*
X27561Y258243D01*
X28192Y257420D01*
X29015Y256789D01*
X29972Y256393D01*
X31000Y256257D01*
X32028Y256393D01*
X32608Y256633D01*
X33264Y255977D01*
X33018Y255517D01*
X32856Y255549D01*
X27667D01*
X24595Y258620D01*
X24836Y259201D01*
X24971Y260228D01*
Y263772D01*
X24836Y264799D01*
X24439Y265757D01*
X24329Y265900D01*
X24706Y266231D01*
X24876Y266060D01*
X25500Y265802D01*
Y267243D01*
X24059D01*
X24212Y266874D01*
X23808Y266580D01*
X22986Y267211D01*
X22463Y267427D01*
X22451Y267503D01*
X22512Y267948D01*
X23115Y268197D01*
X23669Y268751D01*
X23968Y269475D01*
Y269848D01*
X26440Y272319D01*
X26902Y272128D01*
Y271623D01*
X30551D01*
Y275773D01*
Y279923D01*
X29593D01*
X29402Y280384D01*
X30436Y281419D01*
X31670D01*
X32208Y281526D01*
X32663Y281830D01*
X38057Y287224D01*
X38530Y287063D01*
X38542Y286972D01*
X38939Y286015D01*
X39570Y285192D01*
X40393Y284561D01*
X41350Y284164D01*
X42378Y284029D01*
X45921D01*
X46949Y284164D01*
X47907Y284561D01*
X48729Y285192D01*
X49360Y286015D01*
X49601Y286595D01*
X62378D01*
X62916Y286702D01*
X63371Y287007D01*
X70770Y294405D01*
X71350Y294164D01*
X72378Y294029D01*
X75921D01*
X76949Y294164D01*
X77907Y294561D01*
X78729Y295192D01*
X79360Y296014D01*
X79757Y296972D01*
X79892Y298000D01*
X79757Y299028D01*
X79360Y299986D01*
X78729Y300808D01*
X77907Y301439D01*
X77596Y301568D01*
X77696Y302067D01*
X77797D01*
X78334Y302174D01*
X78790Y302479D01*
X81442Y305131D01*
X81747Y305587D01*
X81854Y306125D01*
Y319875D01*
X81747Y320413D01*
X81442Y320869D01*
X78160Y324151D01*
X78180Y324747D01*
X78209Y324793D01*
X78729Y325192D01*
X79360Y326014D01*
X79757Y326972D01*
X79892Y328000D01*
X79757Y329028D01*
X79360Y329985D01*
X78729Y330808D01*
X77907Y331439D01*
X76949Y331836D01*
X75921Y331971D01*
X72378D01*
X71350Y331836D01*
X70393Y331439D01*
X69570Y330808D01*
X68939Y329985D01*
X68542Y329028D01*
X68407Y328000D01*
X68542Y326972D01*
X68939Y326014D01*
X69501Y325282D01*
X69357Y324782D01*
X68238D01*
X67700Y324675D01*
X67245Y324370D01*
X63650Y320775D01*
X63150Y320982D01*
Y321696D01*
X62867Y322751D01*
X62321Y323697D01*
X61548Y324470D01*
X60602Y325016D01*
X59546Y325299D01*
X59500D01*
Y321150D01*
X58500D01*
Y325299D01*
X58454D01*
X57398Y325016D01*
X56452Y324470D01*
X55680Y323697D01*
X55133Y322751D01*
X54850Y321696D01*
Y320952D01*
X54350Y320744D01*
X49239Y325856D01*
X49360Y326014D01*
X49757Y326972D01*
X49892Y328000D01*
X49757Y329028D01*
X49360Y329985D01*
X48729Y330808D01*
X47907Y331439D01*
X46949Y331836D01*
X45921Y331971D01*
X42378D01*
X41350Y331836D01*
X40393Y331439D01*
X40098Y331213D01*
X39650Y331434D01*
Y332252D01*
X39298Y333563D01*
X39567Y334063D01*
X49858D01*
Y341937D01*
X38441D01*
Y335726D01*
X37979Y335535D01*
X37446Y336068D01*
X36144Y336820D01*
X34692Y337209D01*
X33189D01*
X32380Y336992D01*
X32122Y337440D01*
X32781Y338099D01*
X33402Y339176D01*
X33724Y340378D01*
Y341622D01*
X33402Y342824D01*
X32781Y343901D01*
X31901Y344780D01*
X30824Y345402D01*
X29622Y345724D01*
X28378D01*
X27176Y345402D01*
X26099Y344780D01*
X25220Y343901D01*
X24598Y342824D01*
X24276Y341622D01*
Y340378D01*
X24598Y339176D01*
X25220Y338099D01*
X26099Y337220D01*
X26800Y336815D01*
X26865Y336319D01*
X25223Y334677D01*
X24918Y334221D01*
X24811Y333684D01*
Y323849D01*
X24697Y323818D01*
X23799Y323300D01*
X23066Y322567D01*
X22547Y321669D01*
X22279Y320668D01*
Y319631D01*
X22547Y318630D01*
X23066Y317732D01*
X23799Y316999D01*
X24697Y316481D01*
X25698Y316213D01*
X26734D01*
X27736Y316481D01*
X27839Y316540D01*
X28490Y315889D01*
X28282Y315389D01*
X19238D01*
X18700Y315282D01*
X18244Y314978D01*
X15221Y311954D01*
X8514D01*
X7976Y311847D01*
X7520Y311543D01*
X4085Y308107D01*
X3781Y307652D01*
X3674Y307114D01*
Y281744D01*
X3781Y281206D01*
X4085Y280751D01*
X7442Y277394D01*
X7383Y277291D01*
X7114Y276290D01*
Y275253D01*
X7383Y274252D01*
X7901Y273354D01*
X8147Y273108D01*
X7956Y272646D01*
X7095D01*
X6375Y272551D01*
X5705Y272273D01*
X5129Y271832D01*
X1035Y267738D01*
X1000Y267743D01*
X-28Y267607D01*
X-986Y267211D01*
X-1808Y266580D01*
X-2439Y265757D01*
X-2836Y264799D01*
X-2971Y263772D01*
Y260228D01*
X-2836Y259201D01*
X-2439Y258243D01*
X-1808Y257420D01*
X-1780Y257399D01*
Y246641D01*
X-6871Y241550D01*
X-7313Y240974D01*
X-7591Y240304D01*
X-7596Y240261D01*
X-8096Y240294D01*
Y269663D01*
Y269950D01*
X-7984Y270514D01*
X-7764Y271045D01*
X-7445Y271523D01*
X-7038Y271929D01*
X-6561Y272248D01*
X-6030Y272468D01*
X-5466Y272581D01*
X-3924D01*
X-3899Y272585D01*
X-3874Y272582D01*
X-3489Y272601D01*
X-3416Y272619D01*
X-3341D01*
X-2586Y272769D01*
X-2493Y272808D01*
X-2395Y272827D01*
X-1684Y273121D01*
X-1601Y273177D01*
X-1508Y273216D01*
X-868Y273643D01*
X-797Y273714D01*
X-714Y273770D01*
X-170Y274314D01*
X-114Y274397D01*
X-43Y274468D01*
X384Y275108D01*
X423Y275201D01*
X479Y275284D01*
X773Y275995D01*
X793Y276093D01*
X831Y276186D01*
X981Y276941D01*
Y277016D01*
X999Y277089D01*
X1018Y277474D01*
X1015Y277499D01*
X1020Y277524D01*
Y327999D01*
X1519Y328133D01*
X1774Y327692D01*
X2837Y326629D01*
X4139Y325877D01*
X5591Y325488D01*
X7094D01*
X8546Y325877D01*
X9848Y326629D01*
X10911Y327692D01*
X11662Y328993D01*
X12051Y330445D01*
Y331948D01*
X11662Y333400D01*
X10911Y334702D01*
X9848Y335765D01*
X10070Y336214D01*
X10633Y336063D01*
X10783D01*
Y340500D01*
X6346D01*
Y340350D01*
X6683Y339094D01*
X7333Y337969D01*
X8165Y337136D01*
X7939Y336679D01*
X7094Y336906D01*
X5591D01*
X4139Y336516D01*
X2837Y335765D01*
X1774Y334702D01*
X1519Y334261D01*
X1020Y334395D01*
Y346004D01*
X1203Y346925D01*
X1562Y347793D01*
X2084Y348573D01*
X2748Y349237D01*
X3529Y349759D01*
X4396Y350118D01*
X5317Y350302D01*
X5786D01*
X222599Y350151D01*
D02*
G37*
G36*
X108015Y113789D02*
X108972Y113393D01*
X110000Y113257D01*
X111028Y113393D01*
X111986Y113789D01*
X112623Y114278D01*
X113123Y114042D01*
Y108399D01*
X112661Y108208D01*
X112548Y108320D01*
X111602Y108867D01*
X110546Y109150D01*
X110500D01*
Y105000D01*
Y100850D01*
X110546D01*
X111602Y101133D01*
X111729Y101207D01*
X112036Y100807D01*
X109007Y97777D01*
X108702Y97321D01*
X108595Y96784D01*
Y64451D01*
X108015Y64211D01*
X107192Y63580D01*
X106561Y62757D01*
X106164Y61799D01*
X106029Y60772D01*
Y57228D01*
X106164Y56201D01*
X106561Y55243D01*
X107192Y54420D01*
X108015Y53789D01*
X108972Y53393D01*
X110000Y53257D01*
X111028Y53393D01*
X111253Y53486D01*
X111536Y53062D01*
X109561Y51087D01*
X109187D01*
X108464Y50787D01*
X107910Y50233D01*
X107610Y49510D01*
Y48916D01*
X107305Y48594D01*
X107152Y48528D01*
X106459D01*
X105735Y48228D01*
X105182Y47674D01*
X104882Y46951D01*
Y46167D01*
X104749Y45968D01*
X104238D01*
X103515Y45669D01*
X102961Y45115D01*
X102783Y44684D01*
X102199Y44560D01*
X98985Y47774D01*
X99103Y48364D01*
X99365Y48473D01*
X99919Y49027D01*
X100076Y49405D01*
X100076Y49406D01*
X100576Y49307D01*
X100576Y49284D01*
Y48632D01*
X100878Y47903D01*
X101436Y47344D01*
X102060Y47086D01*
Y49027D01*
Y50967D01*
X101436Y50709D01*
X100878Y50151D01*
X100719Y49767D01*
X100719Y49765D01*
X100219Y49865D01*
X100219Y49888D01*
Y50533D01*
X99919Y51257D01*
X99655Y51521D01*
Y52955D01*
X100000Y53257D01*
X101028Y53393D01*
X101986Y53789D01*
X102808Y54420D01*
X103439Y55243D01*
X103836Y56201D01*
X103971Y57228D01*
Y60772D01*
X103836Y61799D01*
X103595Y62380D01*
X106466Y65251D01*
X106770Y65706D01*
X106877Y66244D01*
Y101601D01*
X107339Y101792D01*
X107452Y101680D01*
X108398Y101133D01*
X109454Y100850D01*
X109500D01*
Y105000D01*
Y109150D01*
X109454D01*
X108398Y108867D01*
X107452Y108320D01*
X107339Y108208D01*
X106877Y108399D01*
Y114042D01*
X107377Y114278D01*
X108015Y113789D01*
D02*
G37*
G36*
X7164Y130201D02*
X7561Y129243D01*
X8192Y128420D01*
X8672Y128052D01*
Y127548D01*
X8767Y126829D01*
X9045Y126158D01*
X9487Y125583D01*
X17063Y118006D01*
Y117482D01*
X17331Y116480D01*
X17850Y115583D01*
X18583Y114850D01*
X19480Y114331D01*
X20482Y114063D01*
X21518D01*
X22520Y114331D01*
X23417Y114850D01*
X24020Y115452D01*
X24520Y115267D01*
Y107473D01*
X24020Y107304D01*
X23808Y107580D01*
X22986Y108211D01*
X22028Y108607D01*
X21000Y108743D01*
X19972Y108607D01*
X19015Y108211D01*
X18192Y107580D01*
X17561Y106757D01*
X17164Y105799D01*
X17029Y104772D01*
Y101228D01*
X17164Y100201D01*
X17561Y99243D01*
X18192Y98420D01*
X19015Y97789D01*
X19595Y97549D01*
Y96991D01*
X19702Y96453D01*
X19938Y96101D01*
X19949Y96020D01*
X19898Y95762D01*
X19783Y95514D01*
X19049Y95211D01*
X18227Y94580D01*
X17596Y93757D01*
X17199Y92799D01*
X17064Y91772D01*
Y88228D01*
X17199Y87201D01*
X17551Y86350D01*
X17128Y86067D01*
X15001Y88193D01*
X15006Y88228D01*
Y91772D01*
X14870Y92799D01*
X14474Y93757D01*
X13843Y94580D01*
X13020Y95211D01*
X12062Y95607D01*
X11035Y95743D01*
X10007Y95607D01*
X9049Y95211D01*
X8227Y94580D01*
X7596Y93757D01*
X7280Y92994D01*
X6780Y93093D01*
Y95076D01*
X6685Y95795D01*
X6407Y96466D01*
X5965Y97041D01*
X-2126Y105133D01*
Y130220D01*
X7162D01*
X7164Y130201D01*
D02*
G37*
G36*
X55102Y86454D02*
Y86353D01*
X55209Y85815D01*
X55514Y85360D01*
X59630Y81243D01*
Y65451D01*
X59049Y65211D01*
X58227Y64580D01*
X57596Y63757D01*
X57199Y62799D01*
X57064Y61772D01*
Y58228D01*
X57199Y57201D01*
X57596Y56243D01*
X58227Y55420D01*
X59049Y54789D01*
X60007Y54393D01*
X61035Y54257D01*
X62063Y54393D01*
X62567Y54601D01*
X62898Y54198D01*
X62886Y54180D01*
X62779Y53642D01*
Y52462D01*
X62515Y52198D01*
X62216Y51475D01*
Y50692D01*
X62515Y49968D01*
X63069Y49415D01*
X63793Y49115D01*
X64576D01*
X65299Y49415D01*
X65853Y49968D01*
X66153Y50692D01*
Y51475D01*
X65853Y52198D01*
X65589Y52462D01*
Y53061D01*
X67501Y54972D01*
X67581Y55092D01*
X67730Y55145D01*
X68222Y55156D01*
X68942Y54604D01*
X69951Y54185D01*
X70141Y53656D01*
X70031Y53392D01*
Y52608D01*
X70331Y51885D01*
X70885Y51331D01*
X71608Y51032D01*
X72392D01*
X73115Y51331D01*
X73379Y51595D01*
X79621D01*
X79885Y51331D01*
X80608Y51032D01*
X81392D01*
X81654Y51140D01*
X82154Y50806D01*
Y45524D01*
X82261Y44987D01*
X82566Y44531D01*
X87795Y39301D01*
Y30591D01*
X87231D01*
X86512Y30496D01*
X85842Y30218D01*
X85266Y29777D01*
X84824Y29201D01*
X84547Y28530D01*
X84452Y27811D01*
Y4189D01*
X84547Y3469D01*
X84824Y2799D01*
X85266Y2223D01*
X85842Y1782D01*
X86512Y1504D01*
X86427Y1020D01*
X81973D01*
X81888Y1504D01*
X82558Y1782D01*
X83134Y2223D01*
X83576Y2799D01*
X83854Y3469D01*
X83948Y4189D01*
Y27811D01*
X83854Y28530D01*
X83576Y29201D01*
X83134Y29777D01*
X82558Y30218D01*
X81888Y30496D01*
X81169Y30591D01*
X77232D01*
X76512Y30496D01*
X75842Y30218D01*
X75266Y29777D01*
X74824Y29201D01*
X74546Y28530D01*
X74452Y27811D01*
Y4189D01*
X74546Y3469D01*
X74824Y2799D01*
X75266Y2223D01*
X75842Y1782D01*
X76512Y1504D01*
X76427Y1020D01*
X71973D01*
X71888Y1504D01*
X72558Y1782D01*
X73134Y2223D01*
X73576Y2799D01*
X73853Y3469D01*
X73948Y4189D01*
Y27811D01*
X73853Y28530D01*
X73576Y29201D01*
X73134Y29777D01*
X72558Y30218D01*
X71888Y30496D01*
X71169Y30591D01*
X70605D01*
Y33608D01*
X70498Y34145D01*
X70193Y34601D01*
X63139Y41655D01*
X63382Y42053D01*
X63414Y42087D01*
X64186D01*
X64909Y42387D01*
X65173Y42651D01*
X77821D01*
X78085Y42387D01*
X78808Y42087D01*
X79592D01*
X80315Y42387D01*
X80869Y42941D01*
X81169Y43664D01*
Y44447D01*
X80869Y45171D01*
X80315Y45725D01*
X79592Y46024D01*
X78808D01*
X78085Y45725D01*
X77821Y45461D01*
X65173D01*
X64909Y45725D01*
X64186Y46024D01*
X63403D01*
X62679Y45725D01*
X62125Y45171D01*
X61826Y44447D01*
Y43676D01*
X61791Y43643D01*
X61393Y43401D01*
X60776Y44018D01*
Y44392D01*
X60476Y45115D01*
X59923Y45669D01*
X59199Y45968D01*
X58416D01*
X57693Y45669D01*
X57139Y45115D01*
X56839Y44392D01*
Y43608D01*
X57139Y42885D01*
X57693Y42331D01*
X58416Y42031D01*
X58789D01*
X67795Y33026D01*
Y30591D01*
X67232D01*
X66512Y30496D01*
X65842Y30218D01*
X65266Y29777D01*
X64824Y29201D01*
X64547Y28530D01*
X64452Y27811D01*
Y4189D01*
X64547Y3469D01*
X64824Y2799D01*
X65266Y2223D01*
X65842Y1782D01*
X66512Y1504D01*
X66427Y1020D01*
X61973D01*
X61888Y1504D01*
X62558Y1782D01*
X63134Y2223D01*
X63576Y2799D01*
X63854Y3469D01*
X63948Y4189D01*
Y27811D01*
X63854Y28530D01*
X63576Y29201D01*
X63134Y29777D01*
X62558Y30218D01*
X61888Y30496D01*
X61168Y30591D01*
X57231D01*
X56512Y30496D01*
X55842Y30218D01*
X55266Y29777D01*
X54824Y29201D01*
X54546Y28530D01*
X54452Y27811D01*
Y4189D01*
X54546Y3469D01*
X54824Y2799D01*
X55266Y2223D01*
X55842Y1782D01*
X56512Y1504D01*
X56427Y1020D01*
X51973D01*
X51888Y1504D01*
X52558Y1782D01*
X53134Y2223D01*
X53576Y2799D01*
X53853Y3469D01*
X53948Y4189D01*
Y27811D01*
X53853Y28530D01*
X53576Y29201D01*
X53134Y29777D01*
X52558Y30218D01*
X51888Y30496D01*
X51169Y30591D01*
X50605D01*
Y53660D01*
X50574Y53814D01*
X50995Y54263D01*
X51035Y54257D01*
X52062Y54393D01*
X53020Y54789D01*
X53843Y55420D01*
X54474Y56243D01*
X54870Y57201D01*
X55006Y58228D01*
Y61772D01*
X54870Y62799D01*
X54474Y63757D01*
X53843Y64580D01*
X53020Y65211D01*
X52062Y65607D01*
X51035Y65743D01*
X50007Y65607D01*
X49049Y65211D01*
X48412Y64722D01*
X47912Y64958D01*
Y69747D01*
X48524Y70359D01*
X48829Y70815D01*
X48936Y71353D01*
Y84295D01*
X49436Y84629D01*
X50007Y84393D01*
X51035Y84257D01*
X52062Y84393D01*
X53020Y84789D01*
X53843Y85420D01*
X54474Y86243D01*
X54602Y86553D01*
X55102Y86454D01*
D02*
G37*
G36*
X34904Y86020D02*
X35006Y85867D01*
X41447Y79426D01*
X41189Y78978D01*
X40546Y79150D01*
X40500D01*
Y75000D01*
Y70850D01*
X40546D01*
X41189Y71022D01*
X41447Y70574D01*
X35514Y64640D01*
X35209Y64185D01*
X35102Y63647D01*
Y63546D01*
X34602Y63447D01*
X34474Y63757D01*
X33843Y64580D01*
X33020Y65211D01*
X32440Y65451D01*
Y68906D01*
X35521Y71987D01*
X35826Y72443D01*
X35898Y72806D01*
X36419Y72904D01*
X36680Y72452D01*
X37452Y71680D01*
X38398Y71133D01*
X39454Y70850D01*
X39500D01*
Y75000D01*
Y79150D01*
X39454D01*
X38398Y78867D01*
X37452Y78320D01*
X36680Y77548D01*
X36432Y77120D01*
X35932Y77254D01*
Y78333D01*
X35826Y78870D01*
X35521Y79326D01*
X31080Y83767D01*
X31266Y84288D01*
X32063Y84393D01*
X33020Y84789D01*
X33843Y85420D01*
X34303Y86020D01*
X34880Y86032D01*
X34904Y86020D01*
D02*
G37*
G36*
X45102Y56454D02*
Y56353D01*
X45209Y55815D01*
X45514Y55360D01*
X47795Y53078D01*
Y30591D01*
X47232D01*
X46512Y30496D01*
X45842Y30218D01*
X45266Y29777D01*
X44824Y29201D01*
X44546Y28530D01*
X44452Y27811D01*
Y4189D01*
X44546Y3469D01*
X44824Y2799D01*
X45266Y2223D01*
X45842Y1782D01*
X46512Y1504D01*
X46427Y1020D01*
X41973D01*
X41888Y1504D01*
X42558Y1782D01*
X43134Y2223D01*
X43576Y2799D01*
X43854Y3469D01*
X43948Y4189D01*
Y27811D01*
X43854Y28530D01*
X43576Y29201D01*
X43134Y29777D01*
X42558Y30218D01*
X41888Y30496D01*
X41168Y30591D01*
X37231D01*
X36512Y30496D01*
X35842Y30218D01*
X35266Y29777D01*
X34824Y29201D01*
X34547Y28530D01*
X34452Y27811D01*
Y4189D01*
X34547Y3469D01*
X34824Y2799D01*
X35266Y2223D01*
X35842Y1782D01*
X36512Y1504D01*
X36427Y1020D01*
X31973D01*
X31888Y1504D01*
X32558Y1782D01*
X33134Y2223D01*
X33576Y2799D01*
X33854Y3469D01*
X33948Y4189D01*
Y27811D01*
X33854Y28530D01*
X33576Y29201D01*
X33134Y29777D01*
X32558Y30218D01*
X31888Y30496D01*
X31168Y30591D01*
X30011D01*
Y30768D01*
X29917Y31488D01*
X29639Y32158D01*
X29197Y32734D01*
X21166Y40766D01*
X16977Y44954D01*
X17185Y45453D01*
X17824Y45718D01*
X18382Y46276D01*
X18641Y46900D01*
X16700D01*
Y47400D01*
X16200D01*
Y49341D01*
X15576Y49082D01*
X15018Y48524D01*
X14753Y47885D01*
X14254Y47677D01*
X8102Y53829D01*
X8293Y54291D01*
X14337D01*
X14569Y53944D01*
X28066Y40448D01*
X28521Y40143D01*
X29059Y40036D01*
X39790D01*
X40053Y39772D01*
X40777Y39472D01*
X41560D01*
X42284Y39772D01*
X42837Y40326D01*
X43137Y41049D01*
Y41833D01*
X42837Y42556D01*
X42298Y43096D01*
X42673Y43471D01*
X42973Y44195D01*
Y44978D01*
X42673Y45701D01*
X42119Y46255D01*
X41396Y46555D01*
X40613D01*
X39889Y46255D01*
X39625Y45991D01*
X30682D01*
X30475Y46491D01*
X30869Y46885D01*
X31168Y47608D01*
Y47982D01*
X37501Y54314D01*
X37805Y54769D01*
X37870Y55093D01*
X37897Y55119D01*
X38353Y55287D01*
X38403Y55285D01*
X39049Y54789D01*
X40007Y54393D01*
X41035Y54257D01*
X42063Y54393D01*
X43020Y54789D01*
X43843Y55420D01*
X44474Y56243D01*
X44602Y56553D01*
X45102Y56454D01*
D02*
G37*
G36*
X86301Y106748D02*
X87025Y106448D01*
X87398D01*
X88595Y105251D01*
Y64709D01*
X86063D01*
Y53291D01*
X93123D01*
Y50245D01*
X93230Y49708D01*
X93534Y49252D01*
X107795Y34991D01*
Y30591D01*
X107231D01*
X106512Y30496D01*
X105842Y30218D01*
X105266Y29777D01*
X104824Y29201D01*
X104546Y28530D01*
X104452Y27811D01*
Y4189D01*
X104546Y3469D01*
X104824Y2799D01*
X105266Y2223D01*
X105842Y1782D01*
X106512Y1504D01*
X106427Y1020D01*
X101973D01*
X101888Y1504D01*
X102558Y1782D01*
X103134Y2223D01*
X103576Y2799D01*
X103853Y3469D01*
X103948Y4189D01*
Y27811D01*
X103853Y28530D01*
X103576Y29201D01*
X103134Y29777D01*
X102558Y30218D01*
X101888Y30496D01*
X101169Y30591D01*
X100605D01*
Y34856D01*
X100498Y35393D01*
X100193Y35849D01*
X91969Y44074D01*
Y44447D01*
X91669Y45171D01*
X91115Y45725D01*
X90392Y46024D01*
X89608D01*
X88885Y45725D01*
X88331Y45171D01*
X88032Y44447D01*
Y43746D01*
X87808Y43585D01*
X87570Y43501D01*
X84964Y46106D01*
Y47400D01*
X85464Y47607D01*
X85726Y47344D01*
X86350Y47086D01*
Y49027D01*
Y50967D01*
X85726Y50709D01*
X85464Y50446D01*
X84964Y50653D01*
Y79361D01*
X85215Y79736D01*
X85321Y80274D01*
Y107074D01*
X85473Y107155D01*
X85821Y107228D01*
X86301Y106748D01*
D02*
G37*
G36*
X1593Y52610D02*
X2035Y52034D01*
X16420Y37649D01*
Y30458D01*
X15842Y30218D01*
X15266Y29777D01*
X14824Y29201D01*
X14566Y28578D01*
X14462Y28540D01*
X14061Y28586D01*
X13761Y29308D01*
X13286Y29928D01*
X12666Y30404D01*
X11943Y30703D01*
X11169Y30805D01*
X10603D01*
X10469Y31305D01*
X11023Y31625D01*
X11575Y32177D01*
X11966Y32854D01*
X12139Y33500D01*
X6261D01*
X6434Y32854D01*
X6825Y32177D01*
X7377Y31625D01*
X7931Y31305D01*
X7797Y30805D01*
X7231D01*
X6457Y30703D01*
X5734Y30404D01*
X5114Y29928D01*
X4639Y29308D01*
X4339Y28586D01*
X4237Y27811D01*
Y16500D01*
X9200D01*
Y15500D01*
X4237D01*
Y4189D01*
X4339Y3414D01*
X4639Y2692D01*
X5114Y2072D01*
X5734Y1596D01*
X5919Y1519D01*
X5819Y1020D01*
X4679D01*
X3895Y1175D01*
X3156Y1481D01*
X2491Y1926D01*
X1926Y2491D01*
X1481Y3156D01*
X1175Y3895D01*
X1020Y4679D01*
Y5078D01*
X1027Y52670D01*
X1527Y52769D01*
X1593Y52610D01*
D02*
G37*
G36*
X97795Y34274D02*
Y30591D01*
X97232D01*
X96512Y30496D01*
X95842Y30218D01*
X95266Y29777D01*
X94824Y29201D01*
X94547Y28530D01*
X94452Y27811D01*
Y4189D01*
X94547Y3469D01*
X94824Y2799D01*
X95266Y2223D01*
X95842Y1782D01*
X96512Y1504D01*
X96427Y1020D01*
X91973D01*
X91888Y1504D01*
X92558Y1782D01*
X93134Y2223D01*
X93576Y2799D01*
X93853Y3469D01*
X93948Y4189D01*
Y27811D01*
X93853Y28530D01*
X93576Y29201D01*
X93134Y29777D01*
X92558Y30218D01*
X91888Y30496D01*
X91168Y30591D01*
X90605D01*
Y39884D01*
X90498Y40421D01*
X90193Y40877D01*
X89662Y41409D01*
X89856Y41922D01*
X90130Y41939D01*
X97795Y34274D01*
D02*
G37*
%LPC*%
G36*
X154334Y304341D02*
X153710Y304082D01*
X153152Y303524D01*
X152894Y302900D01*
X154334D01*
Y304341D01*
D02*
G37*
G36*
X150747Y285478D02*
Y284038D01*
X152187D01*
X151929Y284662D01*
X151371Y285220D01*
X150747Y285478D01*
D02*
G37*
G36*
X152187Y283038D02*
X150747D01*
Y281597D01*
X151371Y281856D01*
X151929Y282414D01*
X152187Y283038D01*
D02*
G37*
G36*
X149747D02*
X148306D01*
X148565Y282414D01*
X149123Y281856D01*
X149747Y281597D01*
Y283038D01*
D02*
G37*
G36*
X75185Y145500D02*
X71500D01*
Y140109D01*
X72083Y140185D01*
X73093Y140604D01*
X73959Y141269D01*
X74625Y142136D01*
X75043Y143145D01*
X75185Y144228D01*
Y145500D01*
D02*
G37*
G36*
X4200Y141741D02*
Y140300D01*
X5641D01*
X5382Y140924D01*
X4824Y141482D01*
X4200Y141741D01*
D02*
G37*
G36*
X3200D02*
X2576Y141482D01*
X2018Y140924D01*
X1759Y140300D01*
X3200D01*
Y141741D01*
D02*
G37*
G36*
X5641Y139300D02*
X4200D01*
Y137859D01*
X4824Y138118D01*
X5382Y138676D01*
X5641Y139300D01*
D02*
G37*
G36*
X3200D02*
X1759D01*
X2018Y138676D01*
X2576Y138118D01*
X3200Y137859D01*
Y139300D01*
D02*
G37*
G36*
X11933Y345937D02*
X11783D01*
Y341500D01*
X16220D01*
Y341650D01*
X15884Y342906D01*
X15234Y344031D01*
X14315Y344951D01*
X13189Y345601D01*
X11933Y345937D01*
D02*
G37*
G36*
X10783D02*
X10633D01*
X9378Y345601D01*
X8252Y344951D01*
X7333Y344031D01*
X6683Y342906D01*
X6346Y341650D01*
Y341500D01*
X10783D01*
Y345937D01*
D02*
G37*
G36*
X16220Y340500D02*
X11783D01*
Y336063D01*
X11933D01*
X13189Y336399D01*
X14315Y337049D01*
X15234Y337969D01*
X15884Y339094D01*
X16220Y340350D01*
Y340500D01*
D02*
G37*
G36*
X83400Y333341D02*
Y331900D01*
X84841D01*
X84582Y332524D01*
X84024Y333082D01*
X83400Y333341D01*
D02*
G37*
G36*
X82400D02*
X81776Y333082D01*
X81218Y332524D01*
X80959Y331900D01*
X82400D01*
Y333341D01*
D02*
G37*
G36*
X84841Y330900D02*
X83400D01*
Y329459D01*
X84024Y329718D01*
X84582Y330276D01*
X84841Y330900D01*
D02*
G37*
G36*
X82400D02*
X80959D01*
X81218Y330276D01*
X81776Y329718D01*
X82400Y329459D01*
Y330900D01*
D02*
G37*
G36*
X16762Y324299D02*
X16716D01*
Y320650D01*
X20366D01*
Y320696D01*
X20083Y321751D01*
X19537Y322697D01*
X18764Y323470D01*
X17818Y324016D01*
X16762Y324299D01*
D02*
G37*
G36*
X15716D02*
X15670D01*
X14614Y324016D01*
X13668Y323470D01*
X12896Y322697D01*
X12349Y321751D01*
X12066Y320696D01*
Y320650D01*
X15716D01*
Y324299D01*
D02*
G37*
G36*
X115150Y320500D02*
X111500D01*
Y316850D01*
X111546D01*
X112602Y317133D01*
X113548Y317680D01*
X114321Y318452D01*
X114867Y319398D01*
X115150Y320454D01*
Y320500D01*
D02*
G37*
G36*
X20366Y319650D02*
X16716D01*
Y316000D01*
X16762D01*
X17818Y316283D01*
X18764Y316829D01*
X19537Y317602D01*
X20083Y318548D01*
X20366Y319603D01*
Y319650D01*
D02*
G37*
G36*
X15716D02*
X12066D01*
Y319603D01*
X12349Y318548D01*
X12896Y317602D01*
X13668Y316829D01*
X14614Y316283D01*
X15670Y316000D01*
X15716D01*
Y319650D01*
D02*
G37*
G36*
X134831Y306567D02*
Y305127D01*
X136271D01*
X136013Y305750D01*
X135455Y306309D01*
X134831Y306567D01*
D02*
G37*
G36*
X133831D02*
X133207Y306309D01*
X132649Y305750D01*
X132390Y305127D01*
X133831D01*
Y306567D01*
D02*
G37*
G36*
X145600Y305484D02*
Y304043D01*
X147041D01*
X146782Y304667D01*
X146224Y305225D01*
X145600Y305484D01*
D02*
G37*
G36*
X144600D02*
X143976Y305225D01*
X143418Y304667D01*
X143159Y304043D01*
X144600D01*
Y305484D01*
D02*
G37*
G36*
X136271Y304127D02*
X134831D01*
Y302686D01*
X135455Y302944D01*
X136013Y303503D01*
X136271Y304127D01*
D02*
G37*
G36*
X147041Y303043D02*
X145600D01*
Y301603D01*
X146224Y301861D01*
X146782Y302419D01*
X147041Y303043D01*
D02*
G37*
G36*
X144600D02*
X143159D01*
X143418Y302419D01*
X143976Y301861D01*
X144600Y301603D01*
Y303043D01*
D02*
G37*
G36*
X111500Y301941D02*
Y300500D01*
X112941D01*
X112682Y301124D01*
X112124Y301682D01*
X111500Y301941D01*
D02*
G37*
G36*
X110500D02*
X109876Y301682D01*
X109318Y301124D01*
X109059Y300500D01*
X110500D01*
Y301941D01*
D02*
G37*
G36*
X120500Y301441D02*
Y300000D01*
X121941D01*
X121682Y300624D01*
X121124Y301182D01*
X120500Y301441D01*
D02*
G37*
G36*
X119500D02*
X118876Y301182D01*
X118318Y300624D01*
X118059Y300000D01*
X119500D01*
Y301441D01*
D02*
G37*
G36*
X83637Y299941D02*
Y298500D01*
X85078D01*
X84820Y299124D01*
X84261Y299682D01*
X83637Y299941D01*
D02*
G37*
G36*
X82637D02*
X82013Y299682D01*
X81455Y299124D01*
X81197Y298500D01*
X82637D01*
Y299941D01*
D02*
G37*
G36*
X112941Y299500D02*
X111500D01*
Y298059D01*
X112124Y298318D01*
X112682Y298876D01*
X112941Y299500D01*
D02*
G37*
G36*
X110500D02*
X109059D01*
X109318Y298876D01*
X109876Y298318D01*
X110500Y298059D01*
Y299500D01*
D02*
G37*
G36*
X121941Y299000D02*
X120500D01*
Y297559D01*
X121124Y297818D01*
X121682Y298376D01*
X121941Y299000D01*
D02*
G37*
G36*
X119500D02*
X118059D01*
X118318Y298376D01*
X118876Y297818D01*
X119500Y297559D01*
Y299000D01*
D02*
G37*
G36*
X85078Y297500D02*
X83637D01*
Y296059D01*
X84261Y296318D01*
X84820Y296876D01*
X85078Y297500D01*
D02*
G37*
G36*
X82637D02*
X81197D01*
X81455Y296876D01*
X82013Y296318D01*
X82637Y296059D01*
Y297500D01*
D02*
G37*
G36*
X146100Y292441D02*
Y291000D01*
X147541D01*
X147282Y291624D01*
X146724Y292182D01*
X146100Y292441D01*
D02*
G37*
G36*
X145100D02*
X144476Y292182D01*
X143918Y291624D01*
X143659Y291000D01*
X145100D01*
Y292441D01*
D02*
G37*
G36*
X147541Y290000D02*
X146100D01*
Y288559D01*
X146724Y288818D01*
X147282Y289376D01*
X147541Y290000D01*
D02*
G37*
G36*
X145100D02*
X143659D01*
X143918Y289376D01*
X144476Y288818D01*
X145100Y288559D01*
Y290000D01*
D02*
G37*
G36*
X59598Y284770D02*
X59500D01*
Y280727D01*
X63543D01*
Y280825D01*
X63234Y281981D01*
X62635Y283017D01*
X61790Y283863D01*
X60754Y284461D01*
X59598Y284770D01*
D02*
G37*
G36*
X58500D02*
X58402D01*
X57246Y284461D01*
X56210Y283863D01*
X55365Y283017D01*
X54766Y281981D01*
X54457Y280825D01*
Y280727D01*
X58500D01*
Y284770D01*
D02*
G37*
G36*
X45921Y282185D02*
X44650D01*
Y278500D01*
X50041D01*
X49964Y279083D01*
X49546Y280093D01*
X48881Y280960D01*
X48014Y281625D01*
X47005Y282043D01*
X45921Y282185D01*
D02*
G37*
G36*
X43650D02*
X42378D01*
X41295Y282043D01*
X40285Y281625D01*
X39418Y280960D01*
X38753Y280093D01*
X38335Y279083D01*
X38258Y278500D01*
X43650D01*
Y282185D01*
D02*
G37*
G36*
X35201Y279923D02*
X31551D01*
Y276273D01*
X35201D01*
Y279923D01*
D02*
G37*
G36*
X63543Y279727D02*
X59500D01*
Y275684D01*
X59598D01*
X60754Y275993D01*
X61790Y276592D01*
X62635Y277437D01*
X63234Y278473D01*
X63543Y279629D01*
Y279727D01*
D02*
G37*
G36*
X58500D02*
X54457D01*
Y279629D01*
X54766Y278473D01*
X55365Y277437D01*
X56210Y276592D01*
X57246Y275993D01*
X58402Y275684D01*
X58500D01*
Y279727D01*
D02*
G37*
G36*
X220500Y280891D02*
Y275500D01*
X224185D01*
Y276772D01*
X224043Y277855D01*
X223625Y278864D01*
X222959Y279731D01*
X222093Y280396D01*
X221083Y280815D01*
X220500Y280891D01*
D02*
G37*
G36*
X50041Y277500D02*
X44650D01*
Y273815D01*
X45921D01*
X47005Y273957D01*
X48014Y274375D01*
X48881Y275041D01*
X49546Y275907D01*
X49964Y276917D01*
X50041Y277500D01*
D02*
G37*
G36*
X43650D02*
X38258D01*
X38335Y276917D01*
X38753Y275907D01*
X39418Y275041D01*
X40285Y274375D01*
X41295Y273957D01*
X42378Y273815D01*
X43650D01*
Y277500D01*
D02*
G37*
G36*
X64650Y273304D02*
Y271864D01*
X66090D01*
X65832Y272487D01*
X65274Y273046D01*
X64650Y273304D01*
D02*
G37*
G36*
X63650D02*
X63026Y273046D01*
X62467Y272487D01*
X62209Y271864D01*
X63650D01*
Y273304D01*
D02*
G37*
G36*
X35201Y275273D02*
X31551D01*
Y271623D01*
X35201D01*
Y275273D01*
D02*
G37*
G36*
X66090Y270864D02*
X64650D01*
Y269423D01*
X65274Y269681D01*
X65832Y270239D01*
X66090Y270864D01*
D02*
G37*
G36*
X63650D02*
X62209D01*
X62467Y270239D01*
X63026Y269681D01*
X63650Y269423D01*
Y270864D01*
D02*
G37*
G36*
X26500Y269683D02*
Y268243D01*
X27941D01*
X27682Y268867D01*
X27124Y269425D01*
X26500Y269683D01*
D02*
G37*
G36*
X25500D02*
X24876Y269425D01*
X24318Y268867D01*
X24059Y268243D01*
X25500D01*
Y269683D01*
D02*
G37*
G36*
X71000Y267743D02*
X69972Y267607D01*
X69015Y267211D01*
X68192Y266580D01*
X67561Y265757D01*
X67164Y264799D01*
X67029Y263772D01*
Y260228D01*
X67164Y259201D01*
X67561Y258243D01*
X68050Y257606D01*
X67813Y257106D01*
X64187D01*
X63950Y257606D01*
X64439Y258243D01*
X64836Y259201D01*
X64971Y260228D01*
Y263772D01*
X64836Y264799D01*
X64439Y265757D01*
X63808Y266580D01*
X62985Y267211D01*
X62028Y267607D01*
X61000Y267743D01*
X59972Y267607D01*
X59014Y267211D01*
X58192Y266580D01*
X57561Y265757D01*
X57164Y264799D01*
X57029Y263772D01*
Y260228D01*
X57164Y259201D01*
X57561Y258243D01*
X58050Y257606D01*
X57813Y257106D01*
X56109D01*
X54595Y258620D01*
X54836Y259201D01*
X54971Y260228D01*
Y263772D01*
X54836Y264799D01*
X54439Y265757D01*
X53808Y266580D01*
X52986Y267211D01*
X52028Y267607D01*
X51000Y267743D01*
X49972Y267607D01*
X49014Y267211D01*
X48192Y266580D01*
X47561Y265757D01*
X47164Y264799D01*
X47029Y263772D01*
Y260228D01*
X47164Y259201D01*
X47561Y258243D01*
X48192Y257420D01*
X49014Y256789D01*
X49972Y256393D01*
X51000Y256257D01*
X52028Y256393D01*
X52608Y256633D01*
X54534Y254707D01*
X54990Y254403D01*
X55528Y254296D01*
X57450D01*
X57657Y253796D01*
X57298Y253436D01*
X49779D01*
X44595Y258620D01*
X44836Y259201D01*
X44971Y260228D01*
Y263772D01*
X44836Y264799D01*
X44439Y265757D01*
X43808Y266580D01*
X42985Y267211D01*
X42028Y267607D01*
X41000Y267743D01*
X39972Y267607D01*
X39015Y267211D01*
X38192Y266580D01*
X37561Y265757D01*
X37164Y264799D01*
X37029Y263772D01*
Y260228D01*
X37164Y259201D01*
X37561Y258243D01*
X38192Y257420D01*
X39015Y256789D01*
X39972Y256393D01*
X41000Y256257D01*
X42028Y256393D01*
X42608Y256633D01*
X48203Y251038D01*
X48659Y250733D01*
X49197Y250626D01*
X57880D01*
X58417Y250733D01*
X58873Y251038D01*
X59430Y251595D01*
X61712D01*
X61778Y251095D01*
X61555Y251036D01*
X60568Y250465D01*
X59762Y249659D01*
X59192Y248672D01*
X58896Y247570D01*
Y246430D01*
X59192Y245328D01*
X59762Y244341D01*
X60568Y243535D01*
X61555Y242964D01*
X62657Y242669D01*
X63797D01*
X64899Y242964D01*
X65886Y243535D01*
X66693Y244341D01*
X67263Y245328D01*
X67558Y246430D01*
Y247570D01*
X67263Y248672D01*
X66693Y249659D01*
X65886Y250465D01*
X64899Y251036D01*
X64677Y251095D01*
X64743Y251595D01*
X66471D01*
X66735Y251331D01*
X67459Y251031D01*
X68242D01*
X68966Y251331D01*
X69519Y251885D01*
X69620Y252129D01*
X70125Y252331D01*
X70192Y252303D01*
X70849Y252031D01*
X71632D01*
X72356Y252331D01*
X72909Y252885D01*
X73209Y253608D01*
Y254392D01*
X72909Y255115D01*
X72356Y255669D01*
X71874Y255868D01*
X71942Y256381D01*
X72028Y256393D01*
X72986Y256789D01*
X73808Y257420D01*
X74439Y258243D01*
X74836Y259201D01*
X74971Y260228D01*
Y263772D01*
X74836Y264799D01*
X74439Y265757D01*
X73808Y266580D01*
X72986Y267211D01*
X72028Y267607D01*
X71000Y267743D01*
D02*
G37*
G36*
X21546Y251150D02*
X21500D01*
Y247500D01*
X25150D01*
Y247546D01*
X24867Y248602D01*
X24320Y249548D01*
X23548Y250321D01*
X22602Y250867D01*
X21546Y251150D01*
D02*
G37*
G36*
X25150Y246500D02*
X21500D01*
Y242850D01*
X21546D01*
X22602Y243133D01*
X23548Y243679D01*
X24320Y244452D01*
X24867Y245398D01*
X25150Y246454D01*
Y246500D01*
D02*
G37*
G36*
X71500Y237891D02*
Y232500D01*
X75185D01*
Y233772D01*
X75043Y234855D01*
X74625Y235864D01*
X73959Y236731D01*
X73093Y237396D01*
X72083Y237814D01*
X71500Y237891D01*
D02*
G37*
G36*
X70500D02*
X69917Y237814D01*
X68907Y237396D01*
X68041Y236731D01*
X67375Y235864D01*
X66957Y234855D01*
X66815Y233772D01*
Y232500D01*
X70500D01*
Y237891D01*
D02*
G37*
G36*
X61000Y237743D02*
X59972Y237607D01*
X59014Y237211D01*
X58192Y236580D01*
X57561Y235757D01*
X57164Y234799D01*
X57029Y233772D01*
Y230228D01*
X57164Y229201D01*
X57454Y228501D01*
X57251Y228285D01*
X57051Y228168D01*
X56392Y228441D01*
X55608D01*
X54949Y228168D01*
X54749Y228285D01*
X54546Y228501D01*
X54836Y229201D01*
X54971Y230228D01*
Y233772D01*
X54836Y234799D01*
X54439Y235757D01*
X53808Y236580D01*
X52986Y237211D01*
X52028Y237607D01*
X51000Y237743D01*
X49972Y237607D01*
X49014Y237211D01*
X48192Y236580D01*
X47561Y235757D01*
X47164Y234799D01*
X47029Y233772D01*
Y230228D01*
X47164Y229201D01*
X47561Y228243D01*
X48192Y227420D01*
X49014Y226789D01*
X49972Y226393D01*
X51000Y226257D01*
X52028Y226393D01*
X52986Y226789D01*
X53680Y227322D01*
X54091Y227007D01*
X54031Y226864D01*
Y226081D01*
X54331Y225357D01*
X54595Y225094D01*
Y223603D01*
X54095Y223434D01*
X53808Y223808D01*
X52986Y224439D01*
X52028Y224836D01*
X51000Y224971D01*
X49972Y224836D01*
X49014Y224439D01*
X48192Y223808D01*
X47561Y222986D01*
X47164Y222028D01*
X47029Y221000D01*
Y217457D01*
X47164Y216429D01*
X47561Y215471D01*
X48192Y214649D01*
X49014Y214018D01*
X49972Y213621D01*
X51000Y213486D01*
X52028Y213621D01*
X52986Y214018D01*
X53808Y214649D01*
X54095Y215023D01*
X54595Y214853D01*
Y210834D01*
X54131Y210370D01*
X53758D01*
X53035Y210070D01*
X52481Y209517D01*
X52181Y208793D01*
Y208010D01*
X52481Y207287D01*
X53035Y206733D01*
X53758Y206433D01*
X54541D01*
X55265Y206733D01*
X55818Y207287D01*
X56118Y208010D01*
Y208383D01*
X56993Y209259D01*
X57298Y209714D01*
X57405Y210252D01*
Y214853D01*
X57905Y215023D01*
X58192Y214649D01*
X59014Y214018D01*
X59972Y213621D01*
X61000Y213486D01*
X62028Y213621D01*
X62985Y214018D01*
X63808Y214649D01*
X64439Y215471D01*
X64836Y216429D01*
X64971Y217457D01*
Y221000D01*
X64836Y222028D01*
X64439Y222986D01*
X63808Y223808D01*
X62985Y224439D01*
X62028Y224836D01*
X61000Y224971D01*
X59972Y224836D01*
X59014Y224439D01*
X58192Y223808D01*
X57905Y223434D01*
X57405Y223603D01*
Y225094D01*
X57669Y225357D01*
X57968Y226081D01*
Y226864D01*
X57909Y227007D01*
X58320Y227322D01*
X59014Y226789D01*
X59972Y226393D01*
X61000Y226257D01*
X62028Y226393D01*
X62985Y226789D01*
X63808Y227420D01*
X64439Y228243D01*
X64836Y229201D01*
X64971Y230228D01*
Y233772D01*
X64836Y234799D01*
X64439Y235757D01*
X63808Y236580D01*
X62985Y237211D01*
X62028Y237607D01*
X61000Y237743D01*
D02*
G37*
G36*
X41000D02*
X39972Y237607D01*
X39015Y237211D01*
X38192Y236580D01*
X37561Y235757D01*
X37164Y234799D01*
X37029Y233772D01*
Y230228D01*
X37164Y229201D01*
X37561Y228243D01*
X38192Y227420D01*
X39015Y226789D01*
X39972Y226393D01*
X41000Y226257D01*
X42028Y226393D01*
X42985Y226789D01*
X43808Y227420D01*
X44439Y228243D01*
X44836Y229201D01*
X44971Y230228D01*
Y233772D01*
X44836Y234799D01*
X44439Y235757D01*
X43808Y236580D01*
X42985Y237211D01*
X42028Y237607D01*
X41000Y237743D01*
D02*
G37*
G36*
X31000D02*
X29972Y237607D01*
X29015Y237211D01*
X28192Y236580D01*
X27561Y235757D01*
X27164Y234799D01*
X27029Y233772D01*
Y230228D01*
X27164Y229201D01*
X27561Y228243D01*
X28192Y227420D01*
X29015Y226789D01*
X29972Y226393D01*
X31000Y226257D01*
X32028Y226393D01*
X32985Y226789D01*
X33808Y227420D01*
X34439Y228243D01*
X34836Y229201D01*
X34971Y230228D01*
Y233772D01*
X34836Y234799D01*
X34439Y235757D01*
X33808Y236580D01*
X32985Y237211D01*
X32028Y237607D01*
X31000Y237743D01*
D02*
G37*
G36*
X75185Y231500D02*
X71500D01*
Y226109D01*
X72083Y226185D01*
X73093Y226604D01*
X73959Y227269D01*
X74625Y228136D01*
X75043Y229145D01*
X75185Y230228D01*
Y231500D01*
D02*
G37*
G36*
X70500D02*
X66815D01*
Y230228D01*
X66957Y229145D01*
X67375Y228136D01*
X68041Y227269D01*
X68907Y226604D01*
X69917Y226185D01*
X70500Y226109D01*
Y231500D01*
D02*
G37*
G36*
X71000Y224971D02*
X69972Y224836D01*
X69015Y224439D01*
X68192Y223808D01*
X67561Y222986D01*
X67164Y222028D01*
X67029Y221000D01*
Y217457D01*
X67164Y216429D01*
X67405Y215848D01*
X62007Y210450D01*
X61702Y209994D01*
X61595Y209457D01*
Y204568D01*
X61702Y204030D01*
X62007Y203574D01*
X65095Y200486D01*
Y200113D01*
X65394Y199390D01*
X65948Y198836D01*
X66671Y198536D01*
X67454D01*
X68178Y198836D01*
X68732Y199390D01*
X69032Y200113D01*
Y200896D01*
X68732Y201620D01*
X68178Y202174D01*
X67454Y202473D01*
X67081D01*
X64405Y205150D01*
Y208875D01*
X69392Y213861D01*
X69972Y213621D01*
X71000Y213486D01*
X72028Y213621D01*
X72986Y214018D01*
X73808Y214649D01*
X74439Y215471D01*
X74836Y216429D01*
X74971Y217457D01*
Y221000D01*
X74836Y222028D01*
X74439Y222986D01*
X73808Y223808D01*
X72986Y224439D01*
X72028Y224836D01*
X71000Y224971D01*
D02*
G37*
G36*
X41000D02*
X39972Y224836D01*
X39015Y224439D01*
X38192Y223808D01*
X37561Y222986D01*
X37164Y222028D01*
X37029Y221000D01*
Y217457D01*
X37164Y216429D01*
X37561Y215471D01*
X38192Y214649D01*
X39015Y214018D01*
X39972Y213621D01*
X41000Y213486D01*
X42028Y213621D01*
X42985Y214018D01*
X43808Y214649D01*
X44439Y215471D01*
X44836Y216429D01*
X44971Y217457D01*
Y221000D01*
X44836Y222028D01*
X44439Y222986D01*
X43808Y223808D01*
X42985Y224439D01*
X42028Y224836D01*
X41000Y224971D01*
D02*
G37*
G36*
X31000D02*
X29972Y224836D01*
X29015Y224439D01*
X28192Y223808D01*
X27561Y222986D01*
X27164Y222028D01*
X27029Y221000D01*
Y217457D01*
X27164Y216429D01*
X27561Y215471D01*
X28192Y214649D01*
X29015Y214018D01*
X29972Y213621D01*
X31000Y213486D01*
X32028Y213621D01*
X32985Y214018D01*
X33808Y214649D01*
X34439Y215471D01*
X34836Y216429D01*
X34971Y217457D01*
Y221000D01*
X34836Y222028D01*
X34439Y222986D01*
X33808Y223808D01*
X32985Y224439D01*
X32028Y224836D01*
X31000Y224971D01*
D02*
G37*
G36*
X21546Y208150D02*
X21500D01*
Y204500D01*
X25150D01*
Y204546D01*
X24867Y205602D01*
X24320Y206548D01*
X23548Y207320D01*
X22602Y207867D01*
X21546Y208150D01*
D02*
G37*
G36*
X220500Y208891D02*
Y203500D01*
X224185D01*
Y204772D01*
X224043Y205855D01*
X223625Y206864D01*
X222959Y207731D01*
X222093Y208396D01*
X221083Y208815D01*
X220500Y208891D01*
D02*
G37*
G36*
X25150Y203500D02*
X21500D01*
Y199850D01*
X21546D01*
X22602Y200133D01*
X23548Y200679D01*
X24320Y201452D01*
X24867Y202398D01*
X25150Y203454D01*
Y203500D01*
D02*
G37*
G36*
X71500Y195120D02*
Y189728D01*
X75185D01*
Y191000D01*
X75043Y192083D01*
X74625Y193093D01*
X73959Y193959D01*
X73093Y194625D01*
X72083Y195043D01*
X71500Y195120D01*
D02*
G37*
G36*
X70500Y195120D02*
X69917Y195043D01*
X68907Y194625D01*
X68041Y193959D01*
X67375Y193093D01*
X66957Y192083D01*
X66815Y191000D01*
Y189728D01*
X70500D01*
Y195120D01*
D02*
G37*
G36*
X75185Y188728D02*
X71500D01*
Y183337D01*
X72083Y183414D01*
X73093Y183832D01*
X73959Y184497D01*
X74625Y185364D01*
X75043Y186373D01*
X75185Y187457D01*
Y188728D01*
D02*
G37*
G36*
X70500D02*
X66815D01*
Y187457D01*
X66957Y186373D01*
X67375Y185364D01*
X68041Y184497D01*
X68907Y183832D01*
X69917Y183414D01*
X70500Y183337D01*
Y188728D01*
D02*
G37*
G36*
X32546Y165150D02*
X32500D01*
Y161500D01*
X36150D01*
Y161546D01*
X35867Y162602D01*
X35320Y163548D01*
X34548Y164321D01*
X33602Y164867D01*
X32546Y165150D01*
D02*
G37*
G36*
X47657Y164347D02*
Y161500D01*
X50504D01*
X50291Y162298D01*
X49848Y163064D01*
X49222Y163690D01*
X48455Y164133D01*
X47657Y164347D01*
D02*
G37*
G36*
X46657D02*
X45860Y164133D01*
X45093Y163690D01*
X44467Y163064D01*
X44024Y162298D01*
X43811Y161500D01*
X46657D01*
Y164347D01*
D02*
G37*
G36*
X31500Y165150D02*
X31454D01*
X30398Y164867D01*
X29452Y164321D01*
X28679Y163548D01*
X28133Y162602D01*
X27850Y161546D01*
Y161500D01*
X31500D01*
Y165150D01*
D02*
G37*
G36*
X50504Y160500D02*
X47657D01*
Y157653D01*
X48455Y157867D01*
X49222Y158310D01*
X49848Y158936D01*
X50291Y159702D01*
X50504Y160500D01*
D02*
G37*
G36*
X46657D02*
X43811D01*
X44024Y159702D01*
X44467Y158936D01*
X45093Y158310D01*
X45860Y157867D01*
X46657Y157653D01*
Y160500D01*
D02*
G37*
G36*
X22518Y164937D02*
X21482D01*
X20480Y164669D01*
X19583Y164150D01*
X18850Y163417D01*
X18331Y162520D01*
X18063Y161518D01*
Y160482D01*
X18331Y159480D01*
X18850Y158583D01*
X19583Y157850D01*
X20480Y157331D01*
X21482Y157063D01*
X22518D01*
X23520Y157331D01*
X24417Y157850D01*
X25150Y158583D01*
X25669Y159480D01*
X25937Y160482D01*
Y161518D01*
X25669Y162520D01*
X25150Y163417D01*
X24417Y164150D01*
X23520Y164669D01*
X22518Y164937D01*
D02*
G37*
G36*
X36150Y160500D02*
X32500D01*
Y156850D01*
X32546D01*
X33602Y157133D01*
X34548Y157679D01*
X35320Y158452D01*
X35867Y159398D01*
X36150Y160454D01*
Y160500D01*
D02*
G37*
G36*
X31500D02*
X27850D01*
Y160454D01*
X28133Y159398D01*
X28679Y158452D01*
X29452Y157679D01*
X30398Y157133D01*
X31454Y156850D01*
X31500D01*
Y160500D01*
D02*
G37*
G36*
X57415Y164150D02*
X56585D01*
X55784Y163935D01*
X55066Y163520D01*
X54480Y162934D01*
X54065Y162216D01*
X53850Y161415D01*
Y160585D01*
X54065Y159784D01*
X54480Y159066D01*
X55066Y158480D01*
X55595Y158174D01*
Y154354D01*
X52608Y151367D01*
X52028Y151607D01*
X51000Y151743D01*
X49972Y151607D01*
X49014Y151211D01*
X48192Y150580D01*
X47561Y149757D01*
X47164Y148799D01*
X47029Y147772D01*
Y144228D01*
X47164Y143201D01*
X47561Y142243D01*
X48192Y141420D01*
X49014Y140789D01*
X49972Y140393D01*
X51000Y140257D01*
X52028Y140393D01*
X52986Y140789D01*
X53808Y141420D01*
X54439Y142243D01*
X54836Y143201D01*
X54971Y144228D01*
Y147772D01*
X54836Y148799D01*
X54595Y149380D01*
X57993Y152778D01*
X58298Y153234D01*
X58405Y153772D01*
Y158174D01*
X58934Y158480D01*
X59520Y159066D01*
X59935Y159784D01*
X60150Y160585D01*
Y161415D01*
X59935Y162216D01*
X59520Y162934D01*
X58934Y163520D01*
X58216Y163935D01*
X57415Y164150D01*
D02*
G37*
G36*
X220500Y136891D02*
Y131500D01*
X224185D01*
Y132772D01*
X224043Y133855D01*
X223625Y134864D01*
X222959Y135731D01*
X222093Y136396D01*
X221083Y136814D01*
X220500Y136891D01*
D02*
G37*
G36*
X41000Y151743D02*
X39972Y151607D01*
X39015Y151211D01*
X38192Y150580D01*
X37561Y149757D01*
X37164Y148799D01*
X37029Y147772D01*
Y144228D01*
X37164Y143201D01*
X37561Y142243D01*
X38192Y141420D01*
X39015Y140789D01*
X39972Y140393D01*
X41000Y140257D01*
X42028Y140393D01*
X42800Y140713D01*
X47325Y136188D01*
X47164Y135799D01*
X47029Y134772D01*
Y131228D01*
X47164Y130201D01*
X47561Y129243D01*
X48192Y128420D01*
X49014Y127789D01*
X49972Y127393D01*
X51000Y127257D01*
X52028Y127393D01*
X52986Y127789D01*
X53808Y128420D01*
X54439Y129243D01*
X54836Y130201D01*
X54971Y131228D01*
Y134772D01*
X54836Y135799D01*
X54439Y136757D01*
X53808Y137580D01*
X52986Y138211D01*
X52028Y138607D01*
X51000Y138743D01*
X49972Y138607D01*
X49200Y138287D01*
X44675Y142812D01*
X44836Y143201D01*
X44971Y144228D01*
Y147772D01*
X44836Y148799D01*
X44439Y149757D01*
X43808Y150580D01*
X42985Y151211D01*
X42028Y151607D01*
X41000Y151743D01*
D02*
G37*
G36*
X71500Y108891D02*
Y103500D01*
X75185D01*
Y104772D01*
X75043Y105855D01*
X74625Y106864D01*
X73959Y107731D01*
X73093Y108396D01*
X72083Y108815D01*
X71500Y108891D01*
D02*
G37*
G36*
X80300Y88441D02*
Y87000D01*
X81741D01*
X81482Y87624D01*
X80924Y88182D01*
X80300Y88441D01*
D02*
G37*
G36*
X79300D02*
X78676Y88182D01*
X78118Y87624D01*
X77859Y87000D01*
X79300D01*
Y88441D01*
D02*
G37*
G36*
X81741Y86000D02*
X80300D01*
Y84559D01*
X80924Y84818D01*
X81482Y85376D01*
X81741Y86000D01*
D02*
G37*
G36*
X79300D02*
X77859D01*
X78118Y85376D01*
X78676Y84818D01*
X79300Y84559D01*
Y86000D01*
D02*
G37*
G36*
X71535Y65891D02*
Y60500D01*
X75220D01*
Y61772D01*
X75077Y62855D01*
X74659Y63864D01*
X73994Y64731D01*
X73127Y65396D01*
X72118Y65815D01*
X71535Y65891D01*
D02*
G37*
G36*
X220500Y64891D02*
Y59500D01*
X224185D01*
Y60772D01*
X224043Y61855D01*
X223625Y62864D01*
X222959Y63731D01*
X222093Y64396D01*
X221083Y64815D01*
X220500Y64891D01*
D02*
G37*
G36*
X79710Y60941D02*
X79086Y60682D01*
X78528Y60124D01*
X78270Y59500D01*
X79710D01*
Y60941D01*
D02*
G37*
G36*
Y58500D02*
X78270D01*
X78528Y57876D01*
X79086Y57318D01*
X79710Y57059D01*
Y58500D01*
D02*
G37*
G36*
X224185D02*
X220500D01*
Y53109D01*
X221083Y53185D01*
X222093Y53604D01*
X222959Y54269D01*
X223625Y55136D01*
X224043Y56145D01*
X224185Y57228D01*
Y58500D01*
D02*
G37*
G36*
X220100Y38343D02*
Y35904D01*
X222539D01*
X222366Y36550D01*
X221975Y37227D01*
X221423Y37779D01*
X220746Y38170D01*
X220100Y38343D01*
D02*
G37*
G36*
X219100D02*
X218454Y38170D01*
X217777Y37779D01*
X217225Y37227D01*
X216834Y36550D01*
X216661Y35904D01*
X219100D01*
Y38343D01*
D02*
G37*
G36*
X222539Y34904D02*
X220100D01*
Y32465D01*
X220746Y32638D01*
X221423Y33029D01*
X221975Y33581D01*
X222366Y34258D01*
X222539Y34904D01*
D02*
G37*
G36*
X219100D02*
X216661D01*
X216834Y34258D01*
X217225Y33581D01*
X217777Y33029D01*
X218454Y32638D01*
X219100Y32465D01*
Y34904D01*
D02*
G37*
G36*
X221168Y30805D02*
X219700D01*
Y16500D01*
X224163D01*
Y27811D01*
X224061Y28586D01*
X223762Y29308D01*
X223286Y29928D01*
X222666Y30404D01*
X221943Y30703D01*
X221168Y30805D01*
D02*
G37*
G36*
X103060Y50967D02*
Y49527D01*
X104501D01*
X104243Y50151D01*
X103684Y50709D01*
X103060Y50967D01*
D02*
G37*
G36*
X104501Y48527D02*
X103060D01*
Y47086D01*
X103684Y47344D01*
X104243Y47903D01*
X104501Y48527D01*
D02*
G37*
G36*
X10200Y119541D02*
Y118100D01*
X11641D01*
X11382Y118724D01*
X10824Y119282D01*
X10200Y119541D01*
D02*
G37*
G36*
X9200D02*
X8576Y119282D01*
X8018Y118724D01*
X7759Y118100D01*
X9200D01*
Y119541D01*
D02*
G37*
G36*
X11641Y117100D02*
X10200D01*
Y115659D01*
X10824Y115918D01*
X11382Y116476D01*
X11641Y117100D01*
D02*
G37*
G36*
X9200D02*
X7759D01*
X8018Y116476D01*
X8576Y115918D01*
X9200Y115659D01*
Y117100D01*
D02*
G37*
G36*
X14937Y108709D02*
X7063D01*
Y97291D01*
X14937D01*
Y108709D01*
D02*
G37*
G36*
X78300Y50341D02*
Y48900D01*
X79741D01*
X79482Y49524D01*
X78924Y50082D01*
X78300Y50341D01*
D02*
G37*
G36*
X77300D02*
X76676Y50082D01*
X76118Y49524D01*
X75859Y48900D01*
X77300D01*
Y50341D01*
D02*
G37*
G36*
X79741Y47900D02*
X78300D01*
Y46459D01*
X78924Y46718D01*
X79482Y47276D01*
X79741Y47900D01*
D02*
G37*
G36*
X77300D02*
X75859D01*
X76118Y47276D01*
X76676Y46718D01*
X77300Y46459D01*
Y47900D01*
D02*
G37*
G36*
X72500Y41141D02*
Y39700D01*
X73941D01*
X73682Y40324D01*
X73124Y40882D01*
X72500Y41141D01*
D02*
G37*
G36*
X71500D02*
X70876Y40882D01*
X70318Y40324D01*
X70059Y39700D01*
X71500D01*
Y41141D01*
D02*
G37*
G36*
X73941Y38700D02*
X72500D01*
Y37259D01*
X73124Y37518D01*
X73682Y38076D01*
X73941Y38700D01*
D02*
G37*
G36*
X71500D02*
X70059D01*
X70318Y38076D01*
X70876Y37518D01*
X71500Y37259D01*
Y38700D01*
D02*
G37*
G36*
X53900Y38341D02*
Y36900D01*
X55341D01*
X55082Y37524D01*
X54524Y38082D01*
X53900Y38341D01*
D02*
G37*
G36*
X52900D02*
X52276Y38082D01*
X51718Y37524D01*
X51459Y36900D01*
X52900D01*
Y38341D01*
D02*
G37*
G36*
X55341Y35900D02*
X53900D01*
Y34459D01*
X54524Y34718D01*
X55082Y35276D01*
X55341Y35900D01*
D02*
G37*
G36*
X52900D02*
X51459D01*
X51718Y35276D01*
X52276Y34718D01*
X52900Y34459D01*
Y35900D01*
D02*
G37*
G36*
X64000Y35041D02*
Y33600D01*
X65441D01*
X65182Y34224D01*
X64624Y34782D01*
X64000Y35041D01*
D02*
G37*
G36*
X63000D02*
X62376Y34782D01*
X61818Y34224D01*
X61559Y33600D01*
X63000D01*
Y35041D01*
D02*
G37*
G36*
X65441Y32600D02*
X64000D01*
Y31159D01*
X64624Y31418D01*
X65182Y31976D01*
X65441Y32600D01*
D02*
G37*
G36*
X63000D02*
X61559D01*
X61818Y31976D01*
X62376Y31418D01*
X63000Y31159D01*
Y32600D01*
D02*
G37*
G36*
X17200Y49341D02*
Y47900D01*
X18641D01*
X18382Y48524D01*
X17824Y49082D01*
X17200Y49341D01*
D02*
G37*
G36*
X39300Y37041D02*
Y35600D01*
X40741D01*
X40482Y36224D01*
X39924Y36782D01*
X39300Y37041D01*
D02*
G37*
G36*
X38300D02*
X37676Y36782D01*
X37118Y36224D01*
X36859Y35600D01*
X38300D01*
Y37041D01*
D02*
G37*
G36*
X40741Y34600D02*
X39300D01*
Y33159D01*
X39924Y33418D01*
X40482Y33976D01*
X40741Y34600D01*
D02*
G37*
G36*
X38300D02*
X36859D01*
X37118Y33976D01*
X37676Y33418D01*
X38300Y33159D01*
Y34600D01*
D02*
G37*
G36*
X87350Y50967D02*
Y49527D01*
X88791D01*
X88533Y50151D01*
X87974Y50709D01*
X87350Y50967D01*
D02*
G37*
G36*
X88791Y48527D02*
X87350D01*
Y47086D01*
X87974Y47344D01*
X88533Y47903D01*
X88791Y48527D01*
D02*
G37*
G36*
X104900Y35841D02*
Y34400D01*
X106341D01*
X106082Y35024D01*
X105524Y35582D01*
X104900Y35841D01*
D02*
G37*
G36*
X103900D02*
X103276Y35582D01*
X102718Y35024D01*
X102459Y34400D01*
X103900D01*
Y35841D01*
D02*
G37*
G36*
X106341Y33400D02*
X104900D01*
Y31959D01*
X105524Y32218D01*
X106082Y32776D01*
X106341Y33400D01*
D02*
G37*
G36*
X103900D02*
X102459D01*
X102718Y32776D01*
X103276Y32218D01*
X103900Y31959D01*
Y33400D01*
D02*
G37*
G36*
X9700Y36939D02*
Y34500D01*
X12139D01*
X11966Y35146D01*
X11575Y35823D01*
X11023Y36375D01*
X10346Y36766D01*
X9700Y36939D01*
D02*
G37*
G36*
X8700D02*
X8054Y36766D01*
X7377Y36375D01*
X6825Y35823D01*
X6434Y35146D01*
X6261Y34500D01*
X8700D01*
Y36939D01*
D02*
G37*
G36*
X94900Y35041D02*
Y33600D01*
X96341D01*
X96082Y34224D01*
X95524Y34782D01*
X94900Y35041D01*
D02*
G37*
G36*
X93900D02*
X93276Y34782D01*
X92718Y34224D01*
X92459Y33600D01*
X93900D01*
Y35041D01*
D02*
G37*
G36*
X96341Y32600D02*
X94900D01*
Y31159D01*
X95524Y31418D01*
X96082Y31976D01*
X96341Y32600D01*
D02*
G37*
G36*
X93900D02*
X92459D01*
X92718Y31976D01*
X93276Y31418D01*
X93900Y31159D01*
Y32600D01*
D02*
G37*
%LPD*%
D28*
X9200Y16000D02*
D03*
X19200D02*
D03*
X29200D02*
D03*
X39200D02*
D03*
X49200D02*
D03*
X59200D02*
D03*
X69200D02*
D03*
X79200D02*
D03*
X89200D02*
D03*
X99200D02*
D03*
X109200D02*
D03*
X119200D02*
D03*
X129200D02*
D03*
X139200D02*
D03*
X149200D02*
D03*
X159200D02*
D03*
X169200D02*
D03*
X179200D02*
D03*
X189200D02*
D03*
X199200D02*
D03*
X209200D02*
D03*
X219200D02*
D03*
D29*
X29059Y41441D02*
X41168D01*
X15562Y54938D02*
X29059Y41441D01*
X15562Y54938D02*
Y66813D01*
X26169Y47115D02*
X28698Y44586D01*
X41004D01*
X26169Y47115D02*
Y63041D01*
X71134Y254000D02*
X71240D01*
X49197Y252031D02*
X57880D01*
X69433Y255701D02*
X71134Y254000D01*
X51000Y260228D02*
X55528Y255701D01*
X57880Y252031D02*
X58848Y253000D01*
X55528Y255701D02*
X69433D01*
X58848Y253000D02*
X67850D01*
X100181Y154830D02*
Y170778D01*
X104528Y175125D01*
X105472Y125299D02*
Y159590D01*
X114094Y173270D02*
X114528Y173703D01*
X110000Y199988D02*
X114528Y195460D01*
Y188298D02*
Y195460D01*
Y188298D02*
X116496Y186329D01*
Y172888D02*
Y186329D01*
X104528Y175125D02*
Y195460D01*
X100000Y132772D02*
X103146Y135917D01*
X100000Y199988D02*
X104528Y195460D01*
X103146Y135917D02*
Y151865D01*
X116063Y167397D02*
Y172455D01*
X114528Y173703D02*
Y178875D01*
X116063Y172455D02*
X116496Y172888D01*
X114094Y168212D02*
Y173270D01*
X105472Y159590D02*
X114094Y168212D01*
X110000Y161334D02*
X116063Y167397D01*
X100000Y199988D02*
Y204772D01*
X100181Y154830D02*
X103146Y151865D01*
X100000Y127988D02*
Y132772D01*
X110000Y127988D02*
Y161334D01*
X26035Y86825D02*
X34528Y78333D01*
Y72981D02*
Y78333D01*
X31035Y69488D02*
X34528Y72981D01*
X31035Y60000D02*
Y69488D01*
X72000Y53000D02*
X81000D01*
X36472Y99353D02*
Y120863D01*
X35528Y129353D02*
Y139701D01*
X33462Y123873D02*
Y127287D01*
Y123873D02*
X36472Y120863D01*
X33462Y127287D02*
X35528Y129353D01*
X31000Y144228D02*
X35528Y139701D01*
X144528Y211157D02*
Y226990D01*
X147441Y211504D02*
X147661Y211724D01*
X144337Y210967D02*
X144528Y211157D01*
X147661Y211724D02*
Y226504D01*
X99200Y16000D02*
Y34856D01*
X90000Y44056D02*
X99200Y34856D01*
X63794Y44056D02*
X79200D01*
X83559Y45524D02*
Y79917D01*
X89200Y16000D02*
Y39884D01*
X83559Y45524D02*
X89200Y39884D01*
X58808Y44000D02*
X69200Y33608D01*
Y16000D02*
Y33608D01*
X83559Y79917D02*
X83916Y80274D01*
X64184Y51083D02*
Y53642D01*
X66507Y55965D01*
Y73472D01*
X18499Y70710D02*
X26169Y63041D01*
X7994Y78000D02*
X15284Y70710D01*
X7937Y78000D02*
X7994D01*
X15284Y70710D02*
X18499D01*
X7937Y74438D02*
X15562Y66813D01*
X66507Y73472D02*
X71035Y78000D01*
X74184D02*
X75562Y79378D01*
X59125Y109299D02*
X62875D01*
X56101Y106276D02*
X59125Y109299D01*
X56101Y99746D02*
Y106276D01*
X75562Y79378D02*
Y93647D01*
X72509Y96701D02*
X75562Y93647D01*
X65528Y100298D02*
X69125Y96701D01*
X65528Y100298D02*
Y106647D01*
X62875Y109299D02*
X65528Y106647D01*
X69125Y96701D02*
X72509D01*
X106850Y46559D02*
X115734D01*
X109579Y49118D02*
X115472Y55012D01*
Y85158D01*
X115734Y46559D02*
X125000Y55825D01*
X104630Y44000D02*
X125000D01*
X134528Y53528D01*
X108773Y41181D02*
X109092D01*
X140783Y41609D02*
X155203Y56029D01*
X109520Y41609D02*
X140783D01*
X109092Y41181D02*
X109520Y41609D01*
X144958Y43000D02*
X162175D01*
X139200Y16000D02*
Y37242D01*
X144958Y43000D01*
X126496Y113724D02*
X130000Y117228D01*
X125000Y84036D02*
X126496Y85532D01*
X130000Y117228D02*
Y119000D01*
X126496Y85532D02*
Y113724D01*
X125000Y55825D02*
Y84036D01*
X120000Y90962D02*
X124528Y95490D01*
X120000Y131000D02*
Y162962D01*
X124528Y95490D02*
Y123460D01*
X120000Y127988D02*
Y131000D01*
Y59000D02*
Y90962D01*
X94528Y50245D02*
Y79216D01*
X94000Y79744D02*
X94528Y79216D01*
X116496Y113724D02*
X120000Y117228D01*
X115472Y85158D02*
X116496Y86181D01*
X120000Y117228D02*
Y119000D01*
X116496Y86181D02*
Y113724D01*
X110000Y96784D02*
X114528Y101311D01*
Y123460D01*
X110000Y59000D02*
Y96784D01*
X105472Y66244D02*
Y122515D01*
X100000Y60772D02*
X105472Y66244D01*
X100000Y127988D02*
X105472Y122515D01*
X52508Y96701D02*
X56507Y92702D01*
X45528Y96701D02*
X52508D01*
X41000Y101228D02*
Y103000D01*
X36472Y99353D02*
X39526Y96299D01*
X41000Y101228D02*
X45528Y96701D01*
X42910Y96299D02*
X46000Y93209D01*
Y86860D02*
Y93209D01*
X39526Y96299D02*
X42910D01*
X56507Y86353D02*
X61035Y81825D01*
Y60000D02*
Y81825D01*
X56507Y86353D02*
Y92702D01*
X26035Y86825D02*
Y93175D01*
X22910Y96299D02*
X26035Y93175D01*
X21692Y96299D02*
X22910D01*
X21000Y96991D02*
X21692Y96299D01*
X21000Y96991D02*
Y103000D01*
X29200Y48000D02*
X36507Y55307D01*
X47531Y71353D02*
Y85329D01*
X46507Y56353D02*
X49200Y53660D01*
X46507Y56353D02*
Y70329D01*
X36000Y86860D02*
Y93209D01*
Y86860D02*
X45562Y77298D01*
Y72702D02*
Y77298D01*
X36507Y55307D02*
Y63647D01*
X45562Y72702D01*
X46507Y70329D02*
X47531Y71353D01*
X46000Y86860D02*
X47531Y85329D01*
X51000Y101228D02*
X55528Y96701D01*
X62508D02*
X65562Y93647D01*
Y91024D02*
X66586Y90000D01*
X51000Y101228D02*
Y103000D01*
X55528Y96701D02*
X62508D01*
X65562Y91024D02*
Y93647D01*
X66586Y90000D02*
X71035D01*
X31000Y101517D02*
X41035Y91483D01*
X31000Y101517D02*
Y103000D01*
X41035Y90000D02*
Y91483D01*
X32910Y96299D02*
X36000Y93209D01*
X25925Y99001D02*
X28627Y96299D01*
X32910D01*
X25925Y99001D02*
Y119478D01*
X31000Y144228D02*
Y146000D01*
X49200Y16000D02*
Y53660D01*
X15528Y129875D02*
Y267164D01*
Y129875D02*
X25925Y119478D01*
X21000Y133000D02*
Y146000D01*
X41000Y144500D02*
X51000Y134500D01*
X41000Y144500D02*
Y146000D01*
X51000Y133000D02*
Y134500D01*
X72276Y159048D02*
Y165582D01*
X72095Y165764D02*
X72276Y165582D01*
X66000Y149175D02*
X74654Y157828D01*
Y168347D01*
X73299Y169701D02*
X74654Y168347D01*
X61000Y147772D02*
X72276Y159048D01*
X69125Y169701D02*
X73299D01*
X61000Y146000D02*
Y147772D01*
X72287Y123538D02*
X75914D01*
X66000Y129825D02*
Y149175D01*
X75914Y123538D02*
X94000Y105452D01*
X66000Y129825D02*
X72287Y123538D01*
X51000Y147772D02*
X57000Y153772D01*
Y161000D01*
X51000Y146000D02*
Y147772D01*
X66472Y172353D02*
X69125Y169701D01*
X62875D02*
X63188Y170013D01*
X64462D01*
X64688Y170239D01*
X35528Y169701D02*
X62875D01*
X63000Y204568D02*
X67063Y200505D01*
X63000Y204568D02*
Y209457D01*
X54150Y199000D02*
X56472Y196677D01*
X63000Y209457D02*
X71000Y217457D01*
Y219228D01*
X100000Y191000D02*
Y192772D01*
Y183403D02*
Y191000D01*
X31000Y174228D02*
X35528Y169701D01*
X31000Y174228D02*
Y176000D01*
X56551D02*
X61000D01*
X55528Y177024D02*
X56551Y176000D01*
X55528Y177024D02*
Y179647D01*
X52245Y182929D02*
X55528Y179647D01*
X49125Y182929D02*
X52245D01*
X47786Y184268D02*
X49125Y182929D01*
X44189Y184268D02*
X47786D01*
X41000Y187457D02*
X44189Y184268D01*
X41000Y187457D02*
Y189228D01*
X45145Y182299D02*
X51000Y176444D01*
Y176000D02*
Y176444D01*
X39755Y182299D02*
X45145D01*
X35449Y189228D02*
X36472Y188205D01*
Y185581D02*
X39755Y182299D01*
X31000Y189228D02*
X35449D01*
X36472Y185581D02*
Y188205D01*
X147773Y155992D02*
Y183000D01*
X135472Y137704D02*
X135709Y137940D01*
Y155081D02*
X138031Y157404D01*
X135709Y137940D02*
Y155081D01*
X135472Y125299D02*
Y137704D01*
X140000Y67175D02*
Y120772D01*
X130000Y199988D02*
Y228588D01*
X133150Y139000D02*
Y159165D01*
X136063Y162078D01*
Y172455D01*
X137087Y173478D01*
Y183587D01*
X134528Y181403D02*
Y195460D01*
X134095Y167057D02*
Y180970D01*
X134528Y181403D01*
X130000Y162962D02*
X134095Y167057D01*
X140000Y162962D02*
X144528Y167490D01*
X138031Y157404D02*
Y171639D01*
X140000Y129228D02*
Y131000D01*
Y162962D01*
X138031Y171639D02*
X140000Y173608D01*
X144528Y167490D02*
Y196701D01*
X54150Y208402D02*
X56000Y210252D01*
Y226472D01*
X56472Y185581D02*
Y196677D01*
Y185581D02*
X59440Y182614D01*
X63505D01*
X66472Y179647D01*
Y172353D02*
Y179647D01*
X147661Y226504D02*
X148078Y226922D01*
X167773Y222492D02*
Y244472D01*
X170000Y199988D02*
Y232078D01*
X175000Y237078D01*
X165472Y220192D02*
X167773Y222492D01*
X165472Y198540D02*
Y220192D01*
Y198540D02*
X170000Y194012D01*
Y191000D02*
Y194012D01*
X105785Y233531D02*
X114528Y242273D01*
X105785Y206960D02*
Y233531D01*
X105472Y206647D02*
X105785Y206960D01*
X105472Y197299D02*
Y206647D01*
Y197299D02*
X110000Y192772D01*
X98250Y50142D02*
Y54094D01*
X100000Y55843D02*
Y60772D01*
X98250Y54094D02*
X100000Y55843D01*
X94528Y50245D02*
X109200Y35573D01*
Y16000D02*
Y35573D01*
X83916Y80274D02*
Y111916D01*
X94000Y79744D02*
Y105452D01*
X90000Y59000D02*
Y105833D01*
X87416Y108416D02*
X90000Y105833D01*
X55840Y244887D02*
X55923D01*
X55000Y244047D02*
X55840Y244887D01*
X31000Y260228D02*
X45213Y246016D01*
X36523Y251921D02*
X44397Y244047D01*
X35079Y251921D02*
X36523D01*
X32856Y254144D02*
X35079Y251921D01*
X45213Y246016D02*
X48151D01*
X48742Y246606D01*
X52000D01*
X44397Y244047D02*
X55000D01*
X27085Y254144D02*
X32856D01*
X21000Y260228D02*
X27085Y254144D01*
X21000Y260228D02*
Y262000D01*
X31000Y260228D02*
Y262000D01*
X145472Y126540D02*
X150000Y122012D01*
X145472Y126540D02*
Y153692D01*
X147773Y155992D01*
X150000Y119000D02*
Y122012D01*
X92559Y196616D02*
Y200441D01*
Y196616D02*
X94528Y194647D01*
X90000Y131000D02*
Y176187D01*
Y203000D02*
X92559Y200441D01*
X94528Y180714D02*
Y194647D01*
X90000Y176187D02*
X94528Y180714D01*
X92559Y268616D02*
Y272441D01*
X94528Y252714D02*
Y266647D01*
X90000Y248187D02*
X94528Y252714D01*
X90000Y203000D02*
Y248187D01*
Y275000D02*
X92559Y272441D01*
Y268616D02*
X94528Y266647D01*
X41000Y260228D02*
X49197Y252031D01*
X41000Y260228D02*
Y262000D01*
X150000Y199988D02*
Y220559D01*
X151969Y222528D02*
Y236931D01*
X150000Y220559D02*
X151969Y222528D01*
X150000Y232462D02*
Y255000D01*
X151969Y236931D02*
X154528Y239490D01*
X144528Y226990D02*
X150000Y232462D01*
X140000Y201228D02*
X144528Y196701D01*
X140000Y201228D02*
Y203000D01*
Y228588D01*
X154528Y239490D02*
Y267460D01*
X140000Y283000D02*
X144528D01*
X150000Y288472D01*
X51000Y260228D02*
Y262000D01*
X71000Y177772D02*
X80748Y187520D01*
X71000Y176000D02*
Y177772D01*
X80748Y187520D02*
Y279576D01*
X75173Y282528D02*
X77797D01*
X74150Y283551D02*
X75173Y282528D01*
X74150Y283551D02*
Y288000D01*
X77797Y282528D02*
X80748Y279576D01*
X22000Y269866D02*
X25927Y273793D01*
Y278897D01*
X29854Y282824D01*
X31670D01*
X37556Y288709D01*
Y293178D01*
X42378Y298000D01*
X44150D01*
X15528Y267164D02*
X22000Y273636D01*
Y289000D01*
X31498Y310076D02*
Y311198D01*
X19238Y313984D02*
X28712D01*
X8514Y310549D02*
X15802D01*
X31498Y310076D02*
X31724Y309850D01*
X28712Y313984D02*
X31498Y311198D01*
X15802Y310549D02*
X19238Y313984D01*
X5079Y307114D02*
X8514Y310549D01*
X34284Y309692D02*
Y312082D01*
X26216Y320150D02*
X34284Y312082D01*
Y309692D02*
X40503Y303472D01*
X68238Y323377D02*
X76947D01*
X61055Y316193D02*
X68238Y323377D01*
X56915Y316193D02*
X61055D01*
X65890Y307373D02*
Y311512D01*
X56516Y298000D02*
X65890Y307373D01*
Y311512D02*
X72378Y318000D01*
X45108Y328000D02*
X56915Y316193D01*
X44150Y328000D02*
X45108D01*
X5079Y281744D02*
Y307114D01*
X47797Y322528D02*
X59000Y311324D01*
X36134Y322377D02*
X36285Y322528D01*
X59000Y310227D02*
Y311324D01*
X36285Y322528D02*
X47797D01*
X42893Y303472D02*
X44150Y302216D01*
Y298000D02*
Y302216D01*
X40503Y303472D02*
X42893D01*
X58677Y310550D02*
X59000Y310227D01*
X72378Y318000D02*
X74150D01*
X44150Y298000D02*
X56516D01*
X76947Y323377D02*
X80449Y319875D01*
Y306125D02*
Y319875D01*
X75173Y303472D02*
X77797D01*
X74150Y302449D02*
X75173Y303472D01*
X77797D02*
X80449Y306125D01*
X74150Y298000D02*
Y302449D01*
X72378Y278000D02*
X74150D01*
X150000Y288472D02*
Y335000D01*
X44150Y308000D02*
Y318000D01*
X62378Y288000D02*
X72378Y298000D01*
X44150Y288000D02*
X62378D01*
X72378Y298000D02*
X74150D01*
X42378Y338000D02*
X44150D01*
X5079Y281744D02*
X11051Y275772D01*
X10075Y293000D02*
X21925Y304850D01*
X22000D01*
X10000Y293000D02*
X10075D01*
X29000Y336468D02*
Y341000D01*
X26216Y333684D02*
X29000Y336468D01*
X26216Y320150D02*
Y333684D01*
X179200Y16000D02*
Y33243D01*
X180989Y35032D01*
X183603D01*
X189200Y16000D02*
Y33861D01*
X192339Y37000D01*
X198958D01*
X187603Y39031D02*
X198206D01*
X183603Y35032D02*
X187603Y39031D01*
X186787Y41000D02*
X193311D01*
X182787Y37000D02*
X186787Y41000D01*
X193311D02*
X205000Y52689D01*
X198206Y39031D02*
X214528Y55353D01*
X198958Y37000D02*
X210105Y48147D01*
X173011Y37000D02*
X182787D01*
X169200Y33189D02*
X173011Y37000D01*
X178269Y39094D02*
X188010Y48836D01*
X163837Y39094D02*
X178269D01*
X199200Y34458D02*
X208888Y44145D01*
X214832D01*
X199200Y16000D02*
Y34458D01*
X214528Y55353D02*
Y83185D01*
X210105Y48147D02*
X214863D01*
X188010Y48836D02*
X188010D01*
X152661Y41032D02*
X162990D01*
X170238Y41063D02*
X184528Y55353D01*
X149200Y37570D02*
X152661Y41032D01*
X162990D02*
X163022Y41063D01*
X159200Y34458D02*
X163837Y39094D01*
X163022Y41063D02*
X170238D01*
X162175Y43000D02*
X174528Y55353D01*
X169200Y16000D02*
Y33189D01*
X159200Y16000D02*
Y34458D01*
X188010Y48836D02*
X195000Y55825D01*
Y84036D01*
X205000Y52689D02*
Y84036D01*
X208403Y16797D02*
X209200Y16000D01*
X211203Y41000D02*
X215000D01*
X208403Y16797D02*
Y38200D01*
X211203Y41000D01*
X184528Y55353D02*
Y61702D01*
X149200Y16000D02*
Y37570D01*
X141969Y66359D02*
Y92931D01*
X140830Y65220D02*
X141969Y66359D01*
X140830Y59830D02*
Y65220D01*
X134528Y53528D02*
Y61702D01*
X140000Y67175D01*
X141969Y92931D02*
X144528Y95490D01*
X140000Y59000D02*
X140830Y59830D01*
X144528Y95490D02*
Y124701D01*
X155203Y56029D02*
Y83200D01*
X156496Y84493D01*
X160000Y117228D02*
Y119000D01*
X156496Y113724D02*
X160000Y117228D01*
X156496Y84493D02*
Y113724D01*
X150000Y59000D02*
Y90962D01*
X154528Y95490D01*
X134528D02*
Y123460D01*
X130000Y59000D02*
Y90962D01*
X134528Y95490D01*
X216496Y113724D02*
X220000Y117228D01*
Y119000D01*
X216496Y85154D02*
Y113724D01*
X214528Y83185D02*
X216496Y85154D01*
X206496Y113724D02*
X210000Y117228D01*
X205000Y84036D02*
X206496Y85532D01*
X210000Y117228D02*
Y119000D01*
X206496Y85532D02*
Y113724D01*
X210000Y59000D02*
Y90962D01*
X214528Y95490D01*
X196496Y113724D02*
X200000Y117228D01*
X195000Y84036D02*
X196496Y85532D01*
X200000Y117228D02*
Y119000D01*
X196496Y85532D02*
Y113724D01*
X191969Y66359D02*
Y92931D01*
X190830Y65220D02*
X191969Y66359D01*
X190830Y59830D02*
Y65220D01*
X190000Y59000D02*
X190830Y59830D01*
X184528Y61702D02*
X190000Y67175D01*
Y119000D01*
X191969Y92931D02*
X194528Y95490D01*
X180830Y59830D02*
Y65220D01*
X174528Y55353D02*
Y61702D01*
X180000Y67175D01*
X181968Y66359D02*
Y92931D01*
X180000Y67175D02*
Y119000D01*
Y59000D02*
X180830Y59830D01*
X181968Y92931D02*
X184528Y95490D01*
X180830Y65220D02*
X181968Y66359D01*
X170000Y59000D02*
Y90962D01*
X160000Y59000D02*
Y90962D01*
X184528Y95490D02*
Y123460D01*
X110000Y127988D02*
X114528Y123460D01*
X120000Y127988D02*
X124528Y123460D01*
X130000Y127988D02*
X134528Y123460D01*
X130000Y127988D02*
Y131000D01*
X150000Y127988D02*
X154528Y123460D01*
X150000Y127988D02*
Y131000D01*
X154528Y95490D02*
Y123460D01*
X140000Y129228D02*
X144528Y124701D01*
X170000Y127988D02*
X174528Y123460D01*
X170000Y90962D02*
X174528Y95490D01*
X170000Y127988D02*
Y131000D01*
X174528Y95490D02*
Y123460D01*
X160000Y129228D02*
X164528Y124701D01*
X160000Y90962D02*
X164528Y95490D01*
X160000Y129228D02*
Y131000D01*
X164528Y95490D02*
Y124701D01*
X180000Y127988D02*
X184528Y123460D01*
X180000Y127988D02*
Y131000D01*
X190000Y127988D02*
X194528Y123460D01*
X190000Y127988D02*
Y131000D01*
X194528Y95490D02*
Y123460D01*
X200000Y127988D02*
X204528Y123460D01*
X200000Y90962D02*
X204528Y95490D01*
X200000Y127988D02*
Y131000D01*
X204528Y95490D02*
Y123460D01*
X200000Y59000D02*
Y90962D01*
X210000Y127988D02*
Y131000D01*
Y127988D02*
X214528Y123460D01*
Y95490D02*
Y123460D01*
X110000Y199988D02*
Y234962D01*
Y183403D02*
X114528Y178875D01*
X95472D02*
X100000Y183403D01*
X95472Y125299D02*
Y178875D01*
X110000Y183403D02*
Y192772D01*
X115472Y154845D02*
X118032Y157404D01*
X115472Y125299D02*
Y154845D01*
X120000Y173608D02*
Y192772D01*
X115472Y197299D02*
X120000Y192772D01*
X115472Y197299D02*
Y226845D01*
X118032Y157404D02*
Y171639D01*
X120000Y162962D02*
X124528Y167490D01*
Y195460D01*
X120000Y199988D02*
X124528Y195460D01*
X120000Y199988D02*
Y203000D01*
X118032Y171639D02*
X120000Y173608D01*
X130000D02*
Y192772D01*
X128032Y157404D02*
Y171639D01*
X130000Y173608D01*
Y131000D02*
Y162962D01*
Y199988D02*
X134528Y195460D01*
X125472Y154845D02*
X128032Y157404D01*
X140000Y173608D02*
Y192772D01*
X150000Y133084D02*
X152990Y136074D01*
Y180990D02*
X155000Y183000D01*
X150000Y131000D02*
Y133084D01*
X152990Y136074D02*
Y180990D01*
X155472Y125299D02*
Y154845D01*
X158031Y157404D01*
X150000Y199988D02*
X155000Y194988D01*
Y183000D02*
Y194988D01*
X160000Y173608D02*
Y192772D01*
X158031Y157404D02*
Y171639D01*
X160000Y173608D01*
Y131000D02*
Y162962D01*
X164528Y167490D01*
Y196701D01*
X160000Y201228D02*
X164528Y196701D01*
X160000Y201228D02*
Y203000D01*
X170000Y132772D02*
X173226Y135997D01*
Y180753D02*
X175472Y183000D01*
X170000Y131000D02*
Y132772D01*
X173226Y135997D02*
Y180753D01*
X175472Y125299D02*
Y154845D01*
X178032Y157404D01*
Y171639D01*
X170000Y199988D02*
X175472Y194515D01*
Y183000D02*
Y194515D01*
X180000Y173608D02*
Y192772D01*
X178032Y171639D02*
X180000Y173608D01*
Y131000D02*
Y162962D01*
X184528Y167490D01*
Y195460D01*
X180000Y199988D02*
Y203000D01*
Y199988D02*
X184528Y195460D01*
X190000Y173608D02*
Y192772D01*
X188031Y157404D02*
Y171639D01*
X190000Y173608D01*
Y131000D02*
Y162962D01*
X194528Y167490D01*
Y195460D01*
X190000Y199988D02*
X194528Y195460D01*
X190000Y199988D02*
Y203000D01*
X185472Y154845D02*
X188031Y157404D01*
X200000Y173608D02*
Y192772D01*
X198031Y171639D02*
X200000Y173608D01*
X198031Y157404D02*
Y171639D01*
X200000Y131000D02*
Y162962D01*
X204528Y167490D01*
Y195460D01*
X200000Y199988D02*
X204528Y195460D01*
X200000Y199988D02*
Y203000D01*
X195472Y154845D02*
X198031Y157404D01*
X210000Y173608D02*
Y192772D01*
Y131000D02*
Y162962D01*
X208032Y157404D02*
Y171639D01*
X210000Y162962D02*
X214528Y167490D01*
X210000Y199988D02*
X214528Y195460D01*
Y167490D02*
Y195460D01*
X210000Y199988D02*
Y203000D01*
X205472Y154845D02*
X208032Y157404D01*
Y171639D02*
X210000Y173608D01*
X205472Y125299D02*
X210000Y120772D01*
X205472Y125299D02*
Y154845D01*
X103226Y207997D02*
Y244526D01*
X100000Y204772D02*
X103226Y207997D01*
Y244526D02*
X105472Y246773D01*
X110000Y234962D02*
X116496Y241458D01*
Y253403D01*
X115472Y254426D02*
X116496Y253403D01*
X115472Y254426D02*
Y266515D01*
X105472Y246773D02*
Y266515D01*
X100000Y271988D02*
X105472Y266515D01*
X100000Y271988D02*
Y275000D01*
X110000Y271988D02*
X115472Y266515D01*
X110000Y255403D02*
Y264772D01*
X114528Y242273D02*
Y250875D01*
X110000Y255403D02*
X114528Y250875D01*
X105472Y269299D02*
X110000Y264772D01*
X105528Y321931D02*
X110000Y326403D01*
X105472Y298845D02*
X105528Y298900D01*
X105472Y269299D02*
Y298845D01*
X105528Y298900D02*
Y321931D01*
X95472Y197299D02*
Y250875D01*
X100000Y263000D02*
Y264772D01*
Y255403D02*
Y263000D01*
X95472Y250875D02*
X100000Y255403D01*
X110000Y271988D02*
Y275000D01*
X120000Y203000D02*
Y228588D01*
X124528Y233116D01*
Y267460D01*
X120000Y271988D02*
X124528Y267460D01*
X120000Y271988D02*
Y275000D01*
X130000Y228588D02*
X134528Y233116D01*
Y267460D01*
X130000Y271988D02*
X134528Y267460D01*
X130000Y271988D02*
Y275000D01*
X150000Y271988D02*
X154528Y267460D01*
X150000Y271988D02*
Y275000D01*
X140000Y228588D02*
X144528Y233116D01*
Y268701D01*
X140000Y273228D02*
X144528Y268701D01*
X140000Y273228D02*
Y275000D01*
X160000Y203000D02*
Y228588D01*
X164528Y233116D01*
Y268701D01*
X160000Y273228D02*
X164528Y268701D01*
X160000Y273228D02*
Y275000D01*
X175000Y237078D02*
Y266988D01*
X170000Y271988D02*
X175000Y266988D01*
X170000Y271988D02*
Y275000D01*
X180000Y203000D02*
Y228588D01*
X184528Y233116D01*
Y267460D01*
X180000Y271988D02*
X184528Y267460D01*
X180000Y271988D02*
Y275000D01*
X190000Y203000D02*
Y228588D01*
X194528Y233116D01*
Y267460D01*
X190000Y271988D02*
X194528Y267460D01*
X190000Y271988D02*
Y275000D01*
X200000Y203000D02*
Y228588D01*
X204528Y233116D01*
Y267460D01*
X200000Y271988D02*
X204528Y267460D01*
X200000Y271988D02*
Y275000D01*
X210000Y203000D02*
Y228588D01*
X214528Y233116D01*
Y267460D01*
X210000Y271988D02*
X214528Y267460D01*
X210000Y271988D02*
Y275000D01*
X100000Y119000D02*
Y120772D01*
X95472Y125299D02*
X100000Y120772D01*
X110000Y119000D02*
Y120772D01*
X105472Y125299D02*
X110000Y120772D01*
X115472Y125299D02*
X120000Y120772D01*
Y119000D02*
Y120772D01*
X125472Y125299D02*
Y154845D01*
X130000Y119000D02*
Y120772D01*
X125472Y125299D02*
X130000Y120772D01*
X135472Y125299D02*
X140000Y120772D01*
X155472Y125299D02*
X160000Y120772D01*
Y119000D02*
Y120772D01*
X180000Y119000D02*
Y120772D01*
X175472Y125299D02*
X180000Y120772D01*
X185472Y125299D02*
X190000Y120772D01*
X185472Y125299D02*
Y154845D01*
X190000Y119000D02*
Y120772D01*
X195472Y125299D02*
X200000Y120772D01*
X195472Y125299D02*
Y154845D01*
X200000Y119000D02*
Y120772D01*
X210000Y119000D02*
Y120772D01*
X215472Y154845D02*
X220000Y159372D01*
X215472Y125299D02*
X220000Y120772D01*
Y159372D02*
Y191000D01*
X215472Y125299D02*
Y154845D01*
X220000Y119000D02*
Y120772D01*
X95472Y197299D02*
X100000Y192772D01*
X115472Y226845D02*
X120000Y231372D01*
Y263000D01*
X125472Y226845D02*
X130000Y231372D01*
X125472Y197299D02*
X130000Y192772D01*
Y231372D02*
Y263000D01*
X125472Y197299D02*
Y226845D01*
X135472D02*
X140000Y231372D01*
X135472Y197299D02*
X140000Y192772D01*
Y231372D02*
Y263000D01*
X135472Y197299D02*
Y226845D01*
X155472D02*
X160000Y231372D01*
X155472Y197299D02*
X160000Y192772D01*
Y231372D02*
Y263000D01*
X155472Y197299D02*
Y226845D01*
X175472D02*
X180000Y231372D01*
X175472Y197299D02*
X180000Y192772D01*
Y231372D02*
Y263000D01*
X175472Y197299D02*
Y226845D01*
X185472D02*
X190000Y231372D01*
X185472Y197299D02*
X190000Y192772D01*
Y231372D02*
Y263000D01*
X185472Y197299D02*
Y226845D01*
X195472D02*
X200000Y231372D01*
X195472Y197299D02*
X200000Y192772D01*
Y231372D02*
Y263000D01*
X195472Y197299D02*
Y226845D01*
X205472D02*
X210000Y231372D01*
X205472Y197299D02*
X210000Y192772D01*
Y231372D02*
Y263000D01*
X205472Y197299D02*
Y226845D01*
X215472Y197299D02*
Y226845D01*
Y197299D02*
X220000Y192772D01*
Y191000D02*
Y192772D01*
Y231372D02*
Y263000D01*
X215472Y226845D02*
X220000Y231372D01*
X95079Y269693D02*
X100000Y264772D01*
X95079Y269693D02*
Y321482D01*
X100000Y326403D01*
Y335000D01*
X110000Y326403D02*
Y335000D01*
X115079Y269693D02*
Y306452D01*
Y269693D02*
X120000Y264772D01*
X115079Y306452D02*
X120000Y311373D01*
Y335000D01*
Y263000D02*
Y264772D01*
X130000Y263000D02*
Y264772D01*
X125079Y269693D02*
X130000Y264772D01*
X125079Y269693D02*
Y311952D01*
X130000Y316873D01*
Y335000D01*
X135472Y298845D02*
X140000Y303372D01*
X135472Y269299D02*
X140000Y264772D01*
Y303372D02*
Y335000D01*
X135472Y269299D02*
Y298845D01*
X140000Y263000D02*
Y264772D01*
X155472Y338647D02*
X158125Y341299D01*
X161875D02*
X164528Y338647D01*
Y336024D02*
X165551Y335000D01*
X150000D02*
X154449D01*
X155472Y336024D01*
Y338647D01*
X158125Y341299D02*
X161875D01*
X164528Y336024D02*
Y338647D01*
X165551Y335000D02*
X170000D01*
X155472Y298845D02*
X160000Y303372D01*
X155472Y269299D02*
X160000Y264772D01*
Y303372D02*
Y335000D01*
X155472Y269299D02*
Y298845D01*
X160000Y263000D02*
Y264772D01*
X175472Y298845D02*
X180000Y303372D01*
X175472Y269299D02*
X180000Y264772D01*
Y303372D02*
Y335000D01*
X175472Y269299D02*
Y298845D01*
X180000Y263000D02*
Y264772D01*
X185472Y298845D02*
X190000Y303372D01*
X185472Y269299D02*
X190000Y264772D01*
Y303372D02*
Y335000D01*
X185472Y269299D02*
Y298845D01*
X190000Y263000D02*
Y264772D01*
X200000Y263000D02*
Y264772D01*
X195472Y269299D02*
X200000Y264772D01*
X195472Y269299D02*
Y294471D01*
X200921Y299920D01*
Y323039D01*
X200000Y323960D02*
X200921Y323039D01*
X200000Y323960D02*
Y335000D01*
X205472Y298845D02*
X210000Y303372D01*
X205472Y269299D02*
X210000Y264772D01*
Y303372D02*
Y335000D01*
X205472Y269299D02*
Y298845D01*
X210000Y263000D02*
Y264772D01*
X215472Y298845D02*
X220000Y303372D01*
X215472Y269299D02*
X220000Y264772D01*
Y303372D02*
Y335000D01*
X215472Y269299D02*
Y298845D01*
X220000Y263000D02*
Y264772D01*
D30*
X59000Y331150D02*
Y345000D01*
X103528Y162378D02*
X110000Y168850D01*
Y177000D01*
X24421Y81614D02*
X26727Y79308D01*
Y78912D02*
Y79308D01*
Y78912D02*
X30000Y75639D01*
Y75000D02*
Y75639D01*
X17649Y81614D02*
X24421D01*
X11035Y88228D02*
X17649Y81614D01*
X-4905Y183166D02*
Y224236D01*
Y225937D01*
X59940Y116967D02*
X68874Y108033D01*
X45742Y116967D02*
X59940D01*
X36808Y125901D02*
X45742Y116967D01*
X71806Y60772D02*
Y62543D01*
X71035Y60000D02*
X71806Y60772D01*
X68874Y107537D02*
X71000Y105411D01*
Y101868D02*
Y105411D01*
X68874Y107537D02*
Y108033D01*
X71806Y62543D02*
X78909Y69646D01*
X71000Y101868D02*
X72091Y100776D01*
X73166D01*
X78909Y69646D02*
Y95033D01*
X73166Y100776D02*
X78909Y95033D01*
X11452Y127548D02*
Y132548D01*
Y127548D02*
X21000Y118000D01*
X11000Y133000D02*
X11452Y132548D01*
X-4905Y132654D02*
Y183166D01*
Y103981D02*
Y132654D01*
X-4560Y133000D01*
X11000D01*
X78000Y163205D02*
Y177000D01*
Y154772D02*
Y163205D01*
X71000Y146000D02*
Y147772D01*
X78000Y154772D01*
X71000Y191000D02*
Y209105D01*
Y189228D02*
Y191000D01*
Y209105D02*
X76906Y215011D01*
Y239677D01*
X21000Y204000D02*
X58000D01*
X71000Y191000D01*
X90000Y117228D02*
X99548Y107680D01*
Y105452D02*
X100000Y105000D01*
X90000Y117228D02*
Y119000D01*
X99548Y105452D02*
Y107680D01*
X90000Y119000D02*
Y120132D01*
X4000Y81194D02*
Y95076D01*
X-4905Y103981D02*
X4000Y95076D01*
X-4905Y183166D02*
X2260Y176000D01*
X11000D01*
X1452Y213548D02*
Y218776D01*
Y213548D02*
X11000Y204000D01*
X1000Y219228D02*
X1452Y218776D01*
X-4905Y225937D02*
Y239584D01*
X-2875Y224236D02*
X1000Y220361D01*
X-4905Y225937D02*
X-3204Y224236D01*
X1000Y219228D02*
Y220361D01*
X-3204Y224236D02*
X-2875D01*
X1000Y260228D02*
Y262000D01*
Y245490D02*
Y260228D01*
X-4905Y239584D02*
X1000Y245490D01*
Y260228D02*
X10548Y250680D01*
Y247452D02*
X11000Y247000D01*
X10548Y247452D02*
Y250680D01*
X16957Y273325D02*
Y282070D01*
X13497Y269866D02*
X16957Y273325D01*
X7095Y269866D02*
X13497D01*
X1000Y263772D02*
X7095Y269866D01*
X1000Y262000D02*
Y263772D01*
X16488Y282539D02*
X16957Y282070D01*
X16488Y282539D02*
Y291283D01*
X52038Y271883D02*
X71240D01*
X76906Y239677D02*
Y266218D01*
X71772Y234543D02*
X76906Y239677D01*
X71000Y232000D02*
X71772Y232772D01*
X71240Y271883D02*
X76906Y266218D01*
X71772Y232772D02*
Y234543D01*
X27231Y17968D02*
Y30768D01*
Y17968D02*
X29200Y16000D01*
X19200Y38800D02*
X27231Y30768D01*
X11035Y88228D02*
Y90000D01*
X4000Y81194D02*
X11035Y88228D01*
X4000Y54000D02*
Y81194D01*
Y54000D02*
X19200Y38800D01*
Y16000D02*
Y38800D01*
X9200Y16000D02*
Y34000D01*
X44150Y278000D02*
X45921D01*
X52038Y271883D01*
X11283Y341000D02*
X18283Y348000D01*
X51827Y340400D02*
Y342291D01*
X18283Y348000D02*
X46118D01*
X51827Y340400D02*
X52000Y340227D01*
X46118Y348000D02*
X51827Y342291D01*
X52000Y328150D02*
Y340227D01*
Y328150D02*
X59000Y321150D01*
X64071Y240701D02*
X71000Y233772D01*
X27299Y240701D02*
X64071D01*
X21000Y247000D02*
X27299Y240701D01*
X16488Y291283D02*
X24717Y299512D01*
X26661D01*
X32000Y304850D01*
X84095Y263000D02*
Y281063D01*
Y191000D02*
Y263000D01*
X90000D01*
X84095Y124937D02*
Y191000D01*
X90000D01*
X85709Y123323D02*
X86810D01*
X84095Y124937D02*
X85709Y123323D01*
X86810D02*
X90000Y120132D01*
X84095Y281063D02*
X90000Y286968D01*
Y335000D01*
X88132Y338000D02*
X90000Y336132D01*
X74150Y338000D02*
X88132D01*
X90000Y335000D02*
Y336132D01*
X65398Y337548D02*
X73698D01*
X59000Y331150D02*
X65398Y337548D01*
X73698D02*
X74150Y338000D01*
X16216Y320150D02*
Y335002D01*
X11283Y339935D02*
X16216Y335002D01*
X11283Y339935D02*
Y341000D01*
X219200Y35004D02*
X219600Y35404D01*
X219200Y16000D02*
Y35004D01*
D31*
X90000Y131000D02*
D03*
X11035Y60000D02*
D03*
X90000Y275000D02*
D03*
X1000Y232000D02*
D03*
X90000Y59000D02*
D03*
Y203000D02*
D03*
X1000Y189228D02*
D03*
X11000Y103000D02*
D03*
Y146000D02*
D03*
D32*
X100000Y131000D02*
D03*
X110000D02*
D03*
X120000D02*
D03*
X130000D02*
D03*
X140000D02*
D03*
X150000D02*
D03*
X160000D02*
D03*
X170000D02*
D03*
X180000D02*
D03*
X190000D02*
D03*
X200000D02*
D03*
X210000D02*
D03*
X220000D02*
D03*
X90000Y191000D02*
D03*
X100000D02*
D03*
X110000D02*
D03*
X120000D02*
D03*
X130000D02*
D03*
X140000D02*
D03*
X150000D02*
D03*
X160000D02*
D03*
X170000D02*
D03*
X180000D02*
D03*
X190000D02*
D03*
X200000D02*
D03*
X210000D02*
D03*
X220000D02*
D03*
X21035Y60000D02*
D03*
X31035D02*
D03*
X41035D02*
D03*
X51035D02*
D03*
X61035D02*
D03*
X71035D02*
D03*
X11035Y90000D02*
D03*
X21035D02*
D03*
X31035D02*
D03*
X41035D02*
D03*
X51035D02*
D03*
X61035D02*
D03*
X71035D02*
D03*
X100000Y275000D02*
D03*
X110000D02*
D03*
X120000D02*
D03*
X130000D02*
D03*
X140000D02*
D03*
X150000D02*
D03*
X160000D02*
D03*
X170000D02*
D03*
X180000D02*
D03*
X190000D02*
D03*
X200000D02*
D03*
X210000D02*
D03*
X220000D02*
D03*
X90000Y335000D02*
D03*
X100000D02*
D03*
X110000D02*
D03*
X120000D02*
D03*
X130000D02*
D03*
X140000D02*
D03*
X150000D02*
D03*
X160000D02*
D03*
X170000D02*
D03*
X180000D02*
D03*
X190000D02*
D03*
X200000D02*
D03*
X210000D02*
D03*
X220000D02*
D03*
X71000Y232000D02*
D03*
Y262000D02*
D03*
X61000D02*
D03*
X51000D02*
D03*
X41000D02*
D03*
X31000D02*
D03*
X21000D02*
D03*
X61000Y232000D02*
D03*
X51000D02*
D03*
X41000D02*
D03*
X31000D02*
D03*
X21000D02*
D03*
X11000D02*
D03*
Y262000D02*
D03*
X1000D02*
D03*
X100000Y59000D02*
D03*
X110000D02*
D03*
X120000D02*
D03*
X130000D02*
D03*
X140000D02*
D03*
X150000D02*
D03*
X160000D02*
D03*
X170000D02*
D03*
X180000D02*
D03*
X190000D02*
D03*
X200000D02*
D03*
X210000D02*
D03*
X220000D02*
D03*
X90000Y119000D02*
D03*
X100000D02*
D03*
X110000D02*
D03*
X120000D02*
D03*
X130000D02*
D03*
X140000D02*
D03*
X150000D02*
D03*
X160000D02*
D03*
X170000D02*
D03*
X180000D02*
D03*
X190000D02*
D03*
X200000D02*
D03*
X210000D02*
D03*
X220000D02*
D03*
X100000Y203000D02*
D03*
X110000D02*
D03*
X120000D02*
D03*
X130000D02*
D03*
X140000D02*
D03*
X150000D02*
D03*
X160000D02*
D03*
X170000D02*
D03*
X180000D02*
D03*
X190000D02*
D03*
X200000D02*
D03*
X210000D02*
D03*
X220000D02*
D03*
X90000Y263000D02*
D03*
X100000D02*
D03*
X110000D02*
D03*
X120000D02*
D03*
X130000D02*
D03*
X140000D02*
D03*
X150000D02*
D03*
X160000D02*
D03*
X170000D02*
D03*
X180000D02*
D03*
X190000D02*
D03*
X200000D02*
D03*
X210000D02*
D03*
X220000D02*
D03*
X71000Y189228D02*
D03*
Y219228D02*
D03*
X61000D02*
D03*
X51000D02*
D03*
X41000D02*
D03*
X31000D02*
D03*
X21000D02*
D03*
X61000Y189228D02*
D03*
X51000D02*
D03*
X41000D02*
D03*
X31000D02*
D03*
X21000D02*
D03*
X11000D02*
D03*
Y219228D02*
D03*
X1000D02*
D03*
X21000Y103000D02*
D03*
X31000D02*
D03*
X41000D02*
D03*
X51000D02*
D03*
X61000D02*
D03*
X71000D02*
D03*
X11000Y133000D02*
D03*
X21000D02*
D03*
X31000D02*
D03*
X41000D02*
D03*
X51000D02*
D03*
X61000D02*
D03*
X71000D02*
D03*
X21000Y146000D02*
D03*
X31000D02*
D03*
X41000D02*
D03*
X51000D02*
D03*
X61000D02*
D03*
X71000D02*
D03*
X11000Y176000D02*
D03*
X21000D02*
D03*
X31000D02*
D03*
X41000D02*
D03*
X51000D02*
D03*
X61000D02*
D03*
X71000D02*
D03*
D33*
X44150Y338000D02*
D03*
D34*
Y328000D02*
D03*
Y318000D02*
D03*
Y308000D02*
D03*
Y298000D02*
D03*
Y288000D02*
D03*
Y278000D02*
D03*
X74150Y338000D02*
D03*
Y328000D02*
D03*
Y318000D02*
D03*
Y308000D02*
D03*
Y298000D02*
D03*
Y288000D02*
D03*
Y278000D02*
D03*
D35*
X166000Y321000D02*
D03*
X196000D02*
D03*
X120000Y289000D02*
D03*
X166000Y308000D02*
D03*
X196000D02*
D03*
X33227Y247000D02*
D03*
X63227D02*
D03*
X100000Y300000D02*
D03*
X130000D02*
D03*
X10000Y293000D02*
D03*
X59000Y310227D02*
D03*
Y280227D02*
D03*
D36*
X11051Y275772D02*
D03*
X16216Y320150D02*
D03*
X26216D02*
D03*
X59000Y321150D02*
D03*
Y331150D02*
D03*
X21000Y247000D02*
D03*
X11000D02*
D03*
X21000Y204000D02*
D03*
X11000D02*
D03*
X32000Y161000D02*
D03*
X22000D02*
D03*
X31000Y118000D02*
D03*
X21000D02*
D03*
X40000Y75000D02*
D03*
X30000D02*
D03*
X110000Y105000D02*
D03*
X100000D02*
D03*
X110000Y177000D02*
D03*
X100000D02*
D03*
X110000Y249000D02*
D03*
X100000D02*
D03*
X111000Y321000D02*
D03*
X101000D02*
D03*
D37*
X31051Y275773D02*
D03*
D38*
X100000Y289000D02*
D03*
D39*
X11283Y341000D02*
D03*
X29000D02*
D03*
D40*
X6342Y331197D02*
D03*
X33941Y331500D02*
D03*
D41*
X32000Y289000D02*
D03*
X27000Y294000D02*
D03*
X22000Y289000D02*
D03*
Y304850D02*
D03*
X27000Y309850D02*
D03*
X32000Y304850D02*
D03*
D42*
X10000Y303000D02*
D03*
D43*
X57000Y161000D02*
D03*
X47157D02*
D03*
D44*
X3700Y139800D02*
D03*
X9700Y117600D02*
D03*
X79800Y86500D02*
D03*
X104400Y33900D02*
D03*
X94400Y33100D02*
D03*
X86850Y49027D02*
D03*
X77800Y48400D02*
D03*
X72000Y39200D02*
D03*
X63500Y33100D02*
D03*
X53400Y36400D02*
D03*
X38800Y35100D02*
D03*
X16700Y47400D02*
D03*
X102560Y49027D02*
D03*
X80210Y59000D02*
D03*
X64150Y271363D02*
D03*
X26000Y267743D02*
D03*
X134331Y304626D02*
D03*
X145100Y303543D02*
D03*
X154834Y302400D02*
D03*
X150247Y283538D02*
D03*
X145600Y290500D02*
D03*
X120000Y299500D02*
D03*
X111000Y300000D02*
D03*
X83137Y298000D02*
D03*
X82900Y331400D02*
D03*
D45*
X59000Y345000D02*
D03*
X103528Y162378D02*
D03*
X36808Y125901D02*
D03*
X78000Y163205D02*
D03*
Y177000D02*
D03*
X9200Y34000D02*
D03*
X219600Y35404D02*
D03*
D46*
X67850Y253000D02*
D03*
X71240Y254000D02*
D03*
X72000Y53000D02*
D03*
X144337Y210967D02*
D03*
X147441Y211504D02*
D03*
X90000Y44056D02*
D03*
X79200D02*
D03*
X63794D02*
D03*
X58808Y44000D02*
D03*
X41168Y41441D02*
D03*
X41004Y44586D02*
D03*
X81000Y53000D02*
D03*
X64184Y51083D02*
D03*
X7937Y78000D02*
D03*
Y74438D02*
D03*
X71035Y78000D02*
D03*
X74184D02*
D03*
X56101Y99746D02*
D03*
X106850Y46559D02*
D03*
X109579Y49118D02*
D03*
X104630Y44000D02*
D03*
X108773Y41181D02*
D03*
X72095Y165764D02*
D03*
X64688Y170239D02*
D03*
X67063Y200505D02*
D03*
X54150Y199000D02*
D03*
X147773Y183000D02*
D03*
X133150Y139000D02*
D03*
X137087Y183587D02*
D03*
X54150Y208402D02*
D03*
X148078Y226922D02*
D03*
X167773Y244472D02*
D03*
X56000Y226472D02*
D03*
X105785Y226000D02*
D03*
X98250Y50142D02*
D03*
X83916Y111916D02*
D03*
X87416Y108416D02*
D03*
X55923Y244887D02*
D03*
X52000Y246606D02*
D03*
X150000Y255000D02*
D03*
X140000Y283000D02*
D03*
X22000Y269866D02*
D03*
X29200Y48000D02*
D03*
X31724Y309850D02*
D03*
X36134Y322377D02*
D03*
X214832Y44145D02*
D03*
X214863Y48147D02*
D03*
X215000Y41000D02*
D03*
M02*
