G04*
G04 #@! TF.GenerationSoftware,Altium Limited,Altium Designer,21.1.1 (26)*
G04*
G04 Layer_Color=16711935*
%FSLAX25Y25*%
%MOIN*%
G70*
G04*
G04 #@! TF.SameCoordinates,7D0F3632-3BB8-4325-A14A-9A39C8611559*
G04*
G04*
G04 #@! TF.FilePolarity,Negative*
G04*
G01*
G75*
G04:AMPARAMS|DCode=14|XSize=81.73mil|YSize=278.58mil|CornerRadius=21.18mil|HoleSize=0mil|Usage=FLASHONLY|Rotation=0.000|XOffset=0mil|YOffset=0mil|HoleType=Round|Shape=RoundedRectangle|*
%AMROUNDEDRECTD14*
21,1,0.08173,0.23622,0,0,0.0*
21,1,0.03937,0.27858,0,0,0.0*
1,1,0.04236,0.01968,-0.11811*
1,1,0.04236,-0.01968,-0.11811*
1,1,0.04236,-0.01968,0.11811*
1,1,0.04236,0.01968,0.11811*
%
%ADD14ROUNDEDRECTD14*%
%ADD15R,0.06598X0.10142*%
%ADD16O,0.06598X0.10142*%
%ADD17R,0.10142X0.06598*%
%ADD18O,0.10142X0.06598*%
%ADD19C,0.07386*%
%ADD20C,0.06598*%
%ADD21R,0.06598X0.06598*%
%ADD22R,0.07386X0.07386*%
%ADD23C,0.08173*%
%ADD24C,0.10142*%
%ADD25C,0.05811*%
%ADD26R,0.07386X0.07386*%
%ADD27C,0.05024*%
G36*
X24940Y68388D02*
Y65654D01*
X24943Y65139D01*
X24681Y64143D01*
X24171Y63249D01*
X23446Y62519D01*
X22556Y62001D01*
X21563Y61731D01*
X20533Y61728D01*
X19538Y61993D01*
X18646Y62506D01*
X17917Y63233D01*
X17402Y64124D01*
X17135Y65118D01*
Y65633D01*
D01*
X17135Y68367D01*
X17132Y68882D01*
X17393Y69878D01*
X17904Y70772D01*
X18629Y71502D01*
X19519Y72020D01*
X20512Y72290D01*
X21542Y72293D01*
X22537Y72028D01*
X23429Y71515D01*
X24158Y70788D01*
X24673Y69897D01*
X24940Y68903D01*
Y68388D01*
D01*
D02*
G37*
G36*
X17157Y81877D02*
X17157Y84612D01*
X17155Y85127D01*
X17416Y86123D01*
X17927Y87016D01*
X18652Y87747D01*
X19542Y88265D01*
X20535Y88535D01*
X21564Y88537D01*
X22559Y88273D01*
X23452Y87760D01*
X24181Y87033D01*
X24696Y86142D01*
X24963Y85148D01*
Y84633D01*
D01*
Y81898D01*
X24966Y81384D01*
X24704Y80388D01*
X24193Y79494D01*
X23469Y78763D01*
X22579Y78245D01*
X21585Y77976D01*
X20556Y77973D01*
X19561Y78237D01*
X18669Y78750D01*
X17940Y79477D01*
X17424Y80368D01*
X17157Y81363D01*
Y81877D01*
D01*
D02*
G37*
G36*
X54940Y68388D02*
Y65654D01*
X54943Y65139D01*
X54681Y64143D01*
X54171Y63249D01*
X53446Y62519D01*
X52556Y62001D01*
X51563Y61731D01*
X50533Y61728D01*
X49538Y61993D01*
X48646Y62506D01*
X47917Y63233D01*
X47402Y64124D01*
X47135Y65118D01*
Y65633D01*
D01*
X47135Y68367D01*
X47132Y68882D01*
X47394Y69878D01*
X47904Y70772D01*
X48629Y71502D01*
X49519Y72020D01*
X50512Y72290D01*
X51542Y72293D01*
X52537Y72028D01*
X53429Y71515D01*
X54158Y70788D01*
X54673Y69897D01*
X54940Y68903D01*
Y68388D01*
D01*
D02*
G37*
G36*
X47129Y81612D02*
X47129Y84346D01*
X47126Y84861D01*
X47388Y85857D01*
X47899Y86751D01*
X48624Y87481D01*
X49513Y87999D01*
X50507Y88269D01*
X51536Y88272D01*
X52531Y88007D01*
X53424Y87494D01*
X54152Y86767D01*
X54668Y85876D01*
X54935Y84882D01*
Y84367D01*
D01*
Y81633D01*
X54937Y81118D01*
X54676Y80122D01*
X54165Y79228D01*
X53440Y78498D01*
X52551Y77980D01*
X51557Y77710D01*
X50528Y77707D01*
X49533Y77972D01*
X48640Y78485D01*
X47912Y79212D01*
X47396Y80103D01*
X47129Y81097D01*
Y81612D01*
D01*
D02*
G37*
G36*
X4905Y154388D02*
Y151654D01*
X4908Y151139D01*
X4647Y150143D01*
X4136Y149249D01*
X3411Y148519D01*
X2521Y148001D01*
X1528Y147731D01*
X499Y147728D01*
X-496Y147993D01*
X-1389Y148506D01*
X-2118Y149233D01*
X-2633Y150124D01*
X-2900Y151118D01*
Y151632D01*
D01*
X-2900Y154367D01*
X-2903Y154882D01*
X-2641Y155878D01*
X-2131Y156772D01*
X-1406Y157502D01*
X-516Y158020D01*
X477Y158290D01*
X1507Y158293D01*
X2502Y158028D01*
X3394Y157515D01*
X4123Y156788D01*
X4639Y155897D01*
X4905Y154903D01*
Y154388D01*
D01*
D02*
G37*
G36*
X14906D02*
Y151654D01*
X14908Y151139D01*
X14647Y150143D01*
X14136Y149249D01*
X13411Y148519D01*
X12521Y148001D01*
X11528Y147731D01*
X10499Y147728D01*
X9504Y147993D01*
X8611Y148506D01*
X7882Y149233D01*
X7367Y150124D01*
X7100Y151118D01*
Y151632D01*
D01*
X7100Y154367D01*
X7097Y154882D01*
X7359Y155878D01*
X7869Y156772D01*
X8594Y157502D01*
X9484Y158020D01*
X10477Y158290D01*
X11507Y158293D01*
X12502Y158028D01*
X13394Y157515D01*
X14123Y156788D01*
X14639Y155897D01*
X14906Y154903D01*
Y154388D01*
D01*
D02*
G37*
G36*
X57095Y194612D02*
X57095Y197346D01*
X57092Y197861D01*
X57353Y198857D01*
X57864Y199750D01*
X58589Y200481D01*
X59478Y200999D01*
X60472Y201269D01*
X61501Y201272D01*
X62496Y201007D01*
X63389Y200494D01*
X64118Y199767D01*
X64633Y198876D01*
X64900Y197882D01*
Y197368D01*
D01*
Y194632D01*
X64903Y194118D01*
X64641Y193122D01*
X64131Y192228D01*
X63406Y191498D01*
X62516Y190980D01*
X61523Y190710D01*
X60493Y190707D01*
X59498Y190972D01*
X58606Y191485D01*
X57877Y192212D01*
X57361Y193103D01*
X57095Y194097D01*
Y194612D01*
D01*
D02*
G37*
G36*
X72761Y206906D02*
X75496D01*
X76011Y206908D01*
X77006Y206647D01*
X77900Y206136D01*
X78631Y205411D01*
X79149Y204521D01*
X79418Y203528D01*
X79421Y202499D01*
X79157Y201504D01*
X78644Y200611D01*
X77917Y199882D01*
X77026Y199367D01*
X76032Y199100D01*
X75517D01*
D01*
X72782Y199100D01*
X72268Y199097D01*
X71272Y199359D01*
X70378Y199869D01*
X69647Y200594D01*
X69129Y201484D01*
X68860Y202478D01*
X68857Y203507D01*
X69121Y204502D01*
X69634Y205394D01*
X70361Y206123D01*
X71252Y206639D01*
X72246Y206906D01*
X72761D01*
D01*
D02*
G37*
D14*
X29200Y16000D02*
D03*
X19200D02*
D03*
X69200D02*
D03*
X59200D02*
D03*
X49200D02*
D03*
X99200D02*
D03*
X89200D02*
D03*
X129200D02*
D03*
X119200D02*
D03*
X159200D02*
D03*
X149200D02*
D03*
X189200D02*
D03*
X179200D02*
D03*
X219200D02*
D03*
X209200D02*
D03*
X79200D02*
D03*
X39200D02*
D03*
X9200D02*
D03*
X199200D02*
D03*
X169200D02*
D03*
X139200D02*
D03*
X109200D02*
D03*
D15*
X90000Y131000D02*
D03*
X11035Y60000D02*
D03*
X90000Y275000D02*
D03*
X1000Y232000D02*
D03*
X90000Y59000D02*
D03*
Y203000D02*
D03*
X1000Y189228D02*
D03*
X11000Y103000D02*
D03*
Y146000D02*
D03*
D16*
X100000Y131000D02*
D03*
X110000D02*
D03*
X120000D02*
D03*
X130000D02*
D03*
X140000D02*
D03*
X150000D02*
D03*
X160000D02*
D03*
X170000D02*
D03*
X180000D02*
D03*
X190000D02*
D03*
X200000D02*
D03*
X210000D02*
D03*
X220000D02*
D03*
X90000Y191000D02*
D03*
X100000D02*
D03*
X110000D02*
D03*
X120000D02*
D03*
X130000D02*
D03*
X140000D02*
D03*
X150000D02*
D03*
X160000D02*
D03*
X170000D02*
D03*
X180000D02*
D03*
X190000D02*
D03*
X200000D02*
D03*
X210000D02*
D03*
X220000D02*
D03*
X21035Y60000D02*
D03*
X31035D02*
D03*
X41035D02*
D03*
X51035D02*
D03*
X61035D02*
D03*
X71035D02*
D03*
X11035Y90000D02*
D03*
X21035D02*
D03*
X31035D02*
D03*
X41035D02*
D03*
X51035D02*
D03*
X61035D02*
D03*
X71035D02*
D03*
X100000Y275000D02*
D03*
X110000D02*
D03*
X120000D02*
D03*
X130000D02*
D03*
X140000D02*
D03*
X150000D02*
D03*
X160000D02*
D03*
X170000D02*
D03*
X180000D02*
D03*
X190000D02*
D03*
X200000D02*
D03*
X210000D02*
D03*
X220000D02*
D03*
X90000Y335000D02*
D03*
X100000D02*
D03*
X110000D02*
D03*
X120000D02*
D03*
X130000D02*
D03*
X140000D02*
D03*
X150000D02*
D03*
X160000D02*
D03*
X170000D02*
D03*
X180000D02*
D03*
X190000D02*
D03*
X200000D02*
D03*
X210000D02*
D03*
X220000D02*
D03*
X71000Y232000D02*
D03*
Y262000D02*
D03*
X61000D02*
D03*
X51000D02*
D03*
X41000D02*
D03*
X31000D02*
D03*
X21000D02*
D03*
X61000Y232000D02*
D03*
X51000D02*
D03*
X41000D02*
D03*
X31000D02*
D03*
X21000D02*
D03*
X11000D02*
D03*
Y262000D02*
D03*
X1000D02*
D03*
X100000Y59000D02*
D03*
X110000D02*
D03*
X120000D02*
D03*
X130000D02*
D03*
X140000D02*
D03*
X150000D02*
D03*
X160000D02*
D03*
X170000D02*
D03*
X180000D02*
D03*
X190000D02*
D03*
X200000D02*
D03*
X210000D02*
D03*
X220000D02*
D03*
X90000Y119000D02*
D03*
X100000D02*
D03*
X110000D02*
D03*
X120000D02*
D03*
X130000D02*
D03*
X140000D02*
D03*
X150000D02*
D03*
X160000D02*
D03*
X170000D02*
D03*
X180000D02*
D03*
X190000D02*
D03*
X200000D02*
D03*
X210000D02*
D03*
X220000D02*
D03*
X100000Y203000D02*
D03*
X110000D02*
D03*
X120000D02*
D03*
X130000D02*
D03*
X140000D02*
D03*
X150000D02*
D03*
X160000D02*
D03*
X170000D02*
D03*
X180000D02*
D03*
X190000D02*
D03*
X200000D02*
D03*
X210000D02*
D03*
X220000D02*
D03*
X90000Y263000D02*
D03*
X100000D02*
D03*
X110000D02*
D03*
X120000D02*
D03*
X130000D02*
D03*
X140000D02*
D03*
X150000D02*
D03*
X160000D02*
D03*
X170000D02*
D03*
X180000D02*
D03*
X190000D02*
D03*
X200000D02*
D03*
X210000D02*
D03*
X220000D02*
D03*
X71000Y189228D02*
D03*
Y219228D02*
D03*
X61000D02*
D03*
X51000D02*
D03*
X41000D02*
D03*
X31000D02*
D03*
X21000D02*
D03*
X61000Y189228D02*
D03*
X51000D02*
D03*
X41000D02*
D03*
X31000D02*
D03*
X21000D02*
D03*
X11000D02*
D03*
Y219228D02*
D03*
X1000D02*
D03*
X21000Y103000D02*
D03*
X31000D02*
D03*
X41000D02*
D03*
X51000D02*
D03*
X61000D02*
D03*
X71000D02*
D03*
X11000Y133000D02*
D03*
X21000D02*
D03*
X31000D02*
D03*
X41000D02*
D03*
X51000D02*
D03*
X61000D02*
D03*
X71000D02*
D03*
X21000Y146000D02*
D03*
X31000D02*
D03*
X41000D02*
D03*
X51000D02*
D03*
X61000D02*
D03*
X71000D02*
D03*
X11000Y176000D02*
D03*
X21000D02*
D03*
X31000D02*
D03*
X41000D02*
D03*
X51000D02*
D03*
X61000D02*
D03*
X71000D02*
D03*
D17*
X44150Y338000D02*
D03*
D18*
Y328000D02*
D03*
Y318000D02*
D03*
Y308000D02*
D03*
Y298000D02*
D03*
Y288000D02*
D03*
Y278000D02*
D03*
X74150Y338000D02*
D03*
Y328000D02*
D03*
Y318000D02*
D03*
Y308000D02*
D03*
Y298000D02*
D03*
Y288000D02*
D03*
Y278000D02*
D03*
D19*
X166000Y321000D02*
D03*
X196000D02*
D03*
X120000Y289000D02*
D03*
X166000Y308000D02*
D03*
X196000D02*
D03*
X33227Y247000D02*
D03*
X63227D02*
D03*
X100000Y300000D02*
D03*
X130000D02*
D03*
X10075Y292902D02*
D03*
X59000Y310227D02*
D03*
Y280227D02*
D03*
D20*
X31000Y275419D02*
D03*
X16216Y320150D02*
D03*
X26216D02*
D03*
X59000Y319986D02*
D03*
Y329985D02*
D03*
X23227Y246500D02*
D03*
X13227D02*
D03*
X23227Y204000D02*
D03*
X13227D02*
D03*
X34150Y161024D02*
D03*
X24150D02*
D03*
X32468Y118006D02*
D03*
X22468D02*
D03*
X40000Y75000D02*
D03*
X30000D02*
D03*
X110000Y103000D02*
D03*
X100000D02*
D03*
X110000Y175125D02*
D03*
X100000D02*
D03*
X110000Y246773D02*
D03*
X100000D02*
D03*
X110000Y318274D02*
D03*
X100000D02*
D03*
D21*
X11000Y275418D02*
D03*
D22*
X100000Y289000D02*
D03*
D23*
X11283Y341000D02*
D03*
X29000D02*
D03*
D24*
X6342Y331197D02*
D03*
X33941Y331500D02*
D03*
D25*
X32000Y289000D02*
D03*
X27000Y294000D02*
D03*
X22000Y289000D02*
D03*
Y304850D02*
D03*
X27000Y309850D02*
D03*
X32000Y304850D02*
D03*
D26*
X10075Y302902D02*
D03*
D27*
X57000Y161000D02*
D03*
X47157D02*
D03*
M02*
