G04*
G04 #@! TF.GenerationSoftware,Altium Limited,Altium Designer,21.1.1 (26)*
G04*
G04 Layer_Color=16711935*
%FSLAX25Y25*%
%MOIN*%
G70*
G04*
G04 #@! TF.SameCoordinates,7D0F3632-3BB8-4325-A14A-9A39C8611559*
G04*
G04*
G04 #@! TF.FilePolarity,Positive*
G04*
G01*
G75*
%ADD11C,0.00394*%
D11*
X232316Y95126D02*
X231297Y94991D01*
X230348Y94598D01*
X229533Y93972D01*
X228907Y93157D01*
X228514Y92207D01*
X228380Y91189D01*
X233571Y95126D02*
X234590Y95260D01*
X235540Y95653D01*
X236355Y96279D01*
X236981Y97094D01*
X237374Y98044D01*
X237508Y99063D01*
X13Y89705D02*
X-121Y90724D01*
X-515Y91674D01*
X-1140Y92489D01*
X-1956Y93115D01*
X-2905Y93508D01*
X-3924Y93642D01*
X-9116Y97579D02*
X-8981Y96560D01*
X-8588Y95611D01*
X-7963Y94796D01*
X-7147Y94170D01*
X-6198Y93777D01*
X-5179Y93642D01*
X237508Y270662D02*
X237374Y271681D01*
X236981Y272631D01*
X236355Y273446D01*
X235539Y274072D01*
X234590Y274465D01*
X233571Y274600D01*
X-5179Y273600D02*
X-6198Y273466D01*
X-7147Y273073D01*
X-7963Y272447D01*
X-8588Y271632D01*
X-8981Y270682D01*
X-9116Y269663D01*
X-3924Y273600D02*
X-2908Y273734D01*
X-1962Y274126D01*
X-1149Y274749D01*
X-526Y275562D01*
X-134Y276508D01*
X0Y277524D01*
X228379Y278537D02*
X228514Y277518D01*
X228907Y276568D01*
X229533Y275753D01*
X230348Y275127D01*
X231297Y274734D01*
X232316Y274600D01*
X228400Y345371D02*
X228312Y346378D01*
X228050Y347354D01*
X227623Y348271D01*
X227043Y349099D01*
X226328Y349814D01*
X225500Y350394D01*
X224584Y350821D01*
X223607Y351082D01*
X222600Y351171D01*
X5787Y351321D02*
X4782Y351233D01*
X3808Y350972D01*
X2893Y350546D01*
X2067Y349967D01*
X1354Y349254D01*
X775Y348428D01*
X349Y347514D01*
X88Y346539D01*
X0Y345534D01*
X223300Y0D02*
X224291Y98D01*
X225243Y387D01*
X226121Y856D01*
X226891Y1487D01*
X227523Y2257D01*
X227992Y3135D01*
X228281Y4088D01*
X228379Y5079D01*
X0D02*
X98Y4088D01*
X387Y3135D01*
X856Y2257D01*
X1487Y1487D01*
X2257Y856D01*
X3135Y387D01*
X4088Y98D01*
X5079Y0D01*
X232316Y95126D02*
X233571D01*
X-5179Y93642D02*
X-3924D01*
X237508Y99063D02*
Y270663D01*
X232316Y274600D02*
X233571D01*
X-5179Y273600D02*
X-3924D01*
X-9116Y97579D02*
Y269663D01*
X0Y277524D02*
Y345534D01*
X5787Y351321D02*
X222600Y351171D01*
X228379Y278537D02*
X228400Y345371D01*
X228378Y5078D02*
Y91189D01*
X0Y5078D02*
Y89705D01*
X5078Y0D02*
X223300D01*
M02*
