G04*
G04 #@! TF.GenerationSoftware,Altium Limited,Altium Designer,21.1.1 (26)*
G04*
G04 Layer_Physical_Order=2*
G04 Layer_Color=16711680*
%FSLAX25Y25*%
%MOIN*%
G70*
G04*
G04 #@! TF.SameCoordinates,7D0F3632-3BB8-4325-A14A-9A39C8611559*
G04*
G04*
G04 #@! TF.FilePolarity,Positive*
G04*
G01*
G75*
G04:AMPARAMS|DCode=28|XSize=78.74mil|YSize=275.59mil|CornerRadius=19.68mil|HoleSize=0mil|Usage=FLASHONLY|Rotation=0.000|XOffset=0mil|YOffset=0mil|HoleType=Round|Shape=RoundedRectangle|*
%AMROUNDEDRECTD28*
21,1,0.07874,0.23622,0,0,0.0*
21,1,0.03937,0.27559,0,0,0.0*
1,1,0.03937,0.01968,-0.11811*
1,1,0.03937,-0.01968,-0.11811*
1,1,0.03937,-0.01968,0.11811*
1,1,0.03937,0.01968,0.11811*
%
%ADD28ROUNDEDRECTD28*%
%ADD29C,0.03937*%
%ADD30C,0.01181*%
%ADD31R,0.06299X0.09843*%
%ADD32O,0.06299X0.09843*%
%ADD33R,0.09843X0.06299*%
%ADD34O,0.09843X0.06299*%
%ADD35C,0.07087*%
%ADD36C,0.06299*%
%ADD37R,0.06299X0.06299*%
%ADD38R,0.07087X0.07087*%
%ADD39C,0.07874*%
%ADD40C,0.09843*%
%ADD41C,0.05512*%
%ADD42R,0.07087X0.07087*%
%ADD43C,0.04724*%
%ADD44C,0.01968*%
%ADD45C,0.02362*%
%ADD46C,0.03937*%
G36*
X163295Y340718D02*
Y339722D01*
X162979Y339615D01*
X162795Y339589D01*
X161986Y340211D01*
X161028Y340607D01*
X160000Y340743D01*
X158972Y340607D01*
X158015Y340211D01*
X157192Y339580D01*
X156561Y338757D01*
X156164Y337799D01*
X156029Y336772D01*
Y333228D01*
X156164Y332201D01*
X156561Y331243D01*
X157192Y330420D01*
X158015Y329789D01*
X158972Y329393D01*
X160000Y329257D01*
X161028Y329393D01*
X161986Y329789D01*
X162808Y330420D01*
X162929Y330579D01*
X163472Y330465D01*
X163707Y330114D01*
X164595Y329226D01*
Y325107D01*
X164328Y325036D01*
X163341Y324465D01*
X162535Y323659D01*
X161964Y322672D01*
X161669Y321570D01*
Y320430D01*
X161964Y319328D01*
X162535Y318341D01*
X163096Y317780D01*
X162889Y317280D01*
X152338D01*
X151619Y317185D01*
X150948Y316907D01*
X150373Y316465D01*
X149055Y315148D01*
X113396D01*
X113205Y315610D01*
X113321Y315726D01*
X113867Y316672D01*
X114150Y317727D01*
Y317774D01*
X110000D01*
X105850D01*
Y317727D01*
X106094Y316818D01*
X105646Y316559D01*
X103937Y318268D01*
Y318792D01*
X103669Y319793D01*
X103150Y320691D01*
X102417Y321424D01*
X101520Y321942D01*
X100675Y322169D01*
X98069Y324775D01*
Y327939D01*
X97974Y328658D01*
X97697Y329329D01*
X97558Y329509D01*
X97915Y329866D01*
X98014Y329789D01*
X98972Y329393D01*
X100000Y329257D01*
X101028Y329393D01*
X101986Y329789D01*
X102808Y330420D01*
X103439Y331243D01*
X103836Y332201D01*
X103971Y333228D01*
Y336772D01*
X103836Y337799D01*
X103439Y338757D01*
X102808Y339580D01*
X101986Y340211D01*
X101028Y340607D01*
X100000Y340743D01*
X98972Y340607D01*
X98014Y340211D01*
X97192Y339580D01*
X96561Y338757D01*
X96164Y337799D01*
X96029Y336772D01*
Y333228D01*
X96164Y332201D01*
X96517Y331350D01*
X96093Y331066D01*
X93966Y333193D01*
X93971Y333228D01*
Y336772D01*
X93836Y337799D01*
X93439Y338757D01*
X92808Y339580D01*
X91985Y340211D01*
X91028Y340607D01*
X90000Y340743D01*
X88972Y340607D01*
X88015Y340211D01*
X87192Y339580D01*
X86561Y338757D01*
X86164Y337799D01*
X86029Y336772D01*
Y333228D01*
X86164Y332201D01*
X86561Y331243D01*
X87192Y330420D01*
X88015Y329789D01*
X88972Y329393D01*
X90000Y329257D01*
X90035Y329262D01*
X92510Y326788D01*
Y323623D01*
X92604Y322904D01*
X92882Y322234D01*
X93324Y321658D01*
X96090Y318892D01*
X96063Y318792D01*
Y317755D01*
X96331Y316754D01*
X96850Y315856D01*
X97583Y315123D01*
X98480Y314605D01*
X99482Y314337D01*
X100006D01*
X103940Y310403D01*
X104516Y309961D01*
X104651Y309905D01*
X104551Y309405D01*
X86503D01*
X79517Y316392D01*
X79757Y316972D01*
X79892Y318000D01*
X79757Y319028D01*
X79360Y319986D01*
X78729Y320808D01*
X77907Y321439D01*
X76949Y321836D01*
X75921Y321971D01*
X75555D01*
Y324029D01*
X75921D01*
X76949Y324164D01*
X77907Y324561D01*
X78729Y325192D01*
X79360Y326014D01*
X79757Y326972D01*
X79892Y328000D01*
X79757Y329028D01*
X79360Y329985D01*
X78729Y330808D01*
X77907Y331439D01*
X76949Y331836D01*
X75921Y331971D01*
X72378D01*
X71350Y331836D01*
X70393Y331439D01*
X69570Y330808D01*
X68939Y329985D01*
X68542Y329028D01*
X68407Y328000D01*
X68542Y326972D01*
X68939Y326014D01*
X69570Y325192D01*
X70393Y324561D01*
X71350Y324164D01*
X72378Y324029D01*
X72745D01*
Y321971D01*
X72378D01*
X71350Y321836D01*
X70393Y321439D01*
X69570Y320808D01*
X68939Y319986D01*
X68542Y319028D01*
X68407Y318000D01*
X68542Y316972D01*
X68939Y316015D01*
X69570Y315192D01*
X70393Y314561D01*
X71350Y314164D01*
X72378Y314029D01*
X75921D01*
X76949Y314164D01*
X77530Y314405D01*
X82068Y309867D01*
X81876Y309405D01*
X79601D01*
X79360Y309985D01*
X78729Y310808D01*
X77907Y311439D01*
X76949Y311836D01*
X75921Y311971D01*
X72378D01*
X71350Y311836D01*
X70393Y311439D01*
X69570Y310808D01*
X68939Y309985D01*
X68542Y309028D01*
X68437Y308232D01*
X67917Y308045D01*
X67046Y308916D01*
Y320911D01*
X66939Y321449D01*
X66635Y321905D01*
X63033Y325506D01*
X62577Y325811D01*
X62040Y325918D01*
X60829D01*
X60695Y326418D01*
X61417Y326835D01*
X62150Y327568D01*
X62669Y328466D01*
X62937Y329467D01*
Y330504D01*
X62669Y331505D01*
X62150Y332403D01*
X61417Y333136D01*
X60520Y333654D01*
X59518Y333923D01*
X58482D01*
X57480Y333654D01*
X56583Y333136D01*
X55850Y332403D01*
X55331Y331505D01*
X55063Y330504D01*
Y329467D01*
X55331Y328466D01*
X55850Y327568D01*
X56583Y326835D01*
X57305Y326418D01*
X57171Y325918D01*
X55961D01*
X55423Y325811D01*
X54967Y325506D01*
X49754Y320293D01*
X49095Y320331D01*
X48729Y320808D01*
X47907Y321439D01*
X47904Y321440D01*
X47955Y321960D01*
X48161Y322001D01*
X48617Y322306D01*
X51442Y325131D01*
X51747Y325587D01*
X51854Y326125D01*
Y329875D01*
X51747Y330413D01*
X51442Y330869D01*
X48790Y333521D01*
X48727Y333563D01*
X48879Y334063D01*
X49858D01*
Y336595D01*
X59553D01*
X60090Y336702D01*
X60546Y337007D01*
X67234Y343695D01*
X160318D01*
X163295Y340718D01*
D02*
G37*
G36*
X21706Y350291D02*
X21876Y349791D01*
X21704Y349658D01*
X18331Y346285D01*
X17889Y345710D01*
X17611Y345039D01*
X17516Y344320D01*
Y337126D01*
X12520Y332130D01*
X11963Y332279D01*
X11662Y333400D01*
X10911Y334702D01*
X9848Y335765D01*
X10070Y336214D01*
X10633Y336063D01*
X10783D01*
Y340500D01*
X6346D01*
Y340350D01*
X6683Y339094D01*
X7333Y337969D01*
X8165Y337136D01*
X7939Y336679D01*
X7094Y336906D01*
X5591D01*
X4139Y336516D01*
X2837Y335765D01*
X1774Y334702D01*
X1519Y334261D01*
X1020Y334395D01*
Y345534D01*
X1020Y346004D01*
X1203Y346925D01*
X1562Y347793D01*
X2084Y348573D01*
X2748Y349237D01*
X3529Y349759D01*
X4396Y350118D01*
X5317Y350302D01*
X5786Y350302D01*
X21706Y350291D01*
D02*
G37*
G36*
X222599Y350151D02*
X222600Y350151D01*
X222600Y350151D01*
X223071Y350151D01*
X223994Y349967D01*
X224864Y349607D01*
X225647Y349084D01*
X226313Y348418D01*
X226836Y347635D01*
X227197Y346765D01*
X227380Y345841D01*
X227380Y345371D01*
X227360Y278537D01*
X227365Y278512D01*
X227361Y278486D01*
X227380Y278101D01*
X227398Y278027D01*
Y277952D01*
X227549Y277195D01*
X227587Y277102D01*
X227607Y277004D01*
X227902Y276290D01*
X227958Y276207D01*
X227997Y276114D01*
X228425Y275472D01*
X228496Y275401D01*
X228552Y275318D01*
X229098Y274772D01*
X229181Y274716D01*
X229252Y274645D01*
X229894Y274217D01*
X229987Y274178D01*
X230070Y274123D01*
X230783Y273827D01*
X230882Y273808D01*
X230975Y273769D01*
X231732Y273619D01*
X231807D01*
X231880Y273600D01*
X232266Y273581D01*
X232292Y273585D01*
X232316Y273580D01*
X233571Y273580D01*
X233858Y273580D01*
X234422Y273468D01*
X234953Y273248D01*
X235431Y272929D01*
X235837Y272522D01*
X236156Y272044D01*
X236376Y271514D01*
X236488Y270950D01*
X236488Y270662D01*
X236488Y99063D01*
X236488Y98775D01*
X236376Y98212D01*
X236156Y97681D01*
X235837Y97203D01*
X235431Y96796D01*
X234953Y96477D01*
X234422Y96257D01*
X233858Y96145D01*
X232316D01*
X232292Y96140D01*
X232266Y96144D01*
X231880Y96125D01*
X231807Y96106D01*
X231732D01*
X230975Y95956D01*
X230882Y95917D01*
X230784Y95898D01*
X230070Y95603D01*
X229987Y95547D01*
X229894Y95508D01*
X229252Y95080D01*
X229181Y95009D01*
X229098Y94953D01*
X228552Y94407D01*
X228496Y94324D01*
X228425Y94253D01*
X227997Y93611D01*
X227958Y93518D01*
X227902Y93435D01*
X227607Y92721D01*
X227588Y92623D01*
X227549Y92530D01*
X227398Y91773D01*
Y91698D01*
X227380Y91624D01*
X227361Y91238D01*
X227365Y91213D01*
X227360Y91189D01*
X227359Y4978D01*
X227359Y4588D01*
X227207Y3824D01*
X226908Y3103D01*
X226475Y2455D01*
X225924Y1903D01*
X225275Y1470D01*
X224555Y1172D01*
X223790Y1020D01*
X223400Y1020D01*
X222581D01*
X222481Y1519D01*
X222666Y1596D01*
X223286Y2072D01*
X223762Y2692D01*
X224061Y3414D01*
X224163Y4189D01*
Y15500D01*
X219200D01*
Y16000D01*
X218700D01*
Y30805D01*
X217231D01*
X216457Y30703D01*
X215734Y30404D01*
X215114Y29928D01*
X214638Y29308D01*
X214339Y28586D01*
X213938Y28540D01*
X213834Y28578D01*
X213576Y29201D01*
X213134Y29777D01*
X212558Y30218D01*
X211888Y30496D01*
X211169Y30591D01*
X210405D01*
Y34227D01*
X210298Y34765D01*
X209993Y35221D01*
X206104Y39110D01*
X206168Y39360D01*
X206326Y39595D01*
X213621D01*
X213885Y39331D01*
X214608Y39031D01*
X215392D01*
X216115Y39331D01*
X216669Y39885D01*
X216968Y40608D01*
Y41392D01*
X216669Y42115D01*
X216128Y42656D01*
X216501Y43030D01*
X216801Y43754D01*
Y44537D01*
X216501Y45260D01*
X215948Y45814D01*
X215815Y45869D01*
Y46410D01*
X215978Y46478D01*
X216532Y47032D01*
X216832Y47755D01*
Y48538D01*
X216532Y49262D01*
X216268Y49526D01*
Y52365D01*
X216161Y52903D01*
X215857Y53359D01*
X213595Y55620D01*
X213836Y56201D01*
X213971Y57228D01*
Y60772D01*
X213836Y61799D01*
X213439Y62757D01*
X212808Y63580D01*
X211985Y64211D01*
X211028Y64607D01*
X210000Y64743D01*
X208972Y64607D01*
X208014Y64211D01*
X207192Y63580D01*
X206561Y62757D01*
X206164Y61799D01*
X206029Y60772D01*
Y57228D01*
X206164Y56201D01*
X206561Y55243D01*
X207192Y54420D01*
X208014Y53789D01*
X208972Y53393D01*
X210000Y53257D01*
X211028Y53393D01*
X211608Y53633D01*
X213458Y51783D01*
Y49526D01*
X213194Y49262D01*
X212895Y48538D01*
Y47755D01*
X213194Y47032D01*
X213561Y46665D01*
X213566Y46090D01*
X213539Y46034D01*
X213381Y45920D01*
X213256Y45960D01*
X203595Y55620D01*
X203836Y56201D01*
X203971Y57228D01*
Y60772D01*
X203836Y61799D01*
X203439Y62757D01*
X202808Y63580D01*
X201986Y64211D01*
X201028Y64607D01*
X200000Y64743D01*
X198972Y64607D01*
X198014Y64211D01*
X197192Y63580D01*
X196561Y62757D01*
X196164Y61799D01*
X196029Y60772D01*
Y57228D01*
X196164Y56201D01*
X196561Y55243D01*
X197192Y54420D01*
X198014Y53789D01*
X198972Y53393D01*
X200000Y53257D01*
X201028Y53393D01*
X201608Y53633D01*
X211864Y43378D01*
X212320Y43073D01*
X212779Y42982D01*
X212850Y42905D01*
X212783Y42644D01*
X212579Y42405D01*
X206810D01*
X193595Y55620D01*
X193836Y56201D01*
X193971Y57228D01*
Y60772D01*
X193836Y61799D01*
X193439Y62757D01*
X192808Y63580D01*
X191985Y64211D01*
X191028Y64607D01*
X190000Y64743D01*
X188972Y64607D01*
X188014Y64211D01*
X187192Y63580D01*
X186561Y62757D01*
X186164Y61799D01*
X186029Y60772D01*
Y57228D01*
X186164Y56201D01*
X186561Y55243D01*
X186909Y54790D01*
X186686Y54283D01*
X186357Y54243D01*
X183901Y56699D01*
X183971Y57228D01*
Y60772D01*
X183836Y61799D01*
X183439Y62757D01*
X182808Y63580D01*
X181985Y64211D01*
X181028Y64607D01*
X180000Y64743D01*
X178972Y64607D01*
X178015Y64211D01*
X177192Y63580D01*
X176561Y62757D01*
X176164Y61799D01*
X176029Y60772D01*
Y57228D01*
X176164Y56201D01*
X176561Y55243D01*
X177192Y54420D01*
X178015Y53789D01*
X178972Y53393D01*
X180000Y53257D01*
X181028Y53393D01*
X181985Y53789D01*
X182467Y54159D01*
X184919Y51707D01*
X185375Y51403D01*
X185913Y51296D01*
X189944D01*
X207595Y33645D01*
Y30591D01*
X207231D01*
X206512Y30496D01*
X205842Y30218D01*
X205266Y29777D01*
X204824Y29201D01*
X204546Y28530D01*
X204452Y27811D01*
Y4189D01*
X204546Y3469D01*
X204824Y2799D01*
X205266Y2223D01*
X205842Y1782D01*
X206512Y1504D01*
X206427Y1020D01*
X201973D01*
X201888Y1504D01*
X202558Y1782D01*
X203134Y2223D01*
X203576Y2799D01*
X203854Y3469D01*
X203948Y4189D01*
Y27811D01*
X203854Y28530D01*
X203576Y29201D01*
X203134Y29777D01*
X202558Y30218D01*
X201888Y30496D01*
X201168Y30591D01*
X200605D01*
Y34800D01*
X200498Y35338D01*
X200194Y35794D01*
X189994Y45994D01*
X189538Y46298D01*
X189000Y46405D01*
X181432D01*
X173072Y54765D01*
X173439Y55243D01*
X173836Y56201D01*
X173971Y57228D01*
Y60772D01*
X173836Y61799D01*
X173439Y62757D01*
X172808Y63580D01*
X171985Y64211D01*
X171028Y64607D01*
X170000Y64743D01*
X168972Y64607D01*
X168015Y64211D01*
X167192Y63580D01*
X166561Y62757D01*
X166164Y61799D01*
X166029Y60772D01*
Y57228D01*
X166164Y56201D01*
X166561Y55243D01*
X167192Y54420D01*
X168015Y53789D01*
X168972Y53393D01*
X170000Y53257D01*
X170536Y53328D01*
X179431Y44432D01*
X179224Y43932D01*
X170834D01*
X161655Y53111D01*
X161772Y53701D01*
X161986Y53789D01*
X162808Y54420D01*
X163439Y55243D01*
X163836Y56201D01*
X163971Y57228D01*
Y60772D01*
X163836Y61799D01*
X163439Y62757D01*
X162808Y63580D01*
X161986Y64211D01*
X161028Y64607D01*
X160000Y64743D01*
X158972Y64607D01*
X158015Y64211D01*
X157192Y63580D01*
X156561Y62757D01*
X156164Y61799D01*
X156029Y60772D01*
Y57228D01*
X156164Y56201D01*
X156561Y55243D01*
X157192Y54420D01*
X158015Y53789D01*
X158595Y53549D01*
Y52780D01*
X158702Y52242D01*
X159007Y51786D01*
X166472Y44321D01*
X166225Y43860D01*
X165862Y43932D01*
X160834D01*
X151655Y53111D01*
X151772Y53701D01*
X151986Y53789D01*
X152808Y54420D01*
X153439Y55243D01*
X153836Y56201D01*
X153971Y57228D01*
Y60772D01*
X153836Y61799D01*
X153439Y62757D01*
X152808Y63580D01*
X151986Y64211D01*
X151028Y64607D01*
X150000Y64743D01*
X148972Y64607D01*
X148014Y64211D01*
X147192Y63580D01*
X146561Y62757D01*
X146164Y61799D01*
X146029Y60772D01*
Y57228D01*
X146164Y56201D01*
X146561Y55243D01*
X147192Y54420D01*
X148014Y53789D01*
X148595Y53549D01*
Y52780D01*
X148702Y52242D01*
X149006Y51786D01*
X156472Y44321D01*
X156225Y43860D01*
X155862Y43932D01*
X150834D01*
X141655Y53111D01*
X141772Y53701D01*
X141985Y53789D01*
X142808Y54420D01*
X143439Y55243D01*
X143836Y56201D01*
X143971Y57228D01*
Y60772D01*
X143836Y61799D01*
X143439Y62757D01*
X142808Y63580D01*
X141985Y64211D01*
X141028Y64607D01*
X140000Y64743D01*
X138972Y64607D01*
X138392Y64367D01*
X127713Y75045D01*
X127257Y75350D01*
X126720Y75457D01*
X82333D01*
X76238Y81552D01*
X75782Y81857D01*
X75244Y81964D01*
X72883D01*
X71080Y83767D01*
X71266Y84288D01*
X72062Y84393D01*
X73020Y84789D01*
X73843Y85420D01*
X74474Y86243D01*
X74870Y87201D01*
X75006Y88228D01*
Y91772D01*
X74870Y92799D01*
X74474Y93757D01*
X73843Y94580D01*
X73020Y95211D01*
X72062Y95607D01*
X71035Y95743D01*
X70007Y95607D01*
X69049Y95211D01*
X68227Y94580D01*
X67596Y93757D01*
X67199Y92799D01*
X67064Y91772D01*
Y91060D01*
X66602Y90869D01*
X66477Y90993D01*
X66021Y91298D01*
X65484Y91405D01*
X65006D01*
Y91772D01*
X64870Y92799D01*
X64474Y93757D01*
X63843Y94580D01*
X63534Y94816D01*
X63555Y95431D01*
X63668Y95507D01*
X66521Y98360D01*
X66826Y98815D01*
X66871Y99046D01*
X67287Y99120D01*
X67394Y99111D01*
X68041Y98269D01*
X68907Y97604D01*
X69917Y97185D01*
X70500Y97109D01*
Y103000D01*
Y108891D01*
X69917Y108815D01*
X68907Y108396D01*
X68041Y107731D01*
X67432Y106939D01*
X67150Y106972D01*
X66932Y107075D01*
Y108290D01*
X66826Y108828D01*
X66521Y109284D01*
X62405Y113400D01*
Y127549D01*
X62985Y127789D01*
X63808Y128420D01*
X64439Y129243D01*
X64836Y130201D01*
X64971Y131228D01*
Y134772D01*
X64836Y135799D01*
X64439Y136757D01*
X63950Y137394D01*
X64187Y137894D01*
X65891D01*
X67405Y136380D01*
X67164Y135799D01*
X67029Y134772D01*
Y131228D01*
X67164Y130201D01*
X67561Y129243D01*
X68192Y128420D01*
X69015Y127789D01*
X69972Y127393D01*
X71000Y127257D01*
X72028Y127393D01*
X72986Y127789D01*
X73808Y128420D01*
X74439Y129243D01*
X74836Y130201D01*
X74971Y131228D01*
Y134772D01*
X74836Y135799D01*
X74439Y136757D01*
X73808Y137580D01*
X72986Y138211D01*
X72028Y138607D01*
X71000Y138743D01*
X69972Y138607D01*
X69392Y138367D01*
X67466Y140293D01*
X67010Y140597D01*
X66472Y140704D01*
X63696D01*
X63526Y141204D01*
X63808Y141420D01*
X64439Y142243D01*
X64836Y143201D01*
X64971Y144228D01*
Y147772D01*
X64836Y148799D01*
X64439Y149757D01*
X63808Y150580D01*
X62985Y151211D01*
X62028Y151607D01*
X61000Y151743D01*
X59972Y151607D01*
X59014Y151211D01*
X58192Y150580D01*
X57561Y149757D01*
X57164Y148799D01*
X57029Y147772D01*
Y147060D01*
X56567Y146869D01*
X56442Y146994D01*
X55986Y147298D01*
X55449Y147405D01*
X54971D01*
Y147772D01*
X54836Y148799D01*
X54439Y149757D01*
X53808Y150580D01*
X52986Y151211D01*
X52028Y151607D01*
X51000Y151743D01*
X49972Y151607D01*
X49014Y151211D01*
X48192Y150580D01*
X47561Y149757D01*
X47164Y148799D01*
X47029Y147772D01*
Y144228D01*
X47164Y143201D01*
X47561Y142243D01*
X48192Y141420D01*
X49014Y140789D01*
X49972Y140393D01*
X51000Y140257D01*
X52028Y140393D01*
X52986Y140789D01*
X53808Y141420D01*
X54439Y142243D01*
X54567Y142553D01*
X55067Y142454D01*
Y142353D01*
X55174Y141815D01*
X55479Y141359D01*
X58439Y138399D01*
X58503Y137818D01*
X58192Y137580D01*
X57561Y136757D01*
X57164Y135799D01*
X57029Y134772D01*
Y131228D01*
X57164Y130201D01*
X57561Y129243D01*
X58192Y128420D01*
X59014Y127789D01*
X59595Y127549D01*
Y112818D01*
X59702Y112280D01*
X60007Y111824D01*
X63145Y108686D01*
X62862Y108262D01*
X62028Y108607D01*
X61000Y108743D01*
X59972Y108607D01*
X59014Y108211D01*
X58192Y107580D01*
X57561Y106757D01*
X57433Y106447D01*
X56932Y106546D01*
Y106647D01*
X56826Y107185D01*
X56521Y107641D01*
X53869Y110293D01*
X53413Y110597D01*
X52875Y110704D01*
X19125D01*
X18587Y110597D01*
X18131Y110293D01*
X15399Y107560D01*
X14937Y107752D01*
Y108709D01*
X7063D01*
Y97291D01*
X14937D01*
Y103999D01*
X15229D01*
X15767Y104106D01*
X16223Y104411D01*
X16529Y104717D01*
X17029Y104510D01*
Y101228D01*
X17164Y100201D01*
X17561Y99243D01*
X18192Y98420D01*
X19015Y97789D01*
X19972Y97393D01*
X21000Y97257D01*
X22028Y97393D01*
X22986Y97789D01*
X23808Y98420D01*
X24439Y99243D01*
X24836Y100201D01*
X24971Y101228D01*
Y104772D01*
X24836Y105799D01*
X24439Y106757D01*
X23950Y107394D01*
X24187Y107894D01*
X27813D01*
X28050Y107394D01*
X27561Y106757D01*
X27164Y105799D01*
X27029Y104772D01*
Y101228D01*
X27164Y100201D01*
X27561Y99243D01*
X28192Y98420D01*
X29015Y97789D01*
X29972Y97393D01*
X31000Y97257D01*
X32028Y97393D01*
X32985Y97789D01*
X33808Y98420D01*
X34439Y99243D01*
X34836Y100201D01*
X34971Y101228D01*
Y104772D01*
X34836Y105799D01*
X34439Y106757D01*
X33950Y107394D01*
X34187Y107894D01*
X37813D01*
X38050Y107394D01*
X37561Y106757D01*
X37164Y105799D01*
X37029Y104772D01*
Y101228D01*
X37164Y100201D01*
X37561Y99243D01*
X38192Y98420D01*
X38474Y98204D01*
X38304Y97704D01*
X35562D01*
X35025Y97597D01*
X34569Y97293D01*
X32643Y95367D01*
X32063Y95607D01*
X31035Y95743D01*
X30007Y95607D01*
X29049Y95211D01*
X28227Y94580D01*
X27596Y93757D01*
X27199Y92799D01*
X27064Y91772D01*
Y88228D01*
X27199Y87201D01*
X27596Y86243D01*
X28227Y85420D01*
X29049Y84789D01*
X30007Y84393D01*
X31035Y84257D01*
X32063Y84393D01*
X33020Y84789D01*
X33843Y85420D01*
X34474Y86243D01*
X34870Y87201D01*
X35006Y88228D01*
Y91772D01*
X34870Y92799D01*
X34630Y93380D01*
X36144Y94894D01*
X37848D01*
X38085Y94394D01*
X37596Y93757D01*
X37199Y92799D01*
X37064Y91772D01*
Y88228D01*
X37199Y87201D01*
X37596Y86243D01*
X38227Y85420D01*
X39049Y84789D01*
X40007Y84393D01*
X41035Y84257D01*
X42063Y84393D01*
X43020Y84789D01*
X43843Y85420D01*
X44474Y86243D01*
X44870Y87201D01*
X45006Y88228D01*
Y91772D01*
X44870Y92799D01*
X44474Y93757D01*
X43985Y94394D01*
X44221Y94894D01*
X47848D01*
X48085Y94394D01*
X47596Y93757D01*
X47199Y92799D01*
X47064Y91772D01*
Y88228D01*
X47199Y87201D01*
X47499Y86476D01*
X47477Y86443D01*
X47245Y85884D01*
X47230Y85807D01*
X47200Y85734D01*
X47082Y85141D01*
Y85062D01*
X47066Y84984D01*
Y83650D01*
X47128Y83343D01*
X47302Y83082D01*
X47562Y82908D01*
X47869Y82847D01*
X48775D01*
X48981Y82350D01*
X53214D01*
X53420Y82847D01*
X54200D01*
X54508Y82908D01*
X54768Y83082D01*
X54942Y83343D01*
X55003Y83650D01*
Y84808D01*
X54988Y84886D01*
Y84965D01*
X54908Y85366D01*
X55379Y85561D01*
X55514Y85360D01*
X58166Y82707D01*
X58622Y82403D01*
X59159Y82296D01*
X61133D01*
X75595Y67834D01*
Y62755D01*
X75095Y62722D01*
X75077Y62855D01*
X74659Y63864D01*
X73994Y64731D01*
X73127Y65396D01*
X72118Y65815D01*
X71535Y65891D01*
Y60000D01*
X71035D01*
Y59500D01*
X66849D01*
Y58228D01*
X66992Y57145D01*
X67410Y56136D01*
X67861Y55547D01*
X67615Y55048D01*
X64121D01*
X63940Y55547D01*
X64474Y56243D01*
X64870Y57201D01*
X65006Y58228D01*
Y61772D01*
X64870Y62799D01*
X64474Y63757D01*
X63843Y64580D01*
X63020Y65211D01*
X62063Y65607D01*
X61035Y65743D01*
X60007Y65607D01*
X59049Y65211D01*
X58227Y64580D01*
X57596Y63757D01*
X57199Y62799D01*
X57064Y61772D01*
Y58228D01*
X57199Y57201D01*
X57596Y56243D01*
X58129Y55547D01*
X57949Y55048D01*
X54120D01*
X53940Y55547D01*
X54474Y56243D01*
X54870Y57201D01*
X55006Y58228D01*
Y61772D01*
X54870Y62799D01*
X54570Y63524D01*
X54593Y63557D01*
X54824Y64116D01*
X54840Y64193D01*
X54870Y64266D01*
X54988Y64859D01*
Y64938D01*
X55003Y65016D01*
Y66350D01*
X54942Y66657D01*
X54768Y66918D01*
X54508Y67092D01*
X54200Y67153D01*
X53294D01*
X53088Y67650D01*
X48855D01*
X48649Y67153D01*
X47869D01*
X47562Y67092D01*
X47302Y66918D01*
X47127Y66657D01*
X47066Y66350D01*
Y65192D01*
X47082Y65114D01*
Y65035D01*
X47207Y64405D01*
X47237Y64332D01*
X47253Y64254D01*
X47499Y63660D01*
X47534Y63608D01*
X47199Y62799D01*
X47064Y61772D01*
Y58228D01*
X47199Y57201D01*
X47596Y56243D01*
X48129Y55547D01*
X47949Y55048D01*
X46202D01*
X44630Y56620D01*
X44870Y57201D01*
X45006Y58228D01*
Y61772D01*
X44870Y62799D01*
X44474Y63757D01*
X43843Y64580D01*
X43020Y65211D01*
X42063Y65607D01*
X41035Y65743D01*
X40007Y65607D01*
X39049Y65211D01*
X38227Y64580D01*
X37596Y63757D01*
X37199Y62799D01*
X37064Y61772D01*
Y58228D01*
X37199Y57201D01*
X37596Y56243D01*
X38227Y55420D01*
X39049Y54789D01*
X40007Y54393D01*
X41035Y54257D01*
X42063Y54393D01*
X42643Y54633D01*
X44288Y52988D01*
X44081Y52488D01*
X22359D01*
X21080Y53767D01*
X21266Y54288D01*
X22062Y54393D01*
X23020Y54789D01*
X23843Y55420D01*
X24474Y56243D01*
X24870Y57201D01*
X25006Y58228D01*
Y61772D01*
X24870Y62799D01*
X24570Y63524D01*
X24593Y63557D01*
X24824Y64116D01*
X24840Y64193D01*
X24870Y64266D01*
X24988Y64859D01*
Y64938D01*
X25003Y65016D01*
Y66350D01*
X24942Y66657D01*
X24768Y66918D01*
X24508Y67092D01*
X24200Y67153D01*
X23294D01*
X23088Y67650D01*
X18855D01*
X18649Y67153D01*
X17869D01*
X17562Y67092D01*
X17301Y66918D01*
X17127Y66657D01*
X17066Y66350D01*
Y65192D01*
X17082Y65114D01*
Y65035D01*
X17207Y64405D01*
X17237Y64332D01*
X17253Y64254D01*
X17499Y63660D01*
X17534Y63608D01*
X17199Y62799D01*
X17064Y61772D01*
Y58228D01*
X17150Y57574D01*
X16739Y57075D01*
X16737Y57074D01*
X14972D01*
Y65709D01*
X7098D01*
Y54291D01*
X13458D01*
X13594Y54264D01*
X16609D01*
X20783Y50090D01*
X21239Y49786D01*
X21777Y49679D01*
X27387D01*
X27595Y49178D01*
X27531Y49115D01*
X27231Y48392D01*
Y47608D01*
X27531Y46885D01*
X27795Y46621D01*
Y30591D01*
X27231D01*
X26512Y30496D01*
X25842Y30218D01*
X25266Y29777D01*
X24824Y29201D01*
X24546Y28530D01*
X24452Y27811D01*
Y4189D01*
X24546Y3469D01*
X24824Y2799D01*
X25266Y2223D01*
X25842Y1782D01*
X26512Y1504D01*
X26427Y1020D01*
X21973D01*
X21888Y1504D01*
X22558Y1782D01*
X23134Y2223D01*
X23576Y2799D01*
X23854Y3469D01*
X23948Y4189D01*
Y27811D01*
X23854Y28530D01*
X23576Y29201D01*
X23134Y29777D01*
X22558Y30218D01*
X21888Y30496D01*
X21169Y30591D01*
X17232D01*
X16512Y30496D01*
X15842Y30218D01*
X15266Y29777D01*
X14824Y29201D01*
X14566Y28578D01*
X14462Y28540D01*
X14061Y28586D01*
X13761Y29308D01*
X13286Y29928D01*
X12666Y30404D01*
X11943Y30703D01*
X11169Y30805D01*
X10603D01*
X10469Y31305D01*
X11023Y31625D01*
X11575Y32177D01*
X11966Y32854D01*
X12139Y33500D01*
X6261D01*
X6434Y32854D01*
X6825Y32177D01*
X7377Y31625D01*
X7931Y31305D01*
X7797Y30805D01*
X7231D01*
X6457Y30703D01*
X5734Y30404D01*
X5114Y29928D01*
X4639Y29308D01*
X4339Y28586D01*
X4237Y27811D01*
Y16500D01*
X9200D01*
Y15500D01*
X4237D01*
Y4189D01*
X4339Y3414D01*
X4639Y2692D01*
X5114Y2072D01*
X5734Y1596D01*
X5919Y1519D01*
X5819Y1020D01*
X4679D01*
X3895Y1175D01*
X3156Y1481D01*
X2491Y1926D01*
X1926Y2491D01*
X1481Y3156D01*
X1175Y3895D01*
X1020Y4679D01*
Y5079D01*
X1020Y73786D01*
X1481Y73978D01*
X2014Y73445D01*
X2470Y73140D01*
X3008Y73033D01*
X6558D01*
X6822Y72769D01*
X7545Y72470D01*
X8329D01*
X9052Y72769D01*
X9606Y73323D01*
X9905Y74047D01*
Y74830D01*
X9606Y75553D01*
X9267Y75893D01*
X9107Y76219D01*
X9267Y76546D01*
X9606Y76885D01*
X9905Y77608D01*
Y78392D01*
X9606Y79115D01*
X9052Y79669D01*
X8329Y79969D01*
X7826D01*
X5797Y81998D01*
Y105392D01*
X5690Y105930D01*
X5385Y106385D01*
X4314Y107457D01*
X4298Y107536D01*
X3993Y107992D01*
X-2627Y114612D01*
Y148868D01*
X-2127Y149020D01*
X-2105Y148987D01*
X-2049Y148931D01*
X-2005Y148865D01*
X-1550Y148411D01*
X-1484Y148367D01*
X-1429Y148311D01*
X-894Y147954D01*
X-821Y147924D01*
X-755Y147880D01*
X-161Y147634D01*
X-84Y147618D01*
X-11Y147588D01*
X620Y147463D01*
X699D01*
X776Y147447D01*
X1400D01*
X1477Y147463D01*
X1556D01*
X1825Y147516D01*
X4334Y145007D01*
X4790Y144702D01*
X5328Y144595D01*
X7063D01*
Y140291D01*
X14937D01*
Y150779D01*
X14953Y150859D01*
Y150938D01*
X14968Y151016D01*
Y152350D01*
X14907Y152657D01*
X14733Y152918D01*
Y153082D01*
X14907Y153343D01*
X14968Y153650D01*
Y154808D01*
X14953Y154886D01*
Y154965D01*
X14828Y155595D01*
X14797Y155668D01*
X14782Y155746D01*
X14536Y156340D01*
X14492Y156405D01*
X14462Y156479D01*
X14105Y157013D01*
X14049Y157069D01*
X14005Y157135D01*
X13550Y157589D01*
X13484Y157633D01*
X13429Y157689D01*
X12894Y158046D01*
X12821Y158076D01*
X12755Y158120D01*
X12161Y158366D01*
X12084Y158382D01*
X12011Y158412D01*
X11380Y158537D01*
X11301D01*
X11224Y158553D01*
X10600D01*
X10522Y158537D01*
X10443D01*
X10175Y158484D01*
X6666Y161994D01*
X6210Y162298D01*
X5672Y162405D01*
X-3000D01*
X-3538Y162298D01*
X-3993Y161994D01*
X-6993Y158993D01*
X-7298Y158538D01*
X-7405Y158000D01*
Y113000D01*
X-7298Y112462D01*
X-6993Y112006D01*
X595Y104418D01*
Y92715D01*
X95Y92563D01*
X-40Y92765D01*
X-110Y92836D01*
X-166Y92920D01*
X-710Y93466D01*
X-793Y93522D01*
X-864Y93593D01*
X-1504Y94022D01*
X-1597Y94061D01*
X-1680Y94116D01*
X-2392Y94412D01*
X-2490Y94432D01*
X-2583Y94471D01*
X-3338Y94622D01*
X-3414Y94622D01*
X-3487Y94641D01*
X-3872Y94661D01*
X-3898Y94657D01*
X-3924Y94662D01*
X-5179D01*
X-5466Y94662D01*
X-6030Y94774D01*
X-6560Y94994D01*
X-7038Y95313D01*
X-7445Y95719D01*
X-7764Y96197D01*
X-7984Y96728D01*
X-8096Y97292D01*
Y97579D01*
X-8096Y269663D01*
X-8096Y269950D01*
X-7984Y270514D01*
X-7764Y271045D01*
X-7445Y271523D01*
X-7038Y271929D01*
X-6561Y272248D01*
X-6030Y272468D01*
X-5466Y272580D01*
X-5178Y272581D01*
X-3924D01*
X-3899Y272585D01*
X-3874Y272582D01*
X-3489Y272601D01*
X-3416Y272619D01*
X-3341D01*
X-2586Y272769D01*
X-2493Y272808D01*
X-2395Y272827D01*
X-2169Y272921D01*
X-2084Y272856D01*
X-1780Y272541D01*
Y266601D01*
X-1808Y266580D01*
X-2439Y265757D01*
X-2836Y264799D01*
X-2971Y263772D01*
Y260228D01*
X-2836Y259201D01*
X-2439Y258243D01*
X-1808Y257420D01*
X-986Y256789D01*
X-28Y256393D01*
X768Y256288D01*
X955Y255767D01*
X-4521Y250291D01*
X-4826Y249835D01*
X-4933Y249298D01*
Y215581D01*
X-4826Y215044D01*
X-4521Y214588D01*
X-405Y210472D01*
Y194937D01*
X-2937D01*
Y183520D01*
X4937D01*
Y194937D01*
X2405D01*
Y211054D01*
X2298Y211591D01*
X1993Y212047D01*
X1045Y212995D01*
X1232Y213516D01*
X2028Y213621D01*
X2985Y214018D01*
X3808Y214649D01*
X4439Y215471D01*
X4836Y216429D01*
X4971Y217457D01*
Y221000D01*
X4836Y222028D01*
X4439Y222986D01*
X3808Y223808D01*
X2985Y224439D01*
X2028Y224836D01*
X1000Y224971D01*
X-28Y224836D01*
X-986Y224439D01*
X-1623Y223950D01*
X-2123Y224187D01*
Y226291D01*
X4937D01*
Y237709D01*
X-2123D01*
Y248716D01*
X6521Y257360D01*
X6826Y257815D01*
X6933Y258353D01*
Y258454D01*
X7433Y258553D01*
X7561Y258243D01*
X8192Y257420D01*
X9014Y256789D01*
X9972Y256393D01*
X11000Y256257D01*
X12028Y256393D01*
X12608Y256633D01*
X16423Y252819D01*
X16879Y252514D01*
X17416Y252407D01*
X21736D01*
X23032Y251112D01*
X22840Y250650D01*
X22681D01*
X21625Y250367D01*
X20679Y249820D01*
X19907Y249048D01*
X19360Y248102D01*
X19078Y247046D01*
Y247000D01*
X23227D01*
Y246500D01*
X23727D01*
Y242350D01*
X23773D01*
X24829Y242633D01*
X25775Y243179D01*
X26548Y243952D01*
X26628Y244091D01*
X27124Y244157D01*
X30195Y241085D01*
X30651Y240781D01*
X31189Y240674D01*
X43948D01*
X44486Y240781D01*
X44942Y241085D01*
X48393Y244536D01*
X48832Y244354D01*
X48880Y243867D01*
X45479Y240466D01*
X45174Y240010D01*
X45068Y239472D01*
Y235546D01*
X44567Y235447D01*
X44439Y235757D01*
X43808Y236580D01*
X42985Y237211D01*
X42028Y237607D01*
X41000Y237743D01*
X39972Y237607D01*
X39015Y237211D01*
X38192Y236580D01*
X37561Y235757D01*
X37164Y234799D01*
X37029Y233772D01*
Y230228D01*
X37164Y229201D01*
X37561Y228243D01*
X38192Y227420D01*
X39015Y226789D01*
X39972Y226393D01*
X41000Y226257D01*
X42028Y226393D01*
X42985Y226789D01*
X43808Y227420D01*
X44439Y228243D01*
X44567Y228553D01*
X45068Y228454D01*
Y227054D01*
X42608Y224595D01*
X42028Y224836D01*
X41000Y224971D01*
X39972Y224836D01*
X39015Y224439D01*
X38192Y223808D01*
X37561Y222986D01*
X37164Y222028D01*
X37029Y221000D01*
Y217457D01*
X37164Y216429D01*
X37561Y215471D01*
X38050Y214834D01*
X37813Y214334D01*
X36110D01*
X34595Y215848D01*
X34836Y216429D01*
X34971Y217457D01*
Y221000D01*
X34836Y222028D01*
X34439Y222986D01*
X33808Y223808D01*
X32985Y224439D01*
X32028Y224836D01*
X31000Y224971D01*
X29972Y224836D01*
X29015Y224439D01*
X28192Y223808D01*
X27561Y222986D01*
X27164Y222028D01*
X27029Y221000D01*
Y217457D01*
X27164Y216429D01*
X27561Y215471D01*
X28192Y214649D01*
X29015Y214018D01*
X29972Y213621D01*
X31000Y213486D01*
X32028Y213621D01*
X32608Y213861D01*
X33642Y212827D01*
X33451Y212366D01*
X28078D01*
X24595Y215848D01*
X24836Y216429D01*
X24971Y217457D01*
Y221000D01*
X24836Y222028D01*
X24439Y222986D01*
X23808Y223808D01*
X22986Y224439D01*
X22028Y224836D01*
X21000Y224971D01*
X19972Y224836D01*
X19015Y224439D01*
X18192Y223808D01*
X17561Y222986D01*
X17164Y222028D01*
X17029Y221000D01*
Y217457D01*
X17164Y216429D01*
X17561Y215471D01*
X18192Y214649D01*
X19015Y214018D01*
X19972Y213621D01*
X21000Y213486D01*
X22028Y213621D01*
X22608Y213861D01*
X26503Y209967D01*
X26958Y209663D01*
X27496Y209556D01*
X51956D01*
X52290Y209056D01*
X52181Y208793D01*
Y208010D01*
X52481Y207287D01*
X52745Y207023D01*
Y200379D01*
X52481Y200115D01*
X52181Y199392D01*
Y198608D01*
X52481Y197885D01*
X52948Y197418D01*
X52926Y197272D01*
X52807Y196975D01*
X52780Y196932D01*
X29125D01*
X28587Y196826D01*
X28131Y196521D01*
X25479Y193869D01*
X25174Y193413D01*
X25067Y192875D01*
Y192775D01*
X24567Y192675D01*
X24439Y192985D01*
X23808Y193808D01*
X22986Y194439D01*
X22028Y194836D01*
X21000Y194971D01*
X19972Y194836D01*
X19015Y194439D01*
X18192Y193808D01*
X17561Y192985D01*
X17164Y192028D01*
X17029Y191000D01*
Y187457D01*
X17164Y186429D01*
X17561Y185471D01*
X18192Y184649D01*
X19015Y184018D01*
X19972Y183621D01*
X21000Y183486D01*
X22028Y183621D01*
X22986Y184018D01*
X23808Y184649D01*
X24439Y185471D01*
X24836Y186429D01*
X24971Y187457D01*
Y187823D01*
X25449D01*
X25986Y187930D01*
X26442Y188235D01*
X26567Y188360D01*
X27029Y188168D01*
Y187457D01*
X27164Y186429D01*
X27561Y185471D01*
X28192Y184649D01*
X29015Y184018D01*
X29972Y183621D01*
X31000Y183486D01*
X32028Y183621D01*
X32985Y184018D01*
X33808Y184649D01*
X34439Y185471D01*
X34836Y186429D01*
X34971Y187457D01*
Y191000D01*
X34836Y192028D01*
X34439Y192985D01*
X33950Y193623D01*
X34187Y194123D01*
X37813D01*
X38050Y193623D01*
X37561Y192985D01*
X37164Y192028D01*
X37029Y191000D01*
Y187457D01*
X37164Y186429D01*
X37561Y185471D01*
X38192Y184649D01*
X39015Y184018D01*
X39972Y183621D01*
X41000Y183486D01*
X42028Y183621D01*
X42985Y184018D01*
X43808Y184649D01*
X44439Y185471D01*
X44836Y186429D01*
X44971Y187457D01*
Y191000D01*
X44836Y192028D01*
X44439Y192985D01*
X43950Y193623D01*
X44187Y194123D01*
X47813D01*
X48050Y193623D01*
X47561Y192985D01*
X47164Y192028D01*
X47029Y191000D01*
Y187457D01*
X47164Y186429D01*
X47405Y185848D01*
X45479Y183923D01*
X45174Y183467D01*
X45068Y182929D01*
Y179546D01*
X44567Y179447D01*
X44439Y179757D01*
X43808Y180580D01*
X42985Y181211D01*
X42028Y181607D01*
X41000Y181743D01*
X39972Y181607D01*
X39015Y181211D01*
X38192Y180580D01*
X37561Y179757D01*
X37164Y178799D01*
X37029Y177772D01*
Y174228D01*
X37164Y173201D01*
X37561Y172243D01*
X38192Y171420D01*
X39015Y170789D01*
X39972Y170393D01*
X41000Y170257D01*
X42028Y170393D01*
X42608Y170633D01*
X48471Y164770D01*
X48927Y164466D01*
X49465Y164359D01*
X55519D01*
X55652Y163859D01*
X55066Y163520D01*
X54480Y162934D01*
X54065Y162216D01*
X53850Y161415D01*
Y160585D01*
X54065Y159784D01*
X54480Y159066D01*
X55066Y158480D01*
X55784Y158065D01*
X56585Y157850D01*
X57415D01*
X58216Y158065D01*
X58934Y158480D01*
X59520Y159066D01*
X59935Y159784D01*
X60150Y160585D01*
Y161415D01*
X59935Y162216D01*
X59520Y162934D01*
X58934Y163520D01*
X58348Y163859D01*
X58482Y164359D01*
X59394D01*
X69652Y154101D01*
X70108Y153797D01*
X70646Y153690D01*
X153498D01*
X169955Y137233D01*
X169768Y136712D01*
X168972Y136607D01*
X168015Y136211D01*
X167192Y135580D01*
X166561Y134757D01*
X166164Y133799D01*
X166029Y132772D01*
Y129228D01*
X166164Y128201D01*
X166561Y127243D01*
X167192Y126420D01*
X168015Y125789D01*
X168972Y125393D01*
X170000Y125257D01*
X171028Y125393D01*
X171985Y125789D01*
X172808Y126420D01*
X173439Y127243D01*
X173543Y127494D01*
X174043Y127395D01*
Y125324D01*
X174150Y124786D01*
X174455Y124330D01*
X176405Y122380D01*
X176164Y121799D01*
X176029Y120772D01*
Y117228D01*
X176164Y116201D01*
X176561Y115243D01*
X177192Y114420D01*
X178015Y113789D01*
X178972Y113393D01*
X180000Y113257D01*
X181028Y113393D01*
X181985Y113789D01*
X182808Y114420D01*
X183439Y115243D01*
X183836Y116201D01*
X183971Y117228D01*
Y120772D01*
X183836Y121799D01*
X183439Y122757D01*
X182808Y123580D01*
X181985Y124211D01*
X181028Y124607D01*
X180000Y124743D01*
X178972Y124607D01*
X178392Y124367D01*
X177109Y125649D01*
X177144Y125828D01*
X177693Y126036D01*
X178015Y125789D01*
X178972Y125393D01*
X180000Y125257D01*
X181028Y125393D01*
X181985Y125789D01*
X182808Y126420D01*
X183439Y127243D01*
X183836Y128201D01*
X183971Y129228D01*
Y132772D01*
X183836Y133799D01*
X183439Y134757D01*
X182808Y135580D01*
X181985Y136211D01*
X181028Y136607D01*
X180000Y136743D01*
X178972Y136607D01*
X178015Y136211D01*
X177192Y135580D01*
X176798Y135066D01*
X176151Y135011D01*
X155965Y155196D01*
X156157Y155658D01*
X181530D01*
X199955Y137233D01*
X199768Y136712D01*
X198972Y136607D01*
X198014Y136211D01*
X197192Y135580D01*
X196561Y134757D01*
X196164Y133799D01*
X196029Y132772D01*
Y129228D01*
X196164Y128201D01*
X196561Y127243D01*
X197192Y126420D01*
X198014Y125789D01*
X198972Y125393D01*
X200000Y125257D01*
X201028Y125393D01*
X201986Y125789D01*
X202808Y126420D01*
X203439Y127243D01*
X203543Y127494D01*
X204043Y127395D01*
Y125324D01*
X204150Y124786D01*
X204455Y124330D01*
X206405Y122380D01*
X206164Y121799D01*
X206029Y120772D01*
Y117228D01*
X206164Y116201D01*
X206561Y115243D01*
X207192Y114420D01*
X208014Y113789D01*
X208972Y113393D01*
X210000Y113257D01*
X211028Y113393D01*
X211985Y113789D01*
X212808Y114420D01*
X213439Y115243D01*
X213836Y116201D01*
X213971Y117228D01*
Y120772D01*
X213836Y121799D01*
X213439Y122757D01*
X212808Y123580D01*
X211985Y124211D01*
X211028Y124607D01*
X210000Y124743D01*
X208972Y124607D01*
X208392Y124367D01*
X207109Y125649D01*
X207143Y125828D01*
X207693Y126036D01*
X208014Y125789D01*
X208972Y125393D01*
X210000Y125257D01*
X211028Y125393D01*
X211985Y125789D01*
X212623Y126278D01*
X212759Y126269D01*
X213142Y126098D01*
X213154Y126087D01*
X213230Y125706D01*
X213534Y125251D01*
X216405Y122380D01*
X216164Y121799D01*
X216029Y120772D01*
Y117228D01*
X216164Y116201D01*
X216561Y115243D01*
X217192Y114420D01*
X218015Y113789D01*
X218972Y113393D01*
X220000Y113257D01*
X221028Y113393D01*
X221986Y113789D01*
X222808Y114420D01*
X223439Y115243D01*
X223836Y116201D01*
X223971Y117228D01*
Y120772D01*
X223836Y121799D01*
X223439Y122757D01*
X222808Y123580D01*
X221986Y124211D01*
X221028Y124607D01*
X220775Y124641D01*
Y125145D01*
X221083Y125186D01*
X222093Y125604D01*
X222959Y126269D01*
X223625Y127136D01*
X224043Y128145D01*
X224185Y129228D01*
Y130500D01*
X220000D01*
Y131000D01*
X219500D01*
Y136891D01*
X218917Y136814D01*
X217907Y136396D01*
X217040Y135731D01*
X216394Y134889D01*
X216287Y134880D01*
X215871Y134954D01*
X215826Y135185D01*
X215521Y135641D01*
X191137Y160025D01*
X190681Y160329D01*
X190143Y160436D01*
X106412D01*
X106123Y160936D01*
X106294Y161232D01*
X106467Y161878D01*
X100588D01*
X100761Y161232D01*
X100932Y160936D01*
X100643Y160436D01*
X80103D01*
X80065Y160490D01*
X79930Y160936D01*
X80375Y161382D01*
X80766Y162059D01*
X80939Y162705D01*
X78000D01*
Y163705D01*
X80939D01*
X80766Y164350D01*
X80595Y164646D01*
X80884Y165146D01*
X99551D01*
X100089Y165253D01*
X100545Y165558D01*
X105521Y170534D01*
X105826Y170990D01*
X105932Y171528D01*
Y172871D01*
X106432Y173004D01*
X106679Y172577D01*
X107452Y171804D01*
X108398Y171258D01*
X109454Y170975D01*
X109500D01*
Y175125D01*
X110000D01*
D01*
X109500D01*
Y179274D01*
X109454D01*
X108398Y178991D01*
X107452Y178445D01*
X106679Y177673D01*
X106432Y177245D01*
X105932Y177379D01*
Y178875D01*
X105826Y179413D01*
X105521Y179869D01*
X101405Y183985D01*
Y185549D01*
X101986Y185789D01*
X102808Y186420D01*
X103439Y187243D01*
X103836Y188201D01*
X103971Y189228D01*
Y192772D01*
X103836Y193799D01*
X103439Y194757D01*
X102808Y195580D01*
X101986Y196211D01*
X101028Y196607D01*
X100000Y196743D01*
X98972Y196607D01*
X98014Y196211D01*
X97192Y195580D01*
X96561Y194757D01*
X96164Y193799D01*
X96029Y192772D01*
Y189228D01*
X96164Y188201D01*
X96517Y187350D01*
X96093Y187066D01*
X93966Y189193D01*
X93971Y189228D01*
Y192772D01*
X93836Y193799D01*
X93439Y194757D01*
X92808Y195580D01*
X91985Y196211D01*
X91028Y196607D01*
X90000Y196743D01*
X88972Y196607D01*
X88015Y196211D01*
X87192Y195580D01*
X86561Y194757D01*
X86164Y193799D01*
X86162Y193780D01*
X85618D01*
X84780Y194618D01*
Y198948D01*
X84685Y199668D01*
X84407Y200338D01*
X83965Y200914D01*
X79595Y205284D01*
X79410Y205426D01*
X79580Y205926D01*
X86063D01*
Y197291D01*
X93937D01*
Y208709D01*
X87577D01*
X87441Y208736D01*
X78709D01*
X78530Y208915D01*
X78074Y209219D01*
X77536Y209326D01*
X77480D01*
X77289Y209788D01*
X80096Y212595D01*
X108973D01*
X109290Y212658D01*
X138927D01*
X139078Y212158D01*
X138832Y211993D01*
X134479Y207641D01*
X134174Y207185D01*
X134067Y206647D01*
Y206546D01*
X133568Y206447D01*
X133439Y206757D01*
X132808Y207580D01*
X131985Y208211D01*
X131028Y208607D01*
X130000Y208743D01*
X128972Y208607D01*
X128015Y208211D01*
X127192Y207580D01*
X126561Y206757D01*
X126164Y205799D01*
X126029Y204772D01*
Y201228D01*
X126164Y200201D01*
X126561Y199243D01*
X127192Y198420D01*
X128015Y197789D01*
X128972Y197393D01*
X130000Y197257D01*
X131028Y197393D01*
X131985Y197789D01*
X132808Y198420D01*
X133439Y199243D01*
X133568Y199553D01*
X134067Y199454D01*
Y194546D01*
X133568Y194447D01*
X133439Y194757D01*
X132808Y195580D01*
X131985Y196211D01*
X131028Y196607D01*
X130000Y196743D01*
X128972Y196607D01*
X128015Y196211D01*
X127192Y195580D01*
X126561Y194757D01*
X126164Y193799D01*
X126029Y192772D01*
Y189228D01*
X126164Y188201D01*
X126561Y187243D01*
X127192Y186420D01*
X128015Y185789D01*
X128972Y185393D01*
X130000Y185257D01*
X131028Y185393D01*
X131985Y185789D01*
X132808Y186420D01*
X133439Y187243D01*
X133568Y187553D01*
X134067Y187454D01*
Y185480D01*
X134174Y184942D01*
X134479Y184487D01*
X135118Y183848D01*
Y183195D01*
X135418Y182472D01*
X135971Y181918D01*
X136695Y181618D01*
X137478D01*
X138202Y181918D01*
X138755Y182472D01*
X139055Y183195D01*
Y183978D01*
X138755Y184702D01*
X138346Y185111D01*
X138630Y185535D01*
X138972Y185393D01*
X140000Y185257D01*
X141028Y185393D01*
X141985Y185789D01*
X142808Y186420D01*
X143439Y187243D01*
X143568Y187553D01*
X144068Y187454D01*
Y185301D01*
X144174Y184763D01*
X144479Y184307D01*
X145804Y182982D01*
Y182608D01*
X146104Y181885D01*
X146658Y181331D01*
X147381Y181032D01*
X148164D01*
X148888Y181331D01*
X149442Y181885D01*
X149741Y182608D01*
Y183392D01*
X149442Y184115D01*
X148888Y184669D01*
X148164Y184968D01*
X147791D01*
X147145Y185615D01*
X147177Y185802D01*
X147722Y186014D01*
X148014Y185789D01*
X148972Y185393D01*
X150000Y185257D01*
X151028Y185393D01*
X151986Y185789D01*
X152808Y186420D01*
X153439Y187243D01*
X153568Y187553D01*
X154068Y187454D01*
Y187353D01*
X154174Y186815D01*
X154479Y186360D01*
X157131Y183707D01*
X157587Y183403D01*
X158125Y183296D01*
X161875D01*
X162413Y183403D01*
X162869Y183707D01*
X165521Y186360D01*
X165826Y186815D01*
X165933Y187353D01*
Y187454D01*
X166432Y187553D01*
X166561Y187243D01*
X167192Y186420D01*
X168015Y185789D01*
X168972Y185393D01*
X170000Y185257D01*
X171028Y185393D01*
X171985Y185789D01*
X172808Y186420D01*
X173439Y187243D01*
X173836Y188201D01*
X173971Y189228D01*
Y192772D01*
X173836Y193799D01*
X173439Y194757D01*
X172808Y195580D01*
X171985Y196211D01*
X171028Y196607D01*
X170000Y196743D01*
X168972Y196607D01*
X168015Y196211D01*
X167192Y195580D01*
X166561Y194757D01*
X166164Y193799D01*
X166029Y192772D01*
Y192405D01*
X165551D01*
X165014Y192298D01*
X164558Y191993D01*
X164433Y191869D01*
X163971Y192060D01*
Y192772D01*
X163836Y193799D01*
X163439Y194757D01*
X162808Y195580D01*
X161986Y196211D01*
X161028Y196607D01*
X160000Y196743D01*
X158972Y196607D01*
X158015Y196211D01*
X157192Y195580D01*
X156561Y194757D01*
X156164Y193799D01*
X156029Y192772D01*
Y192060D01*
X155567Y191869D01*
X155442Y191993D01*
X154987Y192298D01*
X154449Y192405D01*
X153971D01*
Y192772D01*
X153836Y193799D01*
X153439Y194757D01*
X152808Y195580D01*
X151986Y196211D01*
X151028Y196607D01*
X150000Y196743D01*
X148972Y196607D01*
X148014Y196211D01*
X147377Y195722D01*
X146877Y195958D01*
Y198042D01*
X147377Y198278D01*
X148014Y197789D01*
X148972Y197393D01*
X150000Y197257D01*
X151028Y197393D01*
X151986Y197789D01*
X152808Y198420D01*
X153439Y199243D01*
X153836Y200201D01*
X153971Y201228D01*
Y204772D01*
X153836Y205799D01*
X153439Y206757D01*
X152808Y207580D01*
X151986Y208211D01*
X151028Y208607D01*
X150000Y208743D01*
X149341Y208656D01*
X148846Y209067D01*
X148846Y209069D01*
Y210125D01*
X149110Y210389D01*
X149409Y211112D01*
Y211895D01*
X149301Y212158D01*
X149635Y212658D01*
X176530D01*
X179955Y209233D01*
X179768Y208712D01*
X178972Y208607D01*
X178015Y208211D01*
X177192Y207580D01*
X176561Y206757D01*
X176164Y205799D01*
X176029Y204772D01*
Y201228D01*
X176164Y200201D01*
X176561Y199243D01*
X177192Y198420D01*
X178015Y197789D01*
X178972Y197393D01*
X180000Y197257D01*
X181028Y197393D01*
X181985Y197789D01*
X182808Y198420D01*
X183095Y198795D01*
X183595Y198625D01*
Y195375D01*
X183095Y195205D01*
X182808Y195580D01*
X181985Y196211D01*
X181028Y196607D01*
X180000Y196743D01*
X178972Y196607D01*
X178015Y196211D01*
X177192Y195580D01*
X176561Y194757D01*
X176164Y193799D01*
X176029Y192772D01*
Y189228D01*
X176164Y188201D01*
X176561Y187243D01*
X177192Y186420D01*
X178015Y185789D01*
X178972Y185393D01*
X180000Y185257D01*
X181028Y185393D01*
X181985Y185789D01*
X182808Y186420D01*
X183281Y187037D01*
X183840Y187045D01*
X183876Y187027D01*
X184007Y186832D01*
X187131Y183707D01*
X187587Y183403D01*
X188125Y183296D01*
X191875D01*
X192413Y183403D01*
X192869Y183707D01*
X196151Y186989D01*
X196798Y186934D01*
X197192Y186420D01*
X198014Y185789D01*
X198972Y185393D01*
X200000Y185257D01*
X201028Y185393D01*
X201986Y185789D01*
X202808Y186420D01*
X203439Y187243D01*
X203836Y188201D01*
X203971Y189228D01*
Y192772D01*
X203836Y193799D01*
X203439Y194757D01*
X202808Y195580D01*
X201986Y196211D01*
X201028Y196607D01*
X200000Y196743D01*
X198972Y196607D01*
X198014Y196211D01*
X197693Y195964D01*
X197143Y196172D01*
X197109Y196351D01*
X198392Y197633D01*
X198972Y197393D01*
X200000Y197257D01*
X201028Y197393D01*
X201986Y197789D01*
X202808Y198420D01*
X203439Y199243D01*
X203836Y200201D01*
X203971Y201228D01*
Y204772D01*
X203836Y205799D01*
X203439Y206757D01*
X202808Y207580D01*
X201986Y208211D01*
X201028Y208607D01*
X200000Y208743D01*
X198972Y208607D01*
X198014Y208211D01*
X197192Y207580D01*
X196561Y206757D01*
X196164Y205799D01*
X196029Y204772D01*
Y201228D01*
X196164Y200201D01*
X196405Y199620D01*
X194455Y197670D01*
X194150Y197214D01*
X194043Y196676D01*
Y194605D01*
X193543Y194506D01*
X193439Y194757D01*
X192808Y195580D01*
X191985Y196211D01*
X191028Y196607D01*
X190000Y196743D01*
X188972Y196607D01*
X188014Y196211D01*
X187192Y195580D01*
X186905Y195205D01*
X186405Y195375D01*
Y198625D01*
X186905Y198795D01*
X187192Y198420D01*
X188014Y197789D01*
X188972Y197393D01*
X190000Y197257D01*
X191028Y197393D01*
X191985Y197789D01*
X192808Y198420D01*
X193439Y199243D01*
X193836Y200201D01*
X193971Y201228D01*
Y204772D01*
X193836Y205799D01*
X193439Y206757D01*
X192808Y207580D01*
X191985Y208211D01*
X191028Y208607D01*
X190000Y208743D01*
X188972Y208607D01*
X188392Y208367D01*
X180625Y216133D01*
X180817Y216595D01*
X196190D01*
X206405Y206380D01*
X206164Y205799D01*
X206029Y204772D01*
Y201228D01*
X206164Y200201D01*
X206561Y199243D01*
X207192Y198420D01*
X208014Y197789D01*
X208972Y197393D01*
X210000Y197257D01*
X211028Y197393D01*
X211985Y197789D01*
X212808Y198420D01*
X213439Y199243D01*
X213836Y200201D01*
X213971Y201228D01*
Y204772D01*
X213836Y205799D01*
X213439Y206757D01*
X212808Y207580D01*
X211985Y208211D01*
X211028Y208607D01*
X210000Y208743D01*
X208972Y208607D01*
X208392Y208367D01*
X197765Y218993D01*
X197309Y219298D01*
X196772Y219405D01*
X78528D01*
X76933Y221001D01*
Y222875D01*
X76826Y223413D01*
X76521Y223869D01*
X73869Y226521D01*
X73835Y226543D01*
X73815Y227158D01*
X73959Y227269D01*
X74625Y228136D01*
X75043Y229145D01*
X75185Y230228D01*
Y231500D01*
X71000D01*
Y232500D01*
X75185D01*
Y233772D01*
X75043Y234855D01*
X74625Y235864D01*
X74218Y236394D01*
X74465Y236894D01*
X92904D01*
X103816Y225982D01*
Y225608D01*
X104116Y224885D01*
X104670Y224331D01*
X105393Y224031D01*
X106176D01*
X106900Y224331D01*
X107454Y224885D01*
X107753Y225608D01*
Y226392D01*
X107454Y227115D01*
X106900Y227669D01*
X106176Y227969D01*
X105803D01*
X95362Y238410D01*
X95553Y238872D01*
X112691D01*
X113228Y238979D01*
X113684Y239283D01*
X114996Y240595D01*
X139418D01*
X146368Y233645D01*
Y227936D01*
X146110Y227313D01*
Y226530D01*
X146410Y225806D01*
X146963Y225253D01*
X147687Y224953D01*
X148470D01*
X149194Y225253D01*
X149747Y225806D01*
X150047Y226530D01*
Y227313D01*
X149747Y228037D01*
X149194Y228590D01*
X149178Y228597D01*
Y234227D01*
X149071Y234765D01*
X148766Y235221D01*
X141381Y242606D01*
X141588Y243106D01*
X166356D01*
X166658Y242804D01*
X167381Y242504D01*
X168165D01*
X168888Y242804D01*
X169442Y243357D01*
X169741Y244081D01*
Y244864D01*
X169442Y245587D01*
X168888Y246141D01*
X168165Y246441D01*
X167381D01*
X166658Y246141D01*
X166432Y245916D01*
X114584D01*
X114150Y246227D01*
Y246273D01*
X110000D01*
X105850D01*
Y246227D01*
X106133Y245171D01*
X106679Y244225D01*
X106792Y244112D01*
X106601Y243650D01*
X103098D01*
X102907Y244112D01*
X103150Y244356D01*
X103669Y245253D01*
X103937Y246255D01*
Y247291D01*
X103669Y248292D01*
X103150Y249190D01*
X102417Y249923D01*
X101520Y250442D01*
X100675Y250668D01*
X98069Y253274D01*
Y255939D01*
X97974Y256658D01*
X97697Y257329D01*
X97558Y257509D01*
X97915Y257866D01*
X98014Y257789D01*
X98972Y257393D01*
X100000Y257257D01*
X101028Y257393D01*
X101986Y257789D01*
X102808Y258420D01*
X103439Y259243D01*
X103836Y260201D01*
X103971Y261228D01*
Y264772D01*
X103836Y265799D01*
X103439Y266757D01*
X102808Y267580D01*
X101986Y268211D01*
X101028Y268607D01*
X100000Y268743D01*
X98972Y268607D01*
X98014Y268211D01*
X97192Y267580D01*
X96561Y266757D01*
X96164Y265799D01*
X96029Y264772D01*
Y261228D01*
X96164Y260201D01*
X96517Y259350D01*
X96093Y259067D01*
X93966Y261193D01*
X93971Y261228D01*
Y264772D01*
X93836Y265799D01*
X93439Y266757D01*
X92808Y267580D01*
X91985Y268211D01*
X91028Y268607D01*
X90000Y268743D01*
X88972Y268607D01*
X88015Y268211D01*
X87192Y267580D01*
X86561Y266757D01*
X86164Y265799D01*
X86029Y264772D01*
Y261228D01*
X86164Y260201D01*
X86561Y259243D01*
X87192Y258420D01*
X88015Y257789D01*
X88972Y257393D01*
X90000Y257257D01*
X90035Y257262D01*
X92510Y254788D01*
Y252123D01*
X92604Y251403D01*
X92882Y250733D01*
X93324Y250157D01*
X96090Y247391D01*
X96063Y247291D01*
Y246255D01*
X96331Y245253D01*
X96850Y244356D01*
X97093Y244112D01*
X96902Y243650D01*
X83577D01*
X73209Y254018D01*
Y254392D01*
X72909Y255115D01*
X72356Y255669D01*
X71874Y255868D01*
X71942Y256381D01*
X72028Y256393D01*
X72986Y256789D01*
X73808Y257420D01*
X74439Y258243D01*
X74836Y259201D01*
X74971Y260228D01*
Y263772D01*
X74836Y264799D01*
X74595Y265380D01*
X80123Y270908D01*
X80427Y271363D01*
X80534Y271901D01*
Y273567D01*
X85601Y278634D01*
X86063Y278442D01*
Y269291D01*
X93937D01*
Y280709D01*
X88329D01*
X88138Y281171D01*
X91019Y284052D01*
X93926D01*
X94893Y283085D01*
X95348Y282781D01*
X95886Y282674D01*
X122038D01*
X122576Y282781D01*
X123032Y283085D01*
X123998Y284052D01*
X136961D01*
X138031Y282982D01*
Y282608D01*
X138331Y281885D01*
X138885Y281331D01*
X139308Y281156D01*
X139241Y280643D01*
X138972Y280607D01*
X138014Y280211D01*
X137192Y279580D01*
X136561Y278757D01*
X136164Y277799D01*
X136029Y276772D01*
Y273228D01*
X136164Y272201D01*
X136561Y271243D01*
X137192Y270420D01*
X138014Y269789D01*
X138972Y269393D01*
X140000Y269257D01*
X141028Y269393D01*
X141985Y269789D01*
X142808Y270420D01*
X143095Y270795D01*
X143595Y270625D01*
Y267375D01*
X143095Y267205D01*
X142808Y267580D01*
X141985Y268211D01*
X141028Y268607D01*
X140000Y268743D01*
X138972Y268607D01*
X138014Y268211D01*
X137192Y267580D01*
X136561Y266757D01*
X136164Y265799D01*
X136029Y264772D01*
Y261228D01*
X136164Y260201D01*
X136561Y259243D01*
X137192Y258420D01*
X138014Y257789D01*
X138972Y257393D01*
X140000Y257257D01*
X141028Y257393D01*
X141985Y257789D01*
X142808Y258420D01*
X143281Y259037D01*
X143840Y259045D01*
X143876Y259027D01*
X144007Y258832D01*
X148031Y254807D01*
Y254608D01*
X148331Y253885D01*
X148885Y253331D01*
X149608Y253031D01*
X150392D01*
X151115Y253331D01*
X151669Y253885D01*
X151969Y254608D01*
Y255392D01*
X151669Y256115D01*
X151115Y256669D01*
X150692Y256844D01*
X150759Y257357D01*
X151028Y257393D01*
X151986Y257789D01*
X152808Y258420D01*
X153439Y259243D01*
X153568Y259553D01*
X154068Y259454D01*
Y259353D01*
X154174Y258815D01*
X154479Y258360D01*
X157131Y255707D01*
X157587Y255403D01*
X158125Y255296D01*
X161875D01*
X162413Y255403D01*
X162869Y255707D01*
X165521Y258360D01*
X165826Y258815D01*
X165933Y259353D01*
Y259454D01*
X166432Y259553D01*
X166561Y259243D01*
X167192Y258420D01*
X168015Y257789D01*
X168972Y257393D01*
X170000Y257257D01*
X171028Y257393D01*
X171985Y257789D01*
X172808Y258420D01*
X173439Y259243D01*
X173836Y260201D01*
X173971Y261228D01*
Y264772D01*
X173836Y265799D01*
X173439Y266757D01*
X172808Y267580D01*
X171985Y268211D01*
X171028Y268607D01*
X170000Y268743D01*
X168972Y268607D01*
X168392Y268367D01*
X167109Y269650D01*
X167143Y269828D01*
X167693Y270036D01*
X168015Y269789D01*
X168972Y269393D01*
X170000Y269257D01*
X171028Y269393D01*
X171985Y269789D01*
X172808Y270420D01*
X173439Y271243D01*
X173836Y272201D01*
X173971Y273228D01*
Y276772D01*
X173836Y277799D01*
X173439Y278757D01*
X172808Y279580D01*
X171985Y280211D01*
X171028Y280607D01*
X170000Y280743D01*
X168972Y280607D01*
X168015Y280211D01*
X167192Y279580D01*
X166798Y279066D01*
X166151Y279011D01*
X150247Y294915D01*
X149791Y295219D01*
X149253Y295326D01*
X131222D01*
X131156Y295826D01*
X131672Y295964D01*
X132659Y296535D01*
X133465Y297341D01*
X134036Y298328D01*
X134331Y299430D01*
Y300570D01*
X134036Y301672D01*
X133741Y302182D01*
X133819Y302365D01*
X133831Y302379D01*
Y304626D01*
X134331D01*
Y305127D01*
X136271D01*
X136013Y305750D01*
X135668Y306095D01*
X135875Y306595D01*
X161893D01*
X161964Y306328D01*
X162535Y305341D01*
X163341Y304535D01*
X164328Y303964D01*
X165430Y303669D01*
X166570D01*
X167672Y303964D01*
X168659Y304535D01*
X169465Y305341D01*
X170036Y306328D01*
X170331Y307430D01*
Y308570D01*
X170036Y309672D01*
X169465Y310659D01*
X168904Y311220D01*
X169111Y311720D01*
X192920D01*
X193096Y311220D01*
X192535Y310659D01*
X191964Y309672D01*
X191669Y308570D01*
Y307430D01*
X191964Y306328D01*
X192535Y305341D01*
X193341Y304535D01*
X194328Y303964D01*
X195430Y303669D01*
X196570D01*
X197672Y303964D01*
X198659Y304535D01*
X199465Y305341D01*
X200036Y306328D01*
X200331Y307430D01*
Y308570D01*
X200036Y309672D01*
X199465Y310659D01*
X198780Y311345D01*
Y314500D01*
Y317655D01*
X199465Y318341D01*
X200036Y319328D01*
X200331Y320430D01*
Y321570D01*
X200036Y322672D01*
X199465Y323659D01*
X198659Y324465D01*
X197672Y325036D01*
X196570Y325331D01*
X195430D01*
X194328Y325036D01*
X193341Y324465D01*
X192535Y323659D01*
X191964Y322672D01*
X191669Y321570D01*
Y320430D01*
X191964Y319328D01*
X192535Y318341D01*
X193096Y317780D01*
X192920Y317280D01*
X169111D01*
X168904Y317780D01*
X169465Y318341D01*
X170036Y319328D01*
X170331Y320430D01*
Y321570D01*
X170036Y322672D01*
X169465Y323659D01*
X168659Y324465D01*
X167672Y325036D01*
X167405Y325107D01*
Y329627D01*
X167811Y329871D01*
X167891Y329884D01*
X168015Y329789D01*
X168972Y329393D01*
X170000Y329257D01*
X171028Y329393D01*
X171985Y329789D01*
X172808Y330420D01*
X173439Y331243D01*
X173836Y332201D01*
X173971Y333228D01*
Y336772D01*
X173836Y337799D01*
X173439Y338757D01*
X172808Y339580D01*
X171985Y340211D01*
X171028Y340607D01*
X170000Y340743D01*
X168972Y340607D01*
X168015Y340211D01*
X167192Y339580D01*
X166605Y338814D01*
X166405Y338825D01*
X166105Y338954D01*
Y341300D01*
X165998Y341838D01*
X165693Y342293D01*
X161893Y346093D01*
X161438Y346398D01*
X160900Y346505D01*
X66653D01*
X66115Y346398D01*
X65659Y346093D01*
X58971Y339405D01*
X49858D01*
Y341937D01*
X38441D01*
Y335726D01*
X37979Y335535D01*
X37446Y336068D01*
X36144Y336820D01*
X34692Y337209D01*
X33189D01*
X32380Y336992D01*
X32122Y337440D01*
X32781Y338099D01*
X33402Y339176D01*
X33724Y340378D01*
Y341622D01*
X33402Y342824D01*
X32781Y343901D01*
X32268Y344413D01*
X32475Y344913D01*
X55156D01*
X57034Y343035D01*
X57179Y342924D01*
X57308Y342795D01*
X57466Y342704D01*
X57610Y342593D01*
X57778Y342523D01*
X57936Y342432D01*
X58112Y342385D01*
X58281Y342315D01*
X58461Y342291D01*
X58637Y342244D01*
X58819D01*
X59000Y342220D01*
X59181Y342244D01*
X59363D01*
X59539Y342291D01*
X59719Y342315D01*
X59888Y342385D01*
X60064Y342432D01*
X60222Y342523D01*
X60390Y342593D01*
X60534Y342704D01*
X60692Y342795D01*
X60821Y342924D01*
X60966Y343035D01*
X61076Y343179D01*
X61205Y343308D01*
X61296Y343466D01*
X61407Y343610D01*
X61477Y343778D01*
X61568Y343936D01*
X61615Y344112D01*
X61685Y344281D01*
X61709Y344461D01*
X61756Y344637D01*
Y344819D01*
X61780Y345000D01*
X61756Y345181D01*
Y345363D01*
X61709Y345539D01*
X61685Y345719D01*
X61615Y345888D01*
X61568Y346064D01*
X61477Y346222D01*
X61407Y346390D01*
X61296Y346534D01*
X61205Y346692D01*
X61076Y346821D01*
X60966Y346966D01*
X58273Y349658D01*
X58133Y349765D01*
X58303Y350265D01*
X222599Y350151D01*
D02*
G37*
G36*
X25732Y344413D02*
X25220Y343901D01*
X24598Y342824D01*
X24276Y341622D01*
Y340378D01*
X24598Y339176D01*
X25220Y338099D01*
X26099Y337220D01*
X27176Y336598D01*
X28378Y336276D01*
X29622D01*
X30051Y336391D01*
X30310Y335942D01*
X29373Y335005D01*
X28621Y333703D01*
X28232Y332252D01*
Y330748D01*
X28621Y329296D01*
X29373Y327995D01*
X30436Y326932D01*
X31042Y326582D01*
X30908Y326082D01*
X24341D01*
X23803Y325975D01*
X23347Y325671D01*
X20695Y323018D01*
X20391Y322563D01*
X20340Y322307D01*
X19813Y322220D01*
X19537Y322697D01*
X18764Y323470D01*
X17818Y324016D01*
X16762Y324299D01*
X16716D01*
Y320150D01*
Y316000D01*
X16762D01*
X17818Y316283D01*
X18764Y316829D01*
X19537Y317602D01*
X19796Y318051D01*
X20296Y317917D01*
Y315110D01*
X12419Y307232D01*
X6007D01*
Y317754D01*
X8992Y320740D01*
X9522D01*
X10242Y320835D01*
X10912Y321112D01*
X11488Y321554D01*
X11772Y321838D01*
X11851Y321822D01*
X12212Y321238D01*
X12066Y320696D01*
Y320650D01*
X15716D01*
Y324299D01*
X15670D01*
X15128Y324154D01*
X14544Y324515D01*
X14528Y324594D01*
X15985Y326051D01*
X16427Y326627D01*
X16705Y327297D01*
X16799Y328017D01*
Y328547D01*
X22262Y334009D01*
X22703Y334585D01*
X22981Y335255D01*
X23076Y335975D01*
Y343168D01*
X24821Y344913D01*
X25525D01*
X25732Y344413D01*
D02*
G37*
G36*
X64236Y320329D02*
Y308334D01*
X64343Y307796D01*
X64648Y307341D01*
X69509Y302479D01*
X69965Y302174D01*
X70503Y302067D01*
X70603D01*
X70703Y301568D01*
X70393Y301439D01*
X69570Y300808D01*
X68939Y299986D01*
X68542Y299028D01*
X68407Y298000D01*
X68542Y296972D01*
X68939Y296014D01*
X69570Y295192D01*
X70187Y294719D01*
X70194Y294160D01*
X70177Y294124D01*
X69982Y293993D01*
X64758Y288770D01*
X64453Y288314D01*
X64346Y287776D01*
Y280601D01*
X64005Y280259D01*
X63543Y280451D01*
Y280825D01*
X63234Y281981D01*
X62635Y283017D01*
X61790Y283863D01*
X60754Y284461D01*
X59598Y284770D01*
X59500D01*
Y280227D01*
Y275360D01*
X59595Y275267D01*
Y267451D01*
X59014Y267211D01*
X58192Y266580D01*
X57561Y265757D01*
X57164Y264799D01*
X57029Y263772D01*
Y260228D01*
X57164Y259201D01*
X57561Y258243D01*
X58192Y257420D01*
X59014Y256789D01*
X59972Y256393D01*
X61000Y256257D01*
X61520Y256326D01*
X61630Y256249D01*
X61896Y255871D01*
X61822Y255500D01*
Y251107D01*
X61555Y251036D01*
X60568Y250465D01*
X59762Y249659D01*
X59192Y248672D01*
X59120Y248405D01*
X57949D01*
X56195Y250159D01*
X55739Y250463D01*
X55202Y250570D01*
X50940D01*
X50402Y250463D01*
X49947Y250159D01*
X48435Y248647D01*
X48244Y248361D01*
X43366Y243484D01*
X36542D01*
X36335Y243984D01*
X36693Y244341D01*
X37263Y245328D01*
X37558Y246430D01*
Y247570D01*
X37263Y248672D01*
X36693Y249659D01*
X35886Y250465D01*
X34899Y251036D01*
X34632Y251107D01*
Y254216D01*
X36994Y256578D01*
X37298Y257034D01*
X37405Y257571D01*
Y257625D01*
X37905Y257795D01*
X38192Y257420D01*
X39015Y256789D01*
X39972Y256393D01*
X41000Y256257D01*
X42028Y256393D01*
X42985Y256789D01*
X43808Y257420D01*
X44439Y258243D01*
X44836Y259201D01*
X44971Y260228D01*
Y263772D01*
X44836Y264799D01*
X44439Y265757D01*
X43808Y266580D01*
X42985Y267211D01*
X42028Y267607D01*
X41000Y267743D01*
X39972Y267607D01*
X39015Y267211D01*
X38192Y266580D01*
X37719Y265963D01*
X37160Y265955D01*
X37124Y265973D01*
X36994Y266168D01*
X33869Y269293D01*
X33413Y269597D01*
X32875Y269704D01*
X30859D01*
X29576Y270987D01*
X29835Y271436D01*
X30454Y271270D01*
X30500D01*
Y274919D01*
X26850D01*
Y274873D01*
X27016Y274254D01*
X26568Y273995D01*
X19271Y281292D01*
Y286065D01*
X19733Y286256D01*
X19824Y286165D01*
X20632Y285698D01*
X21533Y285457D01*
X22467D01*
X23368Y285698D01*
X24176Y286165D01*
X24835Y286824D01*
X25302Y287632D01*
X25543Y288533D01*
Y289467D01*
X25320Y290301D01*
X25485Y290515D01*
X25699Y290680D01*
X26533Y290457D01*
X27466D01*
X28041Y290611D01*
X28433Y290198D01*
X28246Y289500D01*
X31500D01*
Y292754D01*
X30802Y292567D01*
X30389Y292959D01*
X30543Y293533D01*
Y294466D01*
X30313Y295326D01*
X38844Y303857D01*
X39148Y304313D01*
X39250Y304823D01*
X39340Y304884D01*
X39755Y305050D01*
X40393Y304561D01*
X41350Y304164D01*
X42378Y304029D01*
X45921D01*
X46949Y304164D01*
X47907Y304561D01*
X48729Y305192D01*
X49360Y306014D01*
X49757Y306972D01*
X49892Y308000D01*
X49757Y309028D01*
X49360Y309985D01*
X48729Y310808D01*
X47907Y311439D01*
X47596Y311567D01*
X47696Y312068D01*
X47797D01*
X48334Y312174D01*
X48790Y312479D01*
X51442Y315131D01*
X51747Y315587D01*
X51854Y316125D01*
Y318419D01*
X54467Y321033D01*
X54915Y320774D01*
X54850Y320532D01*
Y320485D01*
X59000D01*
X63150D01*
Y320532D01*
X63085Y320774D01*
X63533Y321033D01*
X64236Y320329D01*
D02*
G37*
G36*
X126102Y301911D02*
X125964Y301672D01*
X125669Y300570D01*
Y299430D01*
X125964Y298328D01*
X126535Y297341D01*
X127341Y296535D01*
X128328Y295964D01*
X128844Y295826D01*
X128778Y295326D01*
X101222D01*
X101156Y295826D01*
X101672Y295964D01*
X102659Y296535D01*
X103465Y297341D01*
X104036Y298328D01*
X104331Y299430D01*
Y300570D01*
X104036Y301672D01*
X103465Y302659D01*
X102659Y303465D01*
X101672Y304036D01*
X101332Y304127D01*
X101398Y304626D01*
X123387D01*
X126102Y301911D01*
D02*
G37*
G36*
X95779Y301882D02*
X95937Y301568D01*
X95669Y300570D01*
Y299430D01*
X95964Y298328D01*
X96535Y297341D01*
X97341Y296535D01*
X98328Y295964D01*
X98844Y295826D01*
X98778Y295326D01*
X95886D01*
X95348Y295219D01*
X94893Y294915D01*
X94383Y294405D01*
X78525D01*
X78355Y294905D01*
X78729Y295192D01*
X79360Y296014D01*
X79757Y296972D01*
X79892Y298000D01*
X79757Y299028D01*
X79360Y299986D01*
X78729Y300808D01*
X77907Y301439D01*
X77596Y301568D01*
X77696Y302067D01*
X95616D01*
X95779Y301882D01*
D02*
G37*
G36*
X159955Y281233D02*
X159768Y280712D01*
X158972Y280607D01*
X158015Y280211D01*
X157192Y279580D01*
X156561Y278757D01*
X156164Y277799D01*
X156029Y276772D01*
Y273228D01*
X156164Y272201D01*
X156561Y271243D01*
X157192Y270420D01*
X158015Y269789D01*
X158972Y269393D01*
X160000Y269257D01*
X161028Y269393D01*
X161986Y269789D01*
X162808Y270420D01*
X163439Y271243D01*
X163543Y271494D01*
X164043Y271395D01*
Y269324D01*
X164150Y268786D01*
X164455Y268330D01*
X166405Y266380D01*
X166164Y265799D01*
X166029Y264772D01*
Y264405D01*
X165551D01*
X165014Y264298D01*
X164558Y263993D01*
X164433Y263869D01*
X163971Y264060D01*
Y264772D01*
X163836Y265799D01*
X163439Y266757D01*
X162808Y267580D01*
X161986Y268211D01*
X161028Y268607D01*
X160000Y268743D01*
X158972Y268607D01*
X158015Y268211D01*
X157192Y267580D01*
X156561Y266757D01*
X156164Y265799D01*
X156029Y264772D01*
Y264060D01*
X155567Y263869D01*
X155442Y263993D01*
X154987Y264298D01*
X154449Y264405D01*
X153971D01*
Y264772D01*
X153836Y265799D01*
X153439Y266757D01*
X152808Y267580D01*
X151986Y268211D01*
X151028Y268607D01*
X150000Y268743D01*
X148972Y268607D01*
X148014Y268211D01*
X147192Y267580D01*
X146905Y267205D01*
X146405Y267375D01*
Y270625D01*
X146905Y270795D01*
X147192Y270420D01*
X148014Y269789D01*
X148972Y269393D01*
X150000Y269257D01*
X151028Y269393D01*
X151986Y269789D01*
X152808Y270420D01*
X153439Y271243D01*
X153836Y272201D01*
X153971Y273228D01*
Y276772D01*
X153836Y277799D01*
X153439Y278757D01*
X152808Y279580D01*
X151986Y280211D01*
X151028Y280607D01*
X150000Y280743D01*
X148972Y280607D01*
X148014Y280211D01*
X147192Y279580D01*
X146905Y279205D01*
X146405Y279375D01*
Y283000D01*
X146298Y283538D01*
X145993Y283993D01*
X139994Y289993D01*
X139538Y290298D01*
X139000Y290405D01*
X124107D01*
X124036Y290672D01*
X123465Y291659D01*
X123108Y292016D01*
X123315Y292516D01*
X144103D01*
X144310Y292016D01*
X143918Y291624D01*
X143659Y291000D01*
X147541D01*
X147282Y291624D01*
X146890Y292016D01*
X147097Y292516D01*
X148671D01*
X159955Y281233D01*
D02*
G37*
G36*
X95669Y291258D02*
Y290405D01*
X86921D01*
X86384Y290298D01*
X85928Y289993D01*
X77530Y281595D01*
X76949Y281836D01*
X75921Y281971D01*
X72378D01*
X71350Y281836D01*
X70393Y281439D01*
X69570Y280808D01*
X68939Y279985D01*
X68542Y279028D01*
X68407Y278000D01*
X68542Y276972D01*
X68939Y276014D01*
X69570Y275192D01*
X70393Y274561D01*
X71350Y274164D01*
X72186Y274054D01*
X72372Y273607D01*
X72371Y273532D01*
X65479Y266640D01*
X65174Y266185D01*
X65067Y265647D01*
Y265546D01*
X64568Y265447D01*
X64439Y265757D01*
X63808Y266580D01*
X62985Y267211D01*
X62405Y267451D01*
Y269595D01*
X62905Y269802D01*
X63026Y269681D01*
X63650Y269423D01*
Y271363D01*
Y273304D01*
X63026Y273046D01*
X62905Y272925D01*
X62405Y273132D01*
Y274685D01*
X66745Y279025D01*
X67049Y279481D01*
X67156Y280019D01*
Y287194D01*
X67917Y287955D01*
X68437Y287768D01*
X68542Y286972D01*
X68939Y286015D01*
X69570Y285192D01*
X70393Y284561D01*
X71350Y284164D01*
X72378Y284029D01*
X75921D01*
X76949Y284164D01*
X77907Y284561D01*
X78729Y285192D01*
X79360Y286015D01*
X79757Y286972D01*
X79892Y288000D01*
X79757Y289028D01*
X79360Y289985D01*
X78729Y290808D01*
X78355Y291095D01*
X78525Y291595D01*
X94965D01*
X95169Y291636D01*
X95669Y291258D01*
D02*
G37*
G36*
X21785Y268231D02*
X22176Y268069D01*
X22028Y267607D01*
X21000Y267743D01*
X19972Y267607D01*
X19015Y267211D01*
X18192Y266580D01*
X17561Y265757D01*
X17164Y264799D01*
X17029Y263772D01*
Y260228D01*
X17164Y259201D01*
X17561Y258243D01*
X18192Y257420D01*
X19015Y256789D01*
X19972Y256393D01*
X21000Y256257D01*
X22028Y256393D01*
X22986Y256789D01*
X23808Y257420D01*
X24439Y258243D01*
X24836Y259201D01*
X24971Y260228D01*
Y263772D01*
X24836Y264799D01*
X24439Y265757D01*
X24329Y265900D01*
X24706Y266231D01*
X24876Y266060D01*
X25500Y265802D01*
Y267743D01*
X26500D01*
Y265802D01*
X27124Y266060D01*
X27294Y266231D01*
X27671Y265900D01*
X27561Y265757D01*
X27164Y264799D01*
X27029Y263772D01*
Y260228D01*
X27164Y259201D01*
X27561Y258243D01*
X28192Y257420D01*
X29015Y256789D01*
X29972Y256393D01*
X31000Y256257D01*
X32028Y256393D01*
X32198Y256463D01*
X32481Y256039D01*
X32234Y255792D01*
X31929Y255336D01*
X31822Y254798D01*
Y251107D01*
X31556Y251036D01*
X30568Y250465D01*
X29762Y249659D01*
X29474Y249161D01*
X28892Y249153D01*
X28748Y249369D01*
X23311Y254806D01*
X22855Y255110D01*
X22318Y255217D01*
X17998D01*
X14595Y258620D01*
X14836Y259201D01*
X14971Y260228D01*
Y263772D01*
X14836Y264799D01*
X14439Y265757D01*
X13808Y266580D01*
X12986Y267211D01*
X12028Y267607D01*
X11357Y267696D01*
X11175Y268175D01*
X11431Y268495D01*
X21521D01*
X21785Y268231D01*
D02*
G37*
G36*
X76727Y206048D02*
X77285Y205816D01*
X77787Y205481D01*
X78215Y205053D01*
X78550Y204551D01*
X78782Y203993D01*
X78900Y203400D01*
Y203098D01*
Y202776D01*
X78774Y202146D01*
X78528Y201552D01*
X78171Y201017D01*
X77716Y200563D01*
X77182Y200206D01*
X76588Y199960D01*
X75958Y199834D01*
X74800D01*
Y206166D01*
X76134D01*
X76727Y206048D01*
D02*
G37*
G36*
X73500Y199834D02*
X72165D01*
X71573Y199952D01*
X71014Y200184D01*
X70512Y200519D01*
X70085Y200947D01*
X69749Y201449D01*
X69517Y202007D01*
X69400Y202600D01*
Y202902D01*
Y203224D01*
X69525Y203854D01*
X69771Y204448D01*
X70128Y204982D01*
X70583Y205437D01*
X71117Y205794D01*
X71711Y206040D01*
X72342Y206166D01*
X73500D01*
Y199834D01*
D02*
G37*
G36*
X61854Y200625D02*
X62448Y200379D01*
X62982Y200022D01*
X63437Y199567D01*
X63794Y199032D01*
X64040Y198439D01*
X64166Y197808D01*
Y197487D01*
Y196650D01*
X62471D01*
Y195350D01*
X64166D01*
Y194318D01*
Y194016D01*
X64048Y193423D01*
X63816Y192865D01*
X63481Y192362D01*
X63053Y191935D01*
X62551Y191599D01*
X61993Y191368D01*
X61400Y191250D01*
X60776D01*
X60146Y191375D01*
X59552Y191621D01*
X59017Y191979D01*
X58563Y192433D01*
X58206Y192968D01*
X57960Y193561D01*
X57834Y194192D01*
Y194513D01*
Y195350D01*
X59403D01*
Y196650D01*
X57834D01*
Y197682D01*
Y197984D01*
X57952Y198577D01*
X58184Y199135D01*
X58519Y199638D01*
X58947Y200065D01*
X59449Y200401D01*
X60007Y200632D01*
X60600Y200750D01*
X61224D01*
X61854Y200625D01*
D02*
G37*
G36*
X69944Y199952D02*
X70010Y199908D01*
X70066Y199852D01*
X70568Y199516D01*
X70641Y199486D01*
X70707Y199442D01*
X71265Y199211D01*
X71343Y199195D01*
X71416Y199165D01*
X72009Y199047D01*
X72088D01*
X72165Y199032D01*
X73500D01*
X73807Y199093D01*
X74150Y199233D01*
X74492Y199093D01*
X74800Y199032D01*
X75958D01*
X76035Y199047D01*
X76114D01*
X76745Y199172D01*
X76818Y199203D01*
X76895Y199218D01*
X77489Y199464D01*
X77527Y199490D01*
X79220Y197797D01*
Y193467D01*
X79315Y192748D01*
X79593Y192077D01*
X80035Y191501D01*
X82502Y189034D01*
X83077Y188593D01*
X83748Y188315D01*
X84467Y188220D01*
X86162D01*
X86164Y188201D01*
X86561Y187243D01*
X87192Y186420D01*
X88015Y185789D01*
X88972Y185393D01*
X90000Y185257D01*
X90035Y185262D01*
X92510Y182788D01*
Y180474D01*
X92604Y179755D01*
X92882Y179085D01*
X93324Y178509D01*
X96090Y175743D01*
X96063Y175643D01*
Y174606D01*
X96331Y173605D01*
X96850Y172707D01*
X97583Y171974D01*
X98480Y171456D01*
X99482Y171188D01*
X100518D01*
X101520Y171456D01*
X102093Y171787D01*
X102400Y171387D01*
X98969Y167956D01*
X76614D01*
X76076Y167849D01*
X75620Y167545D01*
X74495Y166419D01*
X73905Y166536D01*
X73763Y166879D01*
X73210Y167433D01*
X72486Y167732D01*
X72295D01*
X70666Y169361D01*
Y169564D01*
X70619Y169803D01*
X70997Y170254D01*
X71010Y170259D01*
X72028Y170393D01*
X72986Y170789D01*
X73808Y171420D01*
X74439Y172243D01*
X74836Y173201D01*
X74971Y174228D01*
Y175309D01*
X75471Y175443D01*
X75625Y175177D01*
X76177Y174625D01*
X76854Y174234D01*
X77500Y174061D01*
Y177000D01*
Y179939D01*
X76854Y179766D01*
X76177Y179375D01*
X75625Y178823D01*
X75390Y178417D01*
X74872Y178520D01*
X74836Y178799D01*
X74439Y179757D01*
X73808Y180580D01*
X72986Y181211D01*
X72028Y181607D01*
X71000Y181743D01*
X69972Y181607D01*
X69015Y181211D01*
X68377Y180722D01*
X67877Y180958D01*
Y183992D01*
X68377Y184239D01*
X68907Y183832D01*
X69917Y183414D01*
X70500Y183337D01*
Y189228D01*
Y195120D01*
X69917Y195043D01*
X68968Y194650D01*
X68492Y194830D01*
X68468Y194841D01*
Y199126D01*
X68732Y199390D01*
X69032Y200113D01*
Y200203D01*
X69110Y200264D01*
X69250Y200333D01*
X69399Y200359D01*
X69532Y200364D01*
X69944Y199952D01*
D02*
G37*
G36*
X11854Y157625D02*
X12448Y157379D01*
X12982Y157021D01*
X13437Y156567D01*
X13794Y156032D01*
X14040Y155439D01*
X14166Y154808D01*
Y154487D01*
Y153650D01*
X7834D01*
Y154682D01*
Y154984D01*
X7952Y155577D01*
X8184Y156135D01*
X8519Y156638D01*
X8947Y157065D01*
X9449Y157401D01*
X10007Y157632D01*
X10600Y157750D01*
X11224D01*
X11854Y157625D01*
D02*
G37*
G36*
X14166Y151318D02*
Y151016D01*
X14048Y150423D01*
X13816Y149865D01*
X13481Y149362D01*
X13053Y148935D01*
X12551Y148599D01*
X11993Y148368D01*
X11400Y148250D01*
X10776D01*
X10146Y148375D01*
X9552Y148621D01*
X9018Y148978D01*
X8563Y149433D01*
X8206Y149968D01*
X7960Y150561D01*
X7834Y151192D01*
Y151513D01*
Y152350D01*
X14166D01*
Y151318D01*
D02*
G37*
G36*
X1854Y157625D02*
X2448Y157379D01*
X2983Y157021D01*
X3437Y156567D01*
X3794Y156032D01*
X4040Y155439D01*
X4166Y154808D01*
Y154487D01*
Y153650D01*
X2597D01*
Y152350D01*
X4166D01*
Y151318D01*
Y151016D01*
X4048Y150423D01*
X3816Y149865D01*
X3481Y149362D01*
X3053Y148935D01*
X2551Y148599D01*
X1993Y148368D01*
X1400Y148250D01*
X776D01*
X146Y148375D01*
X-448Y148621D01*
X-982Y148978D01*
X-1437Y149433D01*
X-1794Y149968D01*
X-2040Y150561D01*
X-2166Y151192D01*
Y151513D01*
Y152350D01*
X-471D01*
Y153650D01*
X-2166D01*
Y154682D01*
Y154984D01*
X-2048Y155577D01*
X-1816Y156135D01*
X-1481Y156638D01*
X-1053Y157065D01*
X-551Y157401D01*
X7Y157632D01*
X600Y157750D01*
X1224D01*
X1854Y157625D01*
D02*
G37*
G36*
X51889Y87625D02*
X52483Y87379D01*
X53017Y87021D01*
X53472Y86567D01*
X53829Y86032D01*
X54075Y85439D01*
X54200Y84808D01*
Y84487D01*
Y83650D01*
X47869D01*
Y84682D01*
Y84984D01*
X47987Y85577D01*
X48218Y86135D01*
X48554Y86638D01*
X48981Y87065D01*
X49484Y87401D01*
X50042Y87632D01*
X50635Y87750D01*
X51258D01*
X51889Y87625D01*
D02*
G37*
G36*
X54200Y65318D02*
Y65016D01*
X54082Y64423D01*
X53851Y63865D01*
X53515Y63362D01*
X53088Y62935D01*
X52586Y62599D01*
X52027Y62368D01*
X51435Y62250D01*
X50811D01*
X50181Y62375D01*
X49587Y62621D01*
X49052Y62979D01*
X48598Y63433D01*
X48241Y63968D01*
X47995Y64561D01*
X47869Y65192D01*
Y65513D01*
Y66350D01*
X54200D01*
Y65318D01*
D02*
G37*
G36*
X24200D02*
Y65016D01*
X24082Y64423D01*
X23851Y63865D01*
X23515Y63362D01*
X23088Y62935D01*
X22586Y62599D01*
X22027Y62368D01*
X21435Y62250D01*
X20811D01*
X20181Y62375D01*
X19587Y62621D01*
X19052Y62979D01*
X18598Y63433D01*
X18241Y63968D01*
X17995Y64561D01*
X17869Y65192D01*
Y65513D01*
Y66350D01*
X24200D01*
Y65318D01*
D02*
G37*
G36*
X79217Y67362D02*
X79673Y67057D01*
X80210Y66950D01*
X111835D01*
X116405Y62380D01*
X116164Y61799D01*
X116029Y60772D01*
Y57228D01*
X116164Y56201D01*
X116561Y55243D01*
X117192Y54420D01*
X118015Y53789D01*
X118972Y53393D01*
X120000Y53257D01*
X121028Y53393D01*
X121608Y53633D01*
X125375Y49867D01*
X125183Y49405D01*
X115361D01*
X111655Y53111D01*
X111772Y53701D01*
X111986Y53789D01*
X112808Y54420D01*
X113439Y55243D01*
X113836Y56201D01*
X113971Y57228D01*
Y60772D01*
X113836Y61799D01*
X113439Y62757D01*
X112808Y63580D01*
X111986Y64211D01*
X111028Y64607D01*
X110000Y64743D01*
X108972Y64607D01*
X108015Y64211D01*
X107192Y63580D01*
X106561Y62757D01*
X106164Y61799D01*
X106029Y60772D01*
Y57228D01*
X106164Y56201D01*
X106405Y55620D01*
X104891Y54106D01*
X103187D01*
X102950Y54606D01*
X103439Y55243D01*
X103836Y56201D01*
X103971Y57228D01*
Y60772D01*
X103836Y61799D01*
X103439Y62757D01*
X102808Y63580D01*
X101986Y64211D01*
X101028Y64607D01*
X100000Y64743D01*
X98972Y64607D01*
X98014Y64211D01*
X97192Y63580D01*
X96561Y62757D01*
X96164Y61799D01*
X96029Y60772D01*
Y57228D01*
X96164Y56201D01*
X96561Y55243D01*
X97050Y54606D01*
X96813Y54106D01*
X93937D01*
Y64709D01*
X86063D01*
Y54106D01*
X82673D01*
X82669Y54115D01*
X82115Y54669D01*
X81392Y54969D01*
X80608D01*
X79885Y54669D01*
X79331Y54115D01*
X79031Y53392D01*
Y52608D01*
X79331Y51885D01*
X79885Y51331D01*
X80608Y51032D01*
X81392D01*
X82030Y51296D01*
X85837D01*
X85936Y50796D01*
X85726Y50709D01*
X85168Y50151D01*
X84910Y49527D01*
X88791D01*
X88533Y50151D01*
X87974Y50709D01*
X87764Y50796D01*
X87864Y51296D01*
X96056D01*
X96390Y50796D01*
X96282Y50533D01*
Y49750D01*
X96581Y49027D01*
X96845Y48763D01*
Y47539D01*
X92184Y42877D01*
X91760Y43160D01*
X91969Y43664D01*
Y44447D01*
X91669Y45171D01*
X91115Y45725D01*
X90392Y46024D01*
X89608D01*
X88885Y45725D01*
X88621Y45461D01*
X80579D01*
X80315Y45725D01*
X79592Y46024D01*
X78808D01*
X78085Y45725D01*
X77531Y45171D01*
X77232Y44447D01*
Y43664D01*
X77531Y42941D01*
X78085Y42387D01*
X78808Y42087D01*
X79592D01*
X80315Y42387D01*
X80579Y42651D01*
X88621D01*
X88885Y42387D01*
X89608Y42087D01*
X90392D01*
X90896Y42296D01*
X91179Y41872D01*
X88207Y38900D01*
X87902Y38444D01*
X87795Y37906D01*
Y30591D01*
X87231D01*
X86512Y30496D01*
X85842Y30218D01*
X85266Y29777D01*
X84824Y29201D01*
X84547Y28530D01*
X84452Y27811D01*
Y4189D01*
X84547Y3469D01*
X84824Y2799D01*
X85266Y2223D01*
X85842Y1782D01*
X86512Y1504D01*
X86427Y1020D01*
X81973D01*
X81888Y1504D01*
X82558Y1782D01*
X83134Y2223D01*
X83576Y2799D01*
X83854Y3469D01*
X83948Y4189D01*
Y27811D01*
X83854Y28530D01*
X83576Y29201D01*
X83134Y29777D01*
X82558Y30218D01*
X81888Y30496D01*
X81169Y30591D01*
X77232D01*
X76512Y30496D01*
X75842Y30218D01*
X75266Y29777D01*
X74824Y29201D01*
X74546Y28530D01*
X74452Y27811D01*
Y4189D01*
X74546Y3469D01*
X74824Y2799D01*
X75266Y2223D01*
X75842Y1782D01*
X76512Y1504D01*
X76427Y1020D01*
X71973D01*
X71888Y1504D01*
X72558Y1782D01*
X73134Y2223D01*
X73576Y2799D01*
X73853Y3469D01*
X73948Y4189D01*
Y27811D01*
X73853Y28530D01*
X73576Y29201D01*
X73134Y29777D01*
X72558Y30218D01*
X71888Y30496D01*
X71169Y30591D01*
X67232D01*
X66512Y30496D01*
X65842Y30218D01*
X65266Y29777D01*
X64824Y29201D01*
X64547Y28530D01*
X64452Y27811D01*
Y4189D01*
X64547Y3469D01*
X64824Y2799D01*
X65266Y2223D01*
X65842Y1782D01*
X66512Y1504D01*
X66427Y1020D01*
X61973D01*
X61888Y1504D01*
X62558Y1782D01*
X63134Y2223D01*
X63576Y2799D01*
X63854Y3469D01*
X63948Y4189D01*
Y27811D01*
X63854Y28530D01*
X63576Y29201D01*
X63134Y29777D01*
X62558Y30218D01*
X61888Y30496D01*
X61168Y30591D01*
X57231D01*
X56553Y30501D01*
X56513Y30538D01*
X56390Y31046D01*
X77993Y52649D01*
X78298Y53105D01*
X78405Y53642D01*
Y57292D01*
X78905Y57499D01*
X79086Y57318D01*
X79710Y57059D01*
Y59000D01*
Y60941D01*
X79086Y60682D01*
X78905Y60501D01*
X78405Y60708D01*
Y67520D01*
X78867Y67712D01*
X79217Y67362D01*
D02*
G37*
G36*
X70331Y51885D02*
X70885Y51331D01*
X71608Y51032D01*
X71695D01*
X71902Y50532D01*
X66162Y44791D01*
X65572Y44908D01*
X65463Y45171D01*
X64909Y45725D01*
X64186Y46024D01*
X63403D01*
X62679Y45725D01*
X62125Y45171D01*
X61826Y44447D01*
Y43856D01*
X61133Y43163D01*
X60709Y43446D01*
X60776Y43608D01*
Y44392D01*
X60476Y45115D01*
X59923Y45669D01*
X59199Y45968D01*
X58416D01*
X58286Y45915D01*
X57902Y45991D01*
X42383D01*
X42119Y46255D01*
X41396Y46555D01*
X40613D01*
X39889Y46255D01*
X39335Y45701D01*
X39036Y44978D01*
Y44195D01*
X39335Y43471D01*
X39875Y42931D01*
X39500Y42556D01*
X39200Y41833D01*
Y41049D01*
X39500Y40326D01*
X40053Y39772D01*
X40777Y39472D01*
X41560D01*
X42284Y39772D01*
X42547Y40036D01*
X60699D01*
X60907Y39536D01*
X51869Y30498D01*
X51169Y30591D01*
X47232D01*
X46512Y30496D01*
X45842Y30218D01*
X45266Y29777D01*
X44824Y29201D01*
X44546Y28530D01*
X44452Y27811D01*
Y4189D01*
X44546Y3469D01*
X44824Y2799D01*
X45266Y2223D01*
X45842Y1782D01*
X46512Y1504D01*
X46427Y1020D01*
X41973D01*
X41888Y1504D01*
X42558Y1782D01*
X43134Y2223D01*
X43576Y2799D01*
X43854Y3469D01*
X43948Y4189D01*
Y27811D01*
X43854Y28530D01*
X43576Y29201D01*
X43134Y29777D01*
X42558Y30218D01*
X41888Y30496D01*
X41168Y30591D01*
X37231D01*
X36512Y30496D01*
X35842Y30218D01*
X35266Y29777D01*
X34824Y29201D01*
X34547Y28530D01*
X34452Y27811D01*
Y4189D01*
X34547Y3469D01*
X34824Y2799D01*
X35266Y2223D01*
X35842Y1782D01*
X36512Y1504D01*
X36427Y1020D01*
X31973D01*
X31888Y1504D01*
X32558Y1782D01*
X33134Y2223D01*
X33576Y2799D01*
X33854Y3469D01*
X33948Y4189D01*
Y27811D01*
X33854Y28530D01*
X33576Y29201D01*
X33134Y29777D01*
X32558Y30218D01*
X31888Y30496D01*
X31168Y30591D01*
X30605D01*
Y46621D01*
X30869Y46885D01*
X31168Y47608D01*
Y48392D01*
X30869Y49115D01*
X30805Y49178D01*
X31012Y49679D01*
X62805D01*
X63069Y49415D01*
X63793Y49115D01*
X64576D01*
X65299Y49415D01*
X65853Y49968D01*
X66153Y50692D01*
Y51475D01*
X66044Y51738D01*
X66378Y52238D01*
X70185D01*
X70331Y51885D01*
D02*
G37*
G36*
X108595Y53129D02*
Y52780D01*
X108702Y52242D01*
X109007Y51786D01*
X109244Y51548D01*
X109054Y51031D01*
X108464Y50787D01*
X107910Y50233D01*
X107610Y49510D01*
Y48916D01*
X107305Y48594D01*
X107152Y48528D01*
X106459D01*
X105735Y48228D01*
X105182Y47674D01*
X104882Y46951D01*
Y46167D01*
X104749Y45968D01*
X104238D01*
X103515Y45669D01*
X102961Y45115D01*
X102661Y44392D01*
Y43608D01*
X102856Y43138D01*
X98207Y38488D01*
X97902Y38032D01*
X97795Y37495D01*
Y31082D01*
X97795Y31082D01*
Y30591D01*
X97232D01*
X96512Y30496D01*
X95842Y30218D01*
X95266Y29777D01*
X94824Y29201D01*
X94547Y28530D01*
X94452Y27811D01*
Y4189D01*
X94547Y3469D01*
X94824Y2799D01*
X95266Y2223D01*
X95842Y1782D01*
X96512Y1504D01*
X96427Y1020D01*
X91973D01*
X91888Y1504D01*
X92558Y1782D01*
X93134Y2223D01*
X93576Y2799D01*
X93853Y3469D01*
X93948Y4189D01*
Y27811D01*
X93853Y28530D01*
X93576Y29201D01*
X93134Y29777D01*
X92558Y30218D01*
X91888Y30496D01*
X91168Y30591D01*
X90605D01*
Y37324D01*
X95317Y42037D01*
X95789Y41801D01*
Y41178D01*
X96091Y40449D01*
X96649Y39891D01*
X97273Y39632D01*
Y41573D01*
X97773D01*
Y42073D01*
X99713D01*
X99455Y42697D01*
X98897Y43255D01*
X98168Y43557D01*
X97545D01*
X97309Y44028D01*
X99244Y45963D01*
X99548Y46419D01*
X99655Y46957D01*
Y48763D01*
X99919Y49027D01*
X100076Y49406D01*
X100576Y49307D01*
Y49132D01*
X100878Y48403D01*
X101436Y47844D01*
X102060Y47586D01*
Y49527D01*
X102560D01*
Y50027D01*
X104501D01*
X104243Y50651D01*
X104097Y50796D01*
X104305Y51296D01*
X105472D01*
X106010Y51403D01*
X106466Y51707D01*
X108095Y53337D01*
X108595Y53129D01*
D02*
G37*
G36*
X107916Y43506D02*
X107924Y43501D01*
X107868Y42937D01*
X107658Y42850D01*
X107104Y42296D01*
X106804Y41573D01*
Y40790D01*
X107104Y40066D01*
X107368Y39802D01*
Y30591D01*
X107231D01*
X106512Y30496D01*
X105842Y30218D01*
X105266Y29777D01*
X104824Y29201D01*
X104546Y28530D01*
X104452Y27811D01*
Y4189D01*
X104546Y3469D01*
X104824Y2799D01*
X105266Y2223D01*
X105842Y1782D01*
X106512Y1504D01*
X106427Y1020D01*
X101973D01*
X101888Y1504D01*
X102558Y1782D01*
X103134Y2223D01*
X103576Y2799D01*
X103853Y3469D01*
X103948Y4189D01*
Y27811D01*
X103853Y28530D01*
X103576Y29201D01*
X103134Y29777D01*
X102558Y30218D01*
X101888Y30496D01*
X101169Y30591D01*
X100605D01*
Y31082D01*
X100605Y31082D01*
Y36913D01*
X105397Y41705D01*
X105702Y42161D01*
X105735Y42327D01*
X105745Y42331D01*
X106299Y42885D01*
X106598Y43608D01*
Y44117D01*
X107098Y44324D01*
X107916Y43506D01*
D02*
G37*
%LPC*%
G36*
X75921Y341971D02*
X72378D01*
X71350Y341836D01*
X70393Y341439D01*
X69570Y340808D01*
X68939Y339985D01*
X68542Y339028D01*
X68407Y338000D01*
X68542Y336972D01*
X68939Y336015D01*
X69570Y335192D01*
X70393Y334561D01*
X71350Y334164D01*
X72378Y334029D01*
X75921D01*
X76949Y334164D01*
X77907Y334561D01*
X78729Y335192D01*
X79360Y336015D01*
X79757Y336972D01*
X79892Y338000D01*
X79757Y339028D01*
X79360Y339985D01*
X78729Y340808D01*
X77907Y341439D01*
X76949Y341836D01*
X75921Y341971D01*
D02*
G37*
G36*
X83400Y333341D02*
Y331900D01*
X84841D01*
X84582Y332524D01*
X84024Y333082D01*
X83400Y333341D01*
D02*
G37*
G36*
X82400D02*
X81776Y333082D01*
X81218Y332524D01*
X80959Y331900D01*
X82400D01*
Y333341D01*
D02*
G37*
G36*
X84841Y330900D02*
X83400D01*
Y329459D01*
X84024Y329718D01*
X84582Y330276D01*
X84841Y330900D01*
D02*
G37*
G36*
X82400D02*
X80959D01*
X81218Y330276D01*
X81776Y329718D01*
X82400Y329459D01*
Y330900D01*
D02*
G37*
G36*
X150000Y340743D02*
X148972Y340607D01*
X148014Y340211D01*
X147192Y339580D01*
X146561Y338757D01*
X146164Y337799D01*
X146029Y336772D01*
Y333228D01*
X146164Y332201D01*
X146561Y331243D01*
X147192Y330420D01*
X148014Y329789D01*
X148972Y329393D01*
X150000Y329257D01*
X151028Y329393D01*
X151986Y329789D01*
X152808Y330420D01*
X153439Y331243D01*
X153836Y332201D01*
X153971Y333228D01*
Y336772D01*
X153836Y337799D01*
X153439Y338757D01*
X152808Y339580D01*
X151986Y340211D01*
X151028Y340607D01*
X150000Y340743D01*
D02*
G37*
G36*
X140000D02*
X138972Y340607D01*
X138014Y340211D01*
X137192Y339580D01*
X136561Y338757D01*
X136164Y337799D01*
X136029Y336772D01*
Y333228D01*
X136164Y332201D01*
X136561Y331243D01*
X137192Y330420D01*
X138014Y329789D01*
X138972Y329393D01*
X140000Y329257D01*
X141028Y329393D01*
X141985Y329789D01*
X142808Y330420D01*
X143439Y331243D01*
X143836Y332201D01*
X143971Y333228D01*
Y336772D01*
X143836Y337799D01*
X143439Y338757D01*
X142808Y339580D01*
X141985Y340211D01*
X141028Y340607D01*
X140000Y340743D01*
D02*
G37*
G36*
X130000D02*
X128972Y340607D01*
X128015Y340211D01*
X127192Y339580D01*
X126561Y338757D01*
X126164Y337799D01*
X126029Y336772D01*
Y333228D01*
X126164Y332201D01*
X126561Y331243D01*
X127192Y330420D01*
X128015Y329789D01*
X128972Y329393D01*
X130000Y329257D01*
X131028Y329393D01*
X131985Y329789D01*
X132808Y330420D01*
X133439Y331243D01*
X133836Y332201D01*
X133971Y333228D01*
Y336772D01*
X133836Y337799D01*
X133439Y338757D01*
X132808Y339580D01*
X131985Y340211D01*
X131028Y340607D01*
X130000Y340743D01*
D02*
G37*
G36*
X120000D02*
X118972Y340607D01*
X118015Y340211D01*
X117192Y339580D01*
X116561Y338757D01*
X116164Y337799D01*
X116029Y336772D01*
Y333228D01*
X116164Y332201D01*
X116561Y331243D01*
X117192Y330420D01*
X118015Y329789D01*
X118972Y329393D01*
X120000Y329257D01*
X121028Y329393D01*
X121985Y329789D01*
X122808Y330420D01*
X123439Y331243D01*
X123836Y332201D01*
X123971Y333228D01*
Y336772D01*
X123836Y337799D01*
X123439Y338757D01*
X122808Y339580D01*
X121985Y340211D01*
X121028Y340607D01*
X120000Y340743D01*
D02*
G37*
G36*
X110000D02*
X108972Y340607D01*
X108015Y340211D01*
X107192Y339580D01*
X106561Y338757D01*
X106164Y337799D01*
X106029Y336772D01*
Y333228D01*
X106164Y332201D01*
X106561Y331243D01*
X107192Y330420D01*
X108015Y329789D01*
X108972Y329393D01*
X110000Y329257D01*
X111028Y329393D01*
X111986Y329789D01*
X112808Y330420D01*
X113439Y331243D01*
X113836Y332201D01*
X113971Y333228D01*
Y336772D01*
X113836Y337799D01*
X113439Y338757D01*
X112808Y339580D01*
X111986Y340211D01*
X111028Y340607D01*
X110000Y340743D01*
D02*
G37*
G36*
X110546Y322423D02*
X110500D01*
Y318774D01*
X114150D01*
Y318820D01*
X113867Y319875D01*
X113321Y320822D01*
X112548Y321594D01*
X111602Y322141D01*
X110546Y322423D01*
D02*
G37*
G36*
X109500D02*
X109454D01*
X108398Y322141D01*
X107452Y321594D01*
X106679Y320822D01*
X106133Y319875D01*
X105850Y318820D01*
Y318774D01*
X109500D01*
Y322423D01*
D02*
G37*
G36*
X11933Y345937D02*
X11783D01*
Y341500D01*
X16220D01*
Y341650D01*
X15884Y342906D01*
X15234Y344031D01*
X14315Y344951D01*
X13189Y345601D01*
X11933Y345937D01*
D02*
G37*
G36*
X10783D02*
X10633D01*
X9378Y345601D01*
X8252Y344951D01*
X7333Y344031D01*
X6683Y342906D01*
X6346Y341650D01*
Y341500D01*
X10783D01*
Y345937D01*
D02*
G37*
G36*
X16220Y340500D02*
X11783D01*
Y336063D01*
X11933D01*
X13189Y336399D01*
X14315Y337049D01*
X15234Y337969D01*
X15884Y339094D01*
X16220Y340350D01*
Y340500D01*
D02*
G37*
G36*
X220000Y340743D02*
X218972Y340607D01*
X218015Y340211D01*
X217192Y339580D01*
X216561Y338757D01*
X216164Y337799D01*
X216029Y336772D01*
Y333228D01*
X216164Y332201D01*
X216561Y331243D01*
X217192Y330420D01*
X218015Y329789D01*
X218972Y329393D01*
X220000Y329257D01*
X221028Y329393D01*
X221986Y329789D01*
X222808Y330420D01*
X223439Y331243D01*
X223836Y332201D01*
X223971Y333228D01*
Y336772D01*
X223836Y337799D01*
X223439Y338757D01*
X222808Y339580D01*
X221986Y340211D01*
X221028Y340607D01*
X220000Y340743D01*
D02*
G37*
G36*
X210000D02*
X208972Y340607D01*
X208014Y340211D01*
X207192Y339580D01*
X206561Y338757D01*
X206164Y337799D01*
X206029Y336772D01*
Y333228D01*
X206164Y332201D01*
X206561Y331243D01*
X207192Y330420D01*
X208014Y329789D01*
X208972Y329393D01*
X210000Y329257D01*
X211028Y329393D01*
X211985Y329789D01*
X212808Y330420D01*
X213439Y331243D01*
X213836Y332201D01*
X213971Y333228D01*
Y336772D01*
X213836Y337799D01*
X213439Y338757D01*
X212808Y339580D01*
X211985Y340211D01*
X211028Y340607D01*
X210000Y340743D01*
D02*
G37*
G36*
X200000D02*
X198972Y340607D01*
X198014Y340211D01*
X197192Y339580D01*
X196561Y338757D01*
X196164Y337799D01*
X196029Y336772D01*
Y333228D01*
X196164Y332201D01*
X196561Y331243D01*
X197192Y330420D01*
X198014Y329789D01*
X198972Y329393D01*
X200000Y329257D01*
X201028Y329393D01*
X201986Y329789D01*
X202808Y330420D01*
X203439Y331243D01*
X203836Y332201D01*
X203971Y333228D01*
Y336772D01*
X203836Y337799D01*
X203439Y338757D01*
X202808Y339580D01*
X201986Y340211D01*
X201028Y340607D01*
X200000Y340743D01*
D02*
G37*
G36*
X190000D02*
X188972Y340607D01*
X188014Y340211D01*
X187192Y339580D01*
X186561Y338757D01*
X186164Y337799D01*
X186029Y336772D01*
Y333228D01*
X186164Y332201D01*
X186561Y331243D01*
X187192Y330420D01*
X188014Y329789D01*
X188972Y329393D01*
X190000Y329257D01*
X191028Y329393D01*
X191985Y329789D01*
X192808Y330420D01*
X193439Y331243D01*
X193836Y332201D01*
X193971Y333228D01*
Y336772D01*
X193836Y337799D01*
X193439Y338757D01*
X192808Y339580D01*
X191985Y340211D01*
X191028Y340607D01*
X190000Y340743D01*
D02*
G37*
G36*
X180000D02*
X178972Y340607D01*
X178015Y340211D01*
X177192Y339580D01*
X176561Y338757D01*
X176164Y337799D01*
X176029Y336772D01*
Y333228D01*
X176164Y332201D01*
X176561Y331243D01*
X177192Y330420D01*
X178015Y329789D01*
X178972Y329393D01*
X180000Y329257D01*
X181028Y329393D01*
X181985Y329789D01*
X182808Y330420D01*
X183439Y331243D01*
X183836Y332201D01*
X183971Y333228D01*
Y336772D01*
X183836Y337799D01*
X183439Y338757D01*
X182808Y339580D01*
X181985Y340211D01*
X181028Y340607D01*
X180000Y340743D01*
D02*
G37*
G36*
X145600Y305484D02*
Y304043D01*
X147041D01*
X146782Y304667D01*
X146224Y305225D01*
X145600Y305484D01*
D02*
G37*
G36*
X144600D02*
X143976Y305225D01*
X143418Y304667D01*
X143159Y304043D01*
X144600D01*
Y305484D01*
D02*
G37*
G36*
X155334Y304341D02*
Y302900D01*
X156775D01*
X156517Y303524D01*
X155958Y304082D01*
X155334Y304341D01*
D02*
G37*
G36*
X154334D02*
X153710Y304082D01*
X153152Y303524D01*
X152894Y302900D01*
X154334D01*
Y304341D01*
D02*
G37*
G36*
X136271Y304127D02*
X134831D01*
Y302686D01*
X135455Y302944D01*
X136013Y303503D01*
X136271Y304127D01*
D02*
G37*
G36*
X147041Y303043D02*
X145600D01*
Y301603D01*
X146224Y301861D01*
X146782Y302419D01*
X147041Y303043D01*
D02*
G37*
G36*
X144600D02*
X143159D01*
X143418Y302419D01*
X143976Y301861D01*
X144600Y301603D01*
Y303043D01*
D02*
G37*
G36*
X156775Y301900D02*
X155334D01*
Y300459D01*
X155958Y300718D01*
X156517Y301276D01*
X156775Y301900D01*
D02*
G37*
G36*
X154334D02*
X152894D01*
X153152Y301276D01*
X153710Y300718D01*
X154334Y300459D01*
Y301900D01*
D02*
G37*
G36*
X220500Y280891D02*
Y275500D01*
X224185D01*
Y276772D01*
X224043Y277855D01*
X223625Y278864D01*
X222959Y279731D01*
X222093Y280396D01*
X221083Y280815D01*
X220500Y280891D01*
D02*
G37*
G36*
X219500D02*
X218917Y280815D01*
X217907Y280396D01*
X217040Y279731D01*
X216375Y278864D01*
X215957Y277855D01*
X215815Y276772D01*
Y275500D01*
X219500D01*
Y280891D01*
D02*
G37*
G36*
X210000Y280743D02*
X208972Y280607D01*
X208014Y280211D01*
X207192Y279580D01*
X206561Y278757D01*
X206164Y277799D01*
X206029Y276772D01*
Y273228D01*
X206164Y272201D01*
X206561Y271243D01*
X207192Y270420D01*
X208014Y269789D01*
X208972Y269393D01*
X210000Y269257D01*
X211028Y269393D01*
X211985Y269789D01*
X212808Y270420D01*
X213439Y271243D01*
X213836Y272201D01*
X213971Y273228D01*
Y276772D01*
X213836Y277799D01*
X213439Y278757D01*
X212808Y279580D01*
X211985Y280211D01*
X211028Y280607D01*
X210000Y280743D01*
D02*
G37*
G36*
X200000D02*
X198972Y280607D01*
X198014Y280211D01*
X197192Y279580D01*
X196561Y278757D01*
X196164Y277799D01*
X196029Y276772D01*
Y273228D01*
X196164Y272201D01*
X196561Y271243D01*
X197192Y270420D01*
X198014Y269789D01*
X198972Y269393D01*
X200000Y269257D01*
X201028Y269393D01*
X201986Y269789D01*
X202808Y270420D01*
X203439Y271243D01*
X203836Y272201D01*
X203971Y273228D01*
Y276772D01*
X203836Y277799D01*
X203439Y278757D01*
X202808Y279580D01*
X201986Y280211D01*
X201028Y280607D01*
X200000Y280743D01*
D02*
G37*
G36*
X190000D02*
X188972Y280607D01*
X188014Y280211D01*
X187192Y279580D01*
X186561Y278757D01*
X186164Y277799D01*
X186029Y276772D01*
Y273228D01*
X186164Y272201D01*
X186561Y271243D01*
X187192Y270420D01*
X188014Y269789D01*
X188972Y269393D01*
X190000Y269257D01*
X191028Y269393D01*
X191985Y269789D01*
X192808Y270420D01*
X193439Y271243D01*
X193836Y272201D01*
X193971Y273228D01*
Y276772D01*
X193836Y277799D01*
X193439Y278757D01*
X192808Y279580D01*
X191985Y280211D01*
X191028Y280607D01*
X190000Y280743D01*
D02*
G37*
G36*
X180000D02*
X178972Y280607D01*
X178015Y280211D01*
X177192Y279580D01*
X176561Y278757D01*
X176164Y277799D01*
X176029Y276772D01*
Y273228D01*
X176164Y272201D01*
X176561Y271243D01*
X177192Y270420D01*
X178015Y269789D01*
X178972Y269393D01*
X180000Y269257D01*
X181028Y269393D01*
X181985Y269789D01*
X182808Y270420D01*
X183439Y271243D01*
X183836Y272201D01*
X183971Y273228D01*
Y276772D01*
X183836Y277799D01*
X183439Y278757D01*
X182808Y279580D01*
X181985Y280211D01*
X181028Y280607D01*
X180000Y280743D01*
D02*
G37*
G36*
X130000D02*
X128972Y280607D01*
X128015Y280211D01*
X127192Y279580D01*
X126561Y278757D01*
X126164Y277799D01*
X126029Y276772D01*
Y273228D01*
X126164Y272201D01*
X126561Y271243D01*
X127192Y270420D01*
X128015Y269789D01*
X128972Y269393D01*
X130000Y269257D01*
X131028Y269393D01*
X131985Y269789D01*
X132808Y270420D01*
X133439Y271243D01*
X133836Y272201D01*
X133971Y273228D01*
Y276772D01*
X133836Y277799D01*
X133439Y278757D01*
X132808Y279580D01*
X131985Y280211D01*
X131028Y280607D01*
X130000Y280743D01*
D02*
G37*
G36*
X120000D02*
X118972Y280607D01*
X118015Y280211D01*
X117192Y279580D01*
X116561Y278757D01*
X116164Y277799D01*
X116029Y276772D01*
Y273228D01*
X116164Y272201D01*
X116561Y271243D01*
X117192Y270420D01*
X118015Y269789D01*
X118972Y269393D01*
X120000Y269257D01*
X121028Y269393D01*
X121985Y269789D01*
X122808Y270420D01*
X123439Y271243D01*
X123836Y272201D01*
X123971Y273228D01*
Y276772D01*
X123836Y277799D01*
X123439Y278757D01*
X122808Y279580D01*
X121985Y280211D01*
X121028Y280607D01*
X120000Y280743D01*
D02*
G37*
G36*
X110000D02*
X108972Y280607D01*
X108015Y280211D01*
X107192Y279580D01*
X106561Y278757D01*
X106164Y277799D01*
X106029Y276772D01*
Y273228D01*
X106164Y272201D01*
X106561Y271243D01*
X107192Y270420D01*
X108015Y269789D01*
X108972Y269393D01*
X110000Y269257D01*
X111028Y269393D01*
X111986Y269789D01*
X112808Y270420D01*
X113439Y271243D01*
X113836Y272201D01*
X113971Y273228D01*
Y276772D01*
X113836Y277799D01*
X113439Y278757D01*
X112808Y279580D01*
X111986Y280211D01*
X111028Y280607D01*
X110000Y280743D01*
D02*
G37*
G36*
X100000D02*
X98972Y280607D01*
X98014Y280211D01*
X97192Y279580D01*
X96561Y278757D01*
X96164Y277799D01*
X96029Y276772D01*
Y273228D01*
X96164Y272201D01*
X96561Y271243D01*
X97192Y270420D01*
X98014Y269789D01*
X98972Y269393D01*
X100000Y269257D01*
X101028Y269393D01*
X101986Y269789D01*
X102808Y270420D01*
X103439Y271243D01*
X103836Y272201D01*
X103971Y273228D01*
Y276772D01*
X103836Y277799D01*
X103439Y278757D01*
X102808Y279580D01*
X101986Y280211D01*
X101028Y280607D01*
X100000Y280743D01*
D02*
G37*
G36*
X224185Y274500D02*
X220000D01*
X215815D01*
Y273228D01*
X215957Y272145D01*
X216375Y271136D01*
X217040Y270269D01*
X217907Y269604D01*
X218917Y269185D01*
X219225Y269145D01*
Y268641D01*
X218972Y268607D01*
X218015Y268211D01*
X217192Y267580D01*
X216561Y266757D01*
X216164Y265799D01*
X216029Y264772D01*
Y261228D01*
X216164Y260201D01*
X216561Y259243D01*
X217192Y258420D01*
X218015Y257789D01*
X218972Y257393D01*
X220000Y257257D01*
X221028Y257393D01*
X221986Y257789D01*
X222808Y258420D01*
X223439Y259243D01*
X223836Y260201D01*
X223971Y261228D01*
Y264772D01*
X223836Y265799D01*
X223439Y266757D01*
X222808Y267580D01*
X221986Y268211D01*
X221028Y268607D01*
X220775Y268641D01*
Y269145D01*
X221083Y269185D01*
X222093Y269604D01*
X222959Y270269D01*
X223625Y271136D01*
X224043Y272145D01*
X224185Y273228D01*
Y274500D01*
D02*
G37*
G36*
X210000Y268743D02*
X208972Y268607D01*
X208014Y268211D01*
X207192Y267580D01*
X206561Y266757D01*
X206164Y265799D01*
X206029Y264772D01*
Y261228D01*
X206164Y260201D01*
X206561Y259243D01*
X207192Y258420D01*
X208014Y257789D01*
X208972Y257393D01*
X210000Y257257D01*
X211028Y257393D01*
X211985Y257789D01*
X212808Y258420D01*
X213439Y259243D01*
X213836Y260201D01*
X213971Y261228D01*
Y264772D01*
X213836Y265799D01*
X213439Y266757D01*
X212808Y267580D01*
X211985Y268211D01*
X211028Y268607D01*
X210000Y268743D01*
D02*
G37*
G36*
X200000D02*
X198972Y268607D01*
X198014Y268211D01*
X197192Y267580D01*
X196561Y266757D01*
X196164Y265799D01*
X196029Y264772D01*
Y261228D01*
X196164Y260201D01*
X196561Y259243D01*
X197192Y258420D01*
X198014Y257789D01*
X198972Y257393D01*
X200000Y257257D01*
X201028Y257393D01*
X201986Y257789D01*
X202808Y258420D01*
X203439Y259243D01*
X203836Y260201D01*
X203971Y261228D01*
Y264772D01*
X203836Y265799D01*
X203439Y266757D01*
X202808Y267580D01*
X201986Y268211D01*
X201028Y268607D01*
X200000Y268743D01*
D02*
G37*
G36*
X190000D02*
X188972Y268607D01*
X188014Y268211D01*
X187192Y267580D01*
X186561Y266757D01*
X186164Y265799D01*
X186029Y264772D01*
Y261228D01*
X186164Y260201D01*
X186561Y259243D01*
X187192Y258420D01*
X188014Y257789D01*
X188972Y257393D01*
X190000Y257257D01*
X191028Y257393D01*
X191985Y257789D01*
X192808Y258420D01*
X193439Y259243D01*
X193836Y260201D01*
X193971Y261228D01*
Y264772D01*
X193836Y265799D01*
X193439Y266757D01*
X192808Y267580D01*
X191985Y268211D01*
X191028Y268607D01*
X190000Y268743D01*
D02*
G37*
G36*
X180000D02*
X178972Y268607D01*
X178015Y268211D01*
X177192Y267580D01*
X176561Y266757D01*
X176164Y265799D01*
X176029Y264772D01*
Y261228D01*
X176164Y260201D01*
X176561Y259243D01*
X177192Y258420D01*
X178015Y257789D01*
X178972Y257393D01*
X180000Y257257D01*
X181028Y257393D01*
X181985Y257789D01*
X182808Y258420D01*
X183439Y259243D01*
X183836Y260201D01*
X183971Y261228D01*
Y264772D01*
X183836Y265799D01*
X183439Y266757D01*
X182808Y267580D01*
X181985Y268211D01*
X181028Y268607D01*
X180000Y268743D01*
D02*
G37*
G36*
X130000D02*
X128972Y268607D01*
X128015Y268211D01*
X127192Y267580D01*
X126561Y266757D01*
X126164Y265799D01*
X126029Y264772D01*
Y261228D01*
X126164Y260201D01*
X126561Y259243D01*
X127192Y258420D01*
X128015Y257789D01*
X128972Y257393D01*
X130000Y257257D01*
X131028Y257393D01*
X131985Y257789D01*
X132808Y258420D01*
X133439Y259243D01*
X133836Y260201D01*
X133971Y261228D01*
Y264772D01*
X133836Y265799D01*
X133439Y266757D01*
X132808Y267580D01*
X131985Y268211D01*
X131028Y268607D01*
X130000Y268743D01*
D02*
G37*
G36*
X120000D02*
X118972Y268607D01*
X118015Y268211D01*
X117192Y267580D01*
X116561Y266757D01*
X116164Y265799D01*
X116029Y264772D01*
Y261228D01*
X116164Y260201D01*
X116561Y259243D01*
X117192Y258420D01*
X118015Y257789D01*
X118972Y257393D01*
X120000Y257257D01*
X121028Y257393D01*
X121985Y257789D01*
X122808Y258420D01*
X123439Y259243D01*
X123836Y260201D01*
X123971Y261228D01*
Y264772D01*
X123836Y265799D01*
X123439Y266757D01*
X122808Y267580D01*
X121985Y268211D01*
X121028Y268607D01*
X120000Y268743D01*
D02*
G37*
G36*
X110000D02*
X108972Y268607D01*
X108015Y268211D01*
X107192Y267580D01*
X106561Y266757D01*
X106164Y265799D01*
X106029Y264772D01*
Y261228D01*
X106164Y260201D01*
X106561Y259243D01*
X107192Y258420D01*
X108015Y257789D01*
X108972Y257393D01*
X110000Y257257D01*
X111028Y257393D01*
X111986Y257789D01*
X112808Y258420D01*
X113439Y259243D01*
X113836Y260201D01*
X113971Y261228D01*
Y264772D01*
X113836Y265799D01*
X113439Y266757D01*
X112808Y267580D01*
X111986Y268211D01*
X111028Y268607D01*
X110000Y268743D01*
D02*
G37*
G36*
X110546Y250922D02*
X110500D01*
Y247273D01*
X114150D01*
Y247319D01*
X113867Y248375D01*
X113321Y249321D01*
X112548Y250093D01*
X111602Y250640D01*
X110546Y250922D01*
D02*
G37*
G36*
X109500D02*
X109454D01*
X108398Y250640D01*
X107452Y250093D01*
X106679Y249321D01*
X106133Y248375D01*
X105850Y247319D01*
Y247273D01*
X109500D01*
Y250922D01*
D02*
G37*
G36*
X13745Y250437D02*
X12709D01*
X11708Y250169D01*
X10810Y249650D01*
X10077Y248917D01*
X9558Y248020D01*
X9290Y247018D01*
Y245982D01*
X9558Y244980D01*
X10077Y244083D01*
X10810Y243350D01*
X11708Y242831D01*
X12709Y242563D01*
X13745D01*
X14747Y242831D01*
X15644Y243350D01*
X16377Y244083D01*
X16896Y244980D01*
X17164Y245982D01*
Y247018D01*
X16896Y248020D01*
X16377Y248917D01*
X15644Y249650D01*
X14747Y250169D01*
X13745Y250437D01*
D02*
G37*
G36*
X22727Y246000D02*
X19078D01*
Y245954D01*
X19360Y244898D01*
X19907Y243952D01*
X20679Y243179D01*
X21625Y242633D01*
X22681Y242350D01*
X22727D01*
Y246000D01*
D02*
G37*
G36*
X31000Y237743D02*
X29972Y237607D01*
X29015Y237211D01*
X28192Y236580D01*
X27561Y235757D01*
X27164Y234799D01*
X27029Y233772D01*
Y230228D01*
X27164Y229201D01*
X27561Y228243D01*
X28192Y227420D01*
X29015Y226789D01*
X29972Y226393D01*
X31000Y226257D01*
X32028Y226393D01*
X32985Y226789D01*
X33808Y227420D01*
X34439Y228243D01*
X34836Y229201D01*
X34971Y230228D01*
Y233772D01*
X34836Y234799D01*
X34439Y235757D01*
X33808Y236580D01*
X32985Y237211D01*
X32028Y237607D01*
X31000Y237743D01*
D02*
G37*
G36*
X21000D02*
X19972Y237607D01*
X19015Y237211D01*
X18192Y236580D01*
X17561Y235757D01*
X17164Y234799D01*
X17029Y233772D01*
Y230228D01*
X17164Y229201D01*
X17292Y228893D01*
X12881Y224482D01*
X12028Y224836D01*
X11000Y224971D01*
X9972Y224836D01*
X9014Y224439D01*
X8192Y223808D01*
X7561Y222986D01*
X7164Y222028D01*
X7029Y221000D01*
Y217457D01*
X7164Y216429D01*
X7561Y215471D01*
X8192Y214649D01*
X9014Y214018D01*
X9972Y213621D01*
X11000Y213486D01*
X12028Y213621D01*
X12986Y214018D01*
X13808Y214649D01*
X14439Y215471D01*
X14836Y216429D01*
X14971Y217457D01*
Y221000D01*
X14836Y222028D01*
X14708Y222336D01*
X19119Y226746D01*
X19972Y226393D01*
X21000Y226257D01*
X22028Y226393D01*
X22986Y226789D01*
X23808Y227420D01*
X24439Y228243D01*
X24836Y229201D01*
X24971Y230228D01*
Y233772D01*
X24836Y234799D01*
X24439Y235757D01*
X23808Y236580D01*
X22986Y237211D01*
X22028Y237607D01*
X21000Y237743D01*
D02*
G37*
G36*
X11000D02*
X9972Y237607D01*
X9014Y237211D01*
X8192Y236580D01*
X7561Y235757D01*
X7164Y234799D01*
X7029Y233772D01*
Y230228D01*
X7164Y229201D01*
X7561Y228243D01*
X8192Y227420D01*
X9014Y226789D01*
X9972Y226393D01*
X11000Y226257D01*
X12028Y226393D01*
X12986Y226789D01*
X13808Y227420D01*
X14439Y228243D01*
X14836Y229201D01*
X14971Y230228D01*
Y233772D01*
X14836Y234799D01*
X14439Y235757D01*
X13808Y236580D01*
X12986Y237211D01*
X12028Y237607D01*
X11000Y237743D01*
D02*
G37*
G36*
X23773Y208150D02*
X23727D01*
Y204500D01*
X27377D01*
Y204546D01*
X27094Y205602D01*
X26548Y206548D01*
X25775Y207320D01*
X24829Y207867D01*
X23773Y208150D01*
D02*
G37*
G36*
X22727D02*
X22681D01*
X21625Y207867D01*
X20679Y207320D01*
X19907Y206548D01*
X19360Y205602D01*
X19078Y204546D01*
Y204500D01*
X22727D01*
Y208150D01*
D02*
G37*
G36*
X220500Y208891D02*
Y203500D01*
X224185D01*
Y204772D01*
X224043Y205855D01*
X223625Y206864D01*
X222959Y207731D01*
X222093Y208396D01*
X221083Y208815D01*
X220500Y208891D01*
D02*
G37*
G36*
X219500D02*
X218917Y208815D01*
X217907Y208396D01*
X217040Y207731D01*
X216375Y206864D01*
X215957Y205855D01*
X215815Y204772D01*
Y203500D01*
X219500D01*
Y208891D01*
D02*
G37*
G36*
X13745Y207937D02*
X12709D01*
X11708Y207669D01*
X10810Y207150D01*
X10077Y206417D01*
X9558Y205520D01*
X9290Y204518D01*
Y203482D01*
X9558Y202480D01*
X10077Y201583D01*
X10810Y200850D01*
X11708Y200331D01*
X12709Y200063D01*
X13745D01*
X14747Y200331D01*
X15644Y200850D01*
X16377Y201583D01*
X16896Y202480D01*
X17164Y203482D01*
Y204518D01*
X16896Y205520D01*
X16377Y206417D01*
X15644Y207150D01*
X14747Y207669D01*
X13745Y207937D01*
D02*
G37*
G36*
X27377Y203500D02*
X23727D01*
Y199850D01*
X23773D01*
X24829Y200133D01*
X25775Y200679D01*
X26548Y201452D01*
X27094Y202398D01*
X27377Y203454D01*
Y203500D01*
D02*
G37*
G36*
X22727D02*
X19078D01*
Y203454D01*
X19360Y202398D01*
X19907Y201452D01*
X20679Y200679D01*
X21625Y200133D01*
X22681Y199850D01*
X22727D01*
Y203500D01*
D02*
G37*
G36*
X170000Y208743D02*
X168972Y208607D01*
X168015Y208211D01*
X167192Y207580D01*
X166561Y206757D01*
X166164Y205799D01*
X166029Y204772D01*
Y201228D01*
X166164Y200201D01*
X166561Y199243D01*
X167192Y198420D01*
X168015Y197789D01*
X168972Y197393D01*
X170000Y197257D01*
X171028Y197393D01*
X171985Y197789D01*
X172808Y198420D01*
X173439Y199243D01*
X173836Y200201D01*
X173971Y201228D01*
Y204772D01*
X173836Y205799D01*
X173439Y206757D01*
X172808Y207580D01*
X171985Y208211D01*
X171028Y208607D01*
X170000Y208743D01*
D02*
G37*
G36*
X160000D02*
X158972Y208607D01*
X158015Y208211D01*
X157192Y207580D01*
X156561Y206757D01*
X156164Y205799D01*
X156029Y204772D01*
Y201228D01*
X156164Y200201D01*
X156561Y199243D01*
X157192Y198420D01*
X158015Y197789D01*
X158972Y197393D01*
X160000Y197257D01*
X161028Y197393D01*
X161986Y197789D01*
X162808Y198420D01*
X163439Y199243D01*
X163836Y200201D01*
X163971Y201228D01*
Y204772D01*
X163836Y205799D01*
X163439Y206757D01*
X162808Y207580D01*
X161986Y208211D01*
X161028Y208607D01*
X160000Y208743D01*
D02*
G37*
G36*
X120000D02*
X118972Y208607D01*
X118015Y208211D01*
X117192Y207580D01*
X116561Y206757D01*
X116164Y205799D01*
X116029Y204772D01*
Y201228D01*
X116164Y200201D01*
X116561Y199243D01*
X117192Y198420D01*
X118015Y197789D01*
X118972Y197393D01*
X120000Y197257D01*
X121028Y197393D01*
X121985Y197789D01*
X122808Y198420D01*
X123439Y199243D01*
X123836Y200201D01*
X123971Y201228D01*
Y204772D01*
X123836Y205799D01*
X123439Y206757D01*
X122808Y207580D01*
X121985Y208211D01*
X121028Y208607D01*
X120000Y208743D01*
D02*
G37*
G36*
X110000D02*
X108972Y208607D01*
X108015Y208211D01*
X107192Y207580D01*
X106561Y206757D01*
X106164Y205799D01*
X106029Y204772D01*
Y201228D01*
X106164Y200201D01*
X106561Y199243D01*
X107192Y198420D01*
X108015Y197789D01*
X108972Y197393D01*
X110000Y197257D01*
X111028Y197393D01*
X111986Y197789D01*
X112808Y198420D01*
X113439Y199243D01*
X113836Y200201D01*
X113971Y201228D01*
Y204772D01*
X113836Y205799D01*
X113439Y206757D01*
X112808Y207580D01*
X111986Y208211D01*
X111028Y208607D01*
X110000Y208743D01*
D02*
G37*
G36*
X100000D02*
X98972Y208607D01*
X98014Y208211D01*
X97192Y207580D01*
X96561Y206757D01*
X96164Y205799D01*
X96029Y204772D01*
Y201228D01*
X96164Y200201D01*
X96561Y199243D01*
X97192Y198420D01*
X98014Y197789D01*
X98972Y197393D01*
X100000Y197257D01*
X101028Y197393D01*
X101986Y197789D01*
X102808Y198420D01*
X103439Y199243D01*
X103836Y200201D01*
X103971Y201228D01*
Y204772D01*
X103836Y205799D01*
X103439Y206757D01*
X102808Y207580D01*
X101986Y208211D01*
X101028Y208607D01*
X100000Y208743D01*
D02*
G37*
G36*
X224185Y202500D02*
X220000D01*
X215815D01*
Y201228D01*
X215957Y200145D01*
X216375Y199136D01*
X217040Y198269D01*
X217907Y197604D01*
X218917Y197186D01*
X219225Y197145D01*
Y196641D01*
X218972Y196607D01*
X218015Y196211D01*
X217192Y195580D01*
X216561Y194757D01*
X216164Y193799D01*
X216029Y192772D01*
Y189228D01*
X216164Y188201D01*
X216561Y187243D01*
X217192Y186420D01*
X218015Y185789D01*
X218972Y185393D01*
X220000Y185257D01*
X221028Y185393D01*
X221986Y185789D01*
X222808Y186420D01*
X223439Y187243D01*
X223836Y188201D01*
X223971Y189228D01*
Y192772D01*
X223836Y193799D01*
X223439Y194757D01*
X222808Y195580D01*
X221986Y196211D01*
X221028Y196607D01*
X220775Y196641D01*
Y197145D01*
X221083Y197186D01*
X222093Y197604D01*
X222959Y198269D01*
X223625Y199136D01*
X224043Y200145D01*
X224185Y201228D01*
Y202500D01*
D02*
G37*
G36*
X210000Y196743D02*
X208972Y196607D01*
X208014Y196211D01*
X207192Y195580D01*
X206561Y194757D01*
X206164Y193799D01*
X206029Y192772D01*
Y189228D01*
X206164Y188201D01*
X206561Y187243D01*
X207192Y186420D01*
X208014Y185789D01*
X208972Y185393D01*
X210000Y185257D01*
X211028Y185393D01*
X211985Y185789D01*
X212808Y186420D01*
X213439Y187243D01*
X213836Y188201D01*
X213971Y189228D01*
Y192772D01*
X213836Y193799D01*
X213439Y194757D01*
X212808Y195580D01*
X211985Y196211D01*
X211028Y196607D01*
X210000Y196743D01*
D02*
G37*
G36*
X120000D02*
X118972Y196607D01*
X118015Y196211D01*
X117192Y195580D01*
X116561Y194757D01*
X116164Y193799D01*
X116029Y192772D01*
Y189228D01*
X116164Y188201D01*
X116561Y187243D01*
X117192Y186420D01*
X118015Y185789D01*
X118972Y185393D01*
X120000Y185257D01*
X121028Y185393D01*
X121985Y185789D01*
X122808Y186420D01*
X123439Y187243D01*
X123836Y188201D01*
X123971Y189228D01*
Y192772D01*
X123836Y193799D01*
X123439Y194757D01*
X122808Y195580D01*
X121985Y196211D01*
X121028Y196607D01*
X120000Y196743D01*
D02*
G37*
G36*
X110000D02*
X108972Y196607D01*
X108015Y196211D01*
X107192Y195580D01*
X106561Y194757D01*
X106164Y193799D01*
X106029Y192772D01*
Y189228D01*
X106164Y188201D01*
X106561Y187243D01*
X107192Y186420D01*
X108015Y185789D01*
X108972Y185393D01*
X110000Y185257D01*
X111028Y185393D01*
X111986Y185789D01*
X112808Y186420D01*
X113439Y187243D01*
X113836Y188201D01*
X113971Y189228D01*
Y192772D01*
X113836Y193799D01*
X113439Y194757D01*
X112808Y195580D01*
X111986Y196211D01*
X111028Y196607D01*
X110000Y196743D01*
D02*
G37*
G36*
X110546Y179274D02*
X110500D01*
Y175625D01*
X114150D01*
Y175671D01*
X113867Y176726D01*
X113321Y177673D01*
X112548Y178445D01*
X111602Y178991D01*
X110546Y179274D01*
D02*
G37*
G36*
X11000Y194971D02*
X9972Y194836D01*
X9014Y194439D01*
X8192Y193808D01*
X7561Y192985D01*
X7164Y192028D01*
X7029Y191000D01*
Y187457D01*
X7164Y186429D01*
X7561Y185471D01*
X8192Y184649D01*
X9014Y184018D01*
X9972Y183621D01*
X11000Y183486D01*
X12028Y183621D01*
X12720Y183908D01*
X17359Y179269D01*
X17164Y178799D01*
X17029Y177772D01*
Y174228D01*
X17164Y173201D01*
X17517Y172350D01*
X17093Y172066D01*
X14966Y174193D01*
X14971Y174228D01*
Y177772D01*
X14836Y178799D01*
X14439Y179757D01*
X13808Y180580D01*
X12986Y181211D01*
X12028Y181607D01*
X11000Y181743D01*
X9972Y181607D01*
X9014Y181211D01*
X8192Y180580D01*
X7561Y179757D01*
X7164Y178799D01*
X7029Y177772D01*
Y174228D01*
X7164Y173201D01*
X7561Y172243D01*
X8192Y171420D01*
X9014Y170789D01*
X9972Y170393D01*
X11000Y170257D01*
X11035Y170262D01*
X20213Y161085D01*
Y160505D01*
X20481Y159504D01*
X20999Y158606D01*
X21732Y157873D01*
X22630Y157355D01*
X23631Y157087D01*
X24668D01*
X25669Y157355D01*
X26567Y157873D01*
X27300Y158606D01*
X27818Y159504D01*
X28087Y160505D01*
Y161542D01*
X27818Y162543D01*
X27300Y163441D01*
X26567Y164174D01*
X25669Y164692D01*
X24668Y164961D01*
X24199D01*
X18838Y170321D01*
X19121Y170745D01*
X19972Y170393D01*
X21000Y170257D01*
X22028Y170393D01*
X22986Y170789D01*
X23808Y171420D01*
X24439Y172243D01*
X24836Y173201D01*
X24971Y174228D01*
Y177772D01*
X24836Y178799D01*
X24439Y179757D01*
X23808Y180580D01*
X22986Y181211D01*
X22028Y181607D01*
X21000Y181743D01*
X19972Y181607D01*
X19280Y181321D01*
X14641Y185960D01*
X14836Y186429D01*
X14971Y187457D01*
Y191000D01*
X14836Y192028D01*
X14439Y192985D01*
X13808Y193808D01*
X12986Y194439D01*
X12028Y194836D01*
X11000Y194971D01*
D02*
G37*
G36*
X114150Y174625D02*
X110500D01*
Y170975D01*
X110546D01*
X111602Y171258D01*
X112548Y171804D01*
X113321Y172577D01*
X113867Y173523D01*
X114150Y174578D01*
Y174625D01*
D02*
G37*
G36*
X31000Y181743D02*
X29972Y181607D01*
X29015Y181211D01*
X28192Y180580D01*
X27561Y179757D01*
X27164Y178799D01*
X27029Y177772D01*
Y174228D01*
X27164Y173201D01*
X27561Y172243D01*
X28192Y171420D01*
X29015Y170789D01*
X29972Y170393D01*
X31000Y170257D01*
X32028Y170393D01*
X32985Y170789D01*
X33808Y171420D01*
X34439Y172243D01*
X34836Y173201D01*
X34971Y174228D01*
Y177772D01*
X34836Y178799D01*
X34439Y179757D01*
X33808Y180580D01*
X32985Y181211D01*
X32028Y181607D01*
X31000Y181743D01*
D02*
G37*
G36*
X104028Y165317D02*
Y162878D01*
X106467D01*
X106294Y163524D01*
X105903Y164201D01*
X105350Y164753D01*
X104673Y165144D01*
X104028Y165317D01*
D02*
G37*
G36*
X103028D02*
X102382Y165144D01*
X101705Y164753D01*
X101152Y164201D01*
X100761Y163524D01*
X100588Y162878D01*
X103028D01*
Y165317D01*
D02*
G37*
G36*
X34696Y165173D02*
X34650D01*
Y161524D01*
X38299D01*
Y161570D01*
X38016Y162625D01*
X37470Y163572D01*
X36698Y164344D01*
X35751Y164890D01*
X34696Y165173D01*
D02*
G37*
G36*
X33650D02*
X33603D01*
X32548Y164890D01*
X31602Y164344D01*
X30829Y163572D01*
X30283Y162625D01*
X30000Y161570D01*
Y161524D01*
X33650D01*
Y165173D01*
D02*
G37*
G36*
X47657Y164347D02*
Y161500D01*
X50504D01*
X50291Y162298D01*
X49848Y163064D01*
X49222Y163690D01*
X48455Y164133D01*
X47657Y164347D01*
D02*
G37*
G36*
X46657D02*
X45860Y164133D01*
X45093Y163690D01*
X44467Y163064D01*
X44024Y162298D01*
X43811Y161500D01*
X46657D01*
Y164347D01*
D02*
G37*
G36*
X50504Y160500D02*
X47657D01*
Y157653D01*
X48455Y157867D01*
X49222Y158310D01*
X49848Y158936D01*
X50291Y159702D01*
X50504Y160500D01*
D02*
G37*
G36*
X46657D02*
X43811D01*
X44024Y159702D01*
X44467Y158936D01*
X45093Y158310D01*
X45860Y157867D01*
X46657Y157653D01*
Y160500D01*
D02*
G37*
G36*
X38299Y160524D02*
X34650D01*
Y156874D01*
X34696D01*
X35751Y157157D01*
X36698Y157703D01*
X37470Y158476D01*
X38016Y159422D01*
X38299Y160477D01*
Y160524D01*
D02*
G37*
G36*
X33650D02*
X30000D01*
Y160477D01*
X30283Y159422D01*
X30829Y158476D01*
X31602Y157703D01*
X32548Y157157D01*
X33603Y156874D01*
X33650D01*
Y160524D01*
D02*
G37*
G36*
X71500Y151891D02*
Y146500D01*
X75185D01*
Y147772D01*
X75043Y148855D01*
X74625Y149864D01*
X73959Y150731D01*
X73093Y151396D01*
X72083Y151814D01*
X71500Y151891D01*
D02*
G37*
G36*
X70500D02*
X69917Y151814D01*
X68907Y151396D01*
X68041Y150731D01*
X67375Y149864D01*
X66957Y148855D01*
X66815Y147772D01*
Y146500D01*
X70500D01*
Y151891D01*
D02*
G37*
G36*
X4200Y141741D02*
Y140300D01*
X5641D01*
X5382Y140924D01*
X4824Y141482D01*
X4200Y141741D01*
D02*
G37*
G36*
X3200D02*
X2576Y141482D01*
X2018Y140924D01*
X1759Y140300D01*
X3200D01*
Y141741D01*
D02*
G37*
G36*
X41000Y151743D02*
X39972Y151607D01*
X39015Y151211D01*
X38192Y150580D01*
X37561Y149757D01*
X37164Y148799D01*
X37029Y147772D01*
Y144228D01*
X37164Y143201D01*
X37561Y142243D01*
X38192Y141420D01*
X39015Y140789D01*
X39972Y140393D01*
X41000Y140257D01*
X42028Y140393D01*
X42985Y140789D01*
X43808Y141420D01*
X44439Y142243D01*
X44836Y143201D01*
X44971Y144228D01*
Y147772D01*
X44836Y148799D01*
X44439Y149757D01*
X43808Y150580D01*
X42985Y151211D01*
X42028Y151607D01*
X41000Y151743D01*
D02*
G37*
G36*
X31000D02*
X29972Y151607D01*
X29015Y151211D01*
X28192Y150580D01*
X27561Y149757D01*
X27164Y148799D01*
X27029Y147772D01*
Y144228D01*
X27164Y143201D01*
X27561Y142243D01*
X28192Y141420D01*
X29015Y140789D01*
X29972Y140393D01*
X31000Y140257D01*
X32028Y140393D01*
X32985Y140789D01*
X33808Y141420D01*
X34439Y142243D01*
X34836Y143201D01*
X34971Y144228D01*
Y147772D01*
X34836Y148799D01*
X34439Y149757D01*
X33808Y150580D01*
X32985Y151211D01*
X32028Y151607D01*
X31000Y151743D01*
D02*
G37*
G36*
X21000D02*
X19972Y151607D01*
X19015Y151211D01*
X18192Y150580D01*
X17561Y149757D01*
X17164Y148799D01*
X17029Y147772D01*
Y144228D01*
X17164Y143201D01*
X17561Y142243D01*
X18192Y141420D01*
X19015Y140789D01*
X19972Y140393D01*
X21000Y140257D01*
X22028Y140393D01*
X22986Y140789D01*
X23808Y141420D01*
X24439Y142243D01*
X24836Y143201D01*
X24971Y144228D01*
Y147772D01*
X24836Y148799D01*
X24439Y149757D01*
X23808Y150580D01*
X22986Y151211D01*
X22028Y151607D01*
X21000Y151743D01*
D02*
G37*
G36*
X75185Y145500D02*
X71500D01*
Y140109D01*
X72083Y140185D01*
X73093Y140604D01*
X73959Y141269D01*
X74625Y142136D01*
X75043Y143145D01*
X75185Y144228D01*
Y145500D01*
D02*
G37*
G36*
X70500D02*
X66815D01*
Y144228D01*
X66957Y143145D01*
X67375Y142136D01*
X68041Y141269D01*
X68907Y140604D01*
X69917Y140185D01*
X70500Y140109D01*
Y145500D01*
D02*
G37*
G36*
X5641Y139300D02*
X4200D01*
Y137859D01*
X4824Y138118D01*
X5382Y138676D01*
X5641Y139300D01*
D02*
G37*
G36*
X3200D02*
X1759D01*
X2018Y138676D01*
X2576Y138118D01*
X3200Y137859D01*
Y139300D01*
D02*
G37*
G36*
X120722Y142641D02*
X89741D01*
X89204Y142534D01*
X88748Y142230D01*
X82511Y135992D01*
X82206Y135536D01*
X82099Y134999D01*
Y114538D01*
X82206Y114000D01*
X82285Y113881D01*
Y113069D01*
X82248Y113031D01*
X81948Y112308D01*
Y111525D01*
X82248Y110801D01*
X82801Y110248D01*
X83525Y109948D01*
X84308D01*
X85031Y110248D01*
X85585Y110801D01*
X85885Y111525D01*
Y112246D01*
X86046Y112372D01*
X86347Y112492D01*
X87461Y111378D01*
Y110767D01*
X87078Y110385D01*
X87025D01*
X86301Y110085D01*
X85748Y109531D01*
X85448Y108808D01*
Y108025D01*
X85748Y107301D01*
X86301Y106748D01*
X87025Y106448D01*
X87808D01*
X88532Y106748D01*
X89085Y107301D01*
X89385Y108025D01*
Y108718D01*
X89859Y109192D01*
X90164Y109648D01*
X90271Y110185D01*
Y111960D01*
X90164Y112497D01*
X89979Y112774D01*
X89981Y112811D01*
X90181Y113250D01*
X90221Y113286D01*
X91028Y113393D01*
X91985Y113789D01*
X92808Y114420D01*
X93439Y115243D01*
X93836Y116201D01*
X93971Y117228D01*
Y120772D01*
X93836Y121799D01*
X93439Y122757D01*
X92808Y123580D01*
X91985Y124211D01*
X91028Y124607D01*
X90000Y124743D01*
X88972Y124607D01*
X88015Y124211D01*
X87721Y123985D01*
X87177Y124198D01*
X87144Y124385D01*
X88050Y125291D01*
X93937D01*
Y136709D01*
X87854D01*
X87663Y137171D01*
X90323Y139831D01*
X120140D01*
X121965Y138006D01*
X122421Y137702D01*
X122958Y137595D01*
X131771D01*
X132035Y137331D01*
X132758Y137031D01*
X133541D01*
X134265Y137331D01*
X134818Y137885D01*
X135118Y138608D01*
Y139392D01*
X134818Y140115D01*
X134265Y140669D01*
X133541Y140969D01*
X132758D01*
X132035Y140669D01*
X131771Y140405D01*
X123540D01*
X121716Y142230D01*
X121260Y142534D01*
X120722Y142641D01*
D02*
G37*
G36*
X41000Y138743D02*
X39972Y138607D01*
X39015Y138211D01*
X38192Y137580D01*
X37561Y136757D01*
X37164Y135799D01*
X37029Y134772D01*
Y134405D01*
X34971D01*
Y134772D01*
X34836Y135799D01*
X34439Y136757D01*
X33808Y137580D01*
X32985Y138211D01*
X32028Y138607D01*
X31000Y138743D01*
X29972Y138607D01*
X29015Y138211D01*
X28192Y137580D01*
X27561Y136757D01*
X27164Y135799D01*
X27029Y134772D01*
Y131228D01*
X27164Y130201D01*
X27561Y129243D01*
X28192Y128420D01*
X29015Y127789D01*
X29972Y127393D01*
X31000Y127257D01*
X32028Y127393D01*
X32985Y127789D01*
X33808Y128420D01*
X34439Y129243D01*
X34836Y130201D01*
X34971Y131228D01*
Y131595D01*
X37029D01*
Y131228D01*
X37164Y130201D01*
X37539Y129296D01*
X37451Y129120D01*
X37308Y128960D01*
Y126401D01*
X39747D01*
X39584Y127013D01*
X39683Y127170D01*
X39903Y127421D01*
X39972Y127393D01*
X41000Y127257D01*
X42028Y127393D01*
X42985Y127789D01*
X43808Y128420D01*
X44439Y129243D01*
X44836Y130201D01*
X44971Y131228D01*
Y134772D01*
X44836Y135799D01*
X44439Y136757D01*
X43808Y137580D01*
X42985Y138211D01*
X42028Y138607D01*
X41000Y138743D01*
D02*
G37*
G36*
X220500Y136891D02*
Y131500D01*
X224185D01*
Y132772D01*
X224043Y133855D01*
X223625Y134864D01*
X222959Y135731D01*
X222093Y136396D01*
X221083Y136814D01*
X220500Y136891D01*
D02*
G37*
G36*
X51000Y138743D02*
X49972Y138607D01*
X49014Y138211D01*
X48192Y137580D01*
X47561Y136757D01*
X47164Y135799D01*
X47029Y134772D01*
Y131228D01*
X47164Y130201D01*
X47561Y129243D01*
X48192Y128420D01*
X49014Y127789D01*
X49972Y127393D01*
X51000Y127257D01*
X52028Y127393D01*
X52986Y127789D01*
X53808Y128420D01*
X54439Y129243D01*
X54836Y130201D01*
X54971Y131228D01*
Y134772D01*
X54836Y135799D01*
X54439Y136757D01*
X53808Y137580D01*
X52986Y138211D01*
X52028Y138607D01*
X51000Y138743D01*
D02*
G37*
G36*
X21000D02*
X19972Y138607D01*
X19015Y138211D01*
X18192Y137580D01*
X17561Y136757D01*
X17164Y135799D01*
X17029Y134772D01*
Y131228D01*
X17164Y130201D01*
X17561Y129243D01*
X18192Y128420D01*
X19015Y127789D01*
X19972Y127393D01*
X21000Y127257D01*
X22028Y127393D01*
X22986Y127789D01*
X23808Y128420D01*
X24439Y129243D01*
X24836Y130201D01*
X24971Y131228D01*
Y134772D01*
X24836Y135799D01*
X24439Y136757D01*
X23808Y137580D01*
X22986Y138211D01*
X22028Y138607D01*
X21000Y138743D01*
D02*
G37*
G36*
X11000D02*
X9972Y138607D01*
X9014Y138211D01*
X8192Y137580D01*
X7561Y136757D01*
X7164Y135799D01*
X7029Y134772D01*
Y131228D01*
X7164Y130201D01*
X7561Y129243D01*
X8192Y128420D01*
X9014Y127789D01*
X9972Y127393D01*
X11000Y127257D01*
X12028Y127393D01*
X12986Y127789D01*
X13808Y128420D01*
X14439Y129243D01*
X14836Y130201D01*
X14971Y131228D01*
Y134772D01*
X14836Y135799D01*
X14439Y136757D01*
X13808Y137580D01*
X12986Y138211D01*
X12028Y138607D01*
X11000Y138743D01*
D02*
G37*
G36*
X36308Y128840D02*
X35662Y128667D01*
X34985Y128276D01*
X34433Y127724D01*
X34042Y127047D01*
X33869Y126401D01*
X36308D01*
Y128840D01*
D02*
G37*
G36*
X190000Y136743D02*
X188972Y136607D01*
X188014Y136211D01*
X187192Y135580D01*
X186561Y134757D01*
X186164Y133799D01*
X186029Y132772D01*
Y129228D01*
X186164Y128201D01*
X186561Y127243D01*
X187192Y126420D01*
X188014Y125789D01*
X188972Y125393D01*
X190000Y125257D01*
X191028Y125393D01*
X191985Y125789D01*
X192808Y126420D01*
X193439Y127243D01*
X193836Y128201D01*
X193971Y129228D01*
Y132772D01*
X193836Y133799D01*
X193439Y134757D01*
X192808Y135580D01*
X191985Y136211D01*
X191028Y136607D01*
X190000Y136743D01*
D02*
G37*
G36*
X160000D02*
X158972Y136607D01*
X158015Y136211D01*
X157192Y135580D01*
X156561Y134757D01*
X156164Y133799D01*
X156029Y132772D01*
Y129228D01*
X156164Y128201D01*
X156561Y127243D01*
X157192Y126420D01*
X158015Y125789D01*
X158972Y125393D01*
X160000Y125257D01*
X161028Y125393D01*
X161986Y125789D01*
X162808Y126420D01*
X163439Y127243D01*
X163836Y128201D01*
X163971Y129228D01*
Y132772D01*
X163836Y133799D01*
X163439Y134757D01*
X162808Y135580D01*
X161986Y136211D01*
X161028Y136607D01*
X160000Y136743D01*
D02*
G37*
G36*
X150000D02*
X148972Y136607D01*
X148014Y136211D01*
X147192Y135580D01*
X146561Y134757D01*
X146164Y133799D01*
X146029Y132772D01*
Y129228D01*
X146164Y128201D01*
X146561Y127243D01*
X147192Y126420D01*
X148014Y125789D01*
X148972Y125393D01*
X150000Y125257D01*
X151028Y125393D01*
X151986Y125789D01*
X152808Y126420D01*
X153439Y127243D01*
X153836Y128201D01*
X153971Y129228D01*
Y132772D01*
X153836Y133799D01*
X153439Y134757D01*
X152808Y135580D01*
X151986Y136211D01*
X151028Y136607D01*
X150000Y136743D01*
D02*
G37*
G36*
X140000D02*
X138972Y136607D01*
X138014Y136211D01*
X137192Y135580D01*
X136561Y134757D01*
X136164Y133799D01*
X136029Y132772D01*
Y129228D01*
X136164Y128201D01*
X136561Y127243D01*
X137192Y126420D01*
X138014Y125789D01*
X138972Y125393D01*
X140000Y125257D01*
X141028Y125393D01*
X141985Y125789D01*
X142808Y126420D01*
X143439Y127243D01*
X143836Y128201D01*
X143971Y129228D01*
Y132772D01*
X143836Y133799D01*
X143439Y134757D01*
X142808Y135580D01*
X141985Y136211D01*
X141028Y136607D01*
X140000Y136743D01*
D02*
G37*
G36*
X130000D02*
X128972Y136607D01*
X128015Y136211D01*
X127192Y135580D01*
X126561Y134757D01*
X126164Y133799D01*
X126029Y132772D01*
Y129228D01*
X126164Y128201D01*
X126561Y127243D01*
X127192Y126420D01*
X128015Y125789D01*
X128972Y125393D01*
X130000Y125257D01*
X131028Y125393D01*
X131985Y125789D01*
X132808Y126420D01*
X133439Y127243D01*
X133836Y128201D01*
X133971Y129228D01*
Y132772D01*
X133836Y133799D01*
X133439Y134757D01*
X132808Y135580D01*
X131985Y136211D01*
X131028Y136607D01*
X130000Y136743D01*
D02*
G37*
G36*
X120000D02*
X118972Y136607D01*
X118015Y136211D01*
X117192Y135580D01*
X116561Y134757D01*
X116164Y133799D01*
X116029Y132772D01*
Y129228D01*
X116164Y128201D01*
X116561Y127243D01*
X117192Y126420D01*
X118015Y125789D01*
X118972Y125393D01*
X120000Y125257D01*
X121028Y125393D01*
X121985Y125789D01*
X122808Y126420D01*
X123439Y127243D01*
X123836Y128201D01*
X123971Y129228D01*
Y132772D01*
X123836Y133799D01*
X123439Y134757D01*
X122808Y135580D01*
X121985Y136211D01*
X121028Y136607D01*
X120000Y136743D01*
D02*
G37*
G36*
X110000D02*
X108972Y136607D01*
X108015Y136211D01*
X107192Y135580D01*
X106561Y134757D01*
X106164Y133799D01*
X106029Y132772D01*
Y129228D01*
X106164Y128201D01*
X106561Y127243D01*
X107192Y126420D01*
X108015Y125789D01*
X108972Y125393D01*
X110000Y125257D01*
X111028Y125393D01*
X111986Y125789D01*
X112808Y126420D01*
X113439Y127243D01*
X113836Y128201D01*
X113971Y129228D01*
Y132772D01*
X113836Y133799D01*
X113439Y134757D01*
X112808Y135580D01*
X111986Y136211D01*
X111028Y136607D01*
X110000Y136743D01*
D02*
G37*
G36*
X100000D02*
X98972Y136607D01*
X98014Y136211D01*
X97192Y135580D01*
X96561Y134757D01*
X96164Y133799D01*
X96029Y132772D01*
Y129228D01*
X96164Y128201D01*
X96561Y127243D01*
X97192Y126420D01*
X98014Y125789D01*
X98972Y125393D01*
X100000Y125257D01*
X101028Y125393D01*
X101986Y125789D01*
X102808Y126420D01*
X103439Y127243D01*
X103836Y128201D01*
X103971Y129228D01*
Y132772D01*
X103836Y133799D01*
X103439Y134757D01*
X102808Y135580D01*
X101986Y136211D01*
X101028Y136607D01*
X100000Y136743D01*
D02*
G37*
G36*
X39747Y125401D02*
X37308D01*
Y122962D01*
X37954Y123135D01*
X38631Y123526D01*
X39184Y124078D01*
X39574Y124755D01*
X39747Y125401D01*
D02*
G37*
G36*
X36308D02*
X33869D01*
X34042Y124755D01*
X34433Y124078D01*
X34985Y123526D01*
X35662Y123135D01*
X36308Y122962D01*
Y125401D01*
D02*
G37*
G36*
X170000Y124743D02*
X168972Y124607D01*
X168015Y124211D01*
X167192Y123580D01*
X166561Y122757D01*
X166164Y121799D01*
X166029Y120772D01*
Y120405D01*
X165551D01*
X165014Y120298D01*
X164558Y119993D01*
X164433Y119869D01*
X163971Y120060D01*
Y120772D01*
X163836Y121799D01*
X163439Y122757D01*
X162808Y123580D01*
X161986Y124211D01*
X161028Y124607D01*
X160000Y124743D01*
X158972Y124607D01*
X158015Y124211D01*
X157192Y123580D01*
X156561Y122757D01*
X156164Y121799D01*
X156029Y120772D01*
Y120060D01*
X155567Y119869D01*
X155442Y119993D01*
X154987Y120298D01*
X154449Y120405D01*
X153971D01*
Y120772D01*
X153836Y121799D01*
X153439Y122757D01*
X152808Y123580D01*
X151986Y124211D01*
X151028Y124607D01*
X150000Y124743D01*
X148972Y124607D01*
X148014Y124211D01*
X147192Y123580D01*
X146561Y122757D01*
X146164Y121799D01*
X146029Y120772D01*
Y117228D01*
X146164Y116201D01*
X146561Y115243D01*
X147192Y114420D01*
X148014Y113789D01*
X148972Y113393D01*
X150000Y113257D01*
X151028Y113393D01*
X151986Y113789D01*
X152808Y114420D01*
X153439Y115243D01*
X153568Y115553D01*
X154068Y115454D01*
Y115353D01*
X154174Y114815D01*
X154479Y114359D01*
X157131Y111707D01*
X157587Y111403D01*
X158125Y111296D01*
X161875D01*
X162413Y111403D01*
X162869Y111707D01*
X165521Y114359D01*
X165826Y114815D01*
X165933Y115353D01*
Y115454D01*
X166432Y115553D01*
X166561Y115243D01*
X167192Y114420D01*
X168015Y113789D01*
X168972Y113393D01*
X170000Y113257D01*
X171028Y113393D01*
X171985Y113789D01*
X172808Y114420D01*
X173439Y115243D01*
X173836Y116201D01*
X173971Y117228D01*
Y120772D01*
X173836Y121799D01*
X173439Y122757D01*
X172808Y123580D01*
X171985Y124211D01*
X171028Y124607D01*
X170000Y124743D01*
D02*
G37*
G36*
X33015Y122155D02*
X32968D01*
Y118506D01*
X36618D01*
Y118552D01*
X36335Y119608D01*
X35789Y120554D01*
X35016Y121326D01*
X34070Y121873D01*
X33015Y122155D01*
D02*
G37*
G36*
X31968D02*
X31922D01*
X30867Y121873D01*
X29920Y121326D01*
X29148Y120554D01*
X28601Y119608D01*
X28319Y118552D01*
Y118506D01*
X31968D01*
Y122155D01*
D02*
G37*
G36*
X10200Y119541D02*
Y118100D01*
X11641D01*
X11382Y118724D01*
X10824Y119282D01*
X10200Y119541D01*
D02*
G37*
G36*
X9200D02*
X8576Y119282D01*
X8018Y118724D01*
X7759Y118100D01*
X9200D01*
Y119541D01*
D02*
G37*
G36*
X11641Y117100D02*
X10200D01*
Y115659D01*
X10824Y115918D01*
X11382Y116476D01*
X11641Y117100D01*
D02*
G37*
G36*
X9200D02*
X7759D01*
X8018Y116476D01*
X8576Y115918D01*
X9200Y115659D01*
Y117100D01*
D02*
G37*
G36*
X22986Y121943D02*
X21950D01*
X20949Y121675D01*
X20051Y121156D01*
X19318Y120423D01*
X18800Y119526D01*
X18531Y118524D01*
Y117488D01*
X18800Y116486D01*
X19318Y115589D01*
X20051Y114856D01*
X20949Y114337D01*
X21950Y114069D01*
X22986D01*
X23988Y114337D01*
X24886Y114856D01*
X25619Y115589D01*
X26137Y116486D01*
X26405Y117488D01*
Y118524D01*
X26137Y119526D01*
X25619Y120423D01*
X24886Y121156D01*
X23988Y121675D01*
X22986Y121943D01*
D02*
G37*
G36*
X36618Y117506D02*
X32968D01*
Y113856D01*
X33015D01*
X34070Y114139D01*
X35016Y114685D01*
X35789Y115458D01*
X36335Y116404D01*
X36618Y117460D01*
Y117506D01*
D02*
G37*
G36*
X31968D02*
X28319D01*
Y117460D01*
X28601Y116404D01*
X29148Y115458D01*
X29920Y114685D01*
X30867Y114139D01*
X31922Y113856D01*
X31968D01*
Y117506D01*
D02*
G37*
G36*
X200000Y124743D02*
X198972Y124607D01*
X198014Y124211D01*
X197192Y123580D01*
X196561Y122757D01*
X196164Y121799D01*
X196029Y120772D01*
Y117228D01*
X196164Y116201D01*
X196561Y115243D01*
X197192Y114420D01*
X198014Y113789D01*
X198972Y113393D01*
X200000Y113257D01*
X201028Y113393D01*
X201986Y113789D01*
X202808Y114420D01*
X203439Y115243D01*
X203836Y116201D01*
X203971Y117228D01*
Y120772D01*
X203836Y121799D01*
X203439Y122757D01*
X202808Y123580D01*
X201986Y124211D01*
X201028Y124607D01*
X200000Y124743D01*
D02*
G37*
G36*
X190000D02*
X188972Y124607D01*
X188014Y124211D01*
X187192Y123580D01*
X186561Y122757D01*
X186164Y121799D01*
X186029Y120772D01*
Y117228D01*
X186164Y116201D01*
X186561Y115243D01*
X187192Y114420D01*
X188014Y113789D01*
X188972Y113393D01*
X190000Y113257D01*
X191028Y113393D01*
X191985Y113789D01*
X192808Y114420D01*
X193439Y115243D01*
X193836Y116201D01*
X193971Y117228D01*
Y120772D01*
X193836Y121799D01*
X193439Y122757D01*
X192808Y123580D01*
X191985Y124211D01*
X191028Y124607D01*
X190000Y124743D01*
D02*
G37*
G36*
X140000D02*
X138972Y124607D01*
X138014Y124211D01*
X137192Y123580D01*
X136561Y122757D01*
X136164Y121799D01*
X136029Y120772D01*
Y117228D01*
X136164Y116201D01*
X136561Y115243D01*
X137192Y114420D01*
X138014Y113789D01*
X138972Y113393D01*
X140000Y113257D01*
X141028Y113393D01*
X141985Y113789D01*
X142808Y114420D01*
X143439Y115243D01*
X143836Y116201D01*
X143971Y117228D01*
Y120772D01*
X143836Y121799D01*
X143439Y122757D01*
X142808Y123580D01*
X141985Y124211D01*
X141028Y124607D01*
X140000Y124743D01*
D02*
G37*
G36*
X130000D02*
X128972Y124607D01*
X128015Y124211D01*
X127192Y123580D01*
X126561Y122757D01*
X126164Y121799D01*
X126029Y120772D01*
Y117228D01*
X126164Y116201D01*
X126561Y115243D01*
X127192Y114420D01*
X128015Y113789D01*
X128972Y113393D01*
X130000Y113257D01*
X131028Y113393D01*
X131985Y113789D01*
X132808Y114420D01*
X133439Y115243D01*
X133836Y116201D01*
X133971Y117228D01*
Y120772D01*
X133836Y121799D01*
X133439Y122757D01*
X132808Y123580D01*
X131985Y124211D01*
X131028Y124607D01*
X130000Y124743D01*
D02*
G37*
G36*
X120000D02*
X118972Y124607D01*
X118015Y124211D01*
X117192Y123580D01*
X116561Y122757D01*
X116164Y121799D01*
X116029Y120772D01*
Y117228D01*
X116164Y116201D01*
X116561Y115243D01*
X117192Y114420D01*
X118015Y113789D01*
X118972Y113393D01*
X120000Y113257D01*
X121028Y113393D01*
X121985Y113789D01*
X122808Y114420D01*
X123439Y115243D01*
X123836Y116201D01*
X123971Y117228D01*
Y120772D01*
X123836Y121799D01*
X123439Y122757D01*
X122808Y123580D01*
X121985Y124211D01*
X121028Y124607D01*
X120000Y124743D01*
D02*
G37*
G36*
X110000D02*
X108972Y124607D01*
X108015Y124211D01*
X107192Y123580D01*
X106561Y122757D01*
X106164Y121799D01*
X106029Y120772D01*
Y117228D01*
X106164Y116201D01*
X106561Y115243D01*
X107192Y114420D01*
X108015Y113789D01*
X108972Y113393D01*
X110000Y113257D01*
X111028Y113393D01*
X111986Y113789D01*
X112808Y114420D01*
X113439Y115243D01*
X113836Y116201D01*
X113971Y117228D01*
Y120772D01*
X113836Y121799D01*
X113439Y122757D01*
X112808Y123580D01*
X111986Y124211D01*
X111028Y124607D01*
X110000Y124743D01*
D02*
G37*
G36*
X100000D02*
X98972Y124607D01*
X98014Y124211D01*
X97192Y123580D01*
X96561Y122757D01*
X96164Y121799D01*
X96029Y120772D01*
Y117228D01*
X96164Y116201D01*
X96561Y115243D01*
X97192Y114420D01*
X98014Y113789D01*
X98972Y113393D01*
X100000Y113257D01*
X101028Y113393D01*
X101986Y113789D01*
X102808Y114420D01*
X103439Y115243D01*
X103836Y116201D01*
X103971Y117228D01*
Y120772D01*
X103836Y121799D01*
X103439Y122757D01*
X102808Y123580D01*
X101986Y124211D01*
X101028Y124607D01*
X100000Y124743D01*
D02*
G37*
G36*
X110546Y107150D02*
X110500D01*
Y103500D01*
X114150D01*
Y103546D01*
X113867Y104602D01*
X113321Y105548D01*
X112548Y106321D01*
X111602Y106867D01*
X110546Y107150D01*
D02*
G37*
G36*
X71500Y108891D02*
Y103500D01*
X75185D01*
Y104772D01*
X75043Y105855D01*
X74625Y106864D01*
X73959Y107731D01*
X73093Y108396D01*
X72083Y108815D01*
X71500Y108891D01*
D02*
G37*
G36*
X109500Y107150D02*
X109454D01*
X108398Y106867D01*
X107452Y106321D01*
X106679Y105548D01*
X106133Y104602D01*
X105850Y103546D01*
Y103500D01*
X109500D01*
Y107150D01*
D02*
G37*
G36*
X100518Y106937D02*
X99482D01*
X98480Y106669D01*
X97583Y106150D01*
X96850Y105417D01*
X96331Y104520D01*
X96063Y103518D01*
Y102482D01*
X96331Y101480D01*
X96850Y100583D01*
X97583Y99850D01*
X98480Y99331D01*
X99482Y99063D01*
X100518D01*
X101520Y99331D01*
X102417Y99850D01*
X103150Y100583D01*
X103669Y101480D01*
X103937Y102482D01*
Y103518D01*
X103669Y104520D01*
X103150Y105417D01*
X102417Y106150D01*
X101520Y106669D01*
X100518Y106937D01*
D02*
G37*
G36*
X114150Y102500D02*
X110500D01*
Y98850D01*
X110546D01*
X111602Y99133D01*
X112548Y99679D01*
X113321Y100452D01*
X113867Y101398D01*
X114150Y102454D01*
Y102500D01*
D02*
G37*
G36*
X109500D02*
X105850D01*
Y102454D01*
X106133Y101398D01*
X106679Y100452D01*
X107452Y99679D01*
X108398Y99133D01*
X109454Y98850D01*
X109500D01*
Y102500D01*
D02*
G37*
G36*
X75185D02*
X71500D01*
Y97109D01*
X72083Y97185D01*
X73093Y97604D01*
X73959Y98269D01*
X74625Y99136D01*
X75043Y100145D01*
X75185Y101228D01*
Y102500D01*
D02*
G37*
G36*
X80300Y88441D02*
Y87000D01*
X81741D01*
X81482Y87624D01*
X80924Y88182D01*
X80300Y88441D01*
D02*
G37*
G36*
X79300D02*
X78676Y88182D01*
X78118Y87624D01*
X77859Y87000D01*
X79300D01*
Y88441D01*
D02*
G37*
G36*
X81741Y86000D02*
X80300D01*
Y84559D01*
X80924Y84818D01*
X81482Y85376D01*
X81741Y86000D01*
D02*
G37*
G36*
X79300D02*
X77859D01*
X78118Y85376D01*
X78676Y84818D01*
X79300Y84559D01*
Y86000D01*
D02*
G37*
G36*
X11035Y95743D02*
X10007Y95607D01*
X9049Y95211D01*
X8227Y94580D01*
X7596Y93757D01*
X7199Y92799D01*
X7064Y91772D01*
Y88228D01*
X7199Y87201D01*
X7596Y86243D01*
X8227Y85420D01*
X9049Y84789D01*
X10007Y84393D01*
X11035Y84257D01*
X12062Y84393D01*
X13020Y84789D01*
X13843Y85420D01*
X14474Y86243D01*
X14870Y87201D01*
X15006Y88228D01*
Y91772D01*
X14870Y92799D01*
X14474Y93757D01*
X13843Y94580D01*
X13020Y95211D01*
X12062Y95607D01*
X11035Y95743D01*
D02*
G37*
G36*
X21035D02*
X20007Y95607D01*
X19049Y95211D01*
X18227Y94580D01*
X17596Y93757D01*
X17199Y92799D01*
X17064Y91772D01*
Y88228D01*
X17199Y87201D01*
X17454Y86585D01*
X17274Y86150D01*
X17258Y86072D01*
X17228Y85999D01*
X17110Y85407D01*
Y85328D01*
X17095Y85250D01*
Y83916D01*
X17156Y83609D01*
X17330Y83348D01*
X17590Y83174D01*
X17897Y83113D01*
X18803D01*
X19009Y82616D01*
X23243D01*
X23449Y83113D01*
X24229D01*
X24536Y83174D01*
X24796Y83348D01*
X24970Y83609D01*
X25031Y83916D01*
Y85074D01*
X25016Y85151D01*
Y85230D01*
X24891Y85861D01*
X24860Y85934D01*
X24845Y86011D01*
X24611Y86575D01*
X24870Y87201D01*
X25006Y88228D01*
Y91772D01*
X24870Y92799D01*
X24474Y93757D01*
X23843Y94580D01*
X23020Y95211D01*
X22062Y95607D01*
X21035Y95743D01*
D02*
G37*
G36*
X24065Y80030D02*
X23812D01*
X23544Y79628D01*
X23116Y79201D01*
X22614Y78865D01*
X22056Y78634D01*
X21626Y78548D01*
Y77591D01*
X22272Y77764D01*
X22949Y78155D01*
X23501Y78707D01*
X23892Y79384D01*
X24065Y80030D01*
D02*
G37*
G36*
X18405D02*
X18187D01*
X18360Y79384D01*
X18751Y78707D01*
X19303Y78155D01*
X19980Y77764D01*
X20626Y77591D01*
Y78558D01*
X20209Y78641D01*
X19615Y78887D01*
X19081Y79244D01*
X18626Y79699D01*
X18405Y80030D01*
D02*
G37*
G36*
X48376Y79764D02*
X48158D01*
X48331Y79119D01*
X48722Y78442D01*
X49275Y77889D01*
X49952Y77498D01*
X50598Y77325D01*
Y78292D01*
X50181Y78375D01*
X49587Y78621D01*
X49052Y78979D01*
X48598Y79433D01*
X48376Y79764D01*
D02*
G37*
G36*
X54037D02*
X53784D01*
X53515Y79362D01*
X53088Y78935D01*
X52586Y78599D01*
X52027Y78368D01*
X51598Y78282D01*
Y77325D01*
X52244Y77498D01*
X52920Y77889D01*
X53473Y78442D01*
X53864Y79119D01*
X54037Y79764D01*
D02*
G37*
G36*
X40546Y79150D02*
X40500D01*
Y75500D01*
X44150D01*
Y75546D01*
X43867Y76602D01*
X43321Y77548D01*
X42548Y78320D01*
X41602Y78867D01*
X40546Y79150D01*
D02*
G37*
G36*
X39500D02*
X39454D01*
X38398Y78867D01*
X37452Y78320D01*
X36680Y77548D01*
X36133Y76602D01*
X35850Y75546D01*
Y75500D01*
X39500D01*
Y79150D01*
D02*
G37*
G36*
X30518Y78937D02*
X29482D01*
X28480Y78669D01*
X27583Y78150D01*
X26850Y77417D01*
X26331Y76520D01*
X26063Y75518D01*
Y74482D01*
X26331Y73480D01*
X26850Y72583D01*
X27583Y71850D01*
X28480Y71331D01*
X29482Y71063D01*
X30518D01*
X31520Y71331D01*
X32417Y71850D01*
X33150Y72583D01*
X33669Y73480D01*
X33937Y74482D01*
Y75518D01*
X33669Y76520D01*
X33150Y77417D01*
X32417Y78150D01*
X31520Y78669D01*
X30518Y78937D01*
D02*
G37*
G36*
X44150Y74500D02*
X40500D01*
Y70850D01*
X40546D01*
X41602Y71133D01*
X42548Y71680D01*
X43321Y72452D01*
X43867Y73398D01*
X44150Y74454D01*
Y74500D01*
D02*
G37*
G36*
X39500D02*
X35850D01*
Y74454D01*
X36133Y73398D01*
X36680Y72452D01*
X37452Y71680D01*
X38398Y71133D01*
X39454Y70850D01*
X39500D01*
Y74500D01*
D02*
G37*
G36*
X21472Y72675D02*
Y71708D01*
X21889Y71625D01*
X22483Y71379D01*
X23017Y71021D01*
X23472Y70567D01*
X23693Y70236D01*
X23911D01*
X23738Y70881D01*
X23347Y71558D01*
X22794Y72111D01*
X22118Y72502D01*
X21472Y72675D01*
D02*
G37*
G36*
X51472D02*
Y71708D01*
X51889Y71625D01*
X52483Y71379D01*
X53017Y71021D01*
X53472Y70567D01*
X53693Y70236D01*
X53911D01*
X53738Y70881D01*
X53347Y71558D01*
X52794Y72111D01*
X52118Y72502D01*
X51472Y72675D01*
D02*
G37*
G36*
X50472Y72675D02*
X49826Y72502D01*
X49149Y72111D01*
X48596Y71558D01*
X48206Y70881D01*
X48033Y70236D01*
X48285D01*
X48554Y70638D01*
X48981Y71065D01*
X49484Y71401D01*
X50042Y71632D01*
X50472Y71718D01*
Y72675D01*
D02*
G37*
G36*
X20472D02*
X19826Y72502D01*
X19149Y72111D01*
X18596Y71558D01*
X18206Y70881D01*
X18033Y70236D01*
X18285D01*
X18554Y70638D01*
X18981Y71065D01*
X19484Y71401D01*
X20042Y71632D01*
X20472Y71718D01*
Y72675D01*
D02*
G37*
G36*
X70535Y65891D02*
X69951Y65815D01*
X68942Y65396D01*
X68075Y64731D01*
X67410Y63864D01*
X66992Y62855D01*
X66849Y61772D01*
Y60500D01*
X70535D01*
Y65891D01*
D02*
G37*
G36*
X220500Y64891D02*
Y59500D01*
X224185D01*
Y60772D01*
X224043Y61855D01*
X223625Y62864D01*
X222959Y63731D01*
X222093Y64396D01*
X221083Y64815D01*
X220500Y64891D01*
D02*
G37*
G36*
X219500D02*
X218917Y64815D01*
X217907Y64396D01*
X217040Y63731D01*
X216375Y62864D01*
X215957Y61855D01*
X215815Y60772D01*
Y59500D01*
X219500D01*
Y64891D01*
D02*
G37*
G36*
X31035Y65743D02*
X30007Y65607D01*
X29049Y65211D01*
X28227Y64580D01*
X27596Y63757D01*
X27199Y62799D01*
X27064Y61772D01*
Y58228D01*
X27199Y57201D01*
X27596Y56243D01*
X28227Y55420D01*
X29049Y54789D01*
X30007Y54393D01*
X31035Y54257D01*
X32063Y54393D01*
X33020Y54789D01*
X33843Y55420D01*
X34474Y56243D01*
X34870Y57201D01*
X35006Y58228D01*
Y61772D01*
X34870Y62799D01*
X34474Y63757D01*
X33843Y64580D01*
X33020Y65211D01*
X32063Y65607D01*
X31035Y65743D01*
D02*
G37*
G36*
X224185Y58500D02*
X220500D01*
Y53109D01*
X221083Y53185D01*
X222093Y53604D01*
X222959Y54269D01*
X223625Y55136D01*
X224043Y56145D01*
X224185Y57228D01*
Y58500D01*
D02*
G37*
G36*
X219500D02*
X215815D01*
Y57228D01*
X215957Y56145D01*
X216375Y55136D01*
X217040Y54269D01*
X217907Y53604D01*
X218917Y53185D01*
X219500Y53109D01*
Y58500D01*
D02*
G37*
G36*
X17200Y49341D02*
Y47900D01*
X18641D01*
X18382Y48524D01*
X17824Y49082D01*
X17200Y49341D01*
D02*
G37*
G36*
X16200D02*
X15576Y49082D01*
X15018Y48524D01*
X14759Y47900D01*
X16200D01*
Y49341D01*
D02*
G37*
G36*
X18641Y46900D02*
X17200D01*
Y45459D01*
X17824Y45718D01*
X18382Y46276D01*
X18641Y46900D01*
D02*
G37*
G36*
X16200D02*
X14759D01*
X15018Y46276D01*
X15576Y45718D01*
X16200Y45459D01*
Y46900D01*
D02*
G37*
G36*
X220100Y38343D02*
Y35904D01*
X222539D01*
X222366Y36550D01*
X221975Y37227D01*
X221423Y37779D01*
X220746Y38170D01*
X220100Y38343D01*
D02*
G37*
G36*
X219100D02*
X218454Y38170D01*
X217777Y37779D01*
X217225Y37227D01*
X216834Y36550D01*
X216661Y35904D01*
X219100D01*
Y38343D01*
D02*
G37*
G36*
X9700Y36939D02*
Y34500D01*
X12139D01*
X11966Y35146D01*
X11575Y35823D01*
X11023Y36375D01*
X10346Y36766D01*
X9700Y36939D01*
D02*
G37*
G36*
X8700D02*
X8054Y36766D01*
X7377Y36375D01*
X6825Y35823D01*
X6434Y35146D01*
X6261Y34500D01*
X8700D01*
Y36939D01*
D02*
G37*
G36*
X222539Y34904D02*
X220100D01*
Y32465D01*
X220746Y32638D01*
X221423Y33029D01*
X221975Y33581D01*
X222366Y34258D01*
X222539Y34904D01*
D02*
G37*
G36*
X219100D02*
X216661D01*
X216834Y34258D01*
X217225Y33581D01*
X217777Y33029D01*
X218454Y32638D01*
X219100Y32465D01*
Y34904D01*
D02*
G37*
G36*
X221168Y30805D02*
X219700D01*
Y16500D01*
X224163D01*
Y27811D01*
X224061Y28586D01*
X223762Y29308D01*
X223286Y29928D01*
X222666Y30404D01*
X221943Y30703D01*
X221168Y30805D01*
D02*
G37*
%LPD*%
G36*
X21917Y87890D02*
X22511Y87644D01*
X23045Y87287D01*
X23500Y86833D01*
X23857Y86298D01*
X24103Y85704D01*
X24229Y85074D01*
Y84752D01*
Y83916D01*
X17897D01*
Y84948D01*
Y85250D01*
X18015Y85843D01*
X18247Y86401D01*
X18582Y86904D01*
X19010Y87331D01*
X19512Y87667D01*
X20070Y87898D01*
X20663Y88016D01*
X21287D01*
X21917Y87890D01*
D02*
G37*
%LPC*%
G36*
X15716Y319650D02*
X12066D01*
Y319603D01*
X12349Y318548D01*
X12896Y317602D01*
X13668Y316829D01*
X14614Y316283D01*
X15670Y316000D01*
X15716D01*
Y319650D01*
D02*
G37*
G36*
X63150Y319485D02*
X59500D01*
Y315836D01*
X59546D01*
X60602Y316119D01*
X61548Y316665D01*
X62321Y317438D01*
X62867Y318384D01*
X63150Y319439D01*
Y319485D01*
D02*
G37*
G36*
X58500D02*
X54850D01*
Y319439D01*
X55133Y318384D01*
X55680Y317438D01*
X56452Y316665D01*
X57398Y316119D01*
X58454Y315836D01*
X58500D01*
Y319485D01*
D02*
G37*
G36*
X59570Y314558D02*
X58430D01*
X57328Y314263D01*
X56341Y313692D01*
X55535Y312886D01*
X54964Y311899D01*
X54669Y310797D01*
Y309657D01*
X54964Y308556D01*
X55535Y307568D01*
X56341Y306762D01*
X57328Y306191D01*
X58430Y305896D01*
X59570D01*
X60672Y306191D01*
X61659Y306762D01*
X62465Y307568D01*
X63036Y308556D01*
X63331Y309657D01*
Y310797D01*
X63036Y311899D01*
X62465Y312886D01*
X61659Y313692D01*
X60672Y314263D01*
X59570Y314558D01*
D02*
G37*
G36*
X45921Y301971D02*
X42378D01*
X41350Y301836D01*
X40393Y301439D01*
X39570Y300808D01*
X38939Y299986D01*
X38542Y299028D01*
X38407Y298000D01*
X38542Y296972D01*
X38939Y296014D01*
X39570Y295192D01*
X40393Y294561D01*
X41350Y294164D01*
X42378Y294029D01*
X45921D01*
X46949Y294164D01*
X47907Y294561D01*
X48729Y295192D01*
X49360Y296014D01*
X49757Y296972D01*
X49892Y298000D01*
X49757Y299028D01*
X49360Y299986D01*
X48729Y300808D01*
X47907Y301439D01*
X46949Y301836D01*
X45921Y301971D01*
D02*
G37*
G36*
X32500Y292754D02*
Y289500D01*
X35754D01*
X35500Y290450D01*
X35006Y291306D01*
X34306Y292005D01*
X33450Y292500D01*
X32500Y292754D01*
D02*
G37*
G36*
X35754Y288500D02*
X32500D01*
Y285246D01*
X33450Y285500D01*
X34306Y285995D01*
X35006Y286694D01*
X35500Y287550D01*
X35754Y288500D01*
D02*
G37*
G36*
X31500D02*
X28246D01*
X28500Y287550D01*
X28995Y286694D01*
X29694Y285995D01*
X30550Y285500D01*
X31500Y285246D01*
Y288500D01*
D02*
G37*
G36*
X45921Y291971D02*
X42378D01*
X41350Y291836D01*
X40393Y291439D01*
X39570Y290808D01*
X38939Y289985D01*
X38542Y289028D01*
X38407Y288000D01*
X38542Y286972D01*
X38939Y286015D01*
X39570Y285192D01*
X40393Y284561D01*
X41350Y284164D01*
X42378Y284029D01*
X45921D01*
X46949Y284164D01*
X47907Y284561D01*
X48729Y285192D01*
X49360Y286015D01*
X49757Y286972D01*
X49892Y288000D01*
X49757Y289028D01*
X49360Y289985D01*
X48729Y290808D01*
X47907Y291439D01*
X46949Y291836D01*
X45921Y291971D01*
D02*
G37*
G36*
X58500Y284770D02*
X58402D01*
X57246Y284461D01*
X56210Y283863D01*
X55365Y283017D01*
X54766Y281981D01*
X54457Y280825D01*
Y280727D01*
X58500D01*
Y284770D01*
D02*
G37*
G36*
X45921Y282185D02*
X44650D01*
Y278500D01*
X50041D01*
X49964Y279083D01*
X49546Y280093D01*
X48881Y280960D01*
X48014Y281625D01*
X47005Y282043D01*
X45921Y282185D01*
D02*
G37*
G36*
X43650D02*
X42378D01*
X41295Y282043D01*
X40285Y281625D01*
X39418Y280960D01*
X38753Y280093D01*
X38335Y279083D01*
X38258Y278500D01*
X43650D01*
Y282185D01*
D02*
G37*
G36*
X31546Y279569D02*
X31500D01*
Y275919D01*
X35150D01*
Y275966D01*
X34867Y277021D01*
X34321Y277967D01*
X33548Y278740D01*
X32602Y279286D01*
X31546Y279569D01*
D02*
G37*
G36*
X30500D02*
X30454D01*
X29398Y279286D01*
X28452Y278740D01*
X27679Y277967D01*
X27133Y277021D01*
X26850Y275966D01*
Y275919D01*
X30500D01*
Y279569D01*
D02*
G37*
G36*
X58500Y279727D02*
X54457D01*
Y279629D01*
X54766Y278473D01*
X55365Y277437D01*
X56210Y276592D01*
X57246Y275993D01*
X58402Y275684D01*
X58500D01*
Y279727D01*
D02*
G37*
G36*
X50041Y277500D02*
X44650D01*
Y273815D01*
X45921D01*
X47005Y273957D01*
X48014Y274375D01*
X48881Y275041D01*
X49546Y275907D01*
X49964Y276917D01*
X50041Y277500D01*
D02*
G37*
G36*
X43650D02*
X38258D01*
X38335Y276917D01*
X38753Y275907D01*
X39418Y275041D01*
X40285Y274375D01*
X41295Y273957D01*
X42378Y273815D01*
X43650D01*
Y277500D01*
D02*
G37*
G36*
X35150Y274919D02*
X31500D01*
Y271270D01*
X31546D01*
X32602Y271552D01*
X33548Y272099D01*
X34321Y272871D01*
X34867Y273818D01*
X35150Y274873D01*
Y274919D01*
D02*
G37*
G36*
X51000Y267743D02*
X49972Y267607D01*
X49014Y267211D01*
X48192Y266580D01*
X47561Y265757D01*
X47164Y264799D01*
X47029Y263772D01*
Y260228D01*
X47164Y259201D01*
X47561Y258243D01*
X48192Y257420D01*
X49014Y256789D01*
X49972Y256393D01*
X51000Y256257D01*
X52028Y256393D01*
X52986Y256789D01*
X53808Y257420D01*
X54439Y258243D01*
X54836Y259201D01*
X54971Y260228D01*
Y263772D01*
X54836Y264799D01*
X54439Y265757D01*
X53808Y266580D01*
X52986Y267211D01*
X52028Y267607D01*
X51000Y267743D01*
D02*
G37*
G36*
X111500Y301941D02*
Y300500D01*
X112941D01*
X112682Y301124D01*
X112124Y301682D01*
X111500Y301941D01*
D02*
G37*
G36*
X110500D02*
X109876Y301682D01*
X109318Y301124D01*
X109059Y300500D01*
X110500D01*
Y301941D01*
D02*
G37*
G36*
X120500Y301441D02*
Y300000D01*
X121941D01*
X121682Y300624D01*
X121124Y301182D01*
X120500Y301441D01*
D02*
G37*
G36*
X119500D02*
X118876Y301182D01*
X118318Y300624D01*
X118059Y300000D01*
X119500D01*
Y301441D01*
D02*
G37*
G36*
X112941Y299500D02*
X111500D01*
Y298059D01*
X112124Y298318D01*
X112682Y298876D01*
X112941Y299500D01*
D02*
G37*
G36*
X110500D02*
X109059D01*
X109318Y298876D01*
X109876Y298318D01*
X110500Y298059D01*
Y299500D01*
D02*
G37*
G36*
X121941Y299000D02*
X120500D01*
Y297559D01*
X121124Y297818D01*
X121682Y298376D01*
X121941Y299000D01*
D02*
G37*
G36*
X119500D02*
X118059D01*
X118318Y298376D01*
X118876Y297818D01*
X119500Y297559D01*
Y299000D01*
D02*
G37*
G36*
X83637Y299941D02*
Y298500D01*
X85078D01*
X84820Y299124D01*
X84261Y299682D01*
X83637Y299941D01*
D02*
G37*
G36*
X82637D02*
X82013Y299682D01*
X81455Y299124D01*
X81197Y298500D01*
X82637D01*
Y299941D01*
D02*
G37*
G36*
X85078Y297500D02*
X83637D01*
Y296059D01*
X84261Y296318D01*
X84820Y296876D01*
X85078Y297500D01*
D02*
G37*
G36*
X82637D02*
X81197D01*
X81455Y296876D01*
X82013Y296318D01*
X82637Y296059D01*
Y297500D01*
D02*
G37*
G36*
X147541Y290000D02*
X146100D01*
Y288559D01*
X146724Y288818D01*
X147282Y289376D01*
X147541Y290000D01*
D02*
G37*
G36*
X145100D02*
X143659D01*
X143918Y289376D01*
X144476Y288818D01*
X145100Y288559D01*
Y290000D01*
D02*
G37*
G36*
X150747Y285478D02*
Y284038D01*
X152187D01*
X151929Y284662D01*
X151371Y285220D01*
X150747Y285478D01*
D02*
G37*
G36*
X149747D02*
X149123Y285220D01*
X148565Y284662D01*
X148306Y284038D01*
X149747D01*
Y285478D01*
D02*
G37*
G36*
X152187Y283038D02*
X150747D01*
Y281597D01*
X151371Y281856D01*
X151929Y282414D01*
X152187Y283038D01*
D02*
G37*
G36*
X149747D02*
X148306D01*
X148565Y282414D01*
X149123Y281856D01*
X149747Y281597D01*
Y283038D01*
D02*
G37*
G36*
X64650Y273304D02*
Y271864D01*
X66090D01*
X65832Y272487D01*
X65274Y273046D01*
X64650Y273304D01*
D02*
G37*
G36*
X66090Y270864D02*
X64650D01*
Y269423D01*
X65274Y269681D01*
X65832Y270239D01*
X66090Y270864D01*
D02*
G37*
G36*
X71500Y195120D02*
Y189728D01*
X75185D01*
Y191000D01*
X75043Y192083D01*
X74625Y193093D01*
X73959Y193959D01*
X73093Y194625D01*
X72083Y195043D01*
X71500Y195120D01*
D02*
G37*
G36*
X75185Y188728D02*
X71500D01*
Y183337D01*
X72083Y183414D01*
X73093Y183832D01*
X73959Y184497D01*
X74625Y185364D01*
X75043Y186373D01*
X75185Y187457D01*
Y188728D01*
D02*
G37*
G36*
X78500Y179939D02*
Y177500D01*
X80939D01*
X80766Y178146D01*
X80375Y178823D01*
X79823Y179375D01*
X79146Y179766D01*
X78500Y179939D01*
D02*
G37*
G36*
X80939Y176500D02*
X78500D01*
Y174061D01*
X79146Y174234D01*
X79823Y174625D01*
X80375Y175177D01*
X80766Y175854D01*
X80939Y176500D01*
D02*
G37*
G36*
X80710Y60941D02*
Y59500D01*
X82151D01*
X81893Y60124D01*
X81334Y60682D01*
X80710Y60941D01*
D02*
G37*
G36*
X82151Y58500D02*
X80710D01*
Y57059D01*
X81334Y57318D01*
X81893Y57876D01*
X82151Y58500D01*
D02*
G37*
G36*
X78300Y50341D02*
Y48900D01*
X79741D01*
X79482Y49524D01*
X78924Y50082D01*
X78300Y50341D01*
D02*
G37*
G36*
X77300D02*
X76676Y50082D01*
X76118Y49524D01*
X75859Y48900D01*
X77300D01*
Y50341D01*
D02*
G37*
G36*
X88791Y48527D02*
X87350D01*
Y47086D01*
X87974Y47344D01*
X88533Y47903D01*
X88791Y48527D01*
D02*
G37*
G36*
X86350D02*
X84910D01*
X85168Y47903D01*
X85726Y47344D01*
X86350Y47086D01*
Y48527D01*
D02*
G37*
G36*
X79741Y47900D02*
X78300D01*
Y46459D01*
X78924Y46718D01*
X79482Y47276D01*
X79741Y47900D01*
D02*
G37*
G36*
X77300D02*
X75859D01*
X76118Y47276D01*
X76676Y46718D01*
X77300Y46459D01*
Y47900D01*
D02*
G37*
G36*
X72500Y41141D02*
Y39700D01*
X73941D01*
X73682Y40324D01*
X73124Y40882D01*
X72500Y41141D01*
D02*
G37*
G36*
X71500D02*
X70876Y40882D01*
X70318Y40324D01*
X70059Y39700D01*
X71500D01*
Y41141D01*
D02*
G37*
G36*
X73941Y38700D02*
X72500D01*
Y37259D01*
X73124Y37518D01*
X73682Y38076D01*
X73941Y38700D01*
D02*
G37*
G36*
X71500D02*
X70059D01*
X70318Y38076D01*
X70876Y37518D01*
X71500Y37259D01*
Y38700D01*
D02*
G37*
G36*
X64000Y35041D02*
Y33600D01*
X65441D01*
X65182Y34224D01*
X64624Y34782D01*
X64000Y35041D01*
D02*
G37*
G36*
X63000D02*
X62376Y34782D01*
X61818Y34224D01*
X61559Y33600D01*
X63000D01*
Y35041D01*
D02*
G37*
G36*
X65441Y32600D02*
X64000D01*
Y31159D01*
X64624Y31418D01*
X65182Y31976D01*
X65441Y32600D01*
D02*
G37*
G36*
X63000D02*
X61559D01*
X61818Y31976D01*
X62376Y31418D01*
X63000Y31159D01*
Y32600D01*
D02*
G37*
G36*
X53900Y38341D02*
Y36900D01*
X55341D01*
X55082Y37524D01*
X54524Y38082D01*
X53900Y38341D01*
D02*
G37*
G36*
X52900D02*
X52276Y38082D01*
X51718Y37524D01*
X51459Y36900D01*
X52900D01*
Y38341D01*
D02*
G37*
G36*
X39300Y37041D02*
Y35600D01*
X40741D01*
X40482Y36224D01*
X39924Y36782D01*
X39300Y37041D01*
D02*
G37*
G36*
X38300D02*
X37676Y36782D01*
X37118Y36224D01*
X36859Y35600D01*
X38300D01*
Y37041D01*
D02*
G37*
G36*
X55341Y35900D02*
X53900D01*
Y34459D01*
X54524Y34718D01*
X55082Y35276D01*
X55341Y35900D01*
D02*
G37*
G36*
X52900D02*
X51459D01*
X51718Y35276D01*
X52276Y34718D01*
X52900Y34459D01*
Y35900D01*
D02*
G37*
G36*
X40741Y34600D02*
X39300D01*
Y33159D01*
X39924Y33418D01*
X40482Y33976D01*
X40741Y34600D01*
D02*
G37*
G36*
X38300D02*
X36859D01*
X37118Y33976D01*
X37676Y33418D01*
X38300Y33159D01*
Y34600D01*
D02*
G37*
G36*
X104501Y49027D02*
X103060D01*
Y47586D01*
X103684Y47844D01*
X104243Y48403D01*
X104501Y49027D01*
D02*
G37*
G36*
X99713Y41073D02*
X98273D01*
Y39632D01*
X98897Y39891D01*
X99455Y40449D01*
X99713Y41073D01*
D02*
G37*
G36*
X94400Y35541D02*
Y34100D01*
X95841D01*
X95582Y34724D01*
X95024Y35282D01*
X94400Y35541D01*
D02*
G37*
G36*
X93400D02*
X92776Y35282D01*
X92218Y34724D01*
X91959Y34100D01*
X93400D01*
Y35541D01*
D02*
G37*
G36*
X95841Y33100D02*
X94400D01*
Y31659D01*
X95024Y31918D01*
X95582Y32476D01*
X95841Y33100D01*
D02*
G37*
G36*
X93400D02*
X91959D01*
X92218Y32476D01*
X92776Y31918D01*
X93400Y31659D01*
Y33100D01*
D02*
G37*
G36*
X104400Y36341D02*
Y34900D01*
X105841D01*
X105582Y35524D01*
X105024Y36082D01*
X104400Y36341D01*
D02*
G37*
G36*
X103400D02*
X102776Y36082D01*
X102218Y35524D01*
X101959Y34900D01*
X103400D01*
Y36341D01*
D02*
G37*
G36*
X105841Y33900D02*
X104400D01*
Y32459D01*
X105024Y32718D01*
X105582Y33276D01*
X105841Y33900D01*
D02*
G37*
G36*
X103400D02*
X101959D01*
X102218Y33276D01*
X102776Y32718D01*
X103400Y32459D01*
Y33900D01*
D02*
G37*
%LPD*%
D28*
X29200Y16000D02*
D03*
X19200D02*
D03*
X69200D02*
D03*
X59200D02*
D03*
X49200D02*
D03*
X99200D02*
D03*
X89200D02*
D03*
X129200D02*
D03*
X119200D02*
D03*
X159200D02*
D03*
X149200D02*
D03*
X189200D02*
D03*
X179200D02*
D03*
X219200D02*
D03*
X209200D02*
D03*
X79200D02*
D03*
X39200D02*
D03*
X9200D02*
D03*
X199200D02*
D03*
X169200D02*
D03*
X139200D02*
D03*
X109200D02*
D03*
D29*
X36808Y122985D02*
Y125901D01*
X32468Y118645D02*
X36808Y122985D01*
X32468Y118006D02*
Y118645D01*
X47007Y161151D02*
X53621Y154536D01*
X34150Y161500D02*
X34499Y161151D01*
X47007D01*
X11000Y176000D02*
X11772Y175228D01*
Y173457D02*
Y175228D01*
Y173457D02*
X23728Y161500D01*
X24150D01*
X53795Y315776D02*
X54769Y316750D01*
X55125D01*
X58361Y319986D01*
X59000D01*
X53795Y313931D02*
Y315776D01*
X52461Y312596D02*
X53795Y313931D01*
X52461Y284539D02*
Y312596D01*
X48468Y280547D02*
X52461Y284539D01*
X45921Y278000D02*
X48468Y280547D01*
X90000Y335000D02*
X90772Y334228D01*
Y332457D02*
Y334228D01*
Y332457D02*
X95289Y327939D01*
Y323623D02*
Y327939D01*
Y323623D02*
X100000Y318913D01*
Y318274D02*
Y318913D01*
X152338Y314500D02*
X196000D01*
X150206Y312368D02*
X152338Y314500D01*
X105905Y312368D02*
X150206D01*
X100000Y318274D02*
X105905Y312368D01*
X90000Y263000D02*
X90772Y262228D01*
Y260457D02*
Y262228D01*
Y260457D02*
X95289Y255939D01*
Y252123D02*
Y255939D01*
Y252123D02*
X100000Y247412D01*
Y246773D02*
Y247412D01*
X110000Y246773D02*
X110639D01*
X112276Y248410D01*
X176362D01*
X219228Y205543D01*
Y203772D02*
Y205543D01*
Y203772D02*
X220000Y203000D01*
X144711Y176591D02*
X177316D01*
X143244Y175125D02*
X144711Y176591D01*
X110000Y175125D02*
X143244D01*
X220000Y131000D02*
Y133411D01*
X217874Y135537D02*
X220000Y133411D01*
X217874Y135537D02*
Y136033D01*
X177316Y176591D02*
X217874Y136033D01*
X100000Y175125D02*
Y175764D01*
X95289Y180474D02*
X100000Y175764D01*
X95289Y180474D02*
Y183939D01*
X90772Y188457D02*
X95289Y183939D01*
X90772Y188457D02*
Y190228D01*
X90000Y191000D02*
X90772Y190228D01*
X144205Y105000D02*
X175772D01*
X142205Y103000D02*
X144205Y105000D01*
X110000Y103000D02*
X142205D01*
X220000Y59000D02*
Y60772D01*
X175772Y105000D02*
X220000Y60772D01*
X3227Y318906D02*
X7841Y323520D01*
X9522D01*
X14020Y329698D02*
X20296Y335975D01*
X9522Y323520D02*
X14020Y328017D01*
Y329698D01*
X3227Y274849D02*
Y318906D01*
X20296Y335975D02*
Y344320D01*
X23669Y347693D01*
X151095Y321000D02*
X157394Y327299D01*
X1000Y262000D02*
Y272622D01*
X3227Y274849D01*
X56307Y347693D02*
X59000Y345000D01*
X23669Y347693D02*
X56307D01*
X102701Y163205D02*
X103528Y162378D01*
X78000Y163205D02*
X102701D01*
X40000Y75000D02*
X51098D01*
X21126D02*
X22650D01*
X24094Y76445D01*
Y77446D01*
X27554Y80905D01*
X34095D01*
X40000Y75000D01*
X77629Y203319D02*
X82000Y198948D01*
X77385Y203319D02*
X77629D01*
X77385Y203292D02*
Y203319D01*
X77156Y203063D02*
X77385Y203292D01*
X76885Y203063D02*
X77156D01*
X84467Y191000D02*
X90000D01*
X82000Y193467D02*
X84467Y191000D01*
X82000Y193467D02*
Y198948D01*
X51098Y69862D02*
Y75000D01*
X50972Y69735D02*
X51098Y69862D01*
X71000Y103000D02*
Y118821D01*
X76906Y124726D01*
Y138323D01*
X71000Y144228D02*
Y146000D01*
Y144228D02*
X76906Y138323D01*
X71000Y187457D02*
X78000Y180457D01*
X71000Y187457D02*
Y189228D01*
X78000Y177000D02*
Y180457D01*
X71000Y146000D02*
Y147772D01*
X64235Y154536D02*
X71000Y147772D01*
X53621Y154536D02*
X64235D01*
X9200Y34000D02*
Y43289D01*
Y16000D02*
Y34000D01*
X51098Y75000D02*
Y80265D01*
Y75000D02*
X57806D01*
X71035Y61772D01*
Y60000D02*
Y61772D01*
X14066Y75000D02*
X21126D01*
Y80530D01*
Y69890D02*
Y75000D01*
X20972Y69735D02*
X21126Y69890D01*
X5129Y65097D02*
Y66063D01*
X4000Y63968D02*
X5129Y65097D01*
Y66063D02*
X14066Y75000D01*
X4000Y48489D02*
X9200Y43289D01*
X4000Y48489D02*
Y63968D01*
X41739Y278000D02*
X44150D01*
X31699Y288699D02*
X32000Y289000D01*
X39512Y275773D02*
X41739Y278000D01*
X44150D02*
X45921D01*
X48788Y280227D02*
X59000D01*
X196000Y314500D02*
Y321000D01*
Y308000D02*
Y314500D01*
X220000Y60772D02*
Y97429D01*
X198609Y327299D02*
X220000Y305908D01*
Y275000D02*
Y305908D01*
X233571Y203000D02*
Y259657D01*
Y131000D02*
Y203000D01*
X220000D02*
X233571D01*
Y111000D02*
Y131000D01*
X220000D02*
X233571D01*
X219600Y35404D02*
Y58600D01*
Y16400D02*
Y35404D01*
Y58600D02*
X220000Y59000D01*
X219200Y16000D02*
X219600Y16400D01*
X220000Y97429D02*
X233571Y111000D01*
X220000Y273228D02*
Y275000D01*
Y273228D02*
X233571Y259657D01*
D30*
X104404Y42699D02*
Y43774D01*
X99200Y31082D02*
Y37495D01*
X104404Y42699D01*
Y43774D02*
X104630Y44000D01*
X98250Y46957D02*
Y50142D01*
X89200Y16000D02*
Y37906D01*
X98250Y46957D01*
X99200Y16000D02*
Y31082D01*
X99200Y31082D02*
X99200Y31082D01*
X60937Y198735D02*
Y201688D01*
Y198735D02*
X61366Y199164D01*
X60937Y201688D02*
X62649Y203400D01*
X1000Y189228D02*
Y211054D01*
X56101Y98903D02*
Y99746D01*
X22318Y253812D02*
X27755Y248375D01*
X17416Y253812D02*
X22318D01*
X11000Y260228D02*
X17416Y253812D01*
X11000Y260228D02*
Y262000D01*
X27755Y245513D02*
X31189Y242079D01*
X27755Y245513D02*
Y248375D01*
X62040Y324513D02*
X65641Y320911D01*
X55961Y324513D02*
X62040D01*
X50449Y319001D02*
X55961Y324513D01*
X73291Y247215D02*
X80229Y240277D01*
X71240Y254000D02*
X82995Y242245D01*
X114141Y244511D02*
X167735D01*
X82995Y242245D02*
X111875D01*
X80229Y240277D02*
X112691D01*
X111875Y242245D02*
X114141Y244511D01*
X114414Y242000D02*
X140000D01*
X112691Y240277D02*
X114414Y242000D01*
X21701Y314528D02*
Y318262D01*
X10075Y302902D02*
X21701Y314528D01*
X33833Y324677D02*
X36134Y322377D01*
X24341Y324677D02*
X33833D01*
X21689Y322025D02*
X24341Y324677D01*
X21689Y318274D02*
Y322025D01*
Y318274D02*
X21701Y318262D01*
X33412Y317000D02*
X34975D01*
X30374Y313962D02*
X33412Y317000D01*
X41274Y323299D02*
X47623D01*
X34975Y317000D02*
X41274Y323299D01*
X44150Y333551D02*
X45173Y332528D01*
X47797D02*
X50449Y329875D01*
X47623Y323299D02*
X50449Y326125D01*
X44150Y333551D02*
Y338000D01*
X45173Y332528D02*
X47797D01*
X50449Y326125D02*
Y329875D01*
X15032Y279450D02*
Y300800D01*
X11000Y275418D02*
X15032Y279450D01*
X29396Y313962D02*
X30374D01*
X29373Y313984D02*
X29396Y313962D01*
X25050Y313984D02*
X29373D01*
X17866Y306800D02*
X25050Y313984D01*
X17866Y280710D02*
X30277Y268299D01*
X17866Y303635D02*
Y306800D01*
X15032Y300800D02*
X17866Y303635D01*
Y280710D02*
Y291839D01*
X27000Y300973D01*
Y309850D01*
X61000Y275267D02*
X65751Y280019D01*
Y287776D02*
X70975Y293000D01*
X65751Y280019D02*
Y287776D01*
X61000Y262000D02*
Y275267D01*
X44150Y338000D02*
X59553D01*
X66653Y345100D01*
X160900D01*
X164700Y341300D01*
Y331108D02*
Y341300D01*
Y331108D02*
X166000Y329808D01*
Y321000D02*
Y329808D01*
X5528Y264702D02*
X10725Y269900D01*
X22900D01*
X90437Y285457D02*
X94508D01*
X95886Y284079D01*
X122038D01*
X123416Y285457D01*
X79129Y274149D02*
X90437Y285457D01*
X123416D02*
X137543D01*
X140000Y283000D01*
X73291Y247215D02*
Y247559D01*
X67850Y253000D02*
X73291Y247559D01*
X66472Y258745D02*
Y265647D01*
X63227Y255500D02*
X66472Y258745D01*
X63227Y247000D02*
Y255500D01*
X11000Y103000D02*
X13404Y105404D01*
X15229D01*
X19125Y109299D01*
X17191Y55669D02*
X21777Y51083D01*
X64184D01*
X71103Y53642D02*
X71746Y53000D01*
X72000D01*
X57902Y44586D02*
X58488Y44000D01*
X41004Y44586D02*
X57902D01*
X58488Y44000D02*
X58808D01*
X87441Y207331D02*
X90000Y204772D01*
X77536Y207921D02*
X78127Y207331D01*
X90000Y203000D02*
Y204772D01*
X78127Y207331D02*
X87441D01*
X67170Y207921D02*
X77536D01*
X56341Y212929D02*
X58309Y210961D01*
X66000Y222403D02*
X69125Y225528D01*
X72875D01*
X62649Y203400D02*
X67170Y207921D01*
X72875Y225528D02*
X75528Y222875D01*
Y220419D02*
X77946Y218000D01*
X75528Y220419D02*
Y222875D01*
X66000Y216054D02*
Y222403D01*
X75404Y209890D02*
X79514Y214000D01*
X65898Y225898D02*
Y235073D01*
X65457Y208992D02*
X66355Y209890D01*
X69125Y238299D02*
X93486D01*
X58309Y210961D02*
X64642D01*
X59125Y212929D02*
X62875D01*
X64642Y210961D02*
X65539Y211858D01*
X57494Y208992D02*
X65457D01*
X61000Y221000D02*
X65898Y225898D01*
X55525Y210961D02*
X57494Y208992D01*
X66355Y209890D02*
X75404D01*
X65898Y235073D02*
X69125Y238299D01*
X74588Y211858D02*
X78730Y216000D01*
X93486Y238299D02*
X105785Y226000D01*
X65539Y211858D02*
X74588D01*
X62875Y212929D02*
X66000Y216054D01*
X70951Y203400D02*
X71414Y202937D01*
X62649Y203400D02*
X70951D01*
X139825Y211000D02*
X144305D01*
X147441Y208668D02*
Y211504D01*
X144305Y211000D02*
X144337Y210967D01*
X177112Y214063D02*
X185000Y206175D01*
X108189Y216000D02*
X108221Y216032D01*
X108973Y214000D02*
X109036Y214063D01*
X108221Y216032D02*
X178740D01*
X77946Y218000D02*
X196772D01*
X145472Y206699D02*
X147441Y208668D01*
X178740Y216032D02*
X190000Y204772D01*
X109036Y214063D02*
X177112D01*
X196772Y218000D02*
X210000Y204772D01*
X79514Y214000D02*
X108973D01*
X78730Y216000D02*
X108189D01*
X79200Y44056D02*
X90000D01*
X41168Y41441D02*
X61398D01*
X63794Y43837D02*
Y44056D01*
X61398Y41441D02*
X63794Y43837D01*
X49200Y25842D02*
X77000Y53642D01*
Y68416D01*
X110000Y52780D02*
Y57228D01*
X81000Y53000D02*
X81320D01*
X81619Y52701D01*
X105472D01*
X110000Y57228D01*
Y59000D01*
X61715Y83701D02*
X77000Y68416D01*
X41035Y58228D02*
X45621Y53642D01*
X41035Y58228D02*
Y60000D01*
X45621Y53642D02*
X71103D01*
X4392Y81416D02*
Y105392D01*
X7808Y78000D02*
X7937D01*
X4392Y81416D02*
X7808Y78000D01*
X2000Y75446D02*
X3008Y74438D01*
X7937D01*
X2000Y78516D02*
Y105000D01*
X2000Y75446D02*
Y78516D01*
X3000Y106784D02*
X4392Y105392D01*
X71035Y77680D02*
X71625Y77090D01*
X71035Y77680D02*
Y78000D01*
X71625Y76940D02*
Y77090D01*
X59159Y83701D02*
X61715D01*
X11035Y58228D02*
X13594Y55669D01*
X11035Y58228D02*
Y60000D01*
X13594Y55669D02*
X17191D01*
X80210Y68355D02*
X112417D01*
X71625Y76940D02*
X80210Y68355D01*
X81751Y74052D02*
X126720D01*
X72301Y80559D02*
X75244D01*
X66507Y86353D02*
X72301Y80559D01*
X75244D02*
X81751Y74052D01*
X53497Y96299D02*
X56101Y98903D01*
X35562Y96299D02*
X53497D01*
X31035Y91772D02*
X35562Y96299D01*
X31035Y90000D02*
Y91772D01*
X116851Y70323D02*
X124528Y62647D01*
X74184Y78000D02*
X81861Y70323D01*
X116851D01*
X126720Y74052D02*
X140000Y60772D01*
X56507Y86353D02*
X59159Y83701D01*
X120000Y59000D02*
Y60772D01*
X112417Y68355D02*
X120000Y60772D01*
X124528Y60024D02*
Y62647D01*
Y60024D02*
X125551Y59000D01*
X130000D01*
X61035Y90000D02*
X65484D01*
X140000Y59000D02*
Y60772D01*
X61000Y112818D02*
X65528Y108290D01*
Y99353D02*
Y108290D01*
X62675Y96500D02*
X65528Y99353D01*
X65484Y90000D02*
X66507Y88976D01*
X56507Y86353D02*
Y93647D01*
X66507Y86353D02*
Y88976D01*
X56507Y93647D02*
X59360Y96500D01*
X62675D01*
X106850Y46559D02*
X108910Y44500D01*
X109802D02*
X119200Y35102D01*
X108910Y44500D02*
X109802D01*
X109579Y49118D02*
X114773Y43924D01*
Y43559D02*
Y43924D01*
Y43559D02*
X119741Y38590D01*
X119200Y16000D02*
Y35102D01*
X108773Y16427D02*
X109200Y16000D01*
X108773Y16427D02*
Y41181D01*
X119741Y38590D02*
X126410D01*
X3000Y106784D02*
Y106999D01*
X-6000Y113000D02*
X2000Y105000D01*
X56551Y103000D02*
X61000D01*
X55528Y104024D02*
X56551Y103000D01*
X55528Y104024D02*
Y106647D01*
X52875Y109299D02*
X55528Y106647D01*
X19125Y109299D02*
X52875D01*
X-4031Y114030D02*
X3000Y106999D01*
X-4031Y114030D02*
Y153969D01*
X-2265Y155736D01*
X-6000Y113000D02*
Y158000D01*
X-3000Y161000D01*
X5672D01*
X10937Y155736D01*
X-2265D02*
X937D01*
X61000Y112818D02*
Y133000D01*
X31000D02*
X41000D01*
X49200Y16000D02*
Y25842D01*
X55449Y146000D02*
X56472Y144976D01*
Y142353D02*
X59526Y139299D01*
X66472D02*
X71000Y134772D01*
X51000Y146000D02*
X55449D01*
X56472Y142353D02*
Y144976D01*
X59526Y139299D02*
X66472D01*
X71000Y133000D02*
Y134772D01*
X70887Y163205D02*
X73267D01*
X65882Y168210D02*
X70887Y163205D01*
X99551Y166551D02*
X104528Y171528D01*
X76614Y166551D02*
X99551D01*
X73267Y163205D02*
X76614Y166551D01*
X64688Y169920D02*
X65882Y168726D01*
Y168210D02*
Y168726D01*
X64688Y169920D02*
Y170239D01*
X69261Y168779D02*
Y169564D01*
Y168779D02*
X72095Y165946D01*
X66472Y172353D02*
X69261Y169564D01*
X72095Y165764D02*
Y165946D01*
X104528Y171528D02*
Y178875D01*
X100000Y183403D02*
X104528Y178875D01*
X5328Y146000D02*
X11000D01*
X1063Y150265D02*
X5328Y146000D01*
X60792Y167732D02*
X71461Y157063D01*
X59976Y165764D02*
X70646Y155095D01*
X72276Y159031D02*
X190143D01*
X70646Y155095D02*
X154080D01*
X71461Y157063D02*
X182112D01*
X61607Y169701D02*
X72276Y159031D01*
X11000Y187614D02*
X21000Y177614D01*
X11000Y187614D02*
Y189228D01*
X21000Y176000D02*
Y177614D01*
X182112Y157063D02*
X205448Y133727D01*
X190143Y159031D02*
X214528Y134647D01*
X154080Y155095D02*
X175448Y133727D01*
X49465Y165764D02*
X59976D01*
X57299Y169701D02*
X61607D01*
X51093Y167732D02*
X60792D01*
X56000Y171000D02*
X57299Y169701D01*
X56000Y171000D02*
Y192403D01*
X67063Y193466D02*
Y200505D01*
X66472Y192875D02*
X67063Y193466D01*
X66472Y172353D02*
Y192875D01*
X54150Y199000D02*
Y208402D01*
X41000Y174228D02*
X49465Y165764D01*
X46472Y172353D02*
X51093Y167732D01*
X52875Y195528D02*
X56000Y192403D01*
X100000Y183403D02*
Y191000D01*
X26472Y192875D02*
X29125Y195528D01*
X26472Y190252D02*
Y192875D01*
X25449Y189228D02*
X26472Y190252D01*
X21000Y189228D02*
X25449D01*
X29125Y195528D02*
X52875D01*
X46472Y182929D02*
X51000Y187457D01*
X46472Y172353D02*
Y182929D01*
X51000Y187457D02*
Y189228D01*
X205448Y125324D02*
Y133727D01*
X214528Y126244D02*
Y134647D01*
Y126244D02*
X220000Y120772D01*
Y119000D02*
Y120772D01*
X145472Y185301D02*
X147773Y183000D01*
X145472Y185301D02*
Y206699D01*
X205448Y125324D02*
X210000Y120772D01*
Y119000D02*
Y120772D01*
X175448Y125324D02*
Y133727D01*
Y125324D02*
X180000Y120772D01*
Y119000D02*
Y120772D01*
X41000Y174228D02*
Y176000D01*
X83504Y114538D02*
Y134999D01*
X120722Y141236D02*
X122958Y139000D01*
X83504Y134999D02*
X89741Y141236D01*
X122958Y139000D02*
X133150D01*
X89741Y141236D02*
X120722D01*
X135472Y185480D02*
X137087Y183866D01*
Y183587D02*
Y183866D01*
X135472Y185480D02*
Y206647D01*
X56472Y215581D02*
X59125Y212929D01*
X21000Y217457D02*
X27496Y210961D01*
X55525D01*
X35528Y212929D02*
X56341D01*
X31000Y217457D02*
X35528Y212929D01*
X185000Y187825D02*
Y206175D01*
Y187825D02*
X188125Y184701D01*
X191875D01*
X195448Y188274D01*
Y196676D01*
X200000Y201228D01*
Y203000D01*
X21000Y217457D02*
Y219228D01*
X190000Y203000D02*
Y204772D01*
X31000Y217457D02*
Y219228D01*
X210000Y203000D02*
Y204772D01*
X56472Y215581D02*
Y218205D01*
X55449Y219228D02*
X56472Y218205D01*
X51000Y219228D02*
X55449D01*
X147773Y226922D02*
Y234227D01*
X167735Y244511D02*
X167773Y244472D01*
X21000Y230614D02*
Y232000D01*
X11000Y219228D02*
Y220614D01*
X21000Y230614D01*
X56000Y226472D02*
Y244810D01*
X61000Y219228D02*
Y221000D01*
X83691Y112143D02*
Y114351D01*
Y112143D02*
X83916Y111916D01*
X88866Y110185D02*
Y111960D01*
X87416Y108416D02*
Y108736D01*
X85472Y115353D02*
X88866Y111960D01*
X83504Y114538D02*
X83691Y114351D01*
X87416Y108736D02*
X88866Y110185D01*
X55923Y244887D02*
X56000Y244810D01*
X50298Y243298D02*
Y244801D01*
X52000Y246503D01*
X49429Y247559D02*
Y247654D01*
X50940Y249165D01*
X55202D01*
X57367Y247000D01*
X63227D01*
X46472Y239472D02*
X50298Y243298D01*
X52000Y246503D02*
Y246606D01*
X41000Y221000D02*
X46472Y226472D01*
X41000Y219228D02*
Y221000D01*
X46472Y226472D02*
Y239472D01*
X43948Y242079D02*
X49429Y247559D01*
X140000Y242000D02*
X147773Y234227D01*
X85472Y115353D02*
Y124701D01*
X90000Y129228D01*
Y131000D01*
X32875Y268299D02*
X36000Y265175D01*
Y257571D02*
Y265175D01*
X30277Y268299D02*
X32875D01*
X33227Y254798D02*
X36000Y257571D01*
X33227Y247000D02*
Y254798D01*
X135472Y206647D02*
X139825Y211000D01*
X145000Y259825D02*
X149825Y255000D01*
X145000Y259825D02*
Y283000D01*
X149825Y255000D02*
X150000D01*
X139000Y289000D02*
X145000Y283000D01*
X120000Y289000D02*
X139000D01*
X170000Y191000D02*
Y192772D01*
X86921Y289000D02*
X100000D01*
X74150Y278000D02*
X75921D01*
X86921Y289000D01*
X79129Y271901D02*
Y274149D01*
X5528Y258353D02*
Y264702D01*
X-3528Y249298D02*
X5528Y258353D01*
X-3528Y215581D02*
Y249298D01*
Y215581D02*
X1000Y211054D01*
X29200Y16000D02*
Y48000D01*
X31189Y242079D02*
X43948D01*
X70975Y293000D02*
X94965D01*
X95886Y293921D01*
X149253D01*
X165448Y277727D01*
Y269324D02*
Y277727D01*
Y269324D02*
X170000Y264772D01*
Y263000D02*
Y264772D01*
X50449Y316125D02*
Y319001D01*
X47797Y313472D02*
X50449Y316125D01*
X44889Y313472D02*
X47797D01*
X44150Y312733D02*
X44889Y313472D01*
X37850Y304850D02*
Y309875D01*
X40708Y312733D02*
X44150D01*
X27000Y294000D02*
X37850Y304850D01*
Y309875D02*
X40708Y312733D01*
X74150Y273324D02*
Y278000D01*
X66472Y265647D02*
X74150Y273324D01*
X71000Y263772D02*
X79129Y271901D01*
X71000Y262000D02*
Y263772D01*
X65641Y308334D02*
Y320911D01*
Y308334D02*
X70503Y303472D01*
X96528D01*
X100000Y300000D01*
X85106Y306031D02*
X123969D01*
X74150Y308000D02*
X83137D01*
X123969Y306031D02*
X130000Y300000D01*
X83137Y308000D02*
X85106Y306031D01*
X75921Y318000D02*
X85921Y308000D01*
X166000D01*
X74150Y318000D02*
X75921D01*
X74150D02*
Y328000D01*
X127664Y48000D02*
X139200Y36464D01*
X127260Y49968D02*
X128479D01*
X139857Y38590D02*
X146389D01*
X114779Y48000D02*
X127664D01*
X130000Y51231D02*
Y59000D01*
Y51231D02*
X140673Y40559D01*
X139200Y16000D02*
Y36464D01*
X128479Y49968D02*
X139857Y38590D01*
X140673Y40559D02*
X153441D01*
X120000Y57228D02*
Y59000D01*
Y57228D02*
X127260Y49968D01*
X110000Y52780D02*
X114779Y48000D01*
X129200Y16000D02*
Y35800D01*
X126410Y38590D02*
X129200Y35800D01*
X149200Y16000D02*
Y35780D01*
X146389Y38590D02*
X149200Y35780D01*
X157831Y40559D02*
X163441D01*
X150252Y42527D02*
X155862D01*
X153441Y40559D02*
X159200Y34800D01*
X140000Y52780D02*
X150252Y42527D01*
X159200Y16000D02*
Y34800D01*
X155862Y42527D02*
X157831Y40559D01*
X167831D02*
X173441D01*
X160252Y42527D02*
X165862D01*
X169200Y16000D02*
Y34800D01*
X163441Y40559D02*
X169200Y34800D01*
X165862Y42527D02*
X167831Y40559D01*
X150000Y52780D02*
X160252Y42527D01*
X173441Y40559D02*
X179200Y34800D01*
Y16000D02*
Y34800D01*
X181704Y42527D02*
X189200Y35032D01*
X160000Y52780D02*
X170252Y42527D01*
X181704D01*
X189200Y16000D02*
Y35032D01*
X180850Y45000D02*
X189000D01*
X170000Y55850D02*
Y59000D01*
Y55850D02*
X180850Y45000D01*
X180000Y58613D02*
X185913Y52701D01*
X190526D01*
X209000Y16200D02*
Y34227D01*
X190526Y52701D02*
X209000Y34227D01*
X189000Y45000D02*
X199200Y34800D01*
Y16000D02*
Y34800D01*
X209000Y16200D02*
X209200Y16000D01*
X180000Y58613D02*
Y59000D01*
X200000Y57228D02*
X212857Y44371D01*
X214606D02*
X214832Y44145D01*
X212857Y44371D02*
X214606D01*
X210000Y57228D02*
Y59000D01*
X214863Y48147D02*
Y52365D01*
X210000Y57228D02*
X214863Y52365D01*
X154449Y263000D02*
X155472Y261976D01*
Y259353D02*
X158125Y256701D01*
X161875D02*
X164528Y259353D01*
Y261976D02*
X165551Y263000D01*
X150000D02*
X154449D01*
X155472Y259353D02*
Y261976D01*
X158125Y256701D02*
X161875D01*
X164528Y259353D02*
Y261976D01*
X165551Y263000D02*
X170000D01*
X154449Y191000D02*
X155472Y189976D01*
Y187353D02*
Y189976D01*
Y187353D02*
X158125Y184701D01*
X161875D01*
X164528Y187353D02*
Y189976D01*
X165551Y191000D02*
X170000D01*
X150000D02*
X154449D01*
X161875Y184701D02*
X164528Y187353D01*
Y189976D02*
X165551Y191000D01*
X158125Y112701D02*
X161875D01*
X164528Y115353D01*
Y117976D01*
X165551Y119000D02*
X170000D01*
X164528Y117976D02*
X165551Y119000D01*
X154449D02*
X155472Y117976D01*
X150000Y119000D02*
X154449D01*
X155472Y115353D02*
Y117976D01*
Y115353D02*
X158125Y112701D01*
X190000Y57228D02*
X206228Y41000D01*
X190000Y57228D02*
Y59000D01*
X206228Y41000D02*
X215000D01*
X200000Y57228D02*
Y59000D01*
X140000Y52780D02*
Y59000D01*
X150000Y52780D02*
Y59000D01*
X160000Y52780D02*
Y59000D01*
D31*
X90000Y131000D02*
D03*
X11035Y60000D02*
D03*
X90000Y275000D02*
D03*
X1000Y232000D02*
D03*
X90000Y59000D02*
D03*
Y203000D02*
D03*
X1000Y189228D02*
D03*
X11000Y103000D02*
D03*
Y146000D02*
D03*
D32*
X100000Y131000D02*
D03*
X110000D02*
D03*
X120000D02*
D03*
X130000D02*
D03*
X140000D02*
D03*
X150000D02*
D03*
X160000D02*
D03*
X170000D02*
D03*
X180000D02*
D03*
X190000D02*
D03*
X200000D02*
D03*
X210000D02*
D03*
X220000D02*
D03*
X90000Y191000D02*
D03*
X100000D02*
D03*
X110000D02*
D03*
X120000D02*
D03*
X130000D02*
D03*
X140000D02*
D03*
X150000D02*
D03*
X160000D02*
D03*
X170000D02*
D03*
X180000D02*
D03*
X190000D02*
D03*
X200000D02*
D03*
X210000D02*
D03*
X220000D02*
D03*
X21035Y60000D02*
D03*
X31035D02*
D03*
X41035D02*
D03*
X51035D02*
D03*
X61035D02*
D03*
X71035D02*
D03*
X11035Y90000D02*
D03*
X21035D02*
D03*
X31035D02*
D03*
X41035D02*
D03*
X51035D02*
D03*
X61035D02*
D03*
X71035D02*
D03*
X100000Y275000D02*
D03*
X110000D02*
D03*
X120000D02*
D03*
X130000D02*
D03*
X140000D02*
D03*
X150000D02*
D03*
X160000D02*
D03*
X170000D02*
D03*
X180000D02*
D03*
X190000D02*
D03*
X200000D02*
D03*
X210000D02*
D03*
X220000D02*
D03*
X90000Y335000D02*
D03*
X100000D02*
D03*
X110000D02*
D03*
X120000D02*
D03*
X130000D02*
D03*
X140000D02*
D03*
X150000D02*
D03*
X160000D02*
D03*
X170000D02*
D03*
X180000D02*
D03*
X190000D02*
D03*
X200000D02*
D03*
X210000D02*
D03*
X220000D02*
D03*
X71000Y232000D02*
D03*
Y262000D02*
D03*
X61000D02*
D03*
X51000D02*
D03*
X41000D02*
D03*
X31000D02*
D03*
X21000D02*
D03*
X61000Y232000D02*
D03*
X51000D02*
D03*
X41000D02*
D03*
X31000D02*
D03*
X21000D02*
D03*
X11000D02*
D03*
Y262000D02*
D03*
X1000D02*
D03*
X100000Y59000D02*
D03*
X110000D02*
D03*
X120000D02*
D03*
X130000D02*
D03*
X140000D02*
D03*
X150000D02*
D03*
X160000D02*
D03*
X170000D02*
D03*
X180000D02*
D03*
X190000D02*
D03*
X200000D02*
D03*
X210000D02*
D03*
X220000D02*
D03*
X90000Y119000D02*
D03*
X100000D02*
D03*
X110000D02*
D03*
X120000D02*
D03*
X130000D02*
D03*
X140000D02*
D03*
X150000D02*
D03*
X160000D02*
D03*
X170000D02*
D03*
X180000D02*
D03*
X190000D02*
D03*
X200000D02*
D03*
X210000D02*
D03*
X220000D02*
D03*
X100000Y203000D02*
D03*
X110000D02*
D03*
X120000D02*
D03*
X130000D02*
D03*
X140000D02*
D03*
X150000D02*
D03*
X160000D02*
D03*
X170000D02*
D03*
X180000D02*
D03*
X190000D02*
D03*
X200000D02*
D03*
X210000D02*
D03*
X220000D02*
D03*
X90000Y263000D02*
D03*
X100000D02*
D03*
X110000D02*
D03*
X120000D02*
D03*
X130000D02*
D03*
X140000D02*
D03*
X150000D02*
D03*
X160000D02*
D03*
X170000D02*
D03*
X180000D02*
D03*
X190000D02*
D03*
X200000D02*
D03*
X210000D02*
D03*
X220000D02*
D03*
X71000Y189228D02*
D03*
Y219228D02*
D03*
X61000D02*
D03*
X51000D02*
D03*
X41000D02*
D03*
X31000D02*
D03*
X21000D02*
D03*
X61000Y189228D02*
D03*
X51000D02*
D03*
X41000D02*
D03*
X31000D02*
D03*
X21000D02*
D03*
X11000D02*
D03*
Y219228D02*
D03*
X1000D02*
D03*
X21000Y103000D02*
D03*
X31000D02*
D03*
X41000D02*
D03*
X51000D02*
D03*
X61000D02*
D03*
X71000D02*
D03*
X11000Y133000D02*
D03*
X21000D02*
D03*
X31000D02*
D03*
X41000D02*
D03*
X51000D02*
D03*
X61000D02*
D03*
X71000D02*
D03*
X21000Y146000D02*
D03*
X31000D02*
D03*
X41000D02*
D03*
X51000D02*
D03*
X61000D02*
D03*
X71000D02*
D03*
X11000Y176000D02*
D03*
X21000D02*
D03*
X31000D02*
D03*
X41000D02*
D03*
X51000D02*
D03*
X61000D02*
D03*
X71000D02*
D03*
D33*
X44150Y338000D02*
D03*
D34*
Y328000D02*
D03*
Y318000D02*
D03*
Y308000D02*
D03*
Y298000D02*
D03*
Y288000D02*
D03*
Y278000D02*
D03*
X74150Y338000D02*
D03*
Y328000D02*
D03*
Y318000D02*
D03*
Y308000D02*
D03*
Y298000D02*
D03*
Y288000D02*
D03*
Y278000D02*
D03*
D35*
X166000Y321000D02*
D03*
X196000D02*
D03*
X120000Y289000D02*
D03*
X166000Y308000D02*
D03*
X196000D02*
D03*
X33227Y247000D02*
D03*
X63227D02*
D03*
X100000Y300000D02*
D03*
X130000D02*
D03*
X10075Y292902D02*
D03*
X59000Y310227D02*
D03*
Y280227D02*
D03*
D36*
X31000Y275419D02*
D03*
X16216Y320150D02*
D03*
X26216D02*
D03*
X59000Y319986D02*
D03*
Y329985D02*
D03*
X23227Y246500D02*
D03*
X13227D02*
D03*
X23227Y204000D02*
D03*
X13227D02*
D03*
X34150Y161024D02*
D03*
X24150D02*
D03*
X32468Y118006D02*
D03*
X22468D02*
D03*
X40000Y75000D02*
D03*
X30000D02*
D03*
X110000Y103000D02*
D03*
X100000D02*
D03*
X110000Y175125D02*
D03*
X100000D02*
D03*
X110000Y246773D02*
D03*
X100000D02*
D03*
X110000Y318274D02*
D03*
X100000D02*
D03*
D37*
X11000Y275418D02*
D03*
D38*
X100000Y289000D02*
D03*
D39*
X11283Y341000D02*
D03*
X29000D02*
D03*
D40*
X6342Y331197D02*
D03*
X33941Y331500D02*
D03*
D41*
X32000Y289000D02*
D03*
X27000Y294000D02*
D03*
X22000Y289000D02*
D03*
Y304850D02*
D03*
X27000Y309850D02*
D03*
X32000Y304850D02*
D03*
D42*
X10075Y302902D02*
D03*
D43*
X57000Y161000D02*
D03*
X47157D02*
D03*
D44*
X97773Y41573D02*
D03*
X3700Y139800D02*
D03*
X9700Y117600D02*
D03*
X79800Y86500D02*
D03*
X103900Y34400D02*
D03*
X93900Y33600D02*
D03*
X86850Y49027D02*
D03*
X77800Y48400D02*
D03*
X72000Y39200D02*
D03*
X63500Y33100D02*
D03*
X53400Y36400D02*
D03*
X38800Y35100D02*
D03*
X16700Y47400D02*
D03*
X102560Y49527D02*
D03*
X80210Y59000D02*
D03*
X64150Y271363D02*
D03*
X26000Y267743D02*
D03*
X134331Y304626D02*
D03*
X145100Y303543D02*
D03*
X154834Y302400D02*
D03*
X150247Y283538D02*
D03*
X145600Y290500D02*
D03*
X120000Y299500D02*
D03*
X111000Y300000D02*
D03*
X83137Y298000D02*
D03*
X82900Y331400D02*
D03*
D45*
X56101Y99746D02*
D03*
X22900Y269900D02*
D03*
X67850Y253000D02*
D03*
X71240Y254000D02*
D03*
X72000Y53000D02*
D03*
X144337Y210967D02*
D03*
X147441Y211504D02*
D03*
X90000Y44056D02*
D03*
X79200D02*
D03*
X63794D02*
D03*
X58808Y44000D02*
D03*
X41168Y41441D02*
D03*
X41004Y44586D02*
D03*
X81000Y53000D02*
D03*
X64184Y51083D02*
D03*
X7937Y78000D02*
D03*
Y74438D02*
D03*
X71035Y78000D02*
D03*
X74184D02*
D03*
X106850Y46559D02*
D03*
X109579Y49118D02*
D03*
X104630Y44000D02*
D03*
X108773Y41181D02*
D03*
X72095Y165764D02*
D03*
X64688Y170239D02*
D03*
X67063Y200505D02*
D03*
X54150Y199000D02*
D03*
X147773Y183000D02*
D03*
X133150Y139000D02*
D03*
X137087Y183587D02*
D03*
X54150Y208402D02*
D03*
X148078Y226922D02*
D03*
X167773Y244472D02*
D03*
X56000Y226472D02*
D03*
X105785Y226000D02*
D03*
X98250Y50142D02*
D03*
X83916Y111916D02*
D03*
X87416Y108416D02*
D03*
X55923Y244887D02*
D03*
X52000Y246606D02*
D03*
X150000Y255000D02*
D03*
X140000Y283000D02*
D03*
X29200Y48000D02*
D03*
X36134Y322377D02*
D03*
X214832Y44145D02*
D03*
X214863Y48147D02*
D03*
X215000Y41000D02*
D03*
D46*
X61063Y193264D02*
D03*
X60937Y198735D02*
D03*
X21000Y86001D02*
D03*
X21126Y80530D02*
D03*
X51098Y64265D02*
D03*
X50972Y69735D02*
D03*
X50972Y85735D02*
D03*
X51098Y80265D02*
D03*
X21098Y64265D02*
D03*
X20972Y69735D02*
D03*
X76885Y203063D02*
D03*
X71414Y202937D02*
D03*
X1063Y150265D02*
D03*
X937Y155736D02*
D03*
X11063Y150265D02*
D03*
X10937Y155736D02*
D03*
X59000Y345000D02*
D03*
X103528Y162378D02*
D03*
X36808Y125901D02*
D03*
X78000Y163205D02*
D03*
Y177000D02*
D03*
X9200Y34000D02*
D03*
X219600Y35404D02*
D03*
M02*
