M48
;Layer_Color=9474304
;FILE_FORMAT=2:5
INCH,TZ
;TYPE=PLATED
T1F00S00C0.01181
T2F00S00C0.01968
T3F00S00C0.03150
T4F00S00C0.03543
T5F00S00C0.03937
T6F00S00C0.05118
%
T01
X215000Y41000
X214832Y44145
X214863Y48147
X109579Y49118
X106850Y46559
X104630Y44000
X108773Y41181
X97773Y41573
X98250Y50142
X102560Y49527
X86850Y49027
X90000Y44056
X79200
X77800Y48400
X81000Y53000
X80210Y59000
X72000Y53000
X64184Y51083
X63794Y44056
X58808Y44000
X53400Y36400
X63500Y33100
X72000Y39200
X93900Y33600
X103900Y34400
X38800Y35100
X41168Y41441
X41004Y44586
X29200Y48000
X16700Y47400
X7937Y74438
Y78000
X9700Y117600
X3700Y139800
X64688Y170239
X72095Y165764
X67063Y200505
X54150Y199000
Y208402
X56101Y99746
X71035Y78000
X74184
X79800Y86500
X83916Y111916
X87416Y108416
X133150Y139000
X137087Y183587
X147773Y183000
X147441Y211504
X144337Y210967
X148078Y226922
X150000Y255000
X167773Y244472
X150247Y283538
X140000Y283000
X145600Y290500
X145100Y303543
X154834Y302400
X134331Y304626
X120000Y299500
X111000Y300000
X83137Y298000
X82900Y331400
X36134Y322377
X26000Y267743
X22900Y269900
X64150Y271363
X67850Y253000
X71240Y254000
X55923Y244887
X52000Y246606
X56000Y226472
X105785Y226000
T02
X219600Y35404
X9200Y34000
X36808Y125901
X78000Y163205
Y177000
X103528Y162378
X59000Y345000
T03
X140000Y59000
X150000
X160000
X170000
X180000
X190000
X200000
X210000
X220000
X130000
X120000
X110000
X100000
X90000
X71035Y60000
X61035
X51035
X41035
X31035
X21035
X11035
Y90000
X21035
X31035
X41035
X51035
X61035
X71035
X71000Y103000
X61000
X51000
X41000
X31000
X21000
X11000
X22468Y118006
X32468
X31000Y133000
X21000
X11000
Y146000
X21000
X31000
X41000
X51000
X61000
X71000
Y133000
X61000
X51000
X41000
X47157Y161000
X57000
X61000Y176000
X51000
X41000
X31000
X21000
X11000
Y189228
X21000
X31000
X41000
X51000
X61000
X71000
Y176000
X100000Y175125
X110000
Y191000
X100000
X90000
Y203000
X100000
X110000
X120000
X130000
Y191000
X120000
Y131000
X110000
X100000
X90000
Y119000
X100000
X110000
X120000
X130000
Y131000
X110000Y103000
X100000
X40000Y75000
X30000
X34150Y161024
X24150
X23227Y204000
X13227
X11000Y219228
X21000
X31000
X41000
X51000
X61000
X71000
X1000
Y189228
X140000Y191000
X150000
X160000
X170000
X180000
X190000
X200000
X210000
X220000
Y203000
X210000
X200000
X190000
X180000
X170000
X160000
X150000
X140000
Y131000
X150000
X160000
X170000
X180000
X190000
X200000
X210000
X220000
Y119000
X210000
X200000
X190000
X180000
X170000
X160000
X150000
X140000
Y263000
X150000
X160000
X170000
X180000
X190000
X200000
X210000
X220000
Y275000
X210000
X200000
X190000
X180000
X170000
X160000
X150000
X140000
X166000Y308000
Y321000
X170000Y335000
X160000
X150000
X140000
X180000
X190000
X200000
X210000
X220000
X196000Y321000
Y308000
X130000Y300000
X120000Y289000
Y275000
X110000
X100000
X90000
Y263000
X100000
X110000
X120000
X130000
Y275000
X100000Y289000
Y300000
Y318274
X110000
Y335000
X100000
X90000
X74150Y338000
Y328000
Y318000
Y308000
Y298000
Y288000
Y278000
X59000Y280227
X44150Y278000
Y288000
Y298000
Y308000
Y318000
Y328000
Y338000
X59000Y329985
Y319986
Y310227
X27000Y309850
X22000Y304850
X32000
Y289000
X27000Y294000
X22000Y289000
X31000Y275419
Y262000
X41000
X51000
X61000
X71000
X63227Y247000
X61000Y232000
X71000
X51000
X41000
X31000
X21000
X11000
X1000
X13227Y246500
X23227
X33227Y247000
X21000Y262000
X11000
X1000
X11000Y275418
X16216Y320150
X26216
X120000Y335000
X130000
X110000Y246773
X100000
T04
X10075Y292902
Y302902
T05
X11283Y341000
X29000
T06
X6342Y331197
X33941Y331500
M30
